<?xml version="1.0" encoding="iso-8859-1"?>
<!-- Generator: Adobe Illustrator 23.0.3, SVG Export Plug-In . SVG Version: 6.00 Build 0)  -->
<svg version="1.1" id="Capa_1" xmlns="http://www.w3.org/2000/svg" xmlns:xlink="http://www.w3.org/1999/xlink" x="0px" y="0px"
	 viewBox="0 0 497 497" style="enable-background:new 0 0 497 497;" xml:space="preserve">
<g>
	<path style="fill:#FF9C86;" d="M324.871,374.402c0,0,64.232,30.645,64.232,122.598H107.897c0-91.953,64.232-122.598,64.232-122.598
		H324.871z"/>
	<path style="fill:#F86745;" d="M202.129,374.402h-30c0,0-64.232,30.645-64.232,122.598h30
		C137.897,405.047,202.129,374.402,202.129,374.402z"/>
	<path style="fill:#C94D2F;" d="M452.348,15.02c-3.376-6.551-9.505-11.242-16.71-12.791c-36.581-7.864-76.087,5.231-100.34,36.915
		c-26.695,34.874-26.827,81.707-3.671,116.274c39.413,13.328,84.588,0.975,111.283-33.899
		C467.162,89.835,469.489,48.28,452.348,15.02z"/>
	<path style="fill:#FFCFC6;" d="M425.595,43.956c-1.32-4.897-5.805-8.351-10.877-8.357c-0.028,0-0.055,0-0.083,0
		c-20.205,0-38.819,9.179-51.071,25.184c-14.153,18.488-17.02,42.834-8.31,63.745c2.747,0.357,5.525,0.536,8.319,0.536
		c0.002,0,0.002,0,0.003,0c20.202,0,38.815-9.179,51.066-25.183C426.893,83.875,430.738,63.035,425.595,43.956z"/>
	<path style="fill:#C94D2F;" d="M44.652,15.02c3.376-6.551,9.505-11.242,16.71-12.791c36.581-7.864,76.087,5.231,100.34,36.915
		c26.695,34.874,26.827,81.707,3.671,116.274c-39.413,13.328-84.588,0.975-111.283-33.899C29.838,89.835,27.511,48.28,44.652,15.02z
		"/>
	<path style="fill:#FFCFC6;" d="M71.405,43.956c1.32-4.897,5.805-8.351,10.877-8.357c0.028,0,0.056,0,0.083,0
		c20.205,0,38.819,9.179,51.071,25.184c14.153,18.488,17.02,42.834,8.31,63.745c-2.747,0.357-5.524,0.536-8.319,0.536
		c-0.002,0-0.002,0-0.003,0c-20.202,0-38.815-9.179-51.066-25.183C70.107,83.875,66.262,63.035,71.405,43.956z"/>
	<path style="fill:#F86745;" d="M450.134,194.598c0-105.742-95.892-191.463-201.634-191.463S46.866,88.856,46.866,194.598
		c0,1.671,0.022,3.337,0.065,4.998c2.724,138.312,128.28,176.264,186.545,228.518c8.573,7.689,21.476,7.689,30.049,0
		c58.265-52.253,183.821-90.206,186.545-228.518C450.112,197.935,450.134,196.269,450.134,194.598z"/>
	<path style="fill:#C94D2F;" d="M263.476,428.113c-58.265-52.253-183.821-90.206-186.545-228.518
		c-0.043-1.661-0.065-3.327-0.065-4.998C76.866,93.881,163.86,11.33,263.5,3.711c-4.972-0.38-9.975-0.576-15-0.576
		c-105.742,0-201.634,85.721-201.634,191.463c0,1.671,0.022,3.337,0.065,4.998c2.724,138.312,128.28,176.265,186.545,228.518
		c8.566,7.682,21.451,7.688,30.025,0.02C263.492,428.127,263.483,428.121,263.476,428.113z"/>
	<path style="fill:#FFCFC6;" d="M385.165,175.72c-11.235-28.178-43.129-42.039-71.421-30.969
		c-19.448,7.61-42.009,11.633-65.243,11.633c-23.232,0-45.792-4.022-65.24-11.631c-28.405-11.113-60.439,2.905-71.553,31.309
		c-11.113,28.405,2.905,60.44,31.309,71.553c8.787,3.438,17.9,6.425,27.255,8.958c6.519,1.765,10.626,8.129,9.786,14.829
		c-0.463,3.692-0.634,7.474-0.488,11.324c1.375,36.438,31.473,65.792,67.933,66.307c38.554,0.545,69.978-30.545,69.978-68.974
		c0-2.916-0.181-5.79-0.533-8.611c-0.845-6.783,3.347-13.13,9.943-14.92c9.023-2.449,17.821-5.321,26.317-8.612
		C381.717,236.872,396.488,204.118,385.165,175.72z"/>
	<g>
		<path style="fill:#423E4F;" d="M270.174,251.147c-3.124-2.721-7.86-2.396-10.582,0.727c-2.8,3.213-6.843,5.056-11.091,5.056
			s-8.292-1.843-11.092-5.056c-2.722-3.123-7.459-3.448-10.582-0.727c-3.123,2.722-3.448,7.459-0.727,10.582
			c5.65,6.483,13.814,10.201,22.4,10.201c8.585,0,16.75-3.718,22.4-10.201C273.621,258.606,273.296,253.868,270.174,251.147z"/>
		<path style="fill:#423E4F;" d="M195.361,197.462l-26.182-7.016c-3.994-1.071-8.113,1.302-9.186,5.303
			c-1.072,4.001,1.303,8.114,5.304,9.186l8.41,2.253c-0.414,0.931-0.649,1.959-0.649,3.044v11.278c0,4.142,3.358,7.5,7.5,7.5
			s7.5-3.358,7.5-7.5v-10.477l3.421,0.917c0.65,0.174,1.303,0.257,1.946,0.257c3.311,0,6.342-2.21,7.24-5.561
			C201.737,202.647,199.362,198.534,195.361,197.462z"/>
		<path style="fill:#423E4F;" d="M337.006,195.75c-1.072-4.001-5.185-6.375-9.186-5.303l-26.181,7.016
			c-4.001,1.072-6.375,5.185-5.304,9.186c0.898,3.351,3.928,5.561,7.24,5.561c0.643,0,1.296-0.083,1.946-0.257l3.421-0.917v10.477
			c0,4.142,3.358,7.5,7.5,7.5s7.5-3.358,7.5-7.5v-11.278c0-1.085-0.235-2.113-0.649-3.044l8.41-2.253
			C335.704,203.863,338.078,199.751,337.006,195.75z"/>
	</g>
	<path style="fill:#423E4F;" d="M262.511,219.751H234.49c-5.986,0-9.952,5.804-7.047,10.53c4.106,6.681,11.997,11.203,21.058,11.203
		c9.061,0,16.952-4.522,21.058-11.203C272.463,225.554,268.497,219.751,262.511,219.751z"/>
	<g>
		<path style="fill:#F86745;" d="M156.505,497v-44.88c0-4.142,3.358-7.5,7.5-7.5s7.5,3.358,7.5,7.5V497H156.505z"/>
	</g>
	<g>
		<path style="fill:#F86745;" d="M325.495,497v-44.88c0-4.142,3.358-7.5,7.5-7.5s7.5,3.358,7.5,7.5V497H325.495z"/>
	</g>
</g>
<g>
</g>
<g>
</g>
<g>
</g>
<g>
</g>
<g>
</g>
<g>
</g>
<g>
</g>
<g>
</g>
<g>
</g>
<g>
</g>
<g>
</g>
<g>
</g>
<g>
</g>
<g>
</g>
<g>
</g>
</svg>
