<?xml version="1.0" encoding="iso-8859-1"?>
<!-- Generator: Adobe Illustrator 23.0.3, SVG Export Plug-In . SVG Version: 6.00 Build 0)  -->
<svg version="1.1" id="Capa_1" xmlns="http://www.w3.org/2000/svg" xmlns:xlink="http://www.w3.org/1999/xlink" x="0px" y="0px"
	 viewBox="0 0 497 497" style="enable-background:new 0 0 497 497;" xml:space="preserve">
<g>
	<path style="fill:#5C576E;" d="M348.152,420.885c12.456,16.942,24.309,42.023,24.309,76.115H124.54
		c0-34.092,11.852-59.173,24.309-76.115H348.152z"/>
	<path style="fill:#423E4F;" d="M154.54,497c0-34.092,11.852-59.173,24.309-76.115c0,0,0,0,0,0h-30c0,0,0,0,0,0
		c-5.839,7.941-11.545,17.671-15.96,29.279c-1.472,3.87-2.8,7.948-3.942,12.238c-2.74,10.296-4.407,21.813-4.407,34.598H154.54z"/>
	<path style="fill:#DADADA;" d="M348.152,420.885c-5.396,25.061-27.685,43.845-54.371,43.845c-16.863,0-31.953-7.506-42.152-19.348
		c-1.654-1.921-4.604-1.921-6.258,0c-10.199,11.842-25.289,19.348-42.152,19.348c-26.685,0-48.974-18.784-54.371-43.845
		c13.773-18.764,28.299-27.547,28.299-27.547h142.704C319.852,393.338,334.378,402.121,348.152,420.885z"/>
	<path style="fill:#F9D171;" d="M75.729,136.84c-19.684,31.353-31.087,68.407-31.087,108.08h407.716
		c0-39.673-11.403-76.727-31.087-108.08H75.729z"/>
	<path style="fill:#FFA93F;" d="M75.729,136.84c-19.684,31.353-31.087,68.407-31.087,108.08h40
		c0-39.673,11.403-76.727,31.087-108.08H75.729z"/>
	<path style="fill:#F9D171;" d="M462.264,287.498l-9.906-42.577h-29.705l-59.049,100.472h52.689
		C446.681,345.393,469.15,317.095,462.264,287.498z"/>
	<path style="fill:#F9D171;" d="M34.736,287.498l9.906-42.577h29.705l59.049,100.472H80.707
		C50.32,345.393,27.85,317.095,34.736,287.498z"/>
	<path style="fill:#FFA93F;" d="M64.736,287.498l9.822-42.217l-0.211-0.36H44.642l-9.906,42.577
		c-6.886,29.598,15.583,57.895,45.971,57.895h30C80.32,345.393,57.85,317.095,64.736,287.498z"/>
	<circle style="fill:#FFCBBE;" cx="422.653" cy="244.921" r="45.467"/>
	<path style="fill:#B7B5BD;" d="M177.148,393.338c0,0-14.526,8.783-28.299,27.547c2.265,10.52,7.515,19.925,14.809,27.307
		c0.027-0.166,3.847-23.821,22.302-40.688c7.217-6.597,10.183-11.108,11.127-14.166H177.148z"/>
	<circle style="fill:#FFDDCF;" cx="248.5" cy="244.921" r="174.153"/>
	<path style="fill:#FFCBBE;" d="M104.347,244.92c0-91.127,69.995-165.895,159.153-173.502c-4.945-0.422-9.946-0.65-15-0.65
		c-80.607,0-148.412,54.769-168.261,129.12c-1.828-0.279-3.78-0.435-5.891-0.435c-25.111,0-45.468,20.356-45.468,45.467
		c0,25.111,20.356,45.468,45.468,45.468c2.111,0,4.064-0.156,5.891-0.435c19.849,74.351,87.654,129.12,168.261,129.12
		c5.054,0,10.055-0.228,15-0.65C174.342,410.815,104.347,336.048,104.347,244.92z"/>
	<path style="fill:#5C576E;" d="M401.027,74.016L248.5,92.523L95.973,74.016l10.238-31.775C114.321,17.071,137.739,0,164.186,0
		h168.627c26.448,0,49.865,17.071,57.975,42.241L401.027,74.016z"/>
	<path style="fill:#423E4F;" d="M125.973,74.016l10.238-31.775C144.321,17.071,167.739,0,194.186,0h-30
		c-26.448,0-49.865,17.071-57.975,42.241L95.973,74.016L248.5,92.523l15-1.82L125.973,74.016z"/>
	<polygon style="fill:#DADADA;" points="421.266,136.843 75.734,136.843 95.973,74.016 401.027,74.016 	"/>
	<polygon style="fill:#B7B5BD;" points="95.973,74.016 75.734,136.843 105.734,136.843 125.973,74.016 	"/>
	<path style="fill:#FFA93F;" d="M273.452,44.311h-49.904c-14.62,0-26.473,11.852-26.473,26.473v66.057h102.85V70.784
		C299.925,56.163,288.073,44.311,273.452,44.311z"/>
	<rect x="226.78" y="74.017" style="fill:#DADADA;" width="43.439" height="62.824"/>
	<path style="fill:#5C576E;" d="M447.002,112.615H49.998c-10.332,0-18.708,8.376-18.708,18.708v11.036
		c0,10.332,8.376,18.708,18.708,18.708h397.004c10.332,0,18.708-8.376,18.708-18.708v-11.036
		C465.71,120.991,457.334,112.615,447.002,112.615z"/>
	<path style="fill:#423E4F;" d="M61.29,142.358v-11.036c0-10.332,8.376-18.708,18.708-18.708h-30
		c-10.332,0-18.708,8.376-18.708,18.708v11.036c0,10.332,8.376,18.708,18.708,18.708h30C69.666,161.066,61.29,152.69,61.29,142.358z
		"/>
	<g>
		<ellipse style="fill:#FFA1AC;" cx="143.484" cy="267.276" rx="38.749" ry="30.858"/>
		<ellipse style="fill:#FFA1AC;" cx="353.516" cy="267.276" rx="38.749" ry="30.858"/>
	</g>
	<g>
		<path style="fill:#423E4F;" d="M166.067,245.071c-4.142,0-7.5-3.358-7.5-7.5v-15.84c0-4.142,3.358-7.5,7.5-7.5s7.5,3.358,7.5,7.5
			v15.84C173.567,241.713,170.209,245.071,166.067,245.071z"/>
	</g>
	<g>
		<path style="fill:#423E4F;" d="M330.933,245.071c-4.142,0-7.5-3.358-7.5-7.5v-15.84c0-4.142,3.358-7.5,7.5-7.5s7.5,3.358,7.5,7.5
			v15.84C338.433,241.713,335.076,245.071,330.933,245.071z"/>
	</g>
	<g>
		<path style="fill:#423E4F;" d="M248.5,254.501c-10.497,0-20.479-4.546-27.387-12.474c-2.721-3.123-2.396-7.86,0.727-10.582
			c3.123-2.721,7.86-2.396,10.582,0.727c4.059,4.657,9.919,7.328,16.079,7.328s12.021-2.671,16.08-7.329
			c2.721-3.123,7.458-3.448,10.582-0.726c3.123,2.721,3.448,7.459,0.726,10.582C268.979,249.954,258.996,254.501,248.5,254.501z"/>
	</g>
</g>
<g>
</g>
<g>
</g>
<g>
</g>
<g>
</g>
<g>
</g>
<g>
</g>
<g>
</g>
<g>
</g>
<g>
</g>
<g>
</g>
<g>
</g>
<g>
</g>
<g>
</g>
<g>
</g>
<g>
</g>
</svg>
