<?xml version="1.0" encoding="iso-8859-1"?>
<!-- Generator: Adobe Illustrator 23.0.3, SVG Export Plug-In . SVG Version: 6.00 Build 0)  -->
<svg version="1.1" id="Capa_1" xmlns="http://www.w3.org/2000/svg" xmlns:xlink="http://www.w3.org/1999/xlink" x="0px" y="0px"
	 viewBox="0 0 497 497" style="enable-background:new 0 0 497 497;" xml:space="preserve">
<g>
	<path style="fill:#DADADA;" d="M174.999,287.716L7.1,455.616c-9.466,9.466-9.466,24.815,0,34.281
		c9.467,9.467,24.815,9.467,34.281,0l167.899-167.9L174.999,287.716z"/>
	<path style="fill:#FFB25A;" d="M482.095,265.917l0.017,0.027c16.661-39.744,19.339-83.96,8.03-125.141l-110.701-125.9l0.027-0.013
		C339.72-1.776,295.501-4.445,254.317,6.864L128.434,117.511c-16.671,39.756-19.347,83.985-8.038,125.178l110.639,125.874
		c39.755,16.671,83.985,19.347,125.178,8.038L482.095,265.917z"/>
	<path style="fill:#996ACC;" d="M490.142,140.802c0,0-94.575-39.371-184.881,50.934c-15.206-126.8,74.18-176.835,74.18-176.835
		l0.027-0.013c22.307,9.345,43.208,23.106,61.372,41.27C465.197,80.516,481.636,109.797,490.142,140.802z"/>
	<path style="fill:#996ACC;" d="M254.326,6.856c0,0-39.371,94.575,50.934,184.881c-126.8,15.206-176.835-74.18-176.835-74.18
		l-0.013-0.027c9.345-22.307,23.106-43.208,41.27-61.372C194.04,31.8,223.321,15.361,254.326,6.856z"/>
	<path style="fill:#B7B5BD;" d="M132.286,330.43c5.055,6.302,10.441,12.357,16.182,18.099c5.763,5.763,11.799,11.16,18.074,16.207
		l42.738-42.738l-34.281-34.281L132.286,330.43z"/>
	<path style="fill:#996ACC;" d="M120.38,242.671c0,0,94.575,39.371,184.881-50.934c15.206,126.8-74.18,176.835-74.18,176.835
		l-0.012,0.006c-22.307-9.345-43.223-23.098-61.387-41.262C145.324,302.957,128.885,273.677,120.38,242.671z"/>
	<g>
		<path style="fill:#F88000;" d="M384.528,319.303c-18.076,12.566-37.821,21.688-58.333,27.314c0,0,0.005-0.011,0.005-0.013
			c-39.27,10.777-81.294,8.836-119.575-5.812l24.41,27.771c0.011,0.005,0.023,0.009,0.034,0.014
			c39.743,16.657,83.953,19.329,125.131,8.028h0c0.004-0.001,0.009-0.002,0.013-0.003L384.528,319.303z"/>
		<path style="fill:#F88000;" d="M482.095,265.917l0.01,0.016l0.007,0.011c9.893-23.598,14.855-48.773,14.888-73.953
			c0.022-17.228-2.264-34.459-6.858-51.188h0l-25.934-11.75c6.16,35.776,2.127,72.963-12.096,106.892l-0.017-0.027l0.013,0.027
			c-2.444,5.833-5.197,11.566-8.244,17.183L482.095,265.917z"/>
	</g>
	<path style="fill:#996ACC;" d="M356.195,376.618c0,0,39.371-94.575-50.934-184.881c126.8-15.206,176.835,74.18,176.835,74.18
		l0.013,0.027c-9.345,22.307-23.106,43.208-41.27,61.372C416.481,351.673,387.2,368.112,356.195,376.618z"/>
	<path style="fill:#6D36AB;" d="M231.069,368.577c0,0,9.28-5.19,21.346-16.466c-35.651-4.252-68.959-18.207-96.883-40.585
		C175.262,336.537,201.442,356.279,231.069,368.577z"/>
	<path style="fill:#6D36AB;" d="M453.404,232.782c-0.421,1.058-0.847,2.114-1.287,3.165l-0.017-0.027l0.013,0.027
		c-16.748,39.978-47.458,74.381-87.497,95.48c-1.032,27.316-8.343,45.015-8.413,45.185c-0.002,0.004-0.004,0.009-0.004,0.009
		c57.555-15.79,103.649-57.529,125.914-110.674l-0.013-0.027C482.1,265.92,473.202,250.026,453.404,232.782z"/>
	<path style="fill:#6D36AB;" d="M424.993,41.955c-0.003-0.002-0.006-0.004-0.008-0.007c20.653,25.752,35.017,57.276,40.06,92.415
		c15.695,2.529,25.096,6.438,25.097,6.439C479.483,101.949,456.84,67.481,424.993,41.955z"/>
</g>
<g>
</g>
<g>
</g>
<g>
</g>
<g>
</g>
<g>
</g>
<g>
</g>
<g>
</g>
<g>
</g>
<g>
</g>
<g>
</g>
<g>
</g>
<g>
</g>
<g>
</g>
<g>
</g>
<g>
</g>
</svg>
