<?xml version="1.0" encoding="iso-8859-1"?>
<!-- Generator: Adobe Illustrator 23.0.3, SVG Export Plug-In . SVG Version: 6.00 Build 0)  -->
<svg version="1.1" id="Capa_1" xmlns="http://www.w3.org/2000/svg" xmlns:xlink="http://www.w3.org/1999/xlink" x="0px" y="0px"
	 viewBox="0 0 497 497" style="enable-background:new 0 0 497 497;" xml:space="preserve">
<g>
	<path style="fill:#996ACC;" d="M10.413,121.499v285.365c0,23.748,19.252,43,43,43h390.175c23.748,0,43-19.252,43-43V121.499H10.413
		z"/>
	<path style="fill:#6D36AB;" d="M40.413,406.864V121.499h-30v285.365c0,23.748,19.252,43,43,43h30
		C59.664,449.864,40.413,430.612,40.413,406.864z"/>
	<path style="fill:#DADADA;" d="M185.851,449.864V340.596h125.299v109.267h15V340.596h160.438v-15h-90.289V223.829h51.962
		c4.143,0,7.5-3.358,7.5-7.5s-3.357-7.5-7.5-7.5H388.8c0,0-0.001,0-0.001,0s-0.001,0-0.001,0h-49.251c-4.142,0-7.5,3.358-7.5,7.5
		s3.358,7.5,7.5,7.5h41.752v101.767H256V223.829h44.357c4.142,0,7.5-3.358,7.5-7.5s-3.358-7.5-7.5-7.5h-51.856c0,0-0.001,0-0.001,0
		s-0.001,0-0.001,0h-50.125c-4.142,0-7.5,3.358-7.5,7.5s3.358,7.5,7.5,7.5H241v101.767H115.701V223.829h47.937
		c4.142,0,7.5-3.358,7.5-7.5s-3.358-7.5-7.5-7.5h-55.435c0,0-0.001,0-0.001,0s-0.001,0-0.001,0H48.74c-4.142,0-7.5,3.358-7.5,7.5
		s3.358,7.5,7.5,7.5h51.961v101.767H10.413v15h160.438v109.267H185.851z"/>
	<rect x="10.413" y="325.596" style="fill:#B7B5BD;" width="30" height="15"/>
	<path style="fill:#80E0B7;" d="M441.252,47.136H55.748C24.959,47.136,0,72.095,0,102.884v114.178
		c0,20.234,16.21,36.682,36.352,37.068c20.785,0.398,37.798-17.011,37.798-37.8v-25.458c0-18.728,15.327-34.412,34.052-34.054
		c18.146,0.347,32.749,15.165,32.749,33.394v73.899c0,20.789,17.013,38.198,37.798,37.8c20.142-0.385,36.352-16.833,36.352-37.068
		v-73.972c0-18.728,15.327-34.412,34.052-34.054c18.146,0.347,32.749,15.165,32.749,33.394v45.231
		c0,20.789,17.013,38.198,37.798,37.8c20.142-0.385,36.352-16.833,36.352-37.068v-45.303c0-18.728,15.327-34.412,34.052-34.054
		c18.146,0.347,32.749,15.165,32.749,33.394v26.118c0,20.789,17.013,38.198,37.798,37.8C480.79,253.744,497,237.296,497,217.062
		V102.884C497,72.095,472.041,47.136,441.252,47.136z"/>
	<path style="fill:#00B762;" d="M30,217.062V102.884c0-30.789,24.959-55.748,55.748-55.748h-30C24.959,47.137,0,72.096,0,102.884
		v114.178c0,20.234,16.21,36.682,36.352,37.067c5.547,0.106,10.821-1.066,15.579-3.223C39.006,245.114,30,232.142,30,217.062z"/>
	<g>
		<path style="fill:#423E4F;" d="M248.5,103.814c-10.706,0-20.887,4.637-27.933,12.722c-2.721,3.123-2.396,7.86,0.727,10.582
			c3.122,2.721,7.859,2.396,10.582-0.727c4.196-4.815,10.255-7.577,16.624-7.577s12.428,2.761,16.624,7.577
			c1.483,1.702,3.564,2.573,5.657,2.573c1.748,0,3.503-0.607,4.924-1.846c3.123-2.721,3.448-7.459,0.727-10.582
			C269.387,108.451,259.206,103.814,248.5,103.814z"/>
		<path style="fill:#423E4F;" d="M181.936,82.547l-32.563-8.725c-3.994-1.071-8.113,1.302-9.186,5.303
			c-1.072,4.001,1.302,8.113,5.304,9.186l12.848,3.442c-1.144,1.316-1.841,3.031-1.841,4.912v14.027c0,4.142,3.358,7.5,7.5,7.5
			s7.5-3.358,7.5-7.5V96.665c0-0.487-0.05-0.962-0.139-1.423l6.695,1.794c0.65,0.174,1.303,0.258,1.946,0.258
			c3.311,0,6.342-2.21,7.24-5.561C188.312,87.731,185.938,83.619,181.936,82.547z"/>
		<path style="fill:#423E4F;" d="M356.811,79.125c-1.071-4.001-5.184-6.375-9.186-5.303l-32.563,8.725
			c-4.001,1.072-6.375,5.185-5.304,9.186c0.898,3.351,3.928,5.561,7.24,5.561c0.643,0,1.296-0.083,1.946-0.258l6.695-1.793
			c-0.089,0.461-0.139,0.936-0.139,1.423v14.027c0,4.142,3.358,7.5,7.5,7.5s7.5-3.358,7.5-7.5V96.665
			c0-1.881-0.697-3.595-1.841-4.912l12.848-3.442C355.51,87.238,357.884,83.126,356.811,79.125z"/>
	</g>
</g>
<g>
</g>
<g>
</g>
<g>
</g>
<g>
</g>
<g>
</g>
<g>
</g>
<g>
</g>
<g>
</g>
<g>
</g>
<g>
</g>
<g>
</g>
<g>
</g>
<g>
</g>
<g>
</g>
<g>
</g>
</svg>
