<?xml version="1.0" encoding="iso-8859-1"?>
<!-- Generator: Adobe Illustrator 23.0.3, SVG Export Plug-In . SVG Version: 6.00 Build 0)  -->
<svg version="1.1" id="Capa_1" xmlns="http://www.w3.org/2000/svg" xmlns:xlink="http://www.w3.org/1999/xlink" x="0px" y="0px"
	 viewBox="0 0 497 497" style="enable-background:new 0 0 497 497;" xml:space="preserve">
<g>
	<path style="fill:#423E4F;" d="M348.274,402.532c17.48,17.94,36.073,47.952,36.073,94.468H265.477l13.988-47.234l12.873-35.398
		L348.274,402.532z"/>
	<path style="fill:#4F4C5E;" d="M231.523,497H112.654c0-46.515,18.593-76.528,36.073-94.468h49.886l26.924,49.064L231.523,497z"/>
	<polygon style="fill:#DADADA;" points="178.863,380.203 216.325,431.986 248.5,478.772 280.675,431.986 318.137,380.203 	"/>
	<path style="fill:#4F4C5E;" d="M318.137,380.203c0,0,14.631,6.413,30.138,22.328l-47.172,29.428L320.013,454l-54.535,43h-23.601
		l38.799-106.765L318.137,380.203z"/>
	<path style="fill:#5C576E;" d="M216.325,390.235l-37.462-10.032c0,0-14.631,6.413-30.138,22.328l47.172,29.428L176.987,454
		l54.535,43h10.353l6.624-18.228L216.325,390.235z"/>
	<path style="fill:#423E4F;" d="M142.654,497c0-46.516,18.593-76.528,36.073-94.468h0h-30h0h0
		c-24.752,25.402-36.073,58.436-36.073,94.468H142.654z"/>
	<path style="fill:#4F4C5E;" d="M148.725,402.531L148.725,402.531l19.574,12.211c3.417-4.57,6.943-8.635,10.427-12.21l-0.001-0.001
		c7.576-7.776,14.938-13.278,20.492-16.877l-0.708-0.189l-19.647-5.261C178.756,380.281,164.009,386.843,148.725,402.531z"/>
	<path style="fill:#34B6E2;" d="M442.622,160.849c0,0,16.866-10.27,31.196-17.048c7.112-3.364,15.515,0.682,17.288,8.347
		c6.826,29.501,14.991,96.538-51.775,96.538L442.622,160.849z"/>
	<circle style="fill:#A8E1F6;" cx="248.5" cy="197.53" r="197.53"/>
	<path style="fill:#34B6E2;" d="M80.97,197.53C80.97,93.484,161.415,8.229,263.5,0.564C258.548,0.191,253.547,0,248.5,0
		C151.934,0,71.566,69.297,54.379,160.873l-0.001-0.023c0,0-16.866-10.271-31.196-17.049c-7.112-3.364-15.515,0.682-17.288,8.347
		c-6.826,29.501-14.991,96.539,51.775,96.539l-0.001-0.019c22.534,84.302,99.426,146.393,190.832,146.393
		c5.047,0,10.048-0.192,15-0.563C161.415,386.832,80.97,301.577,80.97,197.53z"/>
	<g>
		<ellipse style="fill:#FFA1AC;" cx="140.791" cy="244.225" rx="39.743" ry="31.649"/>
		<ellipse style="fill:#FFA1AC;" cx="356.21" cy="244.225" rx="39.743" ry="31.649"/>
	</g>
	<g>
		<path style="fill:#423E4F;" d="M275.718,207.62c-3.124-2.721-7.862-2.396-10.582,0.727c-4.199,4.818-10.263,7.582-16.636,7.582
			c-6.374,0-12.438-2.764-16.637-7.582c-2.723-3.123-7.46-3.448-10.582-0.727c-3.122,2.722-3.448,7.459-0.727,10.582
			c7.049,8.088,17.234,12.727,27.945,12.727c10.71,0,20.896-4.639,27.944-12.727C279.166,215.079,278.84,210.342,275.718,207.62z"/>
		<path style="fill:#423E4F;" d="M181.9,184.496l-32.581-8.73c-4.003-1.072-8.114,1.302-9.186,5.303
			c-1.072,4.001,1.302,8.113,5.303,9.186l12.862,3.446c-1.146,1.317-1.845,3.033-1.845,4.917v14.035c0,4.142,3.357,7.5,7.5,7.5
			s7.5-3.358,7.5-7.5v-14.035c0-0.489-0.05-0.966-0.14-1.429l6.704,1.796c0.65,0.174,1.304,0.257,1.946,0.257
			c3.312,0,6.342-2.21,7.239-5.561C188.275,189.681,185.901,185.568,181.9,184.496z"/>
		<path style="fill:#423E4F;" d="M356.867,181.069c-1.071-4.001-5.184-6.375-9.186-5.303l-32.581,8.73
			c-4.001,1.072-6.375,5.185-5.303,9.186c0.897,3.351,3.928,5.561,7.239,5.561c0.643,0,1.296-0.083,1.946-0.257l6.704-1.796
			c-0.089,0.463-0.14,0.94-0.14,1.429v14.035c0,4.142,3.357,7.5,7.5,7.5s7.5-3.358,7.5-7.5v-14.035c0-1.883-0.699-3.6-1.845-4.917
			l12.862-3.446C355.565,189.183,357.939,185.07,356.867,181.069z"/>
	</g>
</g>
<g>
</g>
<g>
</g>
<g>
</g>
<g>
</g>
<g>
</g>
<g>
</g>
<g>
</g>
<g>
</g>
<g>
</g>
<g>
</g>
<g>
</g>
<g>
</g>
<g>
</g>
<g>
</g>
<g>
</g>
</svg>
