<?xml version="1.0" encoding="iso-8859-1"?>
<!-- Generator: Adobe Illustrator 23.0.3, SVG Export Plug-In . SVG Version: 6.00 Build 0)  -->
<svg version="1.1" id="Capa_1" xmlns="http://www.w3.org/2000/svg" xmlns:xlink="http://www.w3.org/1999/xlink" x="0px" y="0px"
	 viewBox="0 0 497 497" style="enable-background:new 0 0 497 497;" xml:space="preserve">
<g>
	<path style="fill:#FD5C6F;" d="M473.511,207.694l-48.308,48.308c-33.775,33.775-81.626,45.081-124.83,33.937
		c-15.728-4.057-32.264-3.761-47.682,1.35l-0.492,0.169c-5.28,1.751-10.349,4.022-15.144,6.763l-35.522-2.754l-2.753-35.522
		c2.742-4.795,5.013-9.864,6.763-15.144l0.26-0.78c5.055-15.25,5.456-31.624,1.476-47.204
		c-11.123-43.59,0.675-91.976,34.732-126.032l47.296-47.296c6.714-6.714,17.556-6.799,24.368-0.239
		c7.024,6.771,6.813,18.273-0.084,25.17l-47.985,47.985c-7.073,7.073-12.81,14.989-17.19,23.433
		c-19.784,38.078,30.098,74.04,60.443,43.696l60.246-60.246c6.714-6.714,17.556-6.799,24.375-0.232
		c7.017,6.764,6.806,18.266-0.091,25.163l-59.923,59.923c-30.344,30.344,5.618,80.227,43.696,60.443
		c8.444-4.38,16.36-10.117,23.433-17.19l47.985-47.985c6.897-6.897,18.399-7.108,25.17-0.084
		C480.309,190.138,480.225,200.979,473.511,207.694z"/>
	<path style="fill:#F9475E;" d="M473.75,183.325c-1.808-1.875-3.958-3.218-6.262-4.072c2.33,6.197,1.008,13.456-3.977,18.441
		l-48.308,48.308c-33.775,33.775-81.626,45.081-124.83,33.937c-15.728-4.057-32.264-3.761-47.682,1.35l-0.492,0.168
		c-5.28,1.75-10.349,4.021-15.144,6.764l-26.241-2.034l0.719,9.281l35.522,2.753c4.795-2.742,9.864-5.013,15.144-6.764l0.492-0.168
		c15.418-5.111,31.954-5.407,47.682-1.35c43.204,11.144,91.055-0.162,124.83-33.937l48.308-48.308
		C480.225,200.979,480.309,190.138,473.75,183.325z"/>
	<path style="fill:#F9475E;" d="M404.602,137.588l11.683-35.049c4.496-13.488-8.336-26.32-21.824-21.824l-35.049,11.683
		c-7.587,2.529-9.86,12.159-4.205,17.814l31.582,31.582C392.443,147.449,402.073,145.176,404.602,137.588z"/>
	<path style="fill:#F9475E;" d="M324.802,57.789l11.683-35.049c4.496-13.488-8.336-26.32-21.824-21.824l-35.049,11.683
		c-7.587,2.529-9.86,12.159-4.205,17.814l31.582,31.582C312.644,67.649,322.273,65.376,324.802,57.789z"/>
	<path style="fill:#F9475E;" d="M439.211,172.198l35.049-11.683c13.488-4.496,26.32,8.336,21.824,21.824l-11.683,35.049
		c-2.529,7.587-12.159,9.86-17.814,4.205l-31.582-31.582C429.351,184.356,431.624,174.727,439.211,172.198z"/>
	<g>
		<g>
			<path style="fill:#423E4F;" d="M231.597,195.207c-1.919,0-3.839-0.732-5.303-2.197c-2.929-2.929-2.929-7.678,0-10.607
				l7.465-7.465c2.929-2.929,7.678-2.929,10.606,0c2.929,2.929,2.929,7.678,0,10.607l-7.465,7.465
				C235.436,194.475,233.516,195.207,231.597,195.207z"/>
		</g>
		<g>
			<path style="fill:#423E4F;" d="M309.293,272.904c-1.919,0-3.839-0.732-5.303-2.197c-2.929-2.929-2.929-7.678,0-10.607
				l7.465-7.465c2.929-2.929,7.678-2.929,10.606,0c2.929,2.929,2.929,7.678,0,10.607l-7.465,7.465
				C313.132,272.171,311.212,272.904,309.293,272.904z"/>
		</g>
		<g>
			<path style="fill:#423E4F;" d="M279.585,244.121c-7.064,0-13.864-2.794-18.888-7.818c-5.458-5.458-8.285-13.012-7.755-20.725
				c0.284-4.132,3.864-7.25,7.996-6.969c4.132,0.284,7.252,3.864,6.969,7.996c-0.232,3.386,1.005,6.7,3.397,9.091
				c2.392,2.392,5.707,3.629,9.091,3.397c4.125-0.282,7.712,2.836,7.996,6.969c0.284,4.132-2.836,7.713-6.969,7.996
				C280.809,244.1,280.196,244.121,279.585,244.121z"/>
		</g>
	</g>
	<path style="fill:#5C576E;" d="M237.054,298.221c-6.363,3.635-12.233,8.113-17.45,13.33L41.235,489.92
		c-9.435,9.435-24.727,9.442-34.162,0.007S-2.355,465.2,7.08,455.765l178.369-178.369c5.217-5.217,9.695-11.087,13.33-17.45
		L237.054,298.221z"/>
	<path style="fill:#423E4F;" d="M227.054,288.221c-6.363,3.635-12.234,8.113-17.45,13.33L31.235,479.92
		c-7.695,7.695-19.283,9.114-28.415,4.26c1.098,2.065,2.512,4.007,4.252,5.748c9.435,9.435,24.727,9.428,34.162-0.007
		l178.369-178.369c5.217-5.217,11.088-9.695,17.45-13.33L227.054,288.221z"/>
</g>
<g>
</g>
<g>
</g>
<g>
</g>
<g>
</g>
<g>
</g>
<g>
</g>
<g>
</g>
<g>
</g>
<g>
</g>
<g>
</g>
<g>
</g>
<g>
</g>
<g>
</g>
<g>
</g>
<g>
</g>
</svg>
