<?xml version="1.0" encoding="iso-8859-1"?>
<!-- Generator: Adobe Illustrator 23.0.3, SVG Export Plug-In . SVG Version: 6.00 Build 0)  -->
<svg version="1.1" id="Capa_1" xmlns="http://www.w3.org/2000/svg" xmlns:xlink="http://www.w3.org/1999/xlink" x="0px" y="0px"
	 viewBox="0 0 504.502 504.502" style="enable-background:new 0 0 504.502 504.502;" xml:space="preserve">
<g>
	<g>
		<path style="fill:#DADADA;" d="M131.186,504.502c-3.332,0-6.373-2.236-7.252-5.61c-9.042-34.688-4.377-49.569-0.261-62.698
			c3.677-11.728,6.852-21.856,0.256-47.403c-1.036-4.011,1.376-8.101,5.387-9.137c4.008-1.035,8.101,1.376,9.137,5.387
			c7.667,29.695,3.532,42.885-0.467,55.64c-3.854,12.293-7.494,23.904,0.462,54.427c1.045,4.008-1.357,8.104-5.366,9.149
			C132.449,504.423,131.812,504.502,131.186,504.502z"/>
	</g>
	<g>
		<path style="fill:#DADADA;" d="M373.305,437.478c-3.332,0-6.373-2.236-7.252-5.61c-9.043-34.688-4.377-49.569-0.261-62.699
			c3.677-11.728,6.853-21.856,0.257-47.402c-1.036-4.011,1.376-8.101,5.387-9.137c4.012-1.036,8.101,1.376,9.137,5.387
			c7.667,29.695,3.532,42.885-0.467,55.64c-3.854,12.293-7.494,23.903,0.463,54.427c1.045,4.008-1.357,8.105-5.365,9.149
			C374.568,437.399,373.931,437.478,373.305,437.478z"/>
	</g>
	<path style="fill:#B7B5BD;" d="M129.316,379.654c-4.011,1.036-6.422,5.126-5.387,9.137c5.687,22.028,4.108,32.592,1.209,42.603
		h15.535c2.602-10.591,3.643-23.644-2.221-46.353C137.417,381.03,133.324,378.619,129.316,379.654z"/>
	<path style="fill:#FFB25A;" d="M146.121,367.438l10.921,12.046c4.895,5.4,5.552,13.415,1.6,19.54h0
		c-2.964,4.594-8.058,7.369-13.525,7.369h-27.85c-5.467,0-10.561-2.775-13.525-7.369h0c-3.952-6.124-3.296-14.14,1.6-19.54
		l10.921-12.046H146.121z"/>
	<path style="fill:#B7B5BD;" d="M371.435,312.631c-4.011,1.036-6.422,5.126-5.387,9.137c5.687,22.028,4.108,32.592,1.208,42.603
		h15.535c2.602-10.591,3.643-23.644-2.22-46.353C379.536,314.007,375.447,311.595,371.435,312.631z"/>
	<path style="fill:#996ACC;" d="M388.24,300.415l10.921,12.046c4.896,5.4,5.552,13.415,1.6,19.54h0
		c-2.964,4.594-8.058,7.369-13.525,7.369h-27.85c-5.467,0-10.561-2.775-13.525-7.369l0,0c-3.952-6.124-3.296-14.14,1.6-19.54
		l10.921-12.046H388.24z"/>
	<path style="fill:#996ACC;" d="M500.715,127.405C500.715,57.041,443.674,0,373.31,0S245.906,57.041,245.906,127.405
		c0,6.606,0.503,13.095,1.473,19.431c3.893,33.805,18.043,103.313,69.349,139.719c33.951,24.091,79.215,24.091,113.166,0
		c51.307-36.406,65.457-105.915,69.349-139.719C500.212,140.5,500.715,134.011,500.715,127.405z"/>
	<path style="fill:#6D36AB;" d="M346.728,286.555c-51.306-36.406-65.456-105.915-69.349-139.719
		c-0.969-6.335-1.473-12.824-1.473-19.431c0-65.288,49.111-119.097,112.405-126.521C383.39,0.306,378.386,0,373.31,0
		c-70.364,0-127.405,57.041-127.405,127.405c0,6.606,0.503,13.095,1.473,19.431c3.893,33.805,18.043,103.313,69.349,139.719
		c21.275,15.096,46.991,20.729,71.583,16.906C373.658,301.182,359.404,295.549,346.728,286.555z"/>
	<path style="fill:#FFB25A;" d="M258.596,194.428c0-70.364-57.041-127.405-127.405-127.405S3.787,124.064,3.787,194.428
		c0,6.606,0.503,13.095,1.473,19.431c3.893,33.805,18.043,103.313,69.349,139.719c33.951,24.091,79.215,24.091,113.166,0
		c51.307-36.406,65.457-105.915,69.349-139.719C258.093,207.523,258.596,201.035,258.596,194.428z"/>
	<path style="fill:#F88000;" d="M104.608,353.578c-51.306-36.406-65.456-105.915-69.349-139.719
		c-0.969-6.335-1.473-12.825-1.473-19.431c0-65.288,49.111-119.097,112.405-126.521c-4.921-0.578-9.924-0.883-15-0.883
		c-70.364,0-127.405,57.041-127.405,127.404c0,6.606,0.503,13.096,1.473,19.431c3.893,33.804,18.043,103.313,69.349,139.719
		c21.275,15.096,46.991,20.729,71.583,16.906C131.539,368.206,117.285,362.573,104.608,353.578z"/>
	<g>
		<g>
			<path style="fill:#423E4F;" d="M58.324,230.243c-10.348,0-19.835-6.871-22.703-17.333c-3.44-12.546,3.942-25.506,16.488-28.946
				c11.638-3.191,15.461-11.703,15.49-11.786c4.293-12.28,17.728-18.756,30.009-14.463c12.281,4.293,18.756,17.728,14.463,30.009
				c-1.134,3.243-12.099,31.966-47.505,41.674C62.482,229.97,60.386,230.243,58.324,230.243z"/>
		</g>
		<g>
			<path style="fill:#423E4F;" d="M204.058,230.243c10.348,0,19.835-6.871,22.703-17.333c3.44-12.546-3.942-25.506-16.488-28.946
				c-11.638-3.191-15.461-11.703-15.49-11.786c-4.293-12.28-17.727-18.756-30.009-14.463c-12.281,4.293-18.756,17.728-14.463,30.009
				c1.134,3.243,12.099,31.966,47.505,41.674C199.901,229.97,201.996,230.243,204.058,230.243z"/>
		</g>
	</g>
	<path style="fill:#423E4F;" d="M165.444,257.568c0,18.917-15.335,41.205-34.252,41.205s-34.252-22.288-34.252-41.205
		s15.335-20.347,34.252-20.347S165.444,238.651,165.444,257.568z"/>
	<g>
		<g>
			<path style="fill:#423E4F;" d="M300.443,163.22c-10.348,0-19.835-6.871-22.703-17.333c-3.44-12.546,3.942-25.506,16.488-28.946
				c11.638-3.191,15.461-11.703,15.49-11.786c4.293-12.28,17.728-18.756,30.009-14.463c12.281,4.293,18.756,17.728,14.463,30.009
				c-1.134,3.243-12.099,31.966-47.505,41.674C304.601,162.947,302.505,163.22,300.443,163.22z"/>
		</g>
		<g>
			<path style="fill:#423E4F;" d="M446.177,163.22c10.348,0,19.835-6.871,22.703-17.333c3.44-12.546-3.942-25.506-16.488-28.946
				c-11.638-3.191-15.461-11.703-15.49-11.786c-4.293-12.28-17.728-18.756-30.009-14.463c-12.281,4.293-18.756,17.728-14.463,30.009
				c1.134,3.243,12.099,31.966,47.505,41.674C442.02,162.947,444.115,163.22,446.177,163.22z"/>
		</g>
	</g>
	<path style="fill:#423E4F;" d="M407.563,190.545c0,18.917-15.335,41.205-34.252,41.205c-18.917,0-34.252-22.288-34.252-41.205
		s15.335-20.347,34.252-20.347C392.227,170.198,407.563,171.628,407.563,190.545z"/>
</g>
<g>
</g>
<g>
</g>
<g>
</g>
<g>
</g>
<g>
</g>
<g>
</g>
<g>
</g>
<g>
</g>
<g>
</g>
<g>
</g>
<g>
</g>
<g>
</g>
<g>
</g>
<g>
</g>
<g>
</g>
</svg>
