<?xml version="1.0" encoding="iso-8859-1"?>
<!-- Generator: Adobe Illustrator 23.0.3, SVG Export Plug-In . SVG Version: 6.00 Build 0)  -->
<svg version="1.1" id="Capa_1" xmlns="http://www.w3.org/2000/svg" xmlns:xlink="http://www.w3.org/1999/xlink" x="0px" y="0px"
	 viewBox="0 0 497 497" style="enable-background:new 0 0 497 497;" xml:space="preserve">
<g>
	<path style="fill:#FFB25A;" d="M180.927,119.115l55.83,121.849c4.604,10.048,18.882,10.048,23.486,0l55.83-121.849H180.927z"/>
	<path style="fill:#996ACC;" d="M23.92,73.422l18.45,132.754c1.522,10.948,15.196,15.052,22.495,6.751l88.497-100.66L23.92,73.422z"
		/>
	<path style="fill:#996ACC;" d="M473.08,73.422l-18.45,132.754c-1.522,10.948-15.196,15.052-22.495,6.751l-88.497-100.66
		L473.08,73.422z"/>
	<path style="fill:#996ACC;" d="M180.927,333.999l55.83,121.849c4.604,10.048,18.882,10.048,23.486,0l55.83-121.849H180.927z"/>
	<path style="fill:#FFB25A;" d="M23.92,288.306l18.45,132.754c1.522,10.948,15.196,15.052,22.495,6.751l88.497-100.66L23.92,288.306
		z"/>
	<path style="fill:#FFB25A;" d="M473.08,288.306l-18.45,132.754c-1.522,10.948-15.196,15.052-22.495,6.751l-88.497-100.66
		L473.08,288.306z"/>
	<path style="fill:#6D36AB;" d="M473.08,73.422l-129.442,38.845l33.511,38.117c32.235-7.046,62.352-16.763,89.256-28.939
		L473.08,73.422z"/>
	<path style="fill:#F88000;" d="M473.08,288.306l-129.442,38.845l33.511,38.117c32.235-7.046,62.352-16.763,89.256-28.939
		L473.08,288.306z"/>
	<path style="fill:#F88000;" d="M296.406,162.038l19.667-42.923H180.928l19.667,42.923c15.746,1.182,31.747,1.784,47.906,1.784
		S280.66,163.22,296.406,162.038z"/>
	<path style="fill:#6D36AB;" d="M296.406,376.922l19.667-42.923H180.928l19.667,42.923c15.746,1.182,31.747,1.784,47.906,1.784
		C264.658,378.706,280.66,378.104,296.406,376.922z"/>
	<path style="fill:#6D36AB;" d="M30.594,121.445c26.905,12.176,57.021,21.893,89.256,28.939l33.511-38.117L23.92,73.422
		L30.594,121.445z"/>
	<path style="fill:#F88000;" d="M30.594,336.329c26.905,12.176,57.021,21.893,89.257,28.939l33.511-38.117L23.92,288.306
		L30.594,336.329z"/>
	<path style="fill:#423E4F;" d="M497,33.616c-12.078,10.518-27.032,20.257-44.686,29.08C398.116,89.783,325.733,104.7,248.5,104.7
		c-77.234,0-149.616-14.917-203.814-42.004C27.032,53.873,12.078,44.134,0,33.616v36.671c9.553,6.518,20.122,12.688,31.668,18.459
		c58.161,29.068,135.167,45.076,216.832,45.076s158.671-16.008,216.833-45.076c11.546-5.77,22.115-11.941,31.667-18.459V33.616z"/>
	<path style="fill:#423E4F;" d="M497,248.5c-12.078,10.518-27.032,20.257-44.686,29.08c-54.197,27.087-126.58,42.004-203.814,42.004
		c-77.234,0-149.616-14.917-203.814-42.004C27.032,268.757,12.078,259.018,0,248.5v36.671c9.553,6.518,20.122,12.688,31.668,18.459
		c58.161,29.068,135.167,45.076,216.832,45.076s158.671-16.008,216.833-45.076c11.546-5.77,22.115-11.941,31.667-18.459V248.5z"/>
</g>
<g>
</g>
<g>
</g>
<g>
</g>
<g>
</g>
<g>
</g>
<g>
</g>
<g>
</g>
<g>
</g>
<g>
</g>
<g>
</g>
<g>
</g>
<g>
</g>
<g>
</g>
<g>
</g>
<g>
</g>
</svg>
