<?xml version="1.0" encoding="iso-8859-1"?>
<!-- Generator: Adobe Illustrator 23.0.3, SVG Export Plug-In . SVG Version: 6.00 Build 0)  -->
<svg version="1.1" id="Capa_1" xmlns="http://www.w3.org/2000/svg" xmlns:xlink="http://www.w3.org/1999/xlink" x="0px" y="0px"
	 viewBox="0 0 497 497" style="enable-background:new 0 0 497 497;" xml:space="preserve">
<g>
	<path style="fill:#5C576E;" d="M248.393,0C131.181,0.058,35.29,97.842,35.29,215.054v135.703
		c0,62.408,50.591,112.999,112.999,112.999h200.422c62.408,0,112.999-50.591,112.999-112.999V213.21
		C461.71,95.61,366.006-0.058,248.393,0z"/>
	<path style="fill:#423E4F;" d="M65.29,350.756V215.054c0-112.245,87.942-206.661,198.329-214.512
		C258.588,0.188,253.513-0.002,248.393,0C131.181,0.058,35.29,97.842,35.29,215.054v135.703
		c0,62.407,50.591,112.999,112.999,112.999h30C115.881,463.755,65.29,413.164,65.29,350.756z"/>
	<path style="fill:#FFB25A;" d="M335.884,373.112c0,0,49.719,50.171,49.719,123.888H111.397c0-73.717,49.719-123.888,49.719-123.888
		H335.884z"/>
	<path style="fill:#F88000;" d="M161.116,373.112c0,0-49.719,50.171-49.719,123.888h30c0-73.717,49.719-123.888,49.719-123.888
		H161.116z"/>
	<path style="fill:#FFDDCF;" d="M190.469,373.112c0,49.568,31.395,68.48,48.001,75.016c6.443,2.536,13.618,2.536,20.06,0
		c16.606-6.536,48.001-25.448,48.001-75.016H190.469z"/>
	<path style="fill:#FFDDCF;" d="M257.793,162.282c-3.586-8.01-15-8.01-18.586,0c-41.177,91.983-97.024,34.537-134.339,163.024
		c33.346,42.666,85.284,70.098,143.631,70.098c58.348,0,110.286-27.432,143.632-70.098
		C354.817,196.819,298.97,254.265,257.793,162.282z"/>
	<path style="fill:#FFCBBE;" d="M113.774,298.856c-3.068,7.823-6.042,16.586-8.906,26.449
		c33.346,42.666,85.283,70.098,143.631,70.098c6.009,0,11.945-0.307,17.804-0.875C214.142,387.402,148.42,337.717,113.774,298.856z"
		/>
	<path style="fill:#5C576E;" d="M248.5,296.614c12.811,0,24.22,8.696,31.396-6.139c7.279-15.048-9.023-37.378-31.396-37.378
		c-22.373,0-38.675,22.33-31.396,37.378C224.279,305.31,235.688,296.614,248.5,296.614z"/>
	<path style="fill:#FD5C6F;" d="M258.713,290.242L258.713,290.242c-6.546-2.674-13.88-2.674-20.426,0l0,0
		c-4.335,1.771-7.167,5.988-7.167,10.67v18.633c0,9.599,7.781,17.38,17.38,17.38l0,0c9.599,0,17.38-7.781,17.38-17.38v-18.633
		C265.88,296.23,263.047,292.013,258.713,290.242z"/>
	<path style="fill:#F88000;" d="M175.269,497v-42.399c0-4.142-3.358-7.5-7.5-7.5s-7.5,3.358-7.5,7.5V497H175.269z"/>
	<path style="fill:#F88000;" d="M336.73,497v-42.399c0-4.142-3.357-7.5-7.5-7.5s-7.5,3.358-7.5,7.5V497H336.73z"/>
</g>
<g>
</g>
<g>
</g>
<g>
</g>
<g>
</g>
<g>
</g>
<g>
</g>
<g>
</g>
<g>
</g>
<g>
</g>
<g>
</g>
<g>
</g>
<g>
</g>
<g>
</g>
<g>
</g>
<g>
</g>
</svg>
