<?xml version="1.0" encoding="iso-8859-1"?>
<!-- Generator: Adobe Illustrator 23.0.3, SVG Export Plug-In . SVG Version: 6.00 Build 0)  -->
<svg version="1.1" id="Capa_1" xmlns="http://www.w3.org/2000/svg" xmlns:xlink="http://www.w3.org/1999/xlink" x="0px" y="0px"
	 viewBox="0 0 497 497" style="enable-background:new 0 0 497 497;" xml:space="preserve">
<g>
	<path style="fill:#5C576E;" d="M17.756,439.53c-13.147,13.147-13.147,34.463,0,47.61l0,0c13.147,13.147,34.463,13.147,47.61,0
		l63.321-63.321l-6.068-41.542l-41.542-6.068L17.756,439.53z"/>
	<path style="fill:#C8C6CC;" d="M115,342.286L81.077,376.21l62.995,62.995c7.632,7.632,20.007,7.632,27.639,0l18.879-18.879
		l-17.895-58.92L115,342.286z"/>
	<path style="fill:#A29DAE;" d="M172.695,361.406l-15.484-5.131l13.379,44.051l-18.879,18.879c-7.632,7.632-20.006,7.632-27.639,0
		l20,20c7.632,7.632,20.007,7.632,27.639,0l18.879-18.879L172.695,361.406z"/>
	<path style="fill:#C8C6CC;" d="M440.966,169.95l16.32-16.32c42.424-42.424,42.424-111.206,0-153.63l0,0l-94.36,94.36l17.189,54.692
		L440.966,169.95z"/>
	<path style="fill:#A29DAE;" d="M457.286,0L457.286,0l-2.636,2.635c23.923,41.527,18.14,95.49-17.364,130.994l-16.32,16.32
		l-45.478-15.618l4.626,14.721l60.851,20.897l16.32-16.32C499.71,111.206,499.71,42.424,457.286,0z"/>
	<g>
		<path style="fill:#996ACC;" d="M440.966,206.675c-10.141,10.141-26.584,10.141-36.725,0l-59.342-59.342
			c-48.778-48.778-128.147-48.778-176.926,0s-48.779,128.147,0,176.926l59.342,59.342c10.141,10.141,10.141,26.584,0,36.725
			c-10.141,10.141-26.584,10.141-36.725,0l-59.342-59.342c-69.029-69.029-69.029-181.347,0-250.376s181.347-69.029,250.376,0
			l59.342,59.342C451.107,180.091,451.107,196.534,440.966,206.675z"/>
	</g>
	<circle style="fill:#C8C6CC;" cx="82.206" cy="422.689" r="10.151"/>
	<circle style="fill:#C8C6CC;" cx="53.501" cy="451.395" r="10.151"/>
</g>
<g>
</g>
<g>
</g>
<g>
</g>
<g>
</g>
<g>
</g>
<g>
</g>
<g>
</g>
<g>
</g>
<g>
</g>
<g>
</g>
<g>
</g>
<g>
</g>
<g>
</g>
<g>
</g>
<g>
</g>
</svg>
