<?xml version="1.0" encoding="iso-8859-1"?>
<!-- Generator: Adobe Illustrator 23.0.3, SVG Export Plug-In . SVG Version: 6.00 Build 0)  -->
<svg version="1.1" id="Capa_1" xmlns="http://www.w3.org/2000/svg" xmlns:xlink="http://www.w3.org/1999/xlink" x="0px" y="0px"
	 viewBox="0 0 497 497" style="enable-background:new 0 0 497 497;" xml:space="preserve">
<g>
	<path style="fill:#F9D171;" d="M380.053,225.388c-41.649,0-75.412,64.586-75.412,106.235s33.763,75.412,75.412,75.412
		s75.412-33.763,75.412-75.412S421.701,225.388,380.053,225.388z M380.053,371.074c-21.754,0-39.451-17.697-39.451-39.451
		c0-11.78,5.08-31.615,16.428-49.371c9.802-15.336,19.139-20.904,23.023-20.904s13.221,5.568,23.023,20.904
		c11.348,17.756,16.428,37.591,16.428,49.371C419.504,353.377,401.807,371.074,380.053,371.074z"/>
	<path style="fill:#FFA93F;" d="M380.053,225.387c-27.475,0-51.515,28.108-64.698,59.195c7.983,5.93,17.862,9.444,28.548,9.444
		h6.618c1.887-3.954,4.041-7.913,6.509-11.775c9.802-15.336,19.139-20.904,23.023-20.904s13.221,5.567,23.023,20.904
		c2.468,3.862,4.622,7.821,6.509,11.775h6.618c10.686,0,20.565-3.515,28.548-9.444C431.568,253.495,407.528,225.387,380.053,225.387
		z"/>
	<path style="fill:#F9D171;" d="M416.203,264.026h-72.3c-9.93,0-17.98-8.05-17.98-17.98s8.05-17.98,17.98-17.98l36.15-17.98
		l36.15,17.98c9.93,0,17.98,8.05,17.98,17.98S426.133,264.026,416.203,264.026z"/>
	<g>
		<rect x="362.432" y="110.653" style="fill:#F9D171;" width="35.96" height="95.722"/>
	</g>
	<g>
		
			<rect x="59.984" y="164.679" transform="matrix(0.7071 -0.7071 0.7071 0.7071 -83.4346 169.0265)" style="fill:#F9D171;" width="204.663" height="41.097"/>
	</g>
	<rect x="362.432" y="110.653" style="fill:#FFA93F;" width="35.96" height="50.749"/>
	<polygon style="fill:#FFA93F;" points="157.082,161.401 215.202,161.401 249.205,127.399 220.145,98.338 	"/>
	<path style="fill:#C94D2F;" d="M497,107.731V72.477c0-13.073-10.597-23.67-23.67-23.67H14.322C6.412,48.807,0,55.219,0,63.129
		v53.95c0,7.91,6.412,14.322,14.322,14.322H473.33C486.403,131.401,497,120.804,497,107.731z"/>
	<g>
		<path style="fill:#FFA93F;" d="M416.203,228.066h-72.3c-9.93,0-17.98-8.05-17.98-17.98c0-9.93,8.05-17.98,17.98-17.98h72.3
			c9.93,0,17.98,8.05,17.98,17.98C434.183,220.016,426.133,228.066,416.203,228.066z"/>
	</g>
	<g>
		<path style="fill:#423E4F;" d="M309.917,92.192c-3.124-2.721-7.86-2.396-10.582,0.728c-3.377,3.875-8.253,6.098-13.378,6.098
			s-10.001-2.223-13.379-6.099c-2.721-3.123-7.459-3.448-10.582-0.727c-3.123,2.721-3.448,7.459-0.727,10.582
			c6.227,7.146,15.225,11.244,24.688,11.244s18.46-4.098,24.687-11.244C313.365,99.651,313.04,94.913,309.917,92.192z"/>
		<path style="fill:#423E4F;" d="M229.372,72.214l-27.82-7.454c-3.996-1.071-8.113,1.302-9.186,5.304
			c-1.072,4.001,1.303,8.113,5.304,9.186l9.483,2.541c-0.566,1.055-0.889,2.26-0.889,3.542v11.983c0,4.142,3.358,7.5,7.5,7.5
			s7.5-3.358,7.5-7.5V85.571l4.226,1.132c0.65,0.174,1.303,0.257,1.946,0.257c3.311,0,6.342-2.21,7.24-5.561
			C235.748,77.399,233.373,73.286,229.372,72.214z"/>
		<path style="fill:#423E4F;" d="M379.546,70.064c-1.072-4.001-5.186-6.375-9.186-5.304l-27.819,7.455
			c-4.001,1.072-6.375,5.185-5.304,9.186c0.898,3.351,3.928,5.561,7.24,5.561c0.643,0,1.296-0.083,1.946-0.257l4.226-1.132v11.744
			c0,4.142,3.358,7.5,7.5,7.5s7.5-3.358,7.5-7.5V85.331c0-1.281-0.323-2.486-0.889-3.542l9.482-2.541
			C378.244,78.177,380.618,74.065,379.546,70.064z"/>
	</g>
	<path style="fill:#F86745;" d="M109.927,0H74.674c-13.073,0-23.67,10.597-23.67,23.67V497h82.594V23.67
		C133.597,10.597,123,0,109.927,0z"/>
</g>
<g>
</g>
<g>
</g>
<g>
</g>
<g>
</g>
<g>
</g>
<g>
</g>
<g>
</g>
<g>
</g>
<g>
</g>
<g>
</g>
<g>
</g>
<g>
</g>
<g>
</g>
<g>
</g>
<g>
</g>
</svg>
