<?xml version="1.0" encoding="iso-8859-1"?>
<!-- Generator: Adobe Illustrator 23.0.3, SVG Export Plug-In . SVG Version: 6.00 Build 0)  -->
<svg version="1.1" id="Capa_1" xmlns="http://www.w3.org/2000/svg" xmlns:xlink="http://www.w3.org/1999/xlink" x="0px" y="0px"
	 viewBox="0 0 497.137 497.137" style="enable-background:new 0 0 497.137 497.137;" xml:space="preserve">
<g>
	<path style="fill:#FFB25A;" d="M180.106,276.424L8.396,448.133c-11.195,11.195-11.195,29.345,0,40.539
		c11.195,11.195,29.345,11.195,40.539,0l171.71-171.71L180.106,276.424z"/>
	<path style="fill:#F88000;" d="M180.106,276.423l-46.31,46.31c0.974,0.76,1.959,1.511,2.955,2.254
		c13.842,10.325,25.843,22.873,36.293,36.621c0.426,0.561,0.863,1.107,1.295,1.661l46.306-46.306L180.106,276.423z"/>
	<path style="fill:#F9475E;" d="M404.682,339.56L164.002,98.88l-45.589,15.45c-30.521,70.808-23.488,156.308,55.632,198.895
		c4.153,2.236,7.561,5.644,9.797,9.797c42.587,79.12,128.088,86.153,198.895,55.632L404.682,339.56z"/>
	<g>
		<path style="fill:#80E0B7;" d="M351.281,120.118c2.311-2.88,57.356-70.324,121.771-52.981
			c9.738,2.621,15.506,12.642,12.884,22.379c-2.622,9.738-12.641,15.506-22.379,12.884c-40.972-11.031-83.382,40.061-83.799,40.58
			L351.281,120.118z"/>
	</g>
	<path style="fill:#00B762;" d="M452.835,100.866c-6.572-3.865-13.083-7.161-19.302-9.939c-8.763-3.914-16.243-10.042-21.79-17.7
		c-34.701,15.286-58.944,45-60.461,46.891l28.478,22.862C380.139,142.506,415.508,99.905,452.835,100.866z"/>
	<path style="fill:#F86745;" d="M382.738,378.655c-0.694-0.812-1.424-1.601-2.184-2.361c-5.659-5.659-12.941-9.68-21.116-11.362
		s-15.457-5.703-21.108-11.355c-5.659-5.659-9.687-12.948-11.362-21.116c-1.675-8.168-5.703-15.457-11.362-21.116
		c-5.652-5.652-12.934-9.673-21.108-11.355c-8.175-1.682-15.457-5.703-21.108-11.355c-5.659-5.659-9.687-12.948-11.362-21.116
		s-5.703-15.457-11.362-21.116c-5.659-5.659-12.948-9.687-21.116-11.362c-8.167-1.675-15.457-5.703-21.116-11.362
		c-5.652-5.652-9.673-12.934-11.355-21.108c-1.682-8.175-5.703-15.457-11.355-21.108c-5.659-5.659-12.948-9.687-21.116-11.362
		c-8.167-1.675-15.457-5.703-21.116-11.362c-5.652-5.652-9.673-12.934-11.355-21.108c-1.896-9.274-6.832-17.397-13.723-23.3
		C142.318,58.833,189.294,12.374,242.711,2.679c96.372-17.486,131.867,57.379,142.654,90.226c2.914,8.89,9.909,15.885,18.799,18.799
		c32.847,10.787,107.711,46.282,90.226,142.654C484.694,307.775,438.235,354.75,382.738,378.655z"/>
	<path style="fill:#F9475E;" d="M404.682,339.56L164.002,98.88l-45.589,15.45c-30.521,70.808-23.488,156.308,55.632,198.895
		c4.153,2.236,7.561,5.644,9.797,9.797c42.587,79.12,128.088,86.153,198.895,55.632L404.682,339.56z"/>
	<path style="fill:#E92740;" d="M362.738,358.655c-54.449,23.47-117.583,24.725-163.215-11.921c0.035,0.043,0.071,0.085,0.107,0.129
		c1.274,1.571,2.571,3.096,3.889,4.584c19.442,21.968,45.964,36.451,74.797,41.616c34.047,6.1,69.526,0.018,101.254-13.073
		c1.059-0.437,2.116-0.881,3.169-1.335l-2.295-3.932L362.738,358.655z"/>
	<path style="fill:#F86745;" d="M382.738,378.655c-0.694-0.812-1.424-1.601-2.184-2.361c-5.659-5.659-12.941-9.68-21.116-11.362
		s-15.457-5.703-21.108-11.355c-5.659-5.659-9.687-12.948-11.362-21.116c-1.675-8.168-5.703-15.457-11.362-21.116
		c-5.652-5.652-12.934-9.673-21.108-11.355c-8.175-1.682-15.457-5.703-21.108-11.355c-5.659-5.659-9.687-12.948-11.362-21.116
		s-5.703-15.457-11.362-21.116c-5.659-5.659-12.948-9.687-21.116-11.362c-8.167-1.675-15.457-5.703-21.116-11.362
		c-5.652-5.652-9.673-12.934-11.355-21.108c-1.682-8.175-5.703-15.457-11.355-21.108c-5.659-5.659-12.948-9.687-21.116-11.362
		c-8.167-1.675-15.457-5.703-21.116-11.362c-5.652-5.652-9.673-12.934-11.355-21.108c-1.896-9.274-6.832-17.397-13.723-23.3
		C142.318,58.833,189.294,12.374,242.711,2.679c96.372-17.486,131.867,57.379,142.654,90.226c2.914,8.89,9.909,15.885,18.799,18.799
		c32.847,10.787,107.711,46.282,90.226,142.654C484.694,307.775,438.235,354.75,382.738,378.655z"/>
	<g>
		
			<ellipse transform="matrix(0.7071 -0.7071 0.7071 0.7071 -25.1603 188.2306)" style="fill:#FFA1AC;" cx="214.633" cy="124.486" rx="32.818" ry="41.21"/>
		
			<ellipse transform="matrix(0.7071 -0.7071 0.7071 0.7071 -90.5856 346.1767)" style="fill:#FFA1AC;" cx="372.582" cy="282.436" rx="32.818" ry="41.21"/>
	</g>
	<g>
		<path style="fill:#423E4F;" d="M253.954,126.63c-1.919,0-3.839-0.732-5.303-2.197c-2.929-2.929-2.929-7.678,0-10.607
			l11.912-11.912c2.929-2.929,7.678-2.929,10.606,0c2.929,2.929,2.929,7.678,0,10.607l-11.912,11.912
			C257.793,125.898,255.874,126.63,253.954,126.63z"/>
	</g>
	<g>
		<path style="fill:#423E4F;" d="M377.938,250.614c-1.919,0-3.839-0.732-5.303-2.197c-2.929-2.929-2.929-7.678,0-10.607
			l11.912-11.912c2.929-2.929,7.678-2.929,10.606,0c2.929,2.929,2.929,7.678,0,10.607l-11.912,11.912
			C381.777,249.882,379.858,250.614,377.938,250.614z"/>
	</g>
	<g>
		<path style="fill:#423E4F;" d="M330.533,204.684c-10.093,0-19.806-3.991-26.981-11.167c-7.796-7.796-11.834-18.587-11.078-29.606
			c0.284-4.132,3.87-7.251,7.996-6.969c4.132,0.284,7.252,3.864,6.969,7.996c-0.459,6.692,1.99,13.243,6.719,17.972
			c4.729,4.73,11.276,7.178,17.973,6.719c4.134-0.281,7.712,2.836,7.996,6.969c0.284,4.132-2.836,7.712-6.969,7.996
			C332.281,204.654,331.406,204.684,330.533,204.684z"/>
	</g>
	<path style="fill:#C94D2F;" d="M454.267,138.122c17.21,21.998,27.97,52.982,20.122,96.236
		c-10.7,58.955-64.854,107.191-121.985,128.444c2.257,0.897,4.6,1.629,7.034,2.13c9.379,1.93,17.487,6.921,23.3,13.723
		c51.097-21.927,98.523-65.762,110.636-119.309C504.075,212.035,492.233,167.916,454.267,138.122z"/>
</g>
<g>
</g>
<g>
</g>
<g>
</g>
<g>
</g>
<g>
</g>
<g>
</g>
<g>
</g>
<g>
</g>
<g>
</g>
<g>
</g>
<g>
</g>
<g>
</g>
<g>
</g>
<g>
</g>
<g>
</g>
</svg>
