<?xml version="1.0" encoding="iso-8859-1"?>
<!-- Generator: Adobe Illustrator 23.0.3, SVG Export Plug-In . SVG Version: 6.00 Build 0)  -->
<svg version="1.1" id="Capa_1" xmlns="http://www.w3.org/2000/svg" xmlns:xlink="http://www.w3.org/1999/xlink" x="0px" y="0px"
	 viewBox="0 0 497 497" style="enable-background:new 0 0 497 497;" xml:space="preserve">
<g>
	<path style="fill:#423E4F;" d="M384.214,144.146c32.313-32.313,42.653-78.252,31.068-119.313
		c-2.771-9.821-10.422-17.472-20.243-20.243c-41.06-11.585-87-1.245-119.313,31.068L384.214,144.146z"/>
	<path style="fill:#423E4F;" d="M52.072,144.146C19.759,111.833,9.419,65.894,21.005,24.834C23.776,15.013,31.427,7.361,41.248,4.59
		c41.06-11.585,87-1.245,119.313,31.068L52.072,144.146z"/>
	<g>
		<path style="fill:#4F4C5E;" d="M306.26,446.029c-7.651-0.72-14.721-5.376-18.179-12.853c-5.171-11.183-0.296-24.44,10.886-29.611
			l38.398-17.755c20.581-9.516,35.962-27.477,42.201-49.276c10.235-35.766,35.752-64.599,70.006-79.107
			c11.346-4.807,24.436,0.497,29.241,11.841c4.805,11.345-0.497,24.437-11.841,29.241c-21.781,9.225-38.005,27.559-44.513,50.3
			c-9.811,34.285-34.002,62.532-66.369,77.498l-38.398,17.755C313.986,445.774,310.051,446.385,306.26,446.029z"/>
	</g>
	<path style="fill:#423E4F;" d="M371.189,417.985c-0.003-13.277-1.831-26.445-5.489-39.443c-1.05-3.733-2.261-7.351-3.572-10.865
		c-6.895,7.535-15.265,13.741-24.762,18.132l-38.398,17.755c-11.182,5.171-16.056,18.428-10.886,29.611
		c3.458,7.477,10.528,12.133,18.179,12.853c3.791,0.356,7.726-0.254,11.432-1.967l38.398-17.754
		C361.349,423.875,366.388,421.087,371.189,417.985z"/>
	<path style="fill:#4F4C5E;" d="M336.821,386.67c-5.085-18.069-15.2-33.875-22.682-50.947
		c-7.268-16.585-13.438-33.631-18.935-50.878H141.082c-5.498,17.247-11.667,34.293-18.935,50.878
		c-7.482,17.072-17.596,32.878-22.682,50.947c-7.874,27.978-4.626,54.223,5.257,79.143C112.21,484.695,130.587,497,150.901,497
		h134.485c20.313,0,38.691-12.305,46.179-31.187C341.447,440.893,344.695,414.647,336.821,386.67z"/>
	<path style="fill:#423E4F;" d="M134.722,465.813c-9.882-24.92-13.13-51.166-5.257-79.143c5.085-18.069,15.2-33.875,22.682-50.947
		c7.268-16.585,13.438-33.631,18.935-50.878h-30c-5.498,17.248-11.667,34.293-18.935,50.878
		c-7.482,17.072-17.596,32.878-22.682,50.947c-7.874,27.978-4.626,54.223,5.257,79.143C112.21,484.696,130.587,497,150.901,497h30
		C160.587,497,142.21,484.696,134.722,465.813z"/>
	<path style="fill:#5C576E;" d="M218.144,14.872L218.144,14.872c-95.602,0-173.102,77.5-173.102,173.101v10.446
		c0,78.438,63.586,142.024,142.024,142.024h62.156c78.438,0,142.024-63.586,142.024-142.024v-10.446
		C391.245,92.372,313.745,14.872,218.144,14.872z"/>
	<path style="fill:#4F4C5E;" d="M75.042,198.419v-10.446c0-90.547,69.525-164.843,158.102-172.448
		c-4.945-0.424-9.945-0.654-15-0.654h0c-95.601,0-173.101,77.5-173.101,173.102v10.446c0,78.437,63.586,142.024,142.024,142.024h30
		C138.628,340.443,75.042,276.857,75.042,198.419z"/>
	<ellipse style="fill:#FFA2AE;" cx="117.011" cy="233.206" rx="37.316" ry="29.717"/>
	<ellipse style="fill:#FFA2AE;" cx="319.276" cy="233.206" rx="37.316" ry="29.717"/>
	<path style="fill:#423E4F;" d="M153.463,178.04c3.571,0,6.736-2.561,7.377-6.199c0.719-4.079-2.005-7.969-6.084-8.688
		l-26.438-4.661c-4.076-0.719-7.969,2.004-8.688,6.083c-0.719,4.079,2.005,7.969,6.084,8.688l26.438,4.662
		C152.592,178.003,153.03,178.04,153.463,178.04z"/>
	<path style="fill:#423E4F;" d="M316.656,164.575c-0.719-4.079-4.608-6.803-8.688-6.083l-26.438,4.661
		c-4.079,0.72-6.803,4.609-6.084,8.688c0.642,3.639,3.806,6.199,7.377,6.199c0.432,0,0.871-0.038,1.311-0.115l26.438-4.662
		C314.651,172.544,317.376,168.654,316.656,164.575z"/>
	<path style="fill:#423E4F;" d="M254.326,199.317c-4.142,0-7.5,3.358-7.5,7.5c0,5.84-4.751,10.592-10.591,10.592
		c-5.84,0-10.592-4.751-10.592-10.592c0-4.142-3.358-7.5-7.5-7.5s-7.5,3.358-7.5,7.5c0,5.84-4.751,10.592-10.591,10.592
		s-10.591-4.751-10.591-10.592c0-4.142-3.358-7.5-7.5-7.5s-7.5,3.358-7.5,7.5c0,14.111,11.48,25.592,25.591,25.592
		c7.058,0,13.457-2.872,18.091-7.508c4.634,4.636,11.034,7.508,18.092,7.508c14.111,0,25.591-11.48,25.591-25.592
		C261.826,202.675,258.468,199.317,254.326,199.317z"/>
	<path style="fill:#423E4F;" d="M146.258,204.482v-15.018c0-4.142-3.358-7.5-7.5-7.5s-7.5,3.358-7.5,7.5v15.018
		c0,4.142,3.358,7.5,7.5,7.5S146.258,208.624,146.258,204.482z"/>
	<path style="fill:#423E4F;" d="M297.528,181.964c-4.142,0-7.5,3.358-7.5,7.5v15.018c0,4.142,3.358,7.5,7.5,7.5s7.5-3.358,7.5-7.5
		v-15.018C305.028,185.322,301.67,181.964,297.528,181.964z"/>
	<path style="fill:#423E4F;" d="M176.468,497c0-28.203-5.255-43.883-10.337-59.047c-4.763-14.21-9.261-27.632-9.261-51.791
		c0-4.142-3.358-7.5-7.5-7.5s-7.5,3.358-7.5,7.5c0,26.605,5.104,41.833,10.039,56.558c4.917,14.669,9.56,28.524,9.56,54.28H176.468z
		"/>
	<path style="fill:#423E4F;" d="M274.819,497c0-25.756,4.644-39.611,9.56-54.28c4.935-14.726,10.039-29.953,10.039-56.558
		c0-4.142-3.358-7.5-7.5-7.5s-7.5,3.358-7.5,7.5c0,24.159-4.499,37.581-9.261,51.791c-5.082,15.164-10.337,30.845-10.337,59.047
		H274.819z"/>
	<path style="fill:#423E4F;" d="M225.643,497V386.161c0-4.142-3.358-7.5-7.5-7.5s-7.5,3.358-7.5,7.5V497H225.643z"/>
</g>
<g>
</g>
<g>
</g>
<g>
</g>
<g>
</g>
<g>
</g>
<g>
</g>
<g>
</g>
<g>
</g>
<g>
</g>
<g>
</g>
<g>
</g>
<g>
</g>
<g>
</g>
<g>
</g>
<g>
</g>
</svg>
