<?xml version="1.0" encoding="iso-8859-1"?>
<!-- Generator: Adobe Illustrator 23.0.3, SVG Export Plug-In . SVG Version: 6.00 Build 0)  -->
<svg version="1.1" id="Capa_1" xmlns="http://www.w3.org/2000/svg" xmlns:xlink="http://www.w3.org/1999/xlink" x="0px" y="0px"
	 viewBox="0 0 497 497" style="enable-background:new 0 0 497 497;" xml:space="preserve">
<g>
	<path style="fill:#C8C6CC;" d="M482.104,428.231c70.94-274.33-194.199-390.003-194.199-390.003L210.189,125
		c163.239,74.896,234.197,240.12,256.205,303.821C469.047,436.5,480.07,436.096,482.104,428.231z"/>
	<g>
		<g>
			<path style="fill:#423E4F;" d="M314.028,135.469c-1.919,0-3.839-0.732-5.303-2.197c-2.929-2.929-2.929-7.678,0-10.607
				l10.326-10.326c2.929-2.929,7.678-2.929,10.606,0c2.929,2.929,2.929,7.678,0,10.607l-10.326,10.326
				C317.867,134.737,315.947,135.469,314.028,135.469z"/>
		</g>
		<g>
			<path style="fill:#423E4F;" d="M421.504,242.945c-1.919,0-3.839-0.732-5.304-2.197c-2.929-2.929-2.929-7.678,0-10.607
				l10.326-10.326c2.93-2.929,7.678-2.929,10.607,0c2.929,2.929,2.929,7.678,0,10.607l-10.326,10.326
				C425.343,242.213,423.423,242.945,421.504,242.945z"/>
		</g>
		<g>
			<path style="fill:#423E4F;" d="M380.411,203.13c-9.013,0-17.686-3.564-24.095-9.973c-6.963-6.963-10.569-16.6-9.893-26.44
				c0.284-4.132,3.854-7.252,7.997-6.968c4.132,0.284,7.252,3.864,6.968,7.996c-0.379,5.513,1.638,10.909,5.534,14.805
				c3.896,3.896,9.292,5.913,14.806,5.534c4.126-0.283,7.713,2.836,7.996,6.969c0.283,4.132-2.836,7.712-6.969,7.996
				C381.973,203.104,381.19,203.13,380.411,203.13z"/>
		</g>
	</g>
	<path style="fill:#A29DAE;" d="M287.905,38.227l-77.716,86.772c21.474,9.853,41.336,21.28,59.715,33.823
		c11.772-21.158,26.511-40.719,43.989-58.197l29.74-29.741C311.958,48.726,287.905,38.227,287.905,38.227z"/>
	<path style="fill:#F86745;" d="M176.237,343.302c16.868-32.835,28.473-67.95,34.491-104.372
		c10.045-60.79,38.384-115.951,81.952-159.518l30.489-30.489c6.875-6.875,6.875-18.021,0-24.896L304.298,5.156
		c-6.875-6.875-18.021-6.875-24.896,0l-30.489,30.489c-26.103,26.103-47.891,55.987-64.76,88.822
		c-16.798,32.697-28.376,67.656-34.416,103.914c-10.033,60.231-38.06,116.01-81.236,159.186l-56.602,56.602
		c-12.086,12.086-12.086,31.681,0,43.767l0,0c12.086,12.086,31.681,12.086,43.767,0l55.812-55.812
		C137.58,406.021,159.368,376.137,176.237,343.302z"/>
</g>
<g>
</g>
<g>
</g>
<g>
</g>
<g>
</g>
<g>
</g>
<g>
</g>
<g>
</g>
<g>
</g>
<g>
</g>
<g>
</g>
<g>
</g>
<g>
</g>
<g>
</g>
<g>
</g>
<g>
</g>
</svg>
