<?xml version="1.0" encoding="iso-8859-1"?>
<!-- Generator: Adobe Illustrator 23.0.3, SVG Export Plug-In . SVG Version: 6.00 Build 0)  -->
<svg version="1.1" id="Capa_1" xmlns="http://www.w3.org/2000/svg" xmlns:xlink="http://www.w3.org/1999/xlink" x="0px" y="0px"
	 viewBox="0 0 497 497" style="enable-background:new 0 0 497 497;" xml:space="preserve">
<g>
	<path style="fill:#F86745;" d="M102.329,450.179c12.745,8.046,28.98,8.046,41.725,0l0,0c12.745-8.046,28.98-8.046,41.725,0l0,0
		c12.745,8.046,28.98,8.046,41.725,0l0,0c12.745-8.046,28.98-8.046,41.725,0l0,0c12.745,8.046,28.98,8.046,41.725,0l0,0
		c12.745-8.046,28.98-8.046,41.725,0l0,0c12.745,8.046,28.98,8.046,41.725,0l0.038-0.024c13.849-8.743,21.657-24.471,20.274-40.791
		c-2.621-30.926-13.003-72.295-50.804-115.052H133.088c-37.866,42.831-48.219,84.304-50.817,115.212
		C80.907,425.754,88.608,441.405,102.329,450.179L102.329,450.179z"/>
	<path style="fill:#C94D2F;" d="M132.329,450.18L132.329,450.18c-13.721-8.774-21.423-24.425-20.058-40.655
		c2.598-30.908,12.951-72.381,50.817-115.212h-30c-37.866,42.832-48.219,84.304-50.817,115.212
		c-1.364,16.229,6.338,31.88,20.058,40.654l0,0c10.861,6.857,24.252,7.848,35.862,3.018
		C136.179,452.36,134.212,451.369,132.329,450.18z"/>
	<circle style="fill:#423E4F;" cx="107.733" cy="220.57" r="107.733"/>
	<circle style="fill:#423E4F;" cx="389.267" cy="220.57" r="107.733"/>
	<path style="fill:#F86745;" d="M156.728,40.786H49.476c-21.986,0-39.81,17.823-39.81,39.81v0c0,21.986,17.823,39.81,39.81,39.81
		h107.252c21.986,0,39.81-17.823,39.81-39.81v0C196.538,58.61,178.714,40.786,156.728,40.786z"/>
	<path style="fill:#C94D2F;" d="M39.667,80.596L39.667,80.596c0-21.986,17.823-39.81,39.81-39.81h-30
		c-21.986,0-39.81,17.824-39.81,39.81l0,0c0,21.986,17.823,39.81,39.81,39.81h30C57.49,120.406,39.667,102.583,39.667,80.596z"/>
	<path style="fill:#F86745;" d="M340.272,40.786h107.252c21.986,0,39.81,17.823,39.81,39.81v0c0,21.986-17.823,39.81-39.81,39.81
		H340.272c-21.986,0-39.81-17.823-39.81-39.81v0C300.462,58.61,318.286,40.786,340.272,40.786z"/>
	<path style="fill:#C94D2F;" d="M330.462,80.596L330.462,80.596c0-21.986,17.823-39.81,39.81-39.81h-30
		c-21.986,0-39.81,17.824-39.81,39.81l0,0c0,21.986,17.823,39.81,39.81,39.81h30C348.286,120.406,330.462,102.583,330.462,80.596z"
		/>
	<circle style="fill:#A8E1F6;" cx="107.733" cy="220.57" r="63.139"/>
	<path style="fill:#34B6E2;" d="M74.594,220.57c0-29.7,20.512-54.597,48.139-61.331c-4.81-1.172-9.83-1.808-15-1.808
		c-34.871,0-63.139,28.269-63.139,63.139c0,34.871,28.268,63.139,63.139,63.139c5.17,0,10.19-0.636,15-1.808
		C95.106,275.167,74.594,250.27,74.594,220.57z"/>
	<circle style="fill:#A8E1F6;" cx="389.267" cy="220.57" r="63.139"/>
	<path style="fill:#34B6E2;" d="M356.128,220.57c0-29.7,20.512-54.597,48.139-61.331c-4.81-1.172-9.83-1.808-15-1.808
		c-34.871,0-63.139,28.269-63.139,63.139c0,34.871,28.268,63.139,63.139,63.139c5.17,0,10.19-0.636,15-1.808
		C376.64,275.167,356.128,250.27,356.128,220.57z"/>
	<path style="fill:#FFDDCF;" d="M342.165,275.451c0,51.73-41.935,85.745-93.665,85.745s-93.665-34.015-93.665-85.745
		s41.935-134.4,93.665-134.4S342.165,223.721,342.165,275.451z"/>
	<path style="fill:#FFCBBE;" d="M184.835,275.451c0-46.624,34.067-118.369,78.665-132.082c-4.885-1.502-9.894-2.319-15-2.319
		c-51.73,0-93.665,82.67-93.665,134.4s41.935,85.745,93.665,85.745c5.106,0,10.115-0.336,15-0.984
		C218.902,354.303,184.835,322.075,184.835,275.451z"/>
</g>
<g>
</g>
<g>
</g>
<g>
</g>
<g>
</g>
<g>
</g>
<g>
</g>
<g>
</g>
<g>
</g>
<g>
</g>
<g>
</g>
<g>
</g>
<g>
</g>
<g>
</g>
<g>
</g>
<g>
</g>
</svg>
