<?xml version="1.0" encoding="iso-8859-1"?>
<!-- Generator: Adobe Illustrator 23.0.3, SVG Export Plug-In . SVG Version: 6.00 Build 0)  -->
<svg version="1.1" id="Capa_1" xmlns="http://www.w3.org/2000/svg" xmlns:xlink="http://www.w3.org/1999/xlink" x="0px" y="0px"
	 viewBox="0 0 497 497" style="enable-background:new 0 0 497 497;" xml:space="preserve">
<g>
	<path style="fill:#4F4C5E;" d="M34.655,243.807c-3.056-7.403-1.271-15.911,4.504-21.461c24.302-23.355,59.351-34.683,94.826-27.238
		c39.945,8.383,69.825,38.343,80.023,75.137c-24.13,29.59-63.534,45.009-103.479,36.625
		C75.055,299.425,47.517,274.961,34.655,243.807z"/>
	<path style="fill:#4F4C5E;" d="M243.807,34.655c-7.403-3.056-15.911-1.271-21.461,4.504
		c-23.355,24.302-34.683,59.351-27.238,94.826c8.383,39.945,38.343,69.825,75.137,80.023c29.59-24.13,45.009-63.534,36.625-103.479
		C299.425,75.055,274.961,47.517,243.807,34.655z"/>
	<path style="fill:#423E4F;" d="M193.774,98.268c-1.557,11.584-1.205,23.625,1.333,35.717c8.383,39.944,38.343,69.825,75.137,80.023
		c29.59-24.13,45.009-63.535,36.625-103.479c-1.905-9.078-4.931-17.631-8.891-25.556c-9.639-1.523-19.463-2.312-29.41-2.312
		C242.39,82.661,217.041,88.041,193.774,98.268z"/>
	<path style="fill:#423E4F;" d="M133.985,195.107c-12.092-2.538-24.133-2.89-35.717-1.333
		c-10.227,23.267-15.607,48.616-15.607,74.794c0,9.946,0.789,19.771,2.312,29.409c7.925,3.961,16.479,6.987,25.556,8.892
		c39.945,8.383,79.349-7.036,103.479-36.625C203.81,233.45,173.93,203.491,133.985,195.107z"/>
	<path style="fill:#FFA1AC;" d="M261.824,169.85c-17.063-10.083-29.372-26.916-33.571-46.927
		c-3.486-16.608-0.973-33.555,6.732-48.128c2.567-4.856,8.949-6.199,13.251-2.783c12.84,10.196,21.986,24.676,25.489,41.369
		C277.899,133.27,273.467,153.649,261.824,169.85z"/>
	<path style="fill:#FFA1AC;" d="M169.85,261.824c-10.083-17.063-26.916-29.372-46.927-33.571
		c-16.608-3.486-33.555-0.973-48.128,6.732c-4.856,2.567-6.199,8.949-2.783,13.251c10.196,12.84,24.676,21.986,41.369,25.489
		C133.27,277.899,153.649,273.467,169.85,261.824z"/>
	<path style="fill:#4F4C5E;" d="M355.674,1.781c-5.395,0.838-8.809,6.239-7.278,11.48c19.865,68.009-21.707,105.23-21.707,105.23
		l67.633,49.333c16.195-18.746,34.359-17.888,44.781-15.171c3.547,0.925,6.874-2.067,6.403-5.702
		c-3.163-24.425,17.382-45.296,44.958-37.493c3.72,1.053,7.23-2.298,6.418-6.077C473.29-6.442,385.889-2.913,355.674,1.781z"/>
	<path style="fill:#4F4C5E;" d="M1.781,355.674c0.838-5.395,6.239-8.809,11.48-7.278c68.009,19.865,105.23-21.707,105.23-21.707
		l49.333,67.633c-18.746,16.195-17.888,34.359-15.171,44.781c0.925,3.547-2.067,6.874-5.702,6.403
		c-24.425-3.163-45.296,17.382-37.493,44.958c1.053,3.72-2.298,7.23-6.077,6.418C-6.442,473.29-2.913,385.889,1.781,355.674z"/>
	<path style="fill:#423E4F;" d="M406.667,136.684l-3.107-3.107c-17.366-17.367-37.495-30.962-59.388-40.404
		c-7.789,16.636-17.483,25.318-17.483,25.318l67.633,49.333c8.483-9.819,17.505-14.254,25.673-15.866
		C415.934,146.617,411.493,141.51,406.667,136.684z"/>
	<path style="fill:#423E4F;" d="M93.172,344.173c9.442,21.893,23.038,42.021,40.404,59.387l3.106,3.106
		c4.826,4.826,9.933,9.268,15.275,13.329c1.612-8.168,6.047-17.19,15.866-25.673l-49.333-67.632
		C118.491,326.689,109.809,336.384,93.172,344.173z"/>
	<path style="fill:#FF6E80;" d="M259.232,82.891c-9.899,0.486-19.652,1.757-29.197,3.759c-3.649,11.547-4.358,24.001-1.782,36.273
		c4.199,20.011,16.508,36.843,33.571,46.926c11.643-16.201,16.075-36.58,11.901-56.469
		C271.328,101.96,266.287,91.577,259.232,82.891z"/>
	<path style="fill:#FF6E80;" d="M122.923,228.253c-12.272-2.576-24.726-1.867-36.273,1.782c-2.002,9.545-3.273,19.298-3.759,29.197
		c8.686,7.056,19.069,12.096,30.49,14.493c19.889,4.175,40.268-0.257,56.469-11.901
		C159.766,244.761,142.934,232.451,122.923,228.253z"/>
	<path style="fill:#996ACC;" d="M154.79,154.79L154.79,154.79c-62.838,62.838-62.838,164.719,0,227.557l3.106,3.106
		c45.94,45.94,120.424,45.94,166.364,0l61.193-61.193c45.94-45.94,45.94-120.424,0-166.364l-3.106-3.106
		C319.509,91.952,217.628,91.952,154.79,154.79z"/>
	
		<ellipse transform="matrix(0.7071 -0.7071 0.7071 0.7071 -183.9056 259.3936)" style="fill:#FFA1AC;" cx="221.164" cy="351.691" rx="34.056" ry="27.12"/>
	
		<ellipse transform="matrix(0.7071 -0.7071 0.7071 0.7071 -53.3784 313.4616)" style="fill:#FFA1AC;" cx="351.691" cy="221.164" rx="34.056" ry="27.12"/>
	<path style="fill:#423E4F;" d="M210.385,283.431c-2.375-3.394-7.053-4.217-10.445-1.842l-20.069,14.052
		c-3.393,2.376-4.218,7.053-1.842,10.446c1.459,2.083,3.786,3.199,6.15,3.199c1.486,0,2.986-0.44,4.295-1.357l20.069-14.052
		C211.936,291.5,212.761,286.824,210.385,283.431z"/>
	<path style="fill:#423E4F;" d="M283.431,210.385c1.31,0.917,2.81,1.357,4.295,1.357c2.364,0,4.691-1.116,6.15-3.199l14.052-20.069
		c2.376-3.393,1.551-8.069-1.842-10.445c-3.393-2.375-8.069-1.552-10.445,1.842l-14.052,20.069
		C279.213,203.332,280.038,208.009,283.431,210.385z"/>
	<path style="fill:#423E4F;" d="M287.444,240.745c-2.929,2.929-2.929,7.678,0,10.607c1.702,1.702,2.64,3.964,2.64,6.371
		c0,2.407-0.938,4.67-2.64,6.372c-1.702,1.702-3.965,2.639-6.372,2.639s-4.669-0.937-6.372-2.639c-2.928-2.929-7.677-2.929-10.606,0
		c-2.929,2.929-2.929,7.678,0,10.607c3.513,3.513,3.513,9.229,0,12.743c-1.702,1.702-3.965,2.639-6.372,2.639
		c-2.407,0-4.67-0.937-6.372-2.639c-2.929-2.929-7.678-2.929-10.606,0c-2.929,2.929-2.929,7.678,0,10.606
		c4.535,4.535,10.565,7.033,16.979,7.033c6.414,0,12.443-2.498,16.978-7.033c4.517-4.517,6.832-10.401,6.991-16.332
		c6.181-0.156,11.971-2.629,16.359-7.018c4.535-4.535,7.033-10.564,7.033-16.979c0-6.413-2.498-12.443-7.033-16.979
		C295.122,237.816,290.373,237.816,287.444,240.745z"/>
	<path style="fill:#423E4F;" d="M212.273,304.125c-2.928-2.929-7.677-2.929-10.606,0c-2.929,2.929-2.929,7.678,0,10.606l9.691,9.692
		c1.464,1.464,3.384,2.197,5.303,2.197c1.919,0,3.839-0.732,5.303-2.196c2.929-2.929,2.929-7.678,0-10.607L212.273,304.125z"/>
	<path style="fill:#423E4F;" d="M314.732,201.667c-2.929-2.929-7.678-2.929-10.606,0c-2.929,2.929-2.929,7.678,0,10.607l9.691,9.691
		c1.464,1.465,3.384,2.197,5.303,2.197c1.919,0,3.839-0.732,5.303-2.197c2.929-2.929,2.929-7.678,0-10.606L314.732,201.667z"/>
	<path style="fill:#5C576E;" d="M460.088,84.033c-17.704-27.818-41.998-45.416-72.206-52.304c-4.041-0.921-8.059,1.606-8.98,5.645
		s1.606,8.059,5.645,8.979c26.221,5.979,47.378,21.366,62.887,45.733c1.43,2.246,3.855,3.474,6.334,3.474
		c1.377,0,2.771-0.379,4.02-1.173C461.283,92.162,462.313,87.527,460.088,84.033z"/>
	<path style="fill:#5C576E;" d="M381.692,84.552c-3.839-1.56-8.212,0.286-9.773,4.123c-1.56,3.837,0.286,8.213,4.123,9.773
		c14.66,5.961,27.505,15.453,38.179,28.212c1.483,1.773,3.612,2.688,5.756,2.688c1.697,0,3.404-0.573,4.808-1.747
		c3.177-2.658,3.598-7.388,0.94-10.565C413.463,102.375,398.648,91.446,381.692,84.552z"/>
	<path style="fill:#5C576E;" d="M92.086,447.434c-24.368-15.508-39.755-36.666-45.733-62.887c-0.921-4.039-4.944-6.565-8.98-5.645
		c-4.039,0.921-6.566,4.941-5.645,8.979c6.888,30.208,24.486,54.502,52.305,72.207c1.249,0.794,2.642,1.173,4.02,1.173
		c2.479,0,4.905-1.228,6.334-3.474C96.611,454.293,95.581,449.658,92.086,447.434z"/>
	<path style="fill:#5C576E;" d="M126.659,414.221c-12.759-10.673-22.251-23.519-28.212-38.179c-1.561-3.837-5.938-5.682-9.772-4.123
		c-3.837,1.56-5.683,5.936-4.123,9.773c6.894,16.955,17.823,31.771,32.483,44.034c1.404,1.174,3.11,1.747,4.808,1.747
		c2.144,0,4.273-0.915,5.756-2.688C130.257,421.609,129.836,416.879,126.659,414.221z"/>
</g>
<g>
</g>
<g>
</g>
<g>
</g>
<g>
</g>
<g>
</g>
<g>
</g>
<g>
</g>
<g>
</g>
<g>
</g>
<g>
</g>
<g>
</g>
<g>
</g>
<g>
</g>
<g>
</g>
<g>
</g>
</svg>
