<?xml version="1.0" encoding="iso-8859-1"?>
<!-- Generator: Adobe Illustrator 23.0.3, SVG Export Plug-In . SVG Version: 6.00 Build 0)  -->
<svg version="1.1" id="Capa_1" xmlns="http://www.w3.org/2000/svg" xmlns:xlink="http://www.w3.org/1999/xlink" x="0px" y="0px"
	 viewBox="0 0 497 497" style="enable-background:new 0 0 497 497;" xml:space="preserve">
<g>
	<rect x="221.414" y="381.239" style="fill:#FFB25A;" width="54.171" height="115.761"/>
	<path style="fill:#80E0B7;" d="M375.651,33.118C366.858,13.001,346.986,0,325.031,0H171.969c-21.955,0-41.827,13.001-50.62,33.118
		l-17.338,39.664L248.5,100.514l144.49-27.731L375.651,33.118z"/>
	<path style="fill:#00B762;" d="M134.011,72.782l17.338-39.664C160.142,13.001,180.014,0,201.969,0h-30
		c-21.955,0-41.827,13.001-50.62,33.118l-17.338,39.664l144.49,27.731l15-2.879L134.011,72.782z"/>
	<path style="fill:#FFB25A;" d="M395.569,259.937c9.928-21.027,15.489-44.521,15.489-69.317c0-22.101-4.418-43.167-12.407-62.375
		L248.5,100.514L98.349,128.245c-7.989,19.208-12.407,40.275-12.407,62.375c0,24.796,5.561,48.289,15.489,69.317L248.5,286.971
		L395.569,259.937z"/>
	<path style="fill:#F88000;" d="M131.431,259.937c-9.928-21.027-15.489-44.521-15.489-69.316c0-22.101,4.418-43.167,12.407-62.375
		L263.5,103.284l-15-2.771L98.349,128.245c-7.989,19.208-12.407,40.275-12.407,62.375c0,24.795,5.561,48.29,15.489,69.316
		L248.5,286.971l15-2.757L131.431,259.937z"/>
	<path style="fill:#996ACC;" d="M434.896,112.547c-5.792-12.13-17.732-28.668-41.907-39.765H104.011
		c-24.175,11.097-36.114,27.635-41.907,39.765c-3.478,7.284,1.849,15.698,9.92,15.698h352.952
		C433.047,128.245,438.374,119.83,434.896,112.547z"/>
	<path style="fill:#6D36AB;" d="M92.104,112.547c5.792-12.13,17.732-28.668,41.907-39.765h-30
		c-24.175,11.097-36.114,27.635-41.907,39.765c-3.478,7.284,1.849,15.698,9.92,15.698h30
		C93.953,128.245,88.626,119.831,92.104,112.547z"/>
	<path style="fill:#FFB25A;" d="M458.335,259.937h-23.457l-28.824,30.398l28.824,30.398h23.457c16.788,0,30.398-13.61,30.398-30.398
		v0C488.733,273.547,475.123,259.937,458.335,259.937z"/>
	<path style="fill:#FFB25A;" d="M38.665,259.937h23.457l28.824,30.398l-28.824,30.398H38.665c-16.788,0-30.398-13.61-30.398-30.398
		v0C8.267,273.547,21.877,259.937,38.665,259.937z"/>
	<rect x="221.414" y="381.239" style="fill:#F88000;" width="54.171" height="73.672"/>
	<polygon style="fill:#996ACC;" points="323.567,259.937 173.433,259.937 147.503,342.424 173.433,424.911 323.567,424.911 
		349.128,342.424 	"/>
	<path style="fill:#423E4F;" d="M187.503,176.549l-9.916-14.971c-5.064-7.645-16.288-7.645-21.352,0l-9.916,14.971
		c-4.51,6.81,0.373,15.901,8.541,15.901h24.103C187.131,192.45,192.014,183.359,187.503,176.549z"/>
	<path style="fill:#423E4F;" d="M309.497,176.549l9.916-14.971c5.064-7.645,16.288-7.645,21.352,0l9.916,14.971
		c4.51,6.81-0.373,15.901-8.541,15.901h-24.103C309.869,192.45,304.986,183.359,309.497,176.549z"/>
	<path style="fill:#423E4F;" d="M265.012,185.989l-7.951-12.005c-4.061-6.131-13.061-6.131-17.121,0l-7.951,12.005
		c-3.617,5.46,0.299,12.75,6.848,12.75h19.327C264.713,198.74,268.629,191.45,265.012,185.989z"/>
	<g>
		<path style="fill:#423E4F;" d="M231.924,237.595c-4.644,0-9.289-1.599-13.011-4.802l-0.231-0.199
			c-1.866-1.605-4.661-1.589-6.505,0.038c-3.106,2.74-7.846,2.444-10.586-0.663c-2.74-3.106-2.444-7.845,0.662-10.586
			c7.432-6.556,18.699-6.625,26.21-0.161l0.231,0.199c1.867,1.605,4.661,1.589,6.505-0.038c7.432-6.555,18.7-6.625,26.211-0.161
			l0.236,0.204c1.86,1.601,4.655,1.583,6.5-0.043c7.43-6.556,18.698-6.625,26.21-0.161c3.14,2.702,3.495,7.438,0.792,10.577
			c-2.701,3.14-7.438,3.494-10.577,0.793c-1.864-1.604-4.66-1.586-6.503,0.04c-7.432,6.555-18.699,6.625-26.211,0.161l-0.236-0.204
			c-1.861-1.601-4.656-1.583-6.5,0.043C241.375,235.938,236.65,237.594,231.924,237.595z"/>
	</g>
	<path style="fill:#80E0B7;" d="M434.878,259.937v76.239H390.91l14.367,63.275c2.961,13.042-6.952,25.459-20.327,25.459h-61.384
		V259.937H434.878z"/>
	<path style="fill:#80E0B7;" d="M62.122,259.937v76.239h43.968l-14.367,63.275c-2.961,13.042,6.952,25.459,20.327,25.459h61.384
		V259.937H62.122z"/>
</g>
<g>
</g>
<g>
</g>
<g>
</g>
<g>
</g>
<g>
</g>
<g>
</g>
<g>
</g>
<g>
</g>
<g>
</g>
<g>
</g>
<g>
</g>
<g>
</g>
<g>
</g>
<g>
</g>
<g>
</g>
</svg>
