<?xml version="1.0" encoding="iso-8859-1"?>
<!-- Generator: Adobe Illustrator 23.0.3, SVG Export Plug-In . SVG Version: 6.00 Build 0)  -->
<svg version="1.1" id="Capa_1" xmlns="http://www.w3.org/2000/svg" xmlns:xlink="http://www.w3.org/1999/xlink" x="0px" y="0px"
	 viewBox="0 0 497 497" style="enable-background:new 0 0 497 497;" xml:space="preserve">
<g>
	<path style="fill:#996ACC;" d="M383.943,167.237c77.637-2.155,106.3-30.605,106.3-30.605l-0.021-0.021l0,0
		c11.942-12.756,7.559-34.486-8.877-44.01l-0.001,0c-10.322-5.981-16.491-17.361-15.556-28.694l0.001-0.012
		c1.489-18.04-14.646-34.175-32.686-32.686l-0.012,0.001c-11.333,0.936-22.713-5.234-28.694-15.556l0,0
		c-9.524-16.436-31.254-20.819-44.01-8.877l0,0c0,0-28.45,28.663-30.604,106.3L383.943,167.237z"/>
	<path style="fill:#6D36AB;" d="M490.222,136.611c11.942-12.756,7.559-34.486-8.877-44.01h-0.001
		c-2.563-1.485-4.869-3.305-6.875-5.373c4.309,9.839,3.247,21.377-4.248,29.383h0l0.021,0.021c0,0-28.663,28.45-106.3,30.604l20,20
		c77.637-2.155,106.3-30.604,106.3-30.604L490.222,136.611L490.222,136.611z"/>
	<path style="fill:#FFB25A;" d="M167.237,383.943c-2.155,77.637-30.605,106.3-30.605,106.3l-0.021-0.021l0,0
		c-12.756,11.942-34.486,7.559-44.01-8.877l0-0.001c-5.981-10.322-17.361-16.491-28.694-15.556l-0.012,0.001
		c-18.04,1.489-34.175-14.646-32.686-32.686l0.001-0.012c0.936-11.333-5.234-22.713-15.556-28.694l0,0
		c-16.436-9.524-20.819-31.254-8.877-44.01l0,0c0,0,28.663-28.449,106.3-30.604L167.237,383.943z"/>
	<path style="fill:#F88000;" d="M147.237,363.943c-2.155,77.637-30.604,106.3-30.604,106.3l-0.021-0.021h0
		c-8.005,7.495-19.544,8.557-29.383,4.248c2.068,2.006,3.887,4.312,5.372,6.875l0,0.001c9.524,16.436,31.254,20.819,44.01,8.876h0
		l0.021,0.021c0,0,28.45-28.663,30.604-106.3L147.237,363.943z"/>
	<path style="fill:#FFB25A;" d="M256.024,444.607c-32.642,3.902-64.89-0.841-93.005-14.5l-34.36-269.561
		c4.721-5.741,9.786-11.324,15.175-16.713c19.716-19.716,41.983-34.985,65.306-45.662l60.479,20.47l53.24,122.553l-5.525,127.073
		L256.024,444.607z"/>
	<path style="fill:#FFB25A;" d="M316.897,81.509c32.039,4.749,61.743,18.66,85.13,42.048
		c65.702,65.702,56.62,181.297-20.277,258.194c-5.375,5.375-10.936,10.419-16.663,15.125L316.897,81.509z"/>
	<path style="fill:#F88000;" d="M402.028,123.557c-3.353-3.353-6.82-6.498-10.421-9.462c55.026,66.97,43.079,174.722-29.856,247.656
		c-0.584,0.583-1.178,1.148-1.766,1.724l5.104,33.4c5.727-4.706,11.288-9.75,16.663-15.125
		C458.647,304.855,467.729,189.259,402.028,123.557z"/>
	<path style="fill:#F88000;" d="M256.024,444.607l24.69-30.741c-14.74,5.368-29.756,8.962-44.69,10.741
		c-25.726,3.075-51.198,0.756-74.604-7.041l1.599,12.541c7.029,3.415,14.316,6.272,21.803,8.577
		C207.83,445.767,232.157,447.457,256.024,444.607z"/>
	<path style="fill:#996ACC;" d="M316.897,81.509c74.662,124.355,63.345,248.206,48.191,315.366
		c-33.002,27.167-71.299,43.233-109.064,47.731c17.345-60.413,42.86-203.737-46.884-346.435
		C244.37,82.027,282.02,76.336,316.897,81.509z"/>
	<path style="fill:#996ACC;" d="M128.659,160.547c52.028,106.003,45.942,208.414,34.36,269.561
		c-14.406-7.006-27.728-16.346-39.461-28.08C62.461,340.932,66.032,236.696,128.659,160.547z"/>
	<path style="fill:#6D36AB;" d="M365.088,396.876c3.073-13.62,5.988-29.572,8.061-47.387c-3.62,4.181-7.412,8.276-11.398,12.262
		c-5.375,5.374-10.936,10.418-16.663,15.125c-25.332,20.854-53.786,35.159-82.723,42.719c-2.091,9.417-4.274,17.811-6.342,25.013
		c24.784-2.952,49.796-10.886,73.391-23.669C342.047,414.094,353.998,406.005,365.088,396.876z"/>
	<path style="fill:#6D36AB;" d="M165.018,418.74c-7.556-2.314-14.91-5.188-22-8.633c-10.289-5.004-20.012-11.221-29.011-18.628
		c0.736,0.896,1.483,1.784,2.242,2.666c2.328,2.705,4.754,5.328,7.277,7.852c0.01,0.01,0.02,0.021,0.03,0.031
		c11.347,11.415,24.906,21.002,39.461,28.08C163.709,426.464,164.378,422.669,165.018,418.74z"/>
</g>
<g>
</g>
<g>
</g>
<g>
</g>
<g>
</g>
<g>
</g>
<g>
</g>
<g>
</g>
<g>
</g>
<g>
</g>
<g>
</g>
<g>
</g>
<g>
</g>
<g>
</g>
<g>
</g>
<g>
</g>
</svg>
