<?xml version="1.0" encoding="iso-8859-1"?>
<!-- Generator: Adobe Illustrator 23.0.3, SVG Export Plug-In . SVG Version: 6.00 Build 0)  -->
<svg version="1.1" id="Capa_1" xmlns="http://www.w3.org/2000/svg" xmlns:xlink="http://www.w3.org/1999/xlink" x="0px" y="0px"
	 viewBox="0 0 497 497" style="enable-background:new 0 0 497 497;" xml:space="preserve">
<g>
	<path style="fill:#996ACC;" d="M213.168,395.931l-35.332,21.564v70.576c0,6.938,7.576,11.216,13.517,7.633l17.133-10.332
		c2.88-1.737,6.484-1.737,9.363,0l17.133,10.332c5.941,3.583,13.517-0.696,13.517-7.633v-70.576L213.168,395.931z"/>
	<polygon style="fill:#6D36AB;" points="177.836,417.496 177.836,454.453 248.5,454.453 248.5,417.496 213.168,395.931 	"/>
	<rect x="61.726" y="17.37" style="fill:#FD5C6F;" width="373.548" height="407.083"/>
	<path style="fill:#F9475E;" d="M61.726,17.37v119.629c30.957,0,56.142-25.186,56.142-56.143v0c0-4.482,3.634-8.116,8.116-8.116
		h0.001c30.698,0,55.706-24.769,56.123-55.37H61.726z"/>
	<path style="fill:#F9D171;" d="M135.531,0H67.95C55.346,0,45.128,10.217,45.128,22.821v67.581c0,9.166,7.431,16.597,16.597,16.597
		h0c14.438,0,26.143-11.705,26.143-26.143V62.744c0-11.048,8.956-20.004,20.004-20.004h18.113c14.438,0,26.143-11.705,26.143-26.143
		C152.128,7.431,144.697,0,135.531,0z"/>
	<path style="fill:#F9475E;" d="M125.985,369.083L125.985,369.083c-4.483,0-8.117-3.634-8.117-8.116l0,0
		c0-30.958-25.185-56.143-56.142-56.143v119.629h120.383C181.692,393.853,156.683,369.083,125.985,369.083z"/>
	<path style="fill:#F9D171;" d="M135.531,441.824H67.95c-12.604,0-22.821-10.217-22.821-22.821v-67.581
		c0-9.166,7.431-16.597,16.597-16.597h0c14.438,0,26.143,11.705,26.143,26.143v18.113c0,11.048,8.956,20.004,20.004,20.004h18.113
		c14.438,0,26.143,11.704,26.143,26.143C152.128,434.393,144.697,441.824,135.531,441.824z"/>
	<path style="fill:#F9475E;" d="M371.015,72.74L371.015,72.74c4.483,0,8.117,3.634,8.117,8.116v0
		c0,30.957,25.185,56.143,56.142,56.143V17.37H314.892C315.309,47.971,340.317,72.74,371.015,72.74z"/>
	<path style="fill:#F9D171;" d="M361.469,0l67.581,0c12.604,0,22.821,10.217,22.821,22.821v67.581
		c0,9.166-7.431,16.597-16.597,16.597h0c-14.438,0-26.143-11.705-26.143-26.143V62.744c0-11.048-8.956-20.004-20.004-20.004h-18.113
		c-14.438,0-26.143-11.705-26.143-26.143C344.872,7.431,352.303,0,361.469,0z"/>
	<path style="fill:#F9475E;" d="M435.274,424.453V304.824c-30.957,0-56.142,25.186-56.142,56.143l0,0
		c0,4.482-3.634,8.116-8.116,8.116h-0.001c-30.698,0-55.706,24.77-56.123,55.37H435.274z"/>
	<path style="fill:#F9D171;" d="M361.469,441.824h67.581c12.604,0,22.821-10.217,22.821-22.821v-67.581
		c0-9.166-7.431-16.597-16.597-16.597h0c-14.438,0-26.143,11.705-26.143,26.143v18.113c0,11.048-8.956,20.004-20.004,20.004h-18.113
		c-14.438,0-26.143,11.704-26.143,26.143C344.872,434.393,352.303,441.824,361.469,441.824z"/>
	<path style="fill:#F9D171;" d="M248.5,102.889c-79.617,0-144.159,64.542-144.159,144.159S168.883,391.206,248.5,391.206
		s144.159-64.542,144.159-144.159S328.117,102.889,248.5,102.889z M248.5,352.439c-58.206,0-105.391-47.185-105.391-105.391
		S190.294,141.657,248.5,141.657s105.391,47.185,105.391,105.391S306.706,352.439,248.5,352.439z"/>
	<path style="fill:#F9D171;" d="M329.079,263.051l-42.667-31l16.297-50.158c1.004-3.09-0.096-6.476-2.725-8.386
		c-2.629-1.91-6.188-1.91-8.816,0l-42.668,31l-42.668-31c-2.628-1.909-6.188-1.909-8.816,0c-2.629,1.91-3.729,5.295-2.725,8.386
		l16.297,50.158l-42.667,31c-2.629,1.91-3.729,5.295-2.725,8.386c1.004,3.09,3.884,5.182,7.133,5.182h52.74l16.298,50.159
		c1.004,3.09,3.884,5.183,7.133,5.183s6.129-2.093,7.133-5.183l16.298-50.159h52.74c3.249,0,6.129-2.092,7.133-5.182
		C332.808,268.346,331.708,264.961,329.079,263.051z M273.652,222.781l-12.392-9.003l20.051-14.567L273.652,222.781z
		 M235.968,261.619l-7.746-23.838l20.278-14.732l20.278,14.732l-7.746,23.838H235.968z M235.74,213.778l-12.392,9.003l-7.659-23.571
		L235.74,213.778z M215.462,247.051l4.733,14.568h-24.784L215.462,247.051z M248.5,300.19l-7.659-23.571h15.317L248.5,300.19z
		 M276.804,261.619l4.733-14.568l20.05,14.568H276.804z"/>
	<g>
		<path style="fill:#423E4F;" d="M179.726,62.196c-4.142,0-7.5-3.358-7.5-7.5v-10.49c0-4.142,3.358-7.5,7.5-7.5s7.5,3.358,7.5,7.5
			v10.49C187.226,58.838,183.868,62.196,179.726,62.196z"/>
	</g>
	<ellipse style="fill:#423E4F;" cx="248.5" cy="64.137" rx="14.356" ry="16.064"/>
	<g>
		<path style="fill:#423E4F;" d="M317.275,62.196c-4.142,0-7.5-3.358-7.5-7.5v-10.49c0-4.142,3.358-7.5,7.5-7.5s7.5,3.358,7.5,7.5
			v10.49C324.775,58.838,321.417,62.196,317.275,62.196z"/>
	</g>
</g>
<g>
</g>
<g>
</g>
<g>
</g>
<g>
</g>
<g>
</g>
<g>
</g>
<g>
</g>
<g>
</g>
<g>
</g>
<g>
</g>
<g>
</g>
<g>
</g>
<g>
</g>
<g>
</g>
<g>
</g>
</svg>
