<?xml version="1.0" encoding="iso-8859-1"?>
<!-- Generator: Adobe Illustrator 23.0.3, SVG Export Plug-In . SVG Version: 6.00 Build 0)  -->
<svg version="1.1" id="Capa_1" xmlns="http://www.w3.org/2000/svg" xmlns:xlink="http://www.w3.org/1999/xlink" x="0px" y="0px"
	 viewBox="0 0 497 497" style="enable-background:new 0 0 497 497;" xml:space="preserve">
<g>
	<path style="fill:#996ACC;" d="M254.627,0L254.627,0C149.63,0,64.512,85.117,64.512,190.114v274.411h380.229V190.114
		C444.741,85.117,359.624,0,254.627,0z"/>
	<path style="fill:#C8C6CC;" d="M115.674,464.525V190.114c0-76.619,62.334-138.953,138.953-138.953S393.58,113.495,393.58,190.114
		v274.411H115.674z"/>
	<path style="fill:#A29DAE;" d="M269.627,51.974c-4.929-0.532-9.932-0.812-15-0.812c-76.619,0-138.953,62.334-138.953,138.953
		v274.411h30V190.114C145.674,118.563,200.037,59.478,269.627,51.974z"/>
	<g>
		<ellipse style="fill:#FFA1AC;" cx="173.222" cy="172.858" rx="30.037" ry="23.92"/>
		<ellipse style="fill:#FFA1AC;" cx="336.032" cy="172.858" rx="30.037" ry="23.92"/>
	</g>
	<g>
		<path style="fill:#423E4F;" d="M190.728,157.332c-4.143,0-7.5-3.358-7.5-7.5v-12.279c0-4.142,3.357-7.5,7.5-7.5s7.5,3.358,7.5,7.5
			v12.279C198.228,153.975,194.87,157.332,190.728,157.332z"/>
	</g>
	<g>
		<path style="fill:#423E4F;" d="M318.527,157.332c-4.143,0-7.5-3.358-7.5-7.5v-12.279c0-4.142,3.357-7.5,7.5-7.5s7.5,3.358,7.5,7.5
			v12.279C326.027,153.975,322.669,157.332,318.527,157.332z"/>
	</g>
	<g>
		<path style="fill:#423E4F;" d="M254.627,164.642c-8.625,0-16.826-3.735-22.501-10.248c-2.722-3.123-2.396-7.86,0.728-10.582
			c3.122-2.72,7.86-2.396,10.581,0.727c2.825,3.242,6.905,5.102,11.192,5.102c4.287,0,8.366-1.86,11.192-5.103
			c2.722-3.122,7.46-3.448,10.582-0.726c3.123,2.721,3.447,7.459,0.727,10.582C271.451,160.907,263.25,164.642,254.627,164.642z"/>
	</g>
	<path style="fill:#996ACC;" d="M307.819,245.351h-24.379c-4.209,0-7.621-3.412-7.621-7.621v-27.789
		c0-4.209-3.412-7.621-7.621-7.621h-27.144c-4.209,0-7.621,3.412-7.621,7.621v27.789c0,4.209-3.412,7.621-7.621,7.621h-24.379
		c-4.209,0-7.621,3.412-7.621,7.621v27.144c0,4.209,3.412,7.621,7.621,7.621h24.379c4.209,0,7.621,3.412,7.621,7.621v66.671
		c0,4.209,3.412,7.621,7.621,7.621h27.144c4.209,0,7.621-3.412,7.621-7.621v-66.671c0-4.209,3.412-7.621,7.621-7.621h24.379
		c4.209,0,7.621-3.412,7.621-7.621v-27.144C315.44,248.763,312.028,245.351,307.819,245.351z"/>
	<path style="fill:#FF9C86;" d="M439.041,411.617c-0.594-0.021-1.191-0.031-1.79-0.031c-16.856,0-31.78,8.27-40.937,20.973
		c-3.047,4.227-9.455,4.227-12.502,0c-9.157-12.704-24.081-20.973-40.937-20.973s-31.78,8.27-40.937,20.973
		c-3.047,4.227-9.455,4.227-12.502,0c-9.157-12.704-24.081-20.973-40.937-20.973s-31.78,8.27-40.937,20.973
		c-3.047,4.227-9.455,4.227-12.502,0c-9.157-12.704-24.081-20.973-40.937-20.973s-31.78,8.27-40.937,20.973
		c-3.047,4.227-9.455,4.227-12.502,0c-9.157-12.704-24.081-20.973-40.937-20.973c-0.599,0-1.196,0.01-1.79,0.031
		c-25.466,0.889-45.397,22.353-45.397,47.835v0c0,20.737,16.811,37.548,37.548,37.548h396.781c20.737,0,37.548-16.811,37.548-37.548
		v0C484.439,433.97,464.508,412.505,439.041,411.617z"/>
	<path style="fill:#F86745;" d="M42.561,459.452L42.561,459.452c0-20.967,13.499-39.203,32.467-45.506
		c-4.82-1.53-9.952-2.361-15.279-2.361c-0.599,0-1.196,0.01-1.79,0.031c-25.466,0.889-45.397,22.354-45.397,47.835l0,0
		c0,20.737,16.811,37.548,37.548,37.548h30C59.372,497,42.561,480.189,42.561,459.452z"/>
</g>
<g>
</g>
<g>
</g>
<g>
</g>
<g>
</g>
<g>
</g>
<g>
</g>
<g>
</g>
<g>
</g>
<g>
</g>
<g>
</g>
<g>
</g>
<g>
</g>
<g>
</g>
<g>
</g>
<g>
</g>
</svg>
