<?xml version="1.0" encoding="iso-8859-1"?>
<!-- Generator: Adobe Illustrator 23.0.3, SVG Export Plug-In . SVG Version: 6.00 Build 0)  -->
<svg version="1.1" id="Capa_1" xmlns="http://www.w3.org/2000/svg" xmlns:xlink="http://www.w3.org/1999/xlink" x="0px" y="0px"
	 viewBox="0 0 497 497" style="enable-background:new 0 0 497 497;" xml:space="preserve">
<g>
	<path style="fill:#80E0B7;" d="M380.82,497H248.5l-27.935-49.47l27.935-65.185l85.634,27.298
		C334.134,409.643,380.82,440.896,380.82,497z"/>
	<path style="fill:#FD5C6F;" d="M148.59,28.391C137.679,9.093,113.189,2.296,93.892,13.207c-14.342,8.11-21.77,23.718-20.164,39.121
		c0.199,1.911-1.321,3.532-3.243,3.53c-0.013,0-0.026,0-0.039,0c-22.169,0-40.14,17.971-40.14,40.14
		c0,7.213,1.909,13.978,5.242,19.826c0.942,1.654,0.259,3.76-1.486,4.519c-14.979,6.517-25.21,21.897-24.053,39.523
		c1.303,19.847,17.356,35.961,37.198,37.332c23.459,1.621,42.992-16.929,42.992-40.041L148.59,28.391z"/>
	<path style="fill:#FD5C6F;" d="M348.41,28.391c10.912-19.297,35.401-26.095,54.698-15.183c14.342,8.11,21.77,23.718,20.164,39.121
		c-0.199,1.911,1.321,3.532,3.243,3.53c0.013,0,0.026,0,0.039,0c22.169,0,40.14,17.971,40.14,40.14
		c0,7.213-1.909,13.978-5.242,19.826c-0.942,1.654-0.259,3.76,1.486,4.519c14.979,6.517,25.21,21.897,24.053,39.523
		c-1.303,19.847-17.356,35.961-37.198,37.332c-23.459,1.621-42.992-16.929-42.992-40.041L348.41,28.391z"/>
	<path style="fill:#996ACC;" d="M248.5,382.345V497H116.18c0-56.104,46.686-87.357,46.686-87.357L248.5,382.345z"/>
	<path style="fill:#6D36AB;" d="M162.866,409.643c0,0-46.686,31.253-46.686,87.357h30c0-56.104,46.686-87.357,46.686-87.357H162.866
		z"/>
	<circle style="fill:#B7B5BD;" cx="437.552" cy="203.486" r="52.746"/>
	<circle style="fill:#DADADA;" cx="248.5" cy="191.173" r="191.173"/>
	<path style="fill:#B7B5BD;" d="M87.327,191.172C87.327,90.639,164.93,8.234,263.5,0.583C258.55,0.199,253.548,0,248.5,0
		C156.772,0,80.147,64.608,61.614,150.796c-0.707-0.031-1.42-0.056-2.166-0.056c-29.131,0-52.746,23.615-52.746,52.746
		c0,29.131,23.615,52.746,52.746,52.746c3.369,0,6.313-0.329,8.915-0.933c26.359,74.038,97.052,127.046,180.138,127.046
		c5.048,0,10.05-0.199,15-0.583C164.93,374.111,87.327,291.706,87.327,191.172z"/>
	<circle style="fill:#FD5C6F;" cx="248.5" cy="211.559" r="37.851"/>
	<g>
		<ellipse style="fill:#FFA1AC;" cx="141.125" cy="232.415" rx="39.619" ry="31.551"/>
		<ellipse style="fill:#FFA1AC;" cx="355.875" cy="232.415" rx="39.619" ry="31.551"/>
	</g>
	<g>
		<path style="fill:#423E4F;" d="M275.649,268.279c-3.123-2.722-7.86-2.396-10.582,0.727c-4.182,4.799-10.22,7.551-16.567,7.551
			s-12.385-2.752-16.567-7.551c-2.722-3.123-7.458-3.448-10.582-0.727c-3.123,2.722-3.448,7.459-0.727,10.582
			c7.032,8.068,17.192,12.696,27.876,12.696s20.844-4.627,27.875-12.696C279.097,275.738,278.772,271,275.649,268.279z"/>
		<path style="fill:#423E4F;" d="M182.112,172.849l-32.48-8.703c-3.997-1.071-8.113,1.302-9.186,5.304
			c-1.072,4.001,1.303,8.113,5.304,9.186l12.784,3.425c-1.132,1.313-1.82,3.019-1.82,4.889v13.991c0,4.142,3.358,7.5,7.5,7.5
			s7.5-3.358,7.5-7.5v-13.991c0-0.477-0.049-0.941-0.134-1.394l6.65,1.782c0.65,0.174,1.303,0.257,1.946,0.257
			c3.311,0,6.342-2.21,7.24-5.561C188.488,178.033,186.113,173.921,182.112,172.849z"/>
		<path style="fill:#423E4F;" d="M356.554,169.449c-1.072-4.001-5.187-6.376-9.186-5.304l-32.48,8.703
			c-4.001,1.072-6.375,5.185-5.304,9.186c0.898,3.351,3.928,5.561,7.24,5.561c0.643,0,1.296-0.083,1.946-0.257l6.65-1.782
			c-0.085,0.452-0.134,0.917-0.134,1.394v13.991c0,4.142,3.358,7.5,7.5,7.5s7.5-3.358,7.5-7.5v-13.991
			c0-1.87-0.688-3.576-1.82-4.889l12.784-3.425C355.251,177.563,357.625,173.45,356.554,169.449z"/>
	</g>
	<circle style="fill:#F9475E;" cx="248.5" cy="455.121" r="18.381"/>
	<path style="fill:#F9475E;" d="M268.702,403.786c0,0,68.364,70.465,68.364-21.44s-68.364-21.44-68.364-21.44V403.786z"/>
	<path style="fill:#F9475E;" d="M228.298,403.786c0,0-68.364,70.465-68.364-21.44s68.364-21.44,68.364-21.44V403.786z"/>
	<path style="fill:#E92740;" d="M192.888,382.345c0,14.704,6.108,28.001,15.91,37.512c11.003-7.314,19.5-16.072,19.5-16.072v-42.881
		c0,0-8.498-8.758-19.5-16.072C198.996,354.344,192.888,367.641,192.888,382.345z"/>
	<path style="fill:#E92740;" d="M268.702,360.905v42.881c0,0,8.498,8.758,19.5,16.072c9.802-9.511,15.91-22.808,15.91-37.512
		s-6.108-28.001-15.91-37.512C277.2,352.147,268.702,360.905,268.702,360.905z"/>
	<path style="fill:#FD5C6F;" d="M251.811,355.044h-6.623c-15.078,0-27.301,12.223-27.301,27.301v0
		c0,15.078,12.223,27.301,27.301,27.301h6.623c15.078,0,27.301-12.223,27.301-27.301v0
		C279.113,367.267,266.889,355.044,251.811,355.044z"/>
</g>
<g>
</g>
<g>
</g>
<g>
</g>
<g>
</g>
<g>
</g>
<g>
</g>
<g>
</g>
<g>
</g>
<g>
</g>
<g>
</g>
<g>
</g>
<g>
</g>
<g>
</g>
<g>
</g>
<g>
</g>
</svg>
