<?xml version="1.0" encoding="iso-8859-1"?>
<!-- Generator: Adobe Illustrator 23.0.3, SVG Export Plug-In . SVG Version: 6.00 Build 0)  -->
<svg version="1.1" id="Capa_1" xmlns="http://www.w3.org/2000/svg" xmlns:xlink="http://www.w3.org/1999/xlink" x="0px" y="0px"
	 viewBox="0 0 497 497" style="enable-background:new 0 0 497 497;" xml:space="preserve">
<g>
	<path style="fill:#FFB25A;" d="M277.048,0h-57.096c-14.089,0-24.867,12.551-22.739,26.478l6.528,42.717L248.5,96.558l44.758-27.364
		l6.528-42.717C301.915,12.551,291.137,0,277.048,0z"/>
	<path style="fill:#F88000;" d="M233.742,69.195l-6.528-42.717C225.085,12.551,235.863,0,249.952,0h-30
		c-14.089,0-24.867,12.551-22.739,26.478l6.528,42.717L248.5,96.558l15-9.17L233.742,69.195z"/>
	<path style="fill:#80E0B7;" d="M389.314,266.086l-75.44-50.537c-12.883-8.631-20.615-23.117-20.615-38.624v-53.003L248.5,96.558
		l-44.758,27.364v53.003c0,15.507-7.732,29.993-20.615,38.624l-75.44,50.537c-29.154,19.53-41.941,55.943-31.399,89.413
		l31.68,100.585C115.637,480.437,138.22,497,163.753,497h169.495c25.533,0,48.115-16.563,55.785-40.917l31.68-100.585
		C431.255,322.029,418.467,285.616,389.314,266.086z"/>
	<polygon style="fill:#00B762;" points="293.258,153.921 293.258,153.921 293.258,123.922 248.5,96.558 203.742,123.922 
		203.742,153.921 	"/>
	<path style="fill:#80E0B7;" d="M293.258,69.195h-89.516c-11.228,0-20.329,9.102-20.329,20.329v14.069
		c0,11.228,9.102,20.329,20.329,20.329h89.516c11.228,0,20.329-9.102,20.329-20.329V89.524
		C313.587,78.296,304.486,69.195,293.258,69.195z"/>
	<path style="fill:#996ACC;" d="M371.155,346.406c-131.012,26.982-161.331-30.953-250.409-4.889c-3.9,1.141-6.093,5.282-4.872,9.158
		l29.49,93.63c2.528,8.028,9.972,13.488,18.389,13.488h169.495c8.458,0,15.848-5.421,18.388-13.488l27.905-88.595
		C381.205,350.427,376.579,345.289,371.155,346.406z"/>
	<path style="fill:#6D36AB;" d="M175.364,444.305L141.38,336.744c-6.549,1.099-13.395,2.654-20.634,4.772
		c-3.9,1.141-6.093,5.282-4.872,9.158l29.49,93.63c2.528,8.028,9.972,13.488,18.389,13.488h30
		C185.336,457.792,177.892,452.333,175.364,444.305z"/>
	<g>
		<g>
			<path style="fill:#423E4F;" d="M174.641,411.862c-4.142,0-7.5-3.358-7.5-7.5v-14.193c0-4.142,3.358-7.5,7.5-7.5
				s7.5,3.358,7.5,7.5v14.193C182.141,408.504,178.783,411.862,174.641,411.862z"/>
		</g>
		<g>
			<path style="fill:#423E4F;" d="M322.359,411.862c-4.142,0-7.5-3.358-7.5-7.5v-14.193c0-4.142,3.358-7.5,7.5-7.5
				s7.5,3.358,7.5,7.5v14.193C329.859,408.504,326.502,411.862,322.359,411.862z"/>
		</g>
		<g>
			<path style="fill:#423E4F;" d="M248.5,420.31c-9.63,0-18.789-4.171-25.127-11.444c-2.721-3.123-2.396-7.86,0.727-10.582
				c3.123-2.721,7.86-2.396,10.582,0.727c3.488,4.003,8.525,6.299,13.818,6.299s10.33-2.296,13.818-6.299
				c2.722-3.123,7.459-3.448,10.582-0.727c3.123,2.721,3.448,7.459,0.727,10.582C267.289,416.139,258.13,420.31,248.5,420.31z"/>
		</g>
	</g>
	<circle style="fill:#996ACC;" cx="258.467" cy="232.98" r="20.098"/>
	<path style="fill:#6D36AB;" d="M268.467,243.079c-11.1,0-20.098-8.999-20.098-20.099c0-2.96,0.656-5.762,1.806-8.292
		c-6.958,3.16-11.806,10.153-11.806,18.292c0,11.1,8.998,20.099,20.098,20.099c8.14,0,15.133-4.848,18.293-11.806
		C274.229,242.422,271.427,243.079,268.467,243.079z"/>
	<circle style="fill:#996ACC;" cx="194.219" cy="282.093" r="26.79"/>
	<path style="fill:#6D36AB;" d="M204.219,288.883c-14.796,0-26.79-11.995-26.79-26.79c0-0.298,0.013-0.592,0.022-0.888
		c-6.109,4.91-10.022,12.44-10.022,20.888c0,14.795,11.994,26.79,26.79,26.79c14.498,0,26.298-11.519,26.768-25.903
		C216.395,286.67,210.567,288.883,204.219,288.883z"/>
</g>
<g>
</g>
<g>
</g>
<g>
</g>
<g>
</g>
<g>
</g>
<g>
</g>
<g>
</g>
<g>
</g>
<g>
</g>
<g>
</g>
<g>
</g>
<g>
</g>
<g>
</g>
<g>
</g>
<g>
</g>
</svg>
