<?xml version="1.0" encoding="iso-8859-1"?>
<!-- Generator: Adobe Illustrator 23.0.3, SVG Export Plug-In . SVG Version: 6.00 Build 0)  -->
<svg version="1.1" id="Capa_1" xmlns="http://www.w3.org/2000/svg" xmlns:xlink="http://www.w3.org/1999/xlink" x="0px" y="0px"
	 viewBox="0 0 497 497" style="enable-background:new 0 0 497 497;" xml:space="preserve">
<g>
	<path style="fill:#FD5C6F;" d="M410.344,405.764c0,10.031-8.131,18.162-18.162,18.162c-10.031,0-18.162-8.131-18.162-18.162
		v-35.426c0-10.031-8.131-18.162-18.162-18.162c-10.031,0-18.162,8.131-18.162,18.162v72.45c0,10.031-8.131,18.162-18.162,18.162
		c-10.031,0-18.162-8.131-18.162-18.162v-41.271c0-10.031-8.131-18.162-18.162-18.162c-10.031,0-18.162,8.131-18.162,18.162v77.321
		c0,10.031-8.131,18.162-18.162,18.162s-18.162-8.131-18.162-18.162v-77.321c0-10.031-8.131-18.162-18.162-18.162
		s-18.162,8.131-18.162,18.162v41.271c0,10.031-8.131,18.162-18.162,18.162s-18.162-8.131-18.162-18.162v-72.45
		c0-10.031-8.131-18.162-18.162-18.162s-18.162,8.131-18.162,18.162v35.426c0,10.031-8.131,18.162-18.162,18.162
		s-18.162-8.131-18.162-18.162V215.715h326.917V405.764z"/>
	<path style="fill:#DADADA;" d="M381.821,60.613l-11.351-7.029l-0.634-5.417C338.157,18.308,295.469,0,248.5,0
		c-34.939,0-67.509,10.131-94.943,27.609l-2.574,7.498l-9.723,1.097C98.9,68.532,71.559,119.54,71.559,176.941
		c0,47.681,18.866,90.951,49.533,122.77l0,0l10.123,3.216l1.34,7.676c31.053,26.96,71.592,43.28,115.944,43.28
		c56.585,0,106.965-26.563,139.354-67.898l0.562-11.581l8.455-1.038c18.064-27.739,28.569-60.853,28.569-96.423
		C425.441,132.405,408.981,91.716,381.821,60.613z"/>
	<path style="fill:#E92740;" d="M103.427,405.764V215.715h-20v190.049c0,10.031,8.131,18.162,18.162,18.162
		c3.697,0,7.131-1.111,10-3.008C106.673,417.668,103.427,412.098,103.427,405.764z"/>
	<path style="fill:#B7B5BD;" d="M101.559,176.941C101.559,84.272,172.8,8.254,263.5,0.639C258.554,0.224,253.553,0,248.5,0
		C150.778,0,71.559,79.219,71.559,176.941S150.778,353.882,248.5,353.882c5.053,0,10.054-0.224,15-0.639
		C172.8,345.627,101.559,269.609,101.559,176.941z"/>
	<circle style="fill:#00B762;" cx="248.5" cy="167.198" r="86.017"/>
	<path style="fill:#423E4F;" d="M248.5,193.504c-16.143,0-29.229-13.087-29.229-29.229c0-16.143,13.087-29.23,29.229-29.23
		s29.229,13.087,29.229,29.23C277.729,180.418,264.643,193.504,248.5,193.504z"/>
	<path style="fill:#E92740;" d="M141.299,36.263l10.26,13.771c6.725,9.026,17.46,14.414,28.715,14.414
		c3.865,0,7.647,1.074,10.936,3.105c1.228,0.758,2.589,1.12,3.934,1.12c2.514,0,4.97-1.264,6.388-3.56
		c2.177-3.524,1.084-8.146-2.44-10.322c-5.659-3.495-12.166-5.343-18.817-5.343c-6.541,0-12.779-3.131-16.687-8.376l-10.031-13.463
		c-4.226,2.692-8.325,5.564-12.297,8.596C141.274,36.224,141.285,36.244,141.299,36.263z"/>
	<path style="fill:#E92740;" d="M388.413,261.208c-4.123-5.926-10.231-10.225-17.2-12.106c-4.909-1.325-8.889-4.966-10.645-9.737
		c-1.431-3.888-5.741-5.879-9.629-4.448c-3.887,1.431-5.878,5.742-4.448,9.629c3.434,9.33,11.214,16.447,20.813,19.038
		c3.564,0.962,6.688,3.161,8.797,6.192l10.089,14.5c0.471,0.676,1.039,1.24,1.664,1.708c3.186-4.065,6.191-8.279,9.018-12.619
		L388.413,261.208z"/>
	<path style="fill:#E92740;" d="M167.406,248.427l-8.074,6.726c-8.219-2.684-14.959-8.548-18.742-16.44
		c-1.791-3.735-6.269-5.312-10.005-3.521c-3.735,1.791-5.312,6.271-3.521,10.005c4.739,9.885,12.631,17.609,22.331,22.131
		c-1.613,3.437-2.638,7.15-2.992,10.973c-0.622,6.715-4.888,12.465-11.134,15.005l-11.689,4.754
		c-0.962,0.391-1.798,0.959-2.487,1.65c3.659,3.796,7.481,7.434,11.463,10.892l8.363-3.401c11.455-4.659,19.28-15.203,20.42-27.517
		c0.373-4.03,2.109-7.838,4.9-10.763l10.768-8.969c3.183-2.651,3.613-7.381,0.962-10.563
		C175.318,246.206,170.588,245.776,167.406,248.427z"/>
	<path style="fill:#E92740;" d="M377.428,62.544c1.704-0.148,3.219-0.861,4.393-1.93c-3.791-4.341-7.792-8.494-11.985-12.446
		c-15.177,1.535-29.598,7.189-41.768,16.416l-10.795,8.183c-3.301,2.502-3.948,7.207-1.446,10.507
		c1.475,1.946,3.715,2.97,5.982,2.97c1.579,0,3.17-0.496,4.525-1.523l10.795-8.184c0.588-0.446,1.184-0.879,1.785-1.304l1.016,4.424
		c1.662,7.238,5.332,13.821,10.614,19.04c1.462,1.444,3.366,2.165,5.271,2.165c1.935,0,3.869-0.744,5.336-2.229
		c2.911-2.946,2.882-7.695-0.064-10.606c-3.252-3.213-5.513-7.269-6.536-11.726l-1.963-8.553c6.263-2.547,12.899-4.165,19.715-4.757
		L377.428,62.544z"/>
</g>
<g>
</g>
<g>
</g>
<g>
</g>
<g>
</g>
<g>
</g>
<g>
</g>
<g>
</g>
<g>
</g>
<g>
</g>
<g>
</g>
<g>
</g>
<g>
</g>
<g>
</g>
<g>
</g>
<g>
</g>
</svg>
