<?xml version="1.0" encoding="iso-8859-1"?>
<!-- Generator: Adobe Illustrator 23.0.3, SVG Export Plug-In . SVG Version: 6.00 Build 0)  -->
<svg version="1.1" id="Capa_1" xmlns="http://www.w3.org/2000/svg" xmlns:xlink="http://www.w3.org/1999/xlink" x="0px" y="0px"
	 viewBox="0 0 497 497" style="enable-background:new 0 0 497 497;" xml:space="preserve">
<g>
	<g>
		<rect x="233.617" y="25.677" style="fill:#DADADA;" width="29.765" height="168.197"/>
	</g>
	<g>
		<path style="fill:#5C576E;" d="M364.818,231.972c-4.291,0-8.548-1.846-11.491-5.415c-5.229-6.342-4.327-15.722,2.014-20.951
			l34.212-28.21c15.9-13.109,37.93-15.33,56.124-5.657l15.357,8.165c7.258,3.858,10.014,12.87,6.155,20.128
			c-3.857,7.259-12.872,10.013-20.127,6.155l-15.357-8.165c-7.527-4.001-16.639-3.082-23.216,2.34l-34.211,28.21
			C371.504,230.858,368.151,231.972,364.818,231.972z"/>
	</g>
	<g>
		<path style="fill:#5C576E;" d="M385.835,289.742c-4.144-1.116-7.774-4.005-9.689-8.216c-3.401-7.483-0.091-16.306,7.392-19.707
			l40.369-18.346c18.761-8.524,40.611-4.942,55.665,9.128l12.707,11.876c6.006,5.613,6.324,15.031,0.71,21.035
			c-5.612,6.006-15.033,6.323-21.035,0.711l-12.707-11.876c-6.228-5.82-15.266-7.302-23.027-3.776l-40.368,18.346
			C392.581,290.404,389.054,290.608,385.835,289.742z"/>
	</g>
	<g>
		<path style="fill:#5C576E;" d="M389.116,342.824c-3.034-3.034-4.739-7.349-4.297-11.955c0.787-8.182,8.057-14.177,16.239-13.39
			l44.139,4.244c20.512,1.974,37.66,15.98,43.686,35.686l5.086,16.633c2.404,7.861-2.019,16.181-9.88,18.584
			c-7.86,2.405-16.183-2.022-18.584-9.88l-5.086-16.633c-2.493-8.151-9.586-13.945-18.071-14.762l-44.138-4.243
			C394.632,346.764,391.473,345.181,389.116,342.824z"/>
	</g>
	<g>
		<path style="fill:#5C576E;" d="M363.129,398.534c-2.141-3.719-2.665-8.329-1.041-12.661c2.887-7.696,11.466-11.595,19.162-8.708
			l41.518,15.573c19.294,7.239,32.211,25.221,32.906,45.816l0.587,17.383c0.278,8.215-6.157,15.1-14.372,15.377
			c-8.215,0.279-15.101-6.159-15.376-14.371l-0.587-17.383c-0.288-8.519-5.631-15.958-13.612-18.952l-41.517-15.572
			C367.431,403.773,364.792,401.423,363.129,398.534z"/>
	</g>
	<g>
		<path style="fill:#5C576E;" d="M132.182,231.972c4.291,0,8.548-1.846,11.491-5.415c5.229-6.342,4.327-15.722-2.014-20.951
			l-34.212-28.21c-15.9-13.109-37.93-15.33-56.124-5.657l-15.357,8.165c-7.258,3.858-10.014,12.87-6.155,20.128
			c3.857,7.259,12.872,10.013,20.127,6.155l15.357-8.165c7.527-4.001,16.639-3.082,23.216,2.34l34.211,28.21
			C125.496,230.858,128.849,231.972,132.182,231.972z"/>
	</g>
	<g>
		<path style="fill:#5C576E;" d="M111.165,289.742c4.144-1.116,7.774-4.005,9.689-8.216c3.401-7.483,0.091-16.306-7.392-19.707
			l-40.369-18.346c-18.761-8.524-40.611-4.942-55.665,9.128L4.721,264.477c-6.006,5.613-6.324,15.031-0.71,21.035
			c5.612,6.006,15.033,6.323,21.035,0.711l12.707-11.876c6.228-5.82,15.266-7.302,23.027-3.776l40.368,18.346
			C104.419,290.404,107.946,290.608,111.165,289.742z"/>
	</g>
	<g>
		<path style="fill:#5C576E;" d="M107.884,342.824c3.034-3.034,4.739-7.349,4.297-11.955c-0.787-8.182-8.057-14.177-16.239-13.39
			l-44.139,4.244c-20.512,1.974-37.66,15.98-43.686,35.686l-5.086,16.633c-2.404,7.861,2.019,16.181,9.88,18.584
			c7.86,2.405,16.183-2.022,18.584-9.88l5.086-16.633c2.493-8.151,9.586-13.945,18.071-14.762l44.138-4.243
			C102.368,346.764,105.527,345.181,107.884,342.824z"/>
	</g>
	<g>
		<path style="fill:#5C576E;" d="M133.871,398.534c2.141-3.719,2.666-8.329,1.041-12.661c-2.887-7.696-11.466-11.595-19.162-8.708
			l-41.518,15.573c-19.294,7.239-32.211,25.221-32.906,45.816l-0.587,17.383c-0.278,8.215,6.157,15.1,14.372,15.377
			c8.215,0.279,15.101-6.159,15.376-14.371l0.587-17.383c0.288-8.519,5.631-15.958,13.612-18.952l41.517-15.572
			C129.569,403.773,132.208,401.423,133.871,398.534z"/>
	</g>
	<path style="fill:#4F4C5E;" d="M141.659,205.606l-34.212-28.209c-3.366-2.775-7.008-5.056-10.828-6.846
		c-7.657,7.692-14.628,16.066-20.827,25.014c4.553,0.137,9.034,1.759,12.72,4.797l34.211,28.21c2.773,2.286,6.126,3.4,9.46,3.4
		c4.291,0,8.548-1.846,11.491-5.415C148.903,220.215,148.001,210.836,141.659,205.606z"/>
	<path style="fill:#4F4C5E;" d="M113.462,261.819l-40.369-18.346c-6.261-2.845-12.867-4.334-19.449-4.542
		c-3.472,9.881-6.115,20.146-7.848,30.716c4.833-1.522,10.155-1.269,14.983,0.924l40.368,18.346c3.272,1.487,6.8,1.691,10.018,0.824
		c4.144-1.115,7.774-4.004,9.689-8.216C124.254,274.042,120.945,265.219,113.462,261.819z"/>
	<path style="fill:#4F4C5E;" d="M95.942,317.479l-44.139,4.244c-2.352,0.227-4.656,0.618-6.908,1.151
		c1.293,9.983,3.403,19.713,6.247,29.127c1.137-0.308,2.308-0.534,3.51-0.65l44.138-4.244c3.577-0.344,6.737-1.928,9.093-4.285
		c3.034-3.034,4.739-7.349,4.297-11.954C111.394,322.687,104.124,316.693,95.942,317.479z"/>
	<path style="fill:#4F4C5E;" d="M115.751,377.166l-41.518,15.573c-1.38,0.518-2.724,1.097-4.037,1.722
		c5.376,8.766,11.469,17.045,18.2,24.756l37.808-14.181c3.365-1.262,6.004-3.612,7.667-6.501c2.141-3.719,2.665-8.329,1.041-12.661
		C132.026,378.177,123.447,374.279,115.751,377.166z"/>
	<path style="fill:#4F4C5E;" d="M355.34,205.606l34.212-28.209c3.366-2.775,7.008-5.056,10.828-6.846
		c7.657,7.692,14.628,16.066,20.827,25.014c-4.553,0.137-9.034,1.759-12.72,4.797l-34.211,28.21c-2.773,2.286-6.126,3.4-9.46,3.4
		c-4.291,0-8.548-1.846-11.491-5.415C348.096,220.215,348.998,210.836,355.34,205.606z"/>
	<path style="fill:#4F4C5E;" d="M383.537,261.819l40.369-18.346c6.261-2.845,12.867-4.334,19.449-4.542
		c3.472,9.881,6.115,20.146,7.848,30.716c-4.833-1.522-10.155-1.269-14.983,0.924l-40.368,18.346
		c-3.272,1.487-6.8,1.691-10.018,0.824c-4.144-1.115-7.774-4.004-9.689-8.216C372.745,274.042,376.054,265.219,383.537,261.819z"/>
	<path style="fill:#4F4C5E;" d="M401.058,317.479l44.139,4.244c2.352,0.227,4.656,0.618,6.908,1.151
		c-1.293,9.983-3.403,19.713-6.247,29.127c-1.137-0.308-2.308-0.534-3.51-0.65l-44.138-4.244c-3.577-0.344-6.737-1.928-9.093-4.285
		c-3.034-3.034-4.739-7.349-4.297-11.954C385.605,322.687,392.876,316.693,401.058,317.479z"/>
	<path style="fill:#4F4C5E;" d="M381.248,377.166l41.518,15.573c1.38,0.518,2.724,1.097,4.037,1.722
		c-5.376,8.766-11.469,17.045-18.2,24.756l-37.808-14.181c-3.365-1.262-6.004-3.612-7.667-6.501
		c-2.141-3.719-2.665-8.329-1.041-12.661C364.974,378.177,373.552,374.279,381.248,377.166z"/>
	<rect x="233.617" y="116.712" style="fill:#B7B5BD;" width="29.765" height="77.163"/>
	<path style="fill:#996ACC;" d="M271.041,146.712h-45.082c-84.269,0-152.583,68.314-152.583,152.583v0
		c0,84.269,68.314,152.583,152.583,152.583h45.082c84.27,0,152.583-68.314,152.583-152.583v0
		C423.624,215.026,355.31,146.712,271.041,146.712z"/>
	<path style="fill:#6D36AB;" d="M103.376,299.296L103.376,299.296c0-84.27,68.314-152.584,152.583-152.584h-30
		c-84.269,0-152.583,68.314-152.583,152.584v0c0,84.269,68.314,152.583,152.583,152.583h30
		C171.69,451.879,103.376,383.565,103.376,299.296z"/>
	<ellipse style="fill:#FFA1AC;" cx="158.846" cy="360.55" rx="33.081" ry="26.344"/>
	<ellipse style="fill:#FFA1AC;" cx="338.154" cy="360.55" rx="33.081" ry="26.344"/>
	<g>
		<path style="fill:#423E4F;" d="M192.456,297.61l-23.437-4.132c-4.078-0.721-7.969,2.004-8.688,6.083s2.005,7.969,6.084,8.688
			l23.437,4.133c0.44,0.078,0.878,0.115,1.311,0.115c3.571,0,6.736-2.561,7.377-6.199
			C199.259,302.219,196.535,298.329,192.456,297.61z"/>
		<path style="fill:#423E4F;" d="M336.67,299.561c-0.719-4.079-4.608-6.801-8.688-6.083l-23.437,4.132
			c-4.079,0.72-6.803,4.609-6.084,8.688c0.642,3.639,3.806,6.199,7.377,6.199c0.432,0,0.871-0.038,1.311-0.115l23.437-4.133
			C334.665,307.53,337.389,303.64,336.67,299.561z"/>
		<path style="fill:#423E4F;" d="M280.576,329.656c-4.142,0-7.5,3.358-7.5,7.5c0,4.708-3.83,8.538-8.538,8.538
			s-8.538-3.83-8.538-8.538c0-4.142-3.358-7.5-7.5-7.5s-7.5,3.358-7.5,7.5c0,4.708-3.83,8.538-8.538,8.538
			c-4.708,0-8.538-3.83-8.538-8.538c0-4.142-3.358-7.5-7.5-7.5s-7.5,3.358-7.5,7.5c0,12.979,10.559,23.538,23.538,23.538
			c6.193,0,11.831-2.408,16.038-6.332c4.207,3.924,9.845,6.332,16.038,6.332c12.979,0,23.538-10.559,23.538-23.538
			C288.076,333.014,284.718,329.656,280.576,329.656z"/>
		<path style="fill:#423E4F;" d="M178.126,314.272c-4.142,0-7.5,3.358-7.5,7.5v13.314c0,4.142,3.358,7.5,7.5,7.5s7.5-3.358,7.5-7.5
			v-13.314C185.626,317.63,182.268,314.272,178.126,314.272z"/>
		<path style="fill:#423E4F;" d="M318.875,314.272c-4.142,0-7.5,3.358-7.5,7.5v13.314c0,4.142,3.358,7.5,7.5,7.5s7.5-3.358,7.5-7.5
			v-13.314C326.375,317.63,323.017,314.272,318.875,314.272z"/>
	</g>
</g>
<g>
</g>
<g>
</g>
<g>
</g>
<g>
</g>
<g>
</g>
<g>
</g>
<g>
</g>
<g>
</g>
<g>
</g>
<g>
</g>
<g>
</g>
<g>
</g>
<g>
</g>
<g>
</g>
<g>
</g>
</svg>
