<?xml version="1.0" encoding="iso-8859-1"?>
<!-- Generator: Adobe Illustrator 23.0.3, SVG Export Plug-In . SVG Version: 6.00 Build 0)  -->
<svg version="1.1" id="Capa_1" xmlns="http://www.w3.org/2000/svg" xmlns:xlink="http://www.w3.org/1999/xlink" x="0px" y="0px"
	 viewBox="0 0 497 497" style="enable-background:new 0 0 497 497;" xml:space="preserve">
<g>
	<path style="fill:#DADADA;" d="M393.392,308.103c2.84-6.772,2.734-14.716-0.976-21.709c-6.564-12.376-21.918-17.087-34.293-10.523
		c-12.056,6.395-16.833,21.129-11.004,33.327l-216.65,114.913c-6.829-11.668-21.708-15.977-33.764-9.582
		c-12.376,6.564-17.087,21.918-10.523,34.293c3.709,6.993,10.226,11.537,17.426,12.984c-2.84,6.772-2.734,14.716,0.976,21.709
		c6.564,12.376,21.918,17.087,34.293,10.523c12.056-6.395,16.833-21.129,11.004-33.327l216.65-114.913
		c6.829,11.668,21.708,15.977,33.764,9.582c12.376-6.564,17.087-21.918,10.523-34.293
		C407.108,314.093,400.592,309.549,393.392,308.103z"/>
	<polygon style="fill:#B7B5BD;" points="280.512,344.527 172.28,401.934 216.488,425.382 324.72,367.975 	"/>
	<path style="fill:#DADADA;" d="M103.608,308.103c-2.84-6.772-2.734-14.716,0.976-21.709c6.564-12.376,21.918-17.087,34.293-10.523
		c12.056,6.395,16.833,21.129,11.004,33.327l216.65,114.913c6.829-11.668,21.708-15.977,33.764-9.582
		c12.376,6.564,17.087,21.918,10.523,34.293c-3.709,6.993-10.226,11.537-17.426,12.984c2.84,6.772,2.734,14.716-0.976,21.709
		c-6.564,12.376-21.918,17.087-34.293,10.523c-12.056-6.395-16.833-21.129-11.004-33.327l-216.65-114.913
		c-6.829,11.668-21.708,15.977-33.764,9.582c-12.376-6.564-17.087-21.918-10.523-34.293
		C89.892,314.093,96.408,309.549,103.608,308.103z"/>
	<path style="fill:#DADADA;" d="M248.5,0L248.5,0c-82.318,0-149.05,66.731-149.05,149.049v27.176
		c0,39.316,31.872,71.188,71.188,71.188h0c4.799,0,8.69,3.891,8.69,8.689v4.287c0,17.227,12.973,31.415,29.681,33.349l5.017-2.293
		l9.983,2.526l-0.001,0h16.992l0,0l7.5-3.254l7.5,3.254l-0.001,0h16.992l-0.001,0l7.968-3.254l7.032,3.021l0,0
		c16.708-1.934,29.682-16.123,29.682-33.349v-4.287c0-4.799,3.89-8.689,8.69-8.689h0c39.316,0,71.188-31.872,71.188-71.188v-27.176
		C397.549,66.731,330.818,0,248.5,0z"/>
	<path style="fill:#B7B5BD;" d="M129.451,176.226v-27.176c0-77.255,58.776-140.779,134.049-148.301C258.567,0.255,253.563,0,248.5,0
		h0C166.182,0,99.451,66.731,99.451,149.049v27.176c0,31.714,20.744,58.572,49.399,67.777
		C134.487,228.5,129.451,201.823,129.451,176.226z"/>
	<g>
		<path style="fill:#423E4F;" d="M241,293.971v-29.305c0-4.142,3.357-7.5,7.5-7.5s7.5,3.358,7.5,7.5v29.305H241z"/>
	</g>
	<path style="fill:#423E4F;" d="M212.907,293.971h11.102v-29.305c0-4.142-3.357-7.5-7.5-7.5s-7.5,3.358-7.5,7.5v29.072
		C210.289,293.886,211.587,293.971,212.907,293.971z"/>
	<path style="fill:#423E4F;" d="M280.49,257.166c-4.143,0-7.5,3.358-7.5,7.5v29.305h11.103c1.319,0,2.618-0.084,3.897-0.232v-29.072
		C287.99,260.524,284.633,257.166,280.49,257.166z"/>
	<g>
		<g>
			<path style="fill:#423E4F;" d="M173.184,211.266c-4.143,0-7.5-3.358-7.5-7.5v-16.382c0-4.142,3.357-7.5,7.5-7.5
				s7.5,3.358,7.5,7.5v16.382C180.684,207.908,177.326,211.266,173.184,211.266z"/>
		</g>
		<g>
			<path style="fill:#423E4F;" d="M323.816,211.266c-4.143,0-7.5-3.358-7.5-7.5v-16.382c0-4.142,3.357-7.5,7.5-7.5
				s7.5,3.358,7.5,7.5v16.382C331.316,207.908,327.958,211.266,323.816,211.266z"/>
		</g>
	</g>
	<path style="fill:#423E4F;" d="M261.361,219.856l-5.525-11.051c-3.023-6.045-11.649-6.045-14.672,0l-5.525,11.051
		c-2.134,4.268,0.97,9.29,5.742,9.29h14.239C260.392,229.146,263.496,224.124,261.361,219.856z"/>
</g>
<g>
</g>
<g>
</g>
<g>
</g>
<g>
</g>
<g>
</g>
<g>
</g>
<g>
</g>
<g>
</g>
<g>
</g>
<g>
</g>
<g>
</g>
<g>
</g>
<g>
</g>
<g>
</g>
<g>
</g>
</svg>
