<?xml version="1.0" encoding="iso-8859-1"?>
<!-- Generator: Adobe Illustrator 23.0.3, SVG Export Plug-In . SVG Version: 6.00 Build 0)  -->
<svg version="1.1" id="Capa_1" xmlns="http://www.w3.org/2000/svg" xmlns:xlink="http://www.w3.org/1999/xlink" x="0px" y="0px"
	 viewBox="0 0 497 497" style="enable-background:new 0 0 497 497;" xml:space="preserve">
<g>
	<path style="fill:#FFB25A;" d="M454.898,367.138l-47.506-183.894c-6.16-23.845-27.669-40.504-52.297-40.504H141.906
		c-24.628,0-46.137,16.659-52.297,40.504L42.102,367.138c-7.032,27.219-2.731,56.127,11.921,80.12l0,0
		C72.889,478.154,106.479,497,142.679,497h211.641c36.2,0,69.79-18.846,88.656-49.741l0,0
		C457.629,423.265,461.929,394.358,454.898,367.138z"/>
	<path style="fill:#F88000;" d="M84.023,447.259L84.023,447.259c-14.651-23.994-18.952-52.901-11.921-80.12l47.507-183.895
		c6.16-23.845,27.669-40.503,52.297-40.503h-30c-24.628,0-46.137,16.659-52.297,40.503L42.102,367.139
		c-7.032,27.219-2.731,56.126,11.921,80.12l0,0C72.889,478.154,106.479,497,142.679,497h30
		C136.479,497,102.889,478.154,84.023,447.259z"/>
	<g>
		<path style="fill:#80E0B7;" d="M329.322,195.532c-11.653,0-21.099-9.447-21.099-21.099v-72.512
			c0-32.931-26.792-59.722-59.722-59.722s-59.722,26.792-59.722,59.722v72.512c0,11.653-9.447,21.099-21.099,21.099
			s-21.099-9.447-21.099-21.099v-72.512C146.58,45.721,192.301,0,248.5,0c56.199,0,101.921,45.721,101.921,101.921v72.512
			C350.421,186.086,340.975,195.532,329.322,195.532z"/>
	</g>
	<g>
		<path style="fill:#423E4F;" d="M267.358,293.534l-10.543-15.185c-4.027-5.799-12.603-5.799-16.63,0l-10.543,15.185
			c-4.671,6.727,0.143,15.93,8.333,15.93h21.052C267.215,309.464,272.029,300.26,267.358,293.534z"/>
		<path style="fill:#423E4F;" d="M187.127,270.049l-15.268-21.99c-5.831-8.398-18.251-8.398-24.082,0l-15.268,21.99
			c-6.764,9.741,0.208,23.069,12.067,23.069h30.485C186.92,293.118,193.891,279.791,187.127,270.049z"/>
		<path style="fill:#423E4F;" d="M309.873,270.049l15.268-21.99c5.831-8.398,18.251-8.398,24.082,0l15.268,21.99
			c6.764,9.741-0.208,23.069-12.067,23.069H321.94C310.08,293.118,303.109,279.791,309.873,270.049z"/>
		<path style="fill:#423E4F;" d="M318.936,342.521c-8.703-6.02-18.668-4.145-26.857,1.519c-8.741,6.046-20.312,6.046-29.053,0
			s-20.312-6.046-29.053,0c-8.741,6.046-20.312,6.046-29.053,0c-8.23-5.692-18.114-7.566-26.856-1.519
			c-10.473,7.244-16.723,19.166-16.723,31.9c0,12.734,6.25,24.656,16.723,31.9c8.658,5.989,18.695,4.126,26.857-1.519
			c8.741-6.046,20.312-6.046,29.053,0c8.741,6.046,20.312,6.046,29.053,0c8.741-6.046,20.312-6.046,29.053,0
			c8.23,5.693,18.116,7.565,26.857,1.519c10.473-7.244,16.723-19.166,16.723-31.9C335.659,361.687,329.409,349.765,318.936,342.521z
			"/>
	</g>
</g>
<g>
</g>
<g>
</g>
<g>
</g>
<g>
</g>
<g>
</g>
<g>
</g>
<g>
</g>
<g>
</g>
<g>
</g>
<g>
</g>
<g>
</g>
<g>
</g>
<g>
</g>
<g>
</g>
<g>
</g>
</svg>
