<?xml version="1.0" encoding="iso-8859-1"?>
<!-- Generator: Adobe Illustrator 23.0.3, SVG Export Plug-In . SVG Version: 6.00 Build 0)  -->
<svg version="1.1" id="Capa_1" xmlns="http://www.w3.org/2000/svg" xmlns:xlink="http://www.w3.org/1999/xlink" x="0px" y="0px"
	 viewBox="0 0 497 497" style="enable-background:new 0 0 497 497;" xml:space="preserve">
<g>
	<path style="fill:#5B586E;" d="M401.418,381.397L248.5,416.907l-152.918-35.51c8.995-29.347,19.96-55.786,30.806-78.315h261.353
		C395.929,328.432,401.418,355.187,401.418,381.397z"/>
	<path style="fill:#434050;" d="M125.582,381.397c8.994-29.347,19.96-55.786,30.806-78.315h-30
		c-10.846,22.53-21.811,48.969-30.806,78.315l152.918,35.51l15-3.483L125.582,381.397z"/>
	<path style="fill:#8C67CB;" d="M161.234,240.817c7.742-11.935,8.308-27.158,1.535-39.659c-3.18-5.869-4.704-12.24-4.704-18.523
		c0-12.403,5.924-24.512,16.759-32.014l44.624-30.936c12.436-8.624,17.009-24.838,10.922-38.679l-16.258-36.98
		c-7.677-17.488,5.129-37.111,24.218-37.111c3.267,0,6.49,0.61,9.495,1.764c3.005,1.154,5.793,2.853,8.221,5.053l81.68,73.655
		c16.366,14.755,17.031,40.214,1.448,55.796l-10.378,10.377c-7.176,7.176-8.254,18.425-2.57,26.831
		c15.267,22.563,44.33,69.517,61.513,122.689H126.388C139.357,276.152,152.152,254.81,161.234,240.817z"/>
	<path style="fill:#6134AA;" d="M192.769,201.158c-3.18-5.869-4.704-12.239-4.704-18.522c0-12.403,5.924-24.512,16.759-32.014
		l44.624-30.937c12.435-8.625,17.009-24.838,10.922-38.679l-16.258-36.98c-5.385-12.267-0.684-25.575,9.187-32.433
		c-1.714-1.181-3.542-2.171-5.474-2.913c-3.005-1.154-6.229-1.764-9.495-1.764c-19.089,0-31.895,19.623-24.218,37.11l16.258,36.98
		c6.087,13.84,1.514,30.054-10.922,38.679l-44.624,30.937c-10.835,7.502-16.759,19.611-16.759,32.014
		c0,6.283,1.524,12.653,4.704,18.522c6.773,12.501,6.207,27.724-1.535,39.659c-9.082,13.993-21.876,35.335-34.846,62.265h30
		c12.969-26.929,25.764-48.272,34.846-62.265C198.976,228.882,199.542,213.659,192.769,201.158z"/>
	<path style="fill:#EFD16F;" d="M283.429,283.583h-69.859c-14.353,0-25.988,11.635-25.988,25.988v93.607h121.834v-93.607
		C309.417,295.219,297.782,283.583,283.429,283.583z"/>
	<rect x="220.251" y="316.251" style="fill:#5B586E;" width="56.499" height="86.927"/>
	<path style="fill:#8C67CB;" d="M495.035,465.409c-33.545-63.415-93.615-84.01-93.615-84.01H95.58c0,0-60.07,20.596-93.615,84.01
		c-5.922,11.195,2.262,24.675,14.927,24.675h463.216C492.773,490.084,500.957,476.605,495.035,465.409z"/>
	<path style="fill:#6134AA;" d="M31.965,465.41c33.545-63.415,93.615-84.01,93.615-84.01h-30c0,0-60.07,20.596-93.615,84.01
		c-5.922,11.195,2.262,24.674,14.927,24.674h30C34.227,490.084,26.043,476.605,31.965,465.41z"/>
	<g>
		<path style="fill:#434050;" d="M276.809,443.901c-3.123-2.721-7.86-2.396-10.582,0.727c-4.475,5.134-10.936,8.08-17.727,8.08
			s-13.252-2.945-17.727-8.08c-2.721-3.123-7.459-3.448-10.582-0.727c-3.123,2.722-3.448,7.459-0.727,10.582
			c7.324,8.404,17.907,13.225,29.036,13.225s21.711-4.82,29.036-13.225C280.257,451.36,279.932,446.622,276.809,443.901z"/>
		<path style="fill:#434050;" d="M178.545,419.723l-34.175-9.158c-3.999-1.072-8.113,1.301-9.186,5.303
			c-1.072,4.001,1.302,8.113,5.303,9.186l14.08,3.773c-1.389,1.361-2.253,3.256-2.253,5.354v14.722c0,4.142,3.358,7.5,7.5,7.5
			s7.5-3.358,7.5-7.5v-14.722c0-0.699-0.103-1.372-0.282-2.014l7.629,2.044c0.65,0.175,1.303,0.258,1.946,0.258
			c3.311,0,6.342-2.21,7.24-5.561C184.92,424.908,182.546,420.795,178.545,419.723z"/>
		<path style="fill:#434050;" d="M361.816,415.869c-1.073-4.001-5.184-6.375-9.186-5.303l-34.175,9.158
			c-4.001,1.072-6.375,5.185-5.303,9.186c0.898,3.351,3.928,5.561,7.24,5.561c0.643,0,1.296-0.083,1.946-0.258l7.629-2.044
			c-0.179,0.642-0.282,1.315-0.282,2.014v14.722c0,4.142,3.358,7.5,7.5,7.5s7.5-3.358,7.5-7.5v-14.722
			c0-2.098-0.864-3.993-2.253-5.354l14.08-3.773C360.514,423.982,362.888,419.87,361.816,415.869z"/>
	</g>
</g>
<g>
</g>
<g>
</g>
<g>
</g>
<g>
</g>
<g>
</g>
<g>
</g>
<g>
</g>
<g>
</g>
<g>
</g>
<g>
</g>
<g>
</g>
<g>
</g>
<g>
</g>
<g>
</g>
<g>
</g>
</svg>
