<?xml version="1.0" encoding="iso-8859-1"?>
<!-- Generator: Adobe Illustrator 23.0.3, SVG Export Plug-In . SVG Version: 6.00 Build 0)  -->
<svg version="1.1" id="Capa_1" xmlns="http://www.w3.org/2000/svg" xmlns:xlink="http://www.w3.org/1999/xlink" x="0px" y="0px"
	 viewBox="0 0 497 497" style="enable-background:new 0 0 497 497;" xml:space="preserve">
<g>
	<path style="fill:#DADADA;" d="M318.053,322.117c-49.83-41.538-81.542-104.076-81.542-174.021
		c0-48.473,15.239-93.383,41.175-130.217C153.776,19.22,53.736,120.065,53.736,244.294c0,90.632,53.244,168.828,130.159,205.014
		L291.996,396.6L318.053,322.117z"/>
	<path style="fill:#B7B5BD;" d="M93.736,234.294c0-98.806,63.287-182.815,151.534-213.738
		C136.787,37.346,53.736,131.107,53.736,244.294c0,90.632,53.244,168.828,130.159,205.015l30.385-14.815
		C142.581,396.486,93.736,321.097,93.736,234.294z"/>
	<path style="fill:#A29DAE;" d="M477.344,380.706c-6.038-6.038-12.941-10.678-20.309-13.931c-4.349-1.92-7.155-6.169-7.146-10.922
		c0-0.058,0-0.116,0-0.173c0-52.781-42.787-95.568-95.568-95.568c-43.167,0-79.644,28.622-91.501,67.922
		c-1.811,6.002-8.145,9.278-14.204,7.671c-19.571-5.19-41.296-0.118-56.645,15.23c-7.851,7.851-13.006,17.373-15.48,27.42
		c-1.295,5.261-5.899,9.046-11.317,9.07c-13.717,0.061-27.413,5.317-37.879,15.783c-0.439,0.439-0.868,0.883-1.289,1.333
		c-26.582,28.441-5.307,75.006,33.62,74.577l293.019-3.232c21.468-0.237,40.015-15.671,43.474-36.86
		C499.48,418.437,493.221,396.583,477.344,380.706z"/>
	<path style="fill:#F9D171;" d="M396.069,35.461c-3.52,16.699-15.587,29.009-32.694,32.548c-5.968,1.235-10.227,6.526-10.227,12.755
		v0.688c0,6.116,4.294,11.387,10.282,12.632c17.073,3.553,29.116,15.848,32.636,32.522c1.266,5.997,6.358,10.408,12.647,10.408
		h0.819c6.094,0,11.386-4.258,12.621-10.226c3.537-17.102,15.842-29.168,32.534-32.692c5.997-1.266,10.408-6.359,10.408-12.489
		v-1.134c0-6.13-4.411-11.223-10.408-12.489c-16.692-3.524-28.996-15.589-32.534-32.691c-1.235-5.968-6.526-10.227-12.779-10.227
		h-0.821C402.43,25.067,397.333,29.469,396.069,35.461z"/>
	<g>
		<ellipse style="fill:#FFA1AC;" cx="227.596" cy="418.268" rx="33.377" ry="26.58"/>
		<ellipse style="fill:#FFA1AC;" cx="408.51" cy="418.268" rx="33.377" ry="26.58"/>
	</g>
	<g>
		<path style="fill:#423E4F;" d="M247.048,400.181c-4.142,0-7.5-3.358-7.5-7.5v-13.644c0-4.142,3.358-7.5,7.5-7.5s7.5,3.358,7.5,7.5
			v13.644C254.548,396.823,251.19,400.181,247.048,400.181z"/>
	</g>
	<g>
		<path style="fill:#423E4F;" d="M389.059,400.181c-4.142,0-7.5-3.358-7.5-7.5v-13.644c0-4.142,3.358-7.5,7.5-7.5s7.5,3.358,7.5,7.5
			v13.644C396.559,396.823,393.201,400.181,389.059,400.181z"/>
	</g>
	<g>
		<path style="fill:#423E4F;" d="M318.053,408.303c-9.342,0-18.226-4.046-24.375-11.101c-2.721-3.123-2.396-7.86,0.727-10.582
			c3.124-2.721,7.86-2.396,10.582,0.727c3.298,3.785,8.061,5.956,13.066,5.956s9.768-2.171,13.066-5.956
			c2.721-3.123,7.459-3.448,10.582-0.727c3.123,2.721,3.448,7.459,0.727,10.582C336.279,404.257,327.396,408.303,318.053,408.303z"
			/>
	</g>
	<path style="fill:#F9D171;" d="M8.4,310.279c13.496,2.845,23.445,12.597,26.305,26.423c0.998,4.824,5.274,8.265,10.308,8.265h0.556
		c4.943,0,9.202-3.471,10.209-8.31c2.871-13.798,12.808-23.531,26.284-26.376c4.847-1.023,8.412-5.138,8.412-10.221v-0.662
		c0-4.925-3.441-9.202-8.264-10.2c-13.822-2.859-23.573-12.803-26.421-26.293c-1.023-4.847-5.139-8.412-10.093-8.412h-0.916
		c-4.954,0-9.07,3.565-10.093,8.412c-2.848,13.49-12.599,23.434-26.421,26.293C3.442,290.196,0,294.472,0,299.526l0,0.663
		C0,305.138,3.557,309.258,8.4,310.279z"/>
</g>
<g>
</g>
<g>
</g>
<g>
</g>
<g>
</g>
<g>
</g>
<g>
</g>
<g>
</g>
<g>
</g>
<g>
</g>
<g>
</g>
<g>
</g>
<g>
</g>
<g>
</g>
<g>
</g>
<g>
</g>
</svg>
