<?xml version="1.0" encoding="iso-8859-1"?>
<!-- Generator: Adobe Illustrator 23.0.3, SVG Export Plug-In . SVG Version: 6.00 Build 0)  -->
<svg version="1.1" id="Capa_1" xmlns="http://www.w3.org/2000/svg" xmlns:xlink="http://www.w3.org/1999/xlink" x="0px" y="0px"
	 viewBox="0 0 497 497" style="enable-background:new 0 0 497 497;" xml:space="preserve">
<g>
	<path style="fill:#80E0B7;" d="M341.649,299.154H458.26c17.065,0,30.899-13.834,30.899-30.899s-13.834-30.899-30.899-30.899h-80.43
		L341.649,299.154z"/>
	<path style="fill:#80E0B7;" d="M400.556,96.444c12.067-12.067,12.067-31.63,0-43.697s-31.63-12.067-43.697,0
		c12.067-12.067,12.067-31.63,0-43.697c-12.067-12.067-31.63-12.067-43.697,0L85.009,237.203l174.788,174.788L487.95,183.839
		c12.067-12.067,12.067-31.63,0-43.697c-12.067-12.067-31.63-12.067-43.697,0c12.067-12.067,12.067-31.63,0-43.697
		S412.623,84.378,400.556,96.444z"/>
	<path style="fill:#00B762;" d="M487.95,140.142c-3.605-3.605-7.881-6.125-12.425-7.575c3.406,10.665,0.886,22.811-7.575,31.272
		L239.798,391.991l20,20L487.95,183.838C500.017,171.772,500.017,152.208,487.95,140.142z"/>
	
		<ellipse transform="matrix(0.7071 -0.7071 0.7071 0.7071 -179.0287 216.9798)" style="fill:#FD5C6F;" cx="172.403" cy="324.597" rx="66.599" ry="123.594"/>
	<path style="fill:#E92740;" d="M219.496,277.504c-3.382-3.382-6.825-6.61-10.309-9.691c40.882,46.23,54.796,99.992,30.61,124.178
		c-24.186,24.186-77.948,10.272-124.178-30.61c3.081,3.484,6.309,6.927,9.692,10.309c48.266,48.267,108.478,66.31,134.487,40.301
		C285.806,385.982,267.763,325.771,219.496,277.504z"/>
	<path style="fill:#DADADA;" d="M118.83,432.858l78.99-78.99c9.343-9.343,4.675-29.159-10.427-44.261s-34.918-19.77-44.261-10.427
		l-78.99,78.99c-15.761-11.626-38.076-10.305-52.346,3.965c-15.728,15.728-15.728,41.227,0,56.955
		c9.485,9.485,22.523,13.24,34.83,11.285c-1.956,12.307,1.799,25.345,11.285,34.83c15.728,15.728,41.227,15.728,56.955,0
		C129.136,470.934,130.456,448.619,118.83,432.858z"/>
	<path style="fill:#B7B5BD;" d="M187.394,309.606c-3.531-3.531-7.32-6.483-11.172-8.828c7.683,12.624,8.758,25.93,1.6,33.089
		l-64.754,64.755c-7.369,7.369-10.204,18.072-7.644,28.175c3.372,13.305-0.147,27.997-10.557,38.407
		c-12.208,12.208-30.301,14.934-45.144,8.19c2.215,4.878,5.448,9.408,9.715,13.259c15.003,13.543,38.134,13.766,53.365,0.479
		c16.185-14.119,18.194-37.784,6.03-54.274l78.99-78.991C207.164,344.524,202.495,324.708,187.394,309.606z"/>
</g>
<g>
</g>
<g>
</g>
<g>
</g>
<g>
</g>
<g>
</g>
<g>
</g>
<g>
</g>
<g>
</g>
<g>
</g>
<g>
</g>
<g>
</g>
<g>
</g>
<g>
</g>
<g>
</g>
<g>
</g>
</svg>
