<?xml version="1.0" encoding="iso-8859-1"?>
<!-- Generator: Adobe Illustrator 23.0.3, SVG Export Plug-In . SVG Version: 6.00 Build 0)  -->
<svg version="1.1" id="Capa_1" xmlns="http://www.w3.org/2000/svg" xmlns:xlink="http://www.w3.org/1999/xlink" x="0px" y="0px"
	 viewBox="0 0 497 497" style="enable-background:new 0 0 497 497;" xml:space="preserve">
<g>
	<path style="fill:#FF9C86;" d="M432.519,197.868c83.443-20.691,100.689,149.691-38.011,186.889L432.519,197.868z"/>
	<path style="fill:#FF9C86;" d="M64.481,197.868c-83.443-20.691-100.689,149.691,38.011,186.889L64.481,197.868z"/>
	<path style="fill:#F86745;" d="M248.5,450.84c132.09,0,190.709-104.915,190.709-202.725c0-105.326-85.384-190.709-190.709-190.709
		S57.791,142.79,57.791,248.116C57.791,345.925,116.41,450.84,248.5,450.84z"/>
	<path style="fill:#C94D2F;" d="M87.791,248.115c0-100.277,77.395-182.475,175.709-190.124c-4.95-0.385-9.951-0.585-15-0.585
		c-105.326,0-190.709,85.384-190.709,190.709c0,97.81,58.619,202.725,190.709,202.725c5.114,0,10.105-0.176,15-0.484
		C141.972,442.708,87.791,342.138,87.791,248.115z"/>
	<path style="fill:#FFCFC6;" d="M306.833,127.619c-22.439,0-42.894,8.489-58.333,22.429c-15.439-13.939-35.894-22.429-58.333-22.429
		c-48.093,0-87.08,38.987-87.08,87.08c0,48.093,38.987,87.08,87.08,87.08c22.439,0,42.894-8.489,58.333-22.429
		c15.439,13.939,35.894,22.429,58.333,22.429c48.093,0,87.08-38.987,87.08-87.08C393.913,166.605,354.926,127.619,306.833,127.619z"
		/>
	<g>
		<ellipse style="fill:#FFA1AC;" cx="156.333" cy="202.449" rx="27.973" ry="22.276"/>
	</g>
	<g>
		<ellipse style="fill:#FFA1AC;" cx="340.667" cy="202.449" rx="27.973" ry="22.276"/>
	</g>
	<g>
		<path style="fill:#423E4F;" d="M172.456,188.875c-4.143,0-7.5-3.358-7.5-7.5v-17.142c0-4.142,3.357-7.5,7.5-7.5s7.5,3.358,7.5,7.5
			v17.142C179.956,185.518,176.599,188.875,172.456,188.875z"/>
	</g>
	<g>
		<path style="fill:#423E4F;" d="M324.544,188.875c-4.143,0-7.5-3.358-7.5-7.5v-17.142c0-4.142,3.357-7.5,7.5-7.5s7.5,3.358,7.5,7.5
			v17.142C332.044,185.518,328.687,188.875,324.544,188.875z"/>
	</g>
	<path style="fill:#FF9C86;" d="M420.559,29.618c-5.326-9.882-19.981-8.103-22.936,2.727c-6.158,22.561-19.01,40.933-43.395,46.554
		c-53.975,12.442-83.996,33.696-97.286,45.501c-4.819,4.28-12.064,4.28-16.882,0c-13.29-11.806-43.311-33.06-97.286-45.501
		c-24.385-5.621-37.237-23.993-43.395-46.554c-2.956-10.829-17.611-12.608-22.936-2.727c-13.134,24.369-23.871,61.58,5.132,94.683
		c11.991,13.687,27.979,23.244,45.539,28.014c23.043,6.26,70.342,11.91,121.388,41.927c51.046-30.016,98.344-35.666,121.388-41.927
		c17.56-4.771,33.548-14.328,45.539-28.014C444.43,91.198,433.693,53.987,420.559,29.618z"/>
	<path style="fill:#F88000;" d="M291.287,207.609c-0.524,23.185-19.478,41.815-42.787,41.815s-42.263-18.63-42.787-41.815H291.287z"
		/>
	<path style="fill:#FFB25A;" d="M291.296,206.627c0,0.324,0,0.658-0.009,0.982c-12.665,4.422-27.254,7.347-42.787,7.347
		s-30.122-2.926-42.787-7.347c-0.009-0.324-0.009-0.658-0.009-0.982c0-23.633,19.163-42.787,42.796-42.787
		S291.296,182.995,291.296,206.627z"/>
	<path style="fill:#FFB25A;" d="M346.405,452.58c-7.242-12.061-20.45-20.132-35.543-20.132s-28.3,8.071-35.543,20.132
		c-5.626,9.369,1.191,21.297,12.119,21.297h46.847C345.214,473.876,352.031,461.948,346.405,452.58z"/>
	<path style="fill:#F88000;" d="M305.319,452.58c4.702-7.831,11.928-13.961,20.543-17.311c-4.654-1.81-9.706-2.821-15-2.821
		c-15.093,0-28.3,8.071-35.543,20.132c-5.626,9.369,1.191,21.296,12.119,21.296h30C306.511,473.876,299.694,461.948,305.319,452.58z
		"/>
	<path style="fill:#FFB25A;" d="M150.595,452.58c7.242-12.061,20.45-20.132,35.543-20.132c15.093,0,28.3,8.071,35.543,20.132
		c5.626,9.369-1.191,21.297-12.119,21.297h-46.847C151.786,473.876,144.969,461.948,150.595,452.58z"/>
	<path style="fill:#F88000;" d="M180.595,452.58c4.702-7.831,11.928-13.961,20.543-17.311c-4.654-1.81-9.706-2.821-15-2.821
		c-15.093,0-28.3,8.071-35.543,20.132c-5.626,9.369,1.192,21.296,12.119,21.296h30C181.786,473.876,174.969,461.948,180.595,452.58z
		"/>
	<g>
		<path style="fill:#FF9C86;" d="M161.189,360.309c-13.136,0-25.603-5.7-34.205-15.639c-2.711-3.132-2.369-7.868,0.763-10.579
			c3.131-2.711,7.867-2.37,10.579,0.763c5.751,6.645,14.085,10.456,22.863,10.456c8.78,0,17.114-3.812,22.867-10.459
			c2.71-3.132,7.447-3.473,10.579-0.763c3.132,2.711,3.474,7.447,0.763,10.579C186.794,354.607,174.325,360.309,161.189,360.309z"/>
	</g>
	<g>
		<path style="fill:#FF9C86;" d="M335.811,360.309c-13.138,0-25.606-5.702-34.209-15.644c-2.71-3.132-2.368-7.869,0.765-10.579
			c3.131-2.711,7.867-2.369,10.579,0.764c5.751,6.646,14.085,10.458,22.865,10.458c8.778,0,17.112-3.811,22.864-10.456
			c2.713-3.132,7.449-3.472,10.579-0.762c3.132,2.711,3.474,7.447,0.763,10.579C361.413,354.608,348.945,360.309,335.811,360.309z"
			/>
	</g>
	<g>
		<path style="fill:#FF9C86;" d="M248.498,360.309c-13.136,0-25.603-5.7-34.205-15.639c-2.711-3.132-2.369-7.868,0.763-10.579
			c3.131-2.711,7.868-2.37,10.579,0.763c5.751,6.645,14.085,10.456,22.863,10.456c8.78,0,17.114-3.812,22.867-10.459
			c2.71-3.132,7.447-3.473,10.579-0.763c3.132,2.711,3.474,7.447,0.763,10.579C274.104,354.607,261.635,360.309,248.498,360.309z"/>
	</g>
	<g>
		<g>
			<path style="fill:#FF9C86;" d="M204.844,405.309c-13.136,0-25.603-5.7-34.205-15.64c-2.711-3.132-2.369-7.868,0.763-10.579
				c3.131-2.711,7.867-2.369,10.579,0.763c5.751,6.645,14.085,10.456,22.863,10.456c8.78,0,17.114-3.812,22.865-10.458
				c2.711-3.133,7.449-3.474,10.579-0.764c3.133,2.71,3.475,7.447,0.765,10.579C230.45,399.607,217.982,405.309,204.844,405.309z"/>
		</g>
		<g>
			<path style="fill:#FF9C86;" d="M292.153,405.309c-13.136,0-25.603-5.7-34.205-15.64c-2.711-3.132-2.369-7.868,0.763-10.579
				c3.131-2.711,7.867-2.369,10.579,0.763c5.751,6.645,14.085,10.456,22.863,10.456c8.78,0,17.114-3.812,22.865-10.458
				c2.712-3.133,7.448-3.474,10.579-0.764c3.133,2.71,3.475,7.447,0.765,10.579C317.76,399.607,305.291,405.309,292.153,405.309z"/>
		</g>
	</g>
</g>
<g>
</g>
<g>
</g>
<g>
</g>
<g>
</g>
<g>
</g>
<g>
</g>
<g>
</g>
<g>
</g>
<g>
</g>
<g>
</g>
<g>
</g>
<g>
</g>
<g>
</g>
<g>
</g>
<g>
</g>
</svg>
