<?xml version="1.0" encoding="iso-8859-1"?>
<!-- Generator: Adobe Illustrator 23.0.3, SVG Export Plug-In . SVG Version: 6.00 Build 0)  -->
<svg version="1.1" id="Capa_1" xmlns="http://www.w3.org/2000/svg" xmlns:xlink="http://www.w3.org/1999/xlink" x="0px" y="0px"
	 viewBox="0 0 497 497" style="enable-background:new 0 0 497 497;" xml:space="preserve">
<g>
	<path style="fill:#F9D171;" d="M160.105,346.662l-88.42-59.912c-17.62,12.583-36.41,27.875-56.091,46.345
		c-8.439,7.922-7.615,22.274,1.851,31.741l9.78,9.78v0h10.204l0.402,10.606h0l20.834,20.834v0h11.152l-0.546,10.606h0l20.833,20.833
		l10.606,2.211v8.396l20.833,20.833l6.991-1.035l3.615,11.641l9.78,9.78c9.467,9.467,23.819,10.29,31.741,1.851
		c18.47-19.681,33.762-38.471,46.345-56.091L160.105,346.662z"/>
	<path style="fill:#FFA93F;" d="M141.93,489.323c9.467,9.467,23.819,10.29,31.741,1.851c18.47-19.681,33.762-38.471,46.345-56.091
		l-59.912-88.421l-11.922-8.078l51.834,76.499c-12.583,17.619-44.442,49.732-62.912,69.414L141.93,489.323z"/>
	<path style="fill:#F86745;" d="M305.145,229.956c0,0,12.684-27.275,12.689-27.286c6.021-12.948,17.478-22.583,30.941-27.902
		c33.779-13.333,58.12-42.568,65.113-78.203c3.763-19.178,17.609-34.609,36.218-40.438l16.652-3.875
		c14.237-3.313,23.092-17.54,19.779-31.777c-3.313-14.237-17.541-23.093-31.778-19.779c0,0-18.57,4.339-19.088,4.493
		c-37.867,11.298-66.117,42.406-73.727,81.183c-3.501,17.844-15.69,32.483-32.607,39.161c-25.787,10.178-47.54,29.097-59.502,54.816
		l-12.689,27.287c-2.619,5.632-6.206,10.761-10.598,15.153l-43.148,43.148l37.43,37.43l43.147-43.147
		C292.776,251.421,299.898,241.24,305.145,229.956z"/>
	<path style="fill:#C94D2F;" d="M284.374,259.805c-4.675-7.4-10.228-14.394-16.623-20.789c-6.338-6.338-13.343-11.912-20.816-16.632
		c-0.13,0.133-0.254,0.272-0.386,0.404l-43.147,43.147l37.43,37.43l43.147-43.146C284.114,260.083,284.24,259.941,284.374,259.805z"
		/>
	<path style="fill:#F9D171;" d="M242.359,400.409l-82.255-53.746l-53.747-82.255c26.106-14.972,48.448-23.486,65.789-27.692
		c12.631-3.063,26.099-2.307,38.975,1.776c12.883,4.076,25.167,11.488,35.416,21.737c20.498,20.498,29.638,49.143,23.513,74.391
		C265.845,351.96,257.332,374.303,242.359,400.409z"/>
	<path style="fill:#FFA93F;" d="M246.538,260.229c-3.39-3.39-7.006-6.462-10.789-9.213c13.885,19.094,19.414,42.53,14.302,63.604
		c-4.206,17.341-12.719,39.683-27.692,65.789l-70.159-45.843l7.904,12.096l82.255,53.746c14.972-26.106,23.486-48.448,27.692-65.789
		C276.176,309.371,267.036,280.727,246.538,260.229z"/>
	<path style="fill:#FD5C6F;" d="M220.017,435.083L71.684,286.75c12.148-8.691,23.738-16.088,34.674-22.342l136.001,136.001
		C236.105,411.345,228.708,422.935,220.017,435.083z"/>
	<path style="fill:#E92740;" d="M222.359,380.408c-6.254,10.937-13.652,22.526-22.343,34.674l20,20
		c8.691-12.148,16.088-23.738,22.343-34.674L222.359,380.408z"/>
	<g>
		<path style="fill:#FFA93F;" d="M121.544,468.936l35.478-35.477c2.929-2.929,7.678-2.929,10.606,0
			c2.929,2.929,2.929,7.677,0,10.607l-35.478,35.477L121.544,468.936z"/>
	</g>
	<g>
		<path style="fill:#FFA93F;" d="M90.104,437.496l35.478-35.477c2.929-2.929,7.678-2.929,10.606,0c2.929,2.929,2.929,7.678,0,10.606
			l-35.478,35.477L90.104,437.496z"/>
	</g>
	<g>
		<path style="fill:#FFA93F;" d="M58.664,406.056l35.477-35.477c2.929-2.929,7.678-2.929,10.606,0c2.929,2.929,2.929,7.677,0,10.606
			l-35.477,35.477L58.664,406.056z"/>
	</g>
	<g>
		<path style="fill:#FFA93F;" d="M27.224,374.616l35.477-35.477c2.929-2.929,7.678-2.929,10.606,0c2.929,2.929,2.929,7.677,0,10.606
			l-35.477,35.477L27.224,374.616z"/>
	</g>
	<g>
		<g>
			<path style="fill:#423E4F;" d="M165.818,283.152c-1.919,0-3.839-0.732-5.303-2.197c-2.929-2.929-2.929-7.678,0-10.607
				l6.274-6.274c2.929-2.928,7.678-2.929,10.606,0c2.929,2.929,2.929,7.678,0,10.607l-6.274,6.274
				C169.657,282.419,167.737,283.152,165.818,283.152z"/>
		</g>
		<g>
			<path style="fill:#423E4F;" d="M231.115,348.449c-1.919,0-3.839-0.732-5.303-2.197c-2.929-2.929-2.929-7.678,0-10.607
				l6.274-6.274c2.929-2.928,7.678-2.929,10.606,0c2.929,2.929,2.929,7.678,0,10.607l-6.274,6.274
				C234.953,347.717,233.034,348.449,231.115,348.449z"/>
		</g>
		<g>
			<path style="fill:#423E4F;" d="M206.147,324.26c-6.253,0-12.271-2.474-16.719-6.921c-4.832-4.831-7.334-11.518-6.865-18.346
				c0.284-4.133,3.869-7.251,7.996-6.969c4.132,0.284,7.252,3.864,6.969,7.996c-0.172,2.5,0.742,4.947,2.507,6.711
				c1.766,1.766,4.21,2.677,6.712,2.508c4.125-0.281,7.712,2.836,7.997,6.968c0.284,4.132-2.836,7.713-6.968,7.997
				C207.231,324.241,206.688,324.26,206.147,324.26z"/>
		</g>
	</g>
</g>
<g>
</g>
<g>
</g>
<g>
</g>
<g>
</g>
<g>
</g>
<g>
</g>
<g>
</g>
<g>
</g>
<g>
</g>
<g>
</g>
<g>
</g>
<g>
</g>
<g>
</g>
<g>
</g>
<g>
</g>
</svg>
