<?xml version="1.0" encoding="iso-8859-1"?>
<!-- Generator: Adobe Illustrator 23.0.3, SVG Export Plug-In . SVG Version: 6.00 Build 0)  -->
<svg version="1.1" id="Capa_1" xmlns="http://www.w3.org/2000/svg" xmlns:xlink="http://www.w3.org/1999/xlink" x="0px" y="0px"
	 viewBox="0 0 497 497" style="enable-background:new 0 0 497 497;" xml:space="preserve">
<g>
	<g>
		<path style="fill:#C8C6CC;" d="M48.092,467.192c-6.024,0.006-12.063-2.197-16.538-6.671c-9.133-9.133-9.133-23.94,0-33.074
			l8.876-8.875c-9.328-22.572-4.291-48.579,13.238-66.108c23.934-23.935,62.964-25.761,87.334-1.391l36.174,36.174
			c9.133,9.133,9.133,23.94,0,33.074c-9.133,9.133-23.94,9.133-33.074,0c0,0-36.122-36.122-36.174-36.174
			c-11.414-11.414-30.914,3.718-23.758,17.672c7.939,15.484,5.106,34.053-7.051,46.21c0,0-12.491,12.491-12.492,12.492
			C60.208,464.941,54.158,467.186,48.092,467.192z"/>
	</g>
	<rect x="185.39" y="149.136" style="fill:#DADADA;" width="199.554" height="251.324"/>
	<path style="fill:#FD5C6F;" d="M405.165,212.559c0,16.214-13.366,29.306-29.681,28.858c-15.725-0.431-28.058-13.728-28.058-29.459
		v-17.407c0-9.358-7.658-17.305-17.014-17.13c-9.073,0.17-16.377,7.578-16.377,16.692v37.748c0,15.731-12.333,29.027-28.058,29.459
		c-16.315,0.447-29.681-12.645-29.681-28.858l0-47.862c0-9.358-7.658-17.305-17.014-17.13c-9.073,0.17-16.377,7.578-16.377,16.692
		v17.845c0,15.73-12.333,29.027-28.058,29.459c-16.315,0.447-29.681-12.644-29.681-28.858v-45.796
		c0-20.727,16.803-37.53,37.53-37.53h164.938c20.727,0,37.53,16.803,37.53,37.53V212.559z"/>
	<path style="fill:#E92740;" d="M195.168,202.607v-45.796c0-20.727,16.803-37.53,37.53-37.53h-30
		c-20.727,0-37.53,16.803-37.53,37.53v45.796c0,16.214,13.366,29.305,29.681,28.858c5.178-0.142,9.984-1.686,14.108-4.246
		C200.687,222.142,195.168,213.022,195.168,202.607z"/>
	<g>
		<g>
			<path style="fill:#423E4F;" d="M227.522,310.505c-4.142,0-7.5-3.358-7.5-7.5v-11.077c0-4.142,3.358-7.5,7.5-7.5
				s7.5,3.358,7.5,7.5v11.077C235.022,307.147,231.664,310.505,227.522,310.505z"/>
		</g>
		<g>
			<path style="fill:#423E4F;" d="M342.811,310.505c-4.142,0-7.5-3.358-7.5-7.5v-11.077c0-4.142,3.358-7.5,7.5-7.5
				s7.5,3.358,7.5,7.5v11.077C350.311,307.147,346.953,310.505,342.811,310.505z"/>
		</g>
		<g>
			<path style="fill:#423E4F;" d="M285.167,317.099c-7.992,0-15.593-3.461-20.852-9.496c-2.721-3.123-2.396-7.86,0.727-10.582
				c3.123-2.721,7.861-2.396,10.582,0.727c2.41,2.765,5.888,4.351,9.543,4.351s7.134-1.586,9.543-4.351
				c2.722-3.123,7.459-3.448,10.582-0.727c3.123,2.721,3.448,7.459,0.727,10.582C300.759,313.638,293.159,317.099,285.167,317.099z"
				/>
		</g>
	</g>
	<path style="fill:#F9D171;" d="M322.989,53.984c0,20.889-16.934,37.823-37.823,37.823c-20.889,0-37.823-16.934-37.823-37.823
		S264.277,0,285.166,0C306.055,0,322.989,33.095,322.989,53.984z"/>
	<path style="fill:#FFA93F;" d="M288.686,78.037c-12.633-6.125-21.343-19.072-21.343-34.054c0-13.661,7.244-32.539,18.099-43.97
		C285.35,0.013,285.259,0,285.166,0c-20.889,0-37.823,33.095-37.823,53.983c0,20.889,16.934,37.823,37.823,37.823L288.686,78.037z"
		/>
	<g>
		<path style="fill:#423E4F;" d="M277.667,119.281V45.903c0-4.142,3.358-7.5,7.5-7.5s7.5,3.358,7.5,7.5v73.378H277.667z"/>
	</g>
	<path style="fill:#C8C6CC;" d="M122.733,447.609c0,0,14.657-63.304,62.656-86.956h199.554c48,23.652,62.656,86.956,62.656,86.956
		l-162.433,24.695L122.733,447.609z"/>
	<path style="fill:#A29DAE;" d="M152.733,447.609c0,0,14.657-63.304,62.656-86.956h-30c-48,23.652-62.656,86.956-62.656,86.956
		l162.433,24.695l15-2.28L152.733,447.609z"/>
	<path style="fill:#A29DAE;" d="M447.6,447.609H122.733c-13.639,0-24.695,11.057-24.695,24.695v0
		c0,13.639,11.056,24.695,24.695,24.695H447.6c13.639,0,24.695-11.056,24.695-24.695v0
		C472.295,458.666,461.238,447.609,447.6,447.609z"/>
	<path style="fill:#77728D;" d="M128.038,472.305L128.038,472.305c0-13.639,11.056-24.696,24.695-24.696h-30
		c-13.639,0-24.695,11.057-24.695,24.695v0c0,13.639,11.056,24.695,24.695,24.695h30C139.094,497,128.038,485.944,128.038,472.305z"
		/>
</g>
<g>
</g>
<g>
</g>
<g>
</g>
<g>
</g>
<g>
</g>
<g>
</g>
<g>
</g>
<g>
</g>
<g>
</g>
<g>
</g>
<g>
</g>
<g>
</g>
<g>
</g>
<g>
</g>
<g>
</g>
</svg>
