<?xml version="1.0" encoding="iso-8859-1"?>
<!-- Generator: Adobe Illustrator 23.0.3, SVG Export Plug-In . SVG Version: 6.00 Build 0)  -->
<svg version="1.1" id="Capa_1" xmlns="http://www.w3.org/2000/svg" xmlns:xlink="http://www.w3.org/1999/xlink" x="0px" y="0px"
	 viewBox="0 0 497 497" style="enable-background:new 0 0 497 497;" xml:space="preserve">
<g>
	<path style="fill:#5C576E;" d="M9.924,432.77c-13.232,13.232-13.232,34.685,0,47.917l0,0c13.232,13.232,34.685,13.232,47.917,0
		l126.478-126.478l-2.467-45.449l-45.449-2.467L9.924,432.77z"/>
	<path style="fill:#C8C6CC;" d="M434.1,8.594l-74.247,74.247l-65.076,109.331l-109.331,65.076l-49.044,49.044l87.765,87.765
		c7.709,7.709,20.208,7.709,27.917,0L458.101,188.04c45.865-45.865,45.865-120.227,0-166.092L444.746,8.594
		C441.806,5.654,437.04,5.654,434.1,8.594z"/>
	<path style="fill:#A29DAE;" d="M458.101,21.949L444.746,8.594c-0.46-0.46-0.968-0.839-1.504-1.155
		c40.645,46.129,38.936,116.523-5.142,160.602L232.084,374.057c-7.709,7.709-20.208,7.709-27.917,0l20,20
		c7.709,7.709,20.208,7.709,27.917,0L458.101,188.04C503.966,142.175,503.966,67.814,458.101,21.949z"/>
	<circle style="fill:#C8C6CC;" cx="62.776" cy="427.835" r="10.187"/>
	<circle style="fill:#C8C6CC;" cx="115.169" cy="375.441" r="10.187"/>
	<path style="fill:#FD5C6F;" d="M488.626,211.614c11.166,11.166,11.166,29.269,0,40.435c-11.166,11.166-29.269,11.166-40.435,0
		l-43.834-43.834c-7.332-7.332-19.219-7.332-26.551,0s-7.332,19.219,0,26.551l33.586,33.586c11.166,11.166,11.166,29.269,0,40.435
		c-11.166,11.166-29.269,11.166-40.435,0l-47.25-47.25c-7.332-7.332-19.219-7.332-26.551,0c-7.332,7.332-7.332,19.219,0,26.551
		l37.002,37.002c11.166,11.166,11.166,29.269,0,40.435c-11.166,11.166-29.269,11.166-40.435,0L185.446,257.248L359.853,82.841
		L488.626,211.614z"/>
	<g>
		<path style="fill:#423E4F;" d="M249.787,262.184c-1.919,0-3.839-0.732-5.303-2.197l-8.198-8.198
			c-2.929-2.929-2.929-7.678,0-10.607c2.929-2.929,7.678-2.928,10.606,0l8.198,8.198c2.929,2.929,2.929,7.678,0,10.607
			C253.626,261.451,251.706,262.184,249.787,262.184z"/>
	</g>
	
		<ellipse transform="matrix(0.7071 -0.7071 0.7071 0.7071 -56.2343 280.8601)" style="fill:#423E4F;" cx="310.917" cy="208.312" rx="15.867" ry="17.756"/>
	<g>
		<path style="fill:#423E4F;" d="M357.288,154.683c-1.919,0-3.839-0.732-5.303-2.197l-8.198-8.198
			c-2.929-2.929-2.929-7.678,0-10.607c2.929-2.929,7.678-2.928,10.606,0l8.198,8.198c2.929,2.929,2.929,7.678,0,10.607
			C361.127,153.95,359.207,154.683,357.288,154.683z"/>
	</g>
</g>
<g>
</g>
<g>
</g>
<g>
</g>
<g>
</g>
<g>
</g>
<g>
</g>
<g>
</g>
<g>
</g>
<g>
</g>
<g>
</g>
<g>
</g>
<g>
</g>
<g>
</g>
<g>
</g>
<g>
</g>
</svg>
