<?xml version="1.0" encoding="iso-8859-1"?>
<!-- Generator: Adobe Illustrator 23.0.3, SVG Export Plug-In . SVG Version: 6.00 Build 0)  -->
<svg version="1.1" id="Capa_1" xmlns="http://www.w3.org/2000/svg" xmlns:xlink="http://www.w3.org/1999/xlink" x="0px" y="0px"
	 viewBox="0 0 497 497" style="enable-background:new 0 0 497 497;" xml:space="preserve">
<g>
	<path style="fill:#996ACC;" d="M497,200.237V412.53c0,38.422-31.138,69.561-69.561,69.561H69.561
		C31.138,482.091,0,450.953,0,412.53V200.237l248.5-42.235L497,200.237z"/>
	<path style="fill:#6D36AB;" d="M30,412.53V200.237l233.5-39.686l-15-2.549L0,200.237V412.53c0,38.422,31.138,69.561,69.561,69.561
		h30C61.138,482.091,30,450.953,30,412.53z"/>
	<path style="fill:#FFB25A;" d="M497,128.521v71.715H0v-71.715c0-38.423,31.138-69.561,69.561-69.561h357.878
		C465.862,58.961,497,90.099,497,128.521z"/>
	<path style="fill:#F88000;" d="M99.561,58.961h-30C31.138,58.961,0,90.099,0,128.521v71.715h30v-71.715
		C30,90.099,61.138,58.961,99.561,58.961z"/>
	<g>
		<g>
			<path style="fill:#423E4F;" d="M157.445,155.086c-4.142,0-7.5-3.358-7.5-7.5v-17.497c0-4.142,3.358-7.5,7.5-7.5
				s7.5,3.358,7.5,7.5v17.497C164.945,151.728,161.587,155.086,157.445,155.086z"/>
		</g>
		<g>
			<path style="fill:#423E4F;" d="M339.555,155.086c-4.142,0-7.5-3.358-7.5-7.5v-17.497c0-4.142,3.358-7.5,7.5-7.5
				s7.5,3.358,7.5,7.5v17.497C347.055,151.728,343.697,155.086,339.555,155.086z"/>
		</g>
		<g>
			<path style="fill:#423E4F;" d="M248.5,165.501c-11.368,0-22.179-4.924-29.661-13.509c-2.721-3.123-2.396-7.86,0.727-10.582
				c3.122-2.721,7.86-2.396,10.582,0.727c4.632,5.315,11.321,8.364,18.352,8.364s13.72-3.049,18.352-8.364
				c2.722-3.122,7.458-3.448,10.582-0.726c3.123,2.721,3.448,7.459,0.727,10.582C270.678,160.577,259.868,165.501,248.5,165.501z"/>
		</g>
	</g>
	<g>
		<path style="fill:#DADADA;" d="M332.143,251.166h-35.851c-4.142,0-7.5,3.358-7.5,7.5c0,4.142,3.358,7.5,7.5,7.5h28.351v160.229
			c0,4.142,3.358,7.5,7.5,7.5s7.5-3.358,7.5-7.5V258.666C339.643,254.524,336.285,251.166,332.143,251.166z"/>
		<path style="fill:#DADADA;" d="M239.728,297.639c0-27.801-22.618-50.419-50.419-50.419c-24.04,0-44.846,17.098-49.473,40.655
			c-0.798,4.064,1.85,8.006,5.914,8.805c4.065,0.8,8.007-1.849,8.805-5.914c3.249-16.541,17.865-28.546,34.754-28.546
			c19.53,0,35.419,15.889,35.419,35.419s-15.889,35.419-35.419,35.419c-4.142,0-7.5,3.358-7.5,7.5s3.358,7.5,7.5,7.5
			c19.53,0,35.419,15.889,35.419,35.419s-15.889,35.419-35.419,35.419c-17.573,0-32.653-13.099-35.077-30.469
			c-0.227-1.627-0.342-3.292-0.342-4.95c0-4.142-3.358-7.5-7.5-7.5s-7.5,3.358-7.5,7.5c0,2.348,0.164,4.711,0.486,7.023
			c3.453,24.74,24.919,43.396,49.933,43.396c27.801,0,50.419-22.618,50.419-50.419c0-18.118-9.611-34.03-23.998-42.919
			C230.117,331.668,239.728,315.757,239.728,297.639z"/>
	</g>
	<path style="fill:#996ACC;" d="M116.034,14.909L116.034,14.909c-18.616,0-33.708,15.091-33.708,33.708v26.835
		c0,18.616,15.091,33.707,33.708,33.707h0c18.616,0,33.707-15.091,33.707-33.707V48.617
		C149.741,30.001,134.65,14.909,116.034,14.909z"/>
	<path style="fill:#996ACC;" d="M380.966,14.909L380.966,14.909c18.616,0,33.708,15.091,33.708,33.708v26.835
		c0,18.616-15.091,33.707-33.707,33.707h0c-18.616,0-33.707-15.091-33.707-33.707V48.617
		C347.259,30.001,362.35,14.909,380.966,14.909z"/>
	<path style="fill:#6D36AB;" d="M112.326,75.452V48.617c0-13.226,7.621-24.666,18.708-30.186c-4.519-2.25-9.609-3.522-15-3.522h0
		c-18.616,0-33.708,15.092-33.708,33.708v26.835c0,18.616,15.091,33.708,33.708,33.708h0c5.39,0,10.481-1.272,15-3.522
		C119.947,100.117,112.326,88.677,112.326,75.452z"/>
	<path style="fill:#6D36AB;" d="M377.259,75.452V48.617c0-13.226,7.621-24.666,18.708-30.186c-4.519-2.25-9.609-3.522-15-3.522h0
		c-18.616,0-33.708,15.092-33.708,33.708v26.835c0,18.616,15.091,33.708,33.708,33.708h0c5.39,0,10.481-1.272,15-3.522
		C384.88,100.117,377.259,88.677,377.259,75.452z"/>
</g>
<g>
</g>
<g>
</g>
<g>
</g>
<g>
</g>
<g>
</g>
<g>
</g>
<g>
</g>
<g>
</g>
<g>
</g>
<g>
</g>
<g>
</g>
<g>
</g>
<g>
</g>
<g>
</g>
<g>
</g>
</svg>
