<?xml version="1.0" encoding="iso-8859-1"?>
<!-- Generator: Adobe Illustrator 23.0.3, SVG Export Plug-In . SVG Version: 6.00 Build 0)  -->
<svg version="1.1" id="Capa_1" xmlns="http://www.w3.org/2000/svg" xmlns:xlink="http://www.w3.org/1999/xlink" x="0px" y="0px"
	 viewBox="0 0 497 497" style="enable-background:new 0 0 497 497;" xml:space="preserve">
<g>
	<path style="fill:#5C576E;" d="M336.504,367.345c0,0,64.294,58.471,64.294,129.655H96.203c0-71.185,64.294-129.655,64.294-129.655
		H336.504z"/>
	<path style="fill:#423E4F;" d="M190.497,367.345h-30c0,0-64.294,58.47-64.294,129.655h30
		C126.203,425.815,190.497,367.345,190.497,367.345z"/>
	<path style="fill:#DADADA;" d="M248.5,0L248.5,0C137.112,0,46.814,90.298,46.814,201.686v36.774
		c0,53.2,43.127,96.328,96.328,96.328h0c6.494,0,11.758,5.264,11.758,11.758v5.801c0,24.213,18.94,43.997,42.813,45.36l7.5-4.134
		l7.5,4.215l0,0h28.444L241,397.706l7.5-4.134l7.5,4.215l-0.001,0h28.445l-0.156-0.081l7.5-4.134l7.373,4.144
		c23.932-1.299,42.939-21.113,42.939-45.369v-5.801c0-6.494,5.264-11.758,11.758-11.758h0c53.2,0,96.328-43.127,96.328-96.328
		v-36.774C450.187,90.298,359.889,0,248.5,0z"/>
	<path style="fill:#B7B5BD;" d="M76.814,248.46v-46.774C76.814,95.344,159.118,8.23,263.5,0.555C258.547,0.191,253.546,0,248.5,0h0
		C137.112,0,46.814,90.298,46.814,201.686v36.774c0,48.077,35.222,87.923,81.268,95.153C97.588,317.443,76.814,285.38,76.814,248.46
		z"/>
	<g>
		<path style="fill:#423E4F;" d="M241,397.787v-39.654c0-4.142,3.357-7.5,7.5-7.5s7.5,3.358,7.5,7.5v39.654H241z"/>
	</g>
	<path style="fill:#423E4F;" d="M200.335,397.787h12.377v-39.654c0-4.142-3.357-7.5-7.5-7.5s-7.5,3.358-7.5,7.5v39.573
		C198.581,397.756,199.454,397.787,200.335,397.787z"/>
	<path style="fill:#423E4F;" d="M291.788,350.633c-4.143,0-7.5,3.358-7.5,7.5v39.654h12.376c0.881,0,1.755-0.031,2.624-0.081
		v-39.573C299.288,353.991,295.931,350.633,291.788,350.633z"/>
	<g>
		<g>
			<path style="fill:#423E4F;" d="M146.586,299.617c-4.143,0-7.5-3.358-7.5-7.5v-22.168c0-4.142,3.357-7.5,7.5-7.5
				s7.5,3.358,7.5,7.5v22.168C154.086,296.259,150.729,299.617,146.586,299.617z"/>
		</g>
		<g>
			<path style="fill:#423E4F;" d="M350.414,299.617c-4.143,0-7.5-3.358-7.5-7.5v-22.168c0-4.142,3.357-7.5,7.5-7.5
				s7.5,3.358,7.5,7.5v22.168C357.914,296.259,354.557,299.617,350.414,299.617z"/>
		</g>
	</g>
	<path style="fill:#423E4F;" d="M265.904,297.498l-7.477-14.953c-4.09-8.18-15.763-8.18-19.853,0l-7.477,14.953
		c-2.888,5.776,1.312,12.571,7.77,12.571h19.268C264.591,310.069,268.791,303.274,265.904,297.498z"/>
	<path style="fill:#DADADA;" d="M340.305,436.146c0-9.415-7.632-17.047-17.047-17.047c-7.999,0-14.692,5.517-16.53,12.949H190.272
		c-1.838-7.431-8.531-12.949-16.53-12.949c-9.415,0-17.047,7.632-17.047,17.047c0,3.944,1.352,7.565,3.601,10.453
		c-2.249,2.888-3.601,6.509-3.601,10.453c0,9.415,7.632,17.047,17.047,17.047c7.999,0,14.692-5.517,16.53-12.949h116.456
		c1.838,7.431,8.531,12.949,16.53,12.949c9.415,0,17.047-7.632,17.047-17.047c0-3.944-1.352-7.565-3.601-10.453
		C338.952,443.711,340.305,440.09,340.305,436.146z"/>
</g>
<g>
</g>
<g>
</g>
<g>
</g>
<g>
</g>
<g>
</g>
<g>
</g>
<g>
</g>
<g>
</g>
<g>
</g>
<g>
</g>
<g>
</g>
<g>
</g>
<g>
</g>
<g>
</g>
<g>
</g>
</svg>
