<?xml version="1.0" encoding="iso-8859-1"?>
<!-- Generator: Adobe Illustrator 23.0.3, SVG Export Plug-In . SVG Version: 6.00 Build 0)  -->
<svg version="1.1" id="Capa_1" xmlns="http://www.w3.org/2000/svg" xmlns:xlink="http://www.w3.org/1999/xlink" x="0px" y="0px"
	 viewBox="0 0 497 497" style="enable-background:new 0 0 497 497;" xml:space="preserve">
<g>
	<path style="fill:#C94D2F;" d="M490.778,243.923l-19.241-5.971l9.976-18.642c2.148-4.015,0.106-8.992-4.242-10.342l-19.241-5.971
		l9.976-18.642c2.148-4.015,0.106-8.992-4.242-10.342l-9.074-2.816c-6.585-2.044-13.666-1.803-20.097,0.682l-88.892,34.35
		l40.523,104.865L474.453,277c6.833-2.64,12.492-7.645,15.948-14.104l4.618-8.631C497.169,250.251,495.127,245.273,490.778,243.923z
		"/>
	<path style="fill:#C94D2F;" d="M6.222,243.923l19.241-5.971l-9.976-18.642c-2.148-4.015-0.106-8.992,4.242-10.342l19.241-5.971
		l-9.976-18.642c-2.148-4.015-0.106-8.992,4.242-10.342l9.074-2.816c6.585-2.044,13.666-1.803,20.097,0.682l88.892,34.35
		l-40.523,104.865L22.547,277c-6.833-2.64-12.492-7.645-15.948-14.104l-4.618-8.631C-0.169,250.251,1.873,245.273,6.222,243.923z"/>
	<path style="fill:#B84224;" d="M386.223,311.094l40.171-15.523V181.754c0-1.917,0.051-4.191,0.178-6.775L345.7,206.229
		L386.223,311.094z"/>
	<path style="fill:#B84224;" d="M70.428,174.979c0.127,2.584,0.178,4.858,0.178,6.775v113.817l40.171,15.523L151.3,206.229
		L70.428,174.979z"/>
	<path style="fill:#F86745;" d="M396.394,315.246V181.754c0-62.706,33.108-129.265,50.251-159.524
		c4.202-7.418-2.098-16.377-10.502-14.942c-57.693,9.849-100.027,57.475-100.027,57.475c0-22.96,5.247-39.324,10.726-50.153
		c3.844-7.597-3.009-16.266-11.301-14.335C281.472,12.86,248.5,64.762,248.5,64.762S215.528,12.86,161.46,0.273
		c-8.293-1.93-15.145,6.738-11.301,14.335c5.48,10.83,10.726,27.194,10.726,50.153c0,0-42.334-47.626-100.027-57.475
		c-8.404-1.435-14.704,7.524-10.502,14.942c17.143,30.26,50.251,96.819,50.251,159.524v133.492
		c0,62.706-33.108,129.265-50.251,159.524c-4.202,7.418,2.098,16.377,10.502,14.942c57.693-9.849,100.027-57.475,100.027-57.475
		c0,22.96-5.247,39.324-10.726,50.154c-3.844,7.597,3.009,16.266,11.301,14.335c54.068-12.587,87.04-64.489,87.04-64.489
		s32.972,51.902,87.04,64.489c8.293,1.93,15.145-6.738,11.301-14.335c-5.48-10.83-10.726-27.194-10.726-50.154
		c0,0,42.334,47.626,100.027,57.475c8.404,1.435,14.704-7.525,10.502-14.942C429.502,444.511,396.394,377.952,396.394,315.246z"/>
	<path style="fill:#C94D2F;" d="M130.606,319.657V177.343c0-63.038-29.435-129.714-47.166-164.164
		c-7.2-2.517-14.748-4.555-22.582-5.892c-8.404-1.435-14.704,7.524-10.502,14.942c17.142,30.26,50.251,96.819,50.251,159.524
		v133.492c0,62.706-33.108,129.265-50.251,159.524c-4.202,7.418,2.098,16.377,10.502,14.942c7.834-1.337,15.382-3.375,22.582-5.892
		C101.171,449.371,130.606,382.695,130.606,319.657z"/>
	<path style="fill:#423E4F;" d="M305.475,243.688c-7.04-4.869-15.101-3.352-21.724,1.229c-7.07,4.89-16.43,4.89-23.501,0
		c-7.07-4.89-16.43-4.89-23.501,0c-7.07,4.89-16.43,4.89-23.501,0c-6.657-4.604-14.652-6.12-21.724-1.229
		c-8.471,5.859-13.527,15.503-13.527,25.804c0,10.3,5.056,19.944,13.527,25.803c7.004,4.844,15.122,3.338,21.724-1.229
		c7.07-4.89,16.43-4.89,23.501,0c7.07,4.89,16.43,4.89,23.501,0c7.07-4.89,16.43-4.89,23.501,0
		c6.657,4.605,14.654,6.119,21.724,1.229c8.471-5.859,13.527-15.503,13.527-25.804C319.002,259.192,313.946,249.548,305.475,243.688
		z"/>
	<g>
		<path style="fill:#423E4F;" d="M186.495,199.585l-30.396-8.145c-3.997-1.072-8.113,1.302-9.186,5.304
			c-1.072,4.001,1.303,8.113,5.304,9.186l11.264,3.018c-0.854,1.218-1.359,2.698-1.359,4.298v13.094c0,4.142,3.358,7.5,7.5,7.5
			s7.5-3.358,7.5-7.5v-13.094c0-0.22-0.014-0.437-0.033-0.652l5.525,1.48c0.65,0.174,1.303,0.257,1.946,0.257
			c3.311,0,6.342-2.21,7.24-5.561C192.87,204.77,190.496,200.658,186.495,199.585z"/>
		<path style="fill:#423E4F;" d="M350.087,196.745c-1.072-4.001-5.187-6.373-9.186-5.304l-30.396,8.145
			c-4.001,1.072-6.375,5.185-5.304,9.186c0.898,3.351,3.928,5.561,7.24,5.561c0.643,0,1.296-0.083,1.946-0.257l5.525-1.48
			c-0.019,0.215-0.033,0.432-0.033,0.652v13.094c0,4.142,3.358,7.5,7.5,7.5s7.5-3.358,7.5-7.5v-13.094c0-1.6-0.505-3.08-1.359-4.298
			l11.263-3.018C348.784,204.858,351.159,200.746,350.087,196.745z"/>
	</g>
</g>
<g>
</g>
<g>
</g>
<g>
</g>
<g>
</g>
<g>
</g>
<g>
</g>
<g>
</g>
<g>
</g>
<g>
</g>
<g>
</g>
<g>
</g>
<g>
</g>
<g>
</g>
<g>
</g>
<g>
</g>
</svg>
