<?xml version="1.0" encoding="iso-8859-1"?>
<!-- Generator: Adobe Illustrator 23.0.3, SVG Export Plug-In . SVG Version: 6.00 Build 0)  -->
<svg version="1.1" id="Capa_1" xmlns="http://www.w3.org/2000/svg" xmlns:xlink="http://www.w3.org/1999/xlink" x="0px" y="0px"
	 viewBox="0 0 497 497" style="enable-background:new 0 0 497 497;" xml:space="preserve">
<g>
	<polygon style="fill:#D9D9D9;" points="288.661,401.436 313.659,449.218 288.661,497 208.339,497 183.753,449.218 208.339,401.436 
			"/>
	<circle style="fill:#8048BE;" cx="412.739" cy="217.799" r="38.686"/>
	<rect x="84.261" y="74.571" style="fill:#8C67CB;" width="328.477" height="270.457"/>
	<path style="fill:#8048BE;" d="M84.261,74.571v104.542c-21.366,0-38.686,17.321-38.686,38.686s17.32,38.686,38.686,38.686v88.543
		h30V74.571H84.261z"/>
	<path style="fill:#DC6742;" d="M208.339,401.436V497h-80.72c0-61.247,46.383-95.564,46.383-95.564H208.339z"/>
	<path style="fill:#A24425;" d="M204.002,401.436h-30c0,0-46.383,34.317-46.383,95.564h30
		C157.619,435.753,204.002,401.436,204.002,401.436z"/>
	<path style="fill:#DC6742;" d="M369.381,497h-80.72v-95.564h34.337C322.998,401.436,369.381,435.753,369.381,497z"/>
	<path style="fill:#4F4D5F;" d="M364.597,0H132.403C99.921,0,73.59,26.332,73.59,58.813v13.31c0,13.101,14.963,20.573,25.435,12.701
		v0c5.655-4.25,13.438-4.25,19.093,0l15.889,11.943c5.655,4.25,13.438,4.25,19.093,0l15.889-11.943c5.655-4.25,13.438-4.25,19.093,0
		l15.889,11.943c5.655,4.25,13.438,4.25,19.093,0l15.889-11.943c5.655-4.25,13.438-4.25,19.093,0l15.889,11.943
		c5.655,4.25,13.438,4.25,19.093,0l15.889-11.943c5.655-4.25,13.438-4.25,19.093,0L343.9,96.768c5.655,4.25,13.438,4.25,19.093,0
		l15.889-11.943c5.655-4.25,13.438-4.25,19.093,0v0c10.472,7.871,25.435,0.4,25.435-12.701v-13.31
		C423.411,26.332,397.079,0,364.597,0z"/>
	<path style="fill:#434050;" d="M103.589,72.124V58.813C103.589,26.332,129.921,0,162.403,0h-30
		C99.921,0,73.589,26.332,73.589,58.813v13.311c0,13.101,14.963,20.572,25.435,12.701l0,0c2.331-1.752,5.024-2.77,7.781-3.077
		C104.815,79.149,103.589,75.868,103.589,72.124z"/>
	<path style="fill:#8048BE;" d="M363.925,163.359l-2.6-1.191l2.77-6.046c1.726-3.766,0.071-8.217-3.694-9.942
		c-3.765-1.724-8.217-0.072-9.942,3.694l-2.77,6.046l-12.246-5.61l2.77-6.046c1.726-3.766,0.071-8.217-3.694-9.942
		c-3.765-1.724-8.217-0.071-9.942,3.694l-2.77,6.046l-12.246-5.61l2.77-6.046c1.726-3.766,0.071-8.217-3.694-9.942
		c-3.765-1.725-8.217-0.071-9.942,3.694l-2.77,6.046l-2.599-1.191c-3.766-1.725-8.217-0.071-9.942,3.694
		c-1.726,3.766-0.071,8.217,3.694,9.942l2.6,1.191l-2.77,6.046c-1.726,3.766-0.071,8.217,3.694,9.942
		c1.013,0.464,2.074,0.684,3.12,0.684c2.842,0,5.562-1.625,6.823-4.378l2.77-6.046l12.246,5.61l-2.77,6.046
		c-1.726,3.766-0.071,8.217,3.694,9.942c1.013,0.464,2.074,0.684,3.12,0.684c2.842,0,5.562-1.625,6.823-4.378l2.77-6.046
		l12.246,5.61l-2.77,6.046c-1.726,3.766-0.071,8.217,3.694,9.942c1.013,0.464,2.074,0.684,3.12,0.684
		c2.842,0,5.562-1.625,6.823-4.378l2.77-6.047l2.6,1.191c1.013,0.464,2.074,0.684,3.12,0.684c2.842,0,5.562-1.625,6.823-4.378
		C369.345,169.535,367.691,165.084,363.925,163.359z"/>
	<path style="fill:#D9D9D9;" d="M399.509,283.522H375.96c-11.363,0-20.574,9.211-20.574,20.574v34.513h64.697v-34.513
		C420.084,292.734,410.872,283.522,399.509,283.522z"/>
	<path style="fill:#D9D9D9;" d="M97.491,283.522h23.549c11.363,0,20.574,9.211,20.574,20.574v34.513H76.916v-34.513
		C76.916,292.734,86.128,283.522,97.491,283.522z"/>
	<path style="fill:#8B59C5;" d="M400.084,318.61H96.916c-12.883,0-23.327,10.444-23.327,23.327v7.661
		c0,43.112,34.949,78.06,78.06,78.06h193.7c43.112,0,78.06-34.949,78.06-78.06v-7.661
		C423.411,329.053,412.967,318.61,400.084,318.61z"/>
	<path style="fill:#8048BE;" d="M103.59,349.598v-7.661c0-12.883,10.444-23.327,23.327-23.327h-30
		c-12.883,0-23.327,10.444-23.327,23.327v7.661c0,43.111,34.949,78.06,78.06,78.06h30
		C138.538,427.658,103.59,392.709,103.59,349.598z"/>
	
		<ellipse transform="matrix(0.1516 -0.9884 0.9884 0.1516 -95.8279 351.1613)" style="fill:#FFFFFF;" cx="156.642" cy="231.402" rx="32.566" ry="32.566"/>
	
		<ellipse transform="matrix(0.049 -0.9988 0.9988 0.049 92.9837 559.7917)" style="fill:#FFFFFF;" cx="340.463" cy="231.066" rx="32.566" ry="32.566"/>
	<g>
		<path style="fill:#9FE0B6;" d="M156.608,213.056c-10.132,0.019-18.331,8.247-18.312,18.379
			c0.018,10.132,8.247,18.331,18.379,18.312c10.132-0.019,18.331-8.247,18.312-18.379
			C174.969,221.236,166.74,213.037,156.608,213.056z"/>
		<path style="fill:#9FE0B6;" d="M340.442,219.903c-6.165,0.011-11.154,5.018-11.143,11.184c0.011,6.166,5.018,11.154,11.184,11.143
			c6.165-0.011,11.154-5.018,11.143-11.184C351.615,224.88,346.608,219.891,340.442,219.903z"/>
	</g>
</g>
<g>
</g>
<g>
</g>
<g>
</g>
<g>
</g>
<g>
</g>
<g>
</g>
<g>
</g>
<g>
</g>
<g>
</g>
<g>
</g>
<g>
</g>
<g>
</g>
<g>
</g>
<g>
</g>
<g>
</g>
</svg>
