<?xml version="1.0" encoding="iso-8859-1"?>
<!-- Generator: Adobe Illustrator 23.0.3, SVG Export Plug-In . SVG Version: 6.00 Build 0)  -->
<svg version="1.1" id="Capa_1" xmlns="http://www.w3.org/2000/svg" xmlns:xlink="http://www.w3.org/1999/xlink" x="0px" y="0px"
	 viewBox="0 0 497 497" style="enable-background:new 0 0 497 497;" xml:space="preserve">
<g>
	<polygon style="fill:#D9D9D9;" points="295.816,416.936 313.882,466.169 295.816,497 201.184,497 183.118,463.819 201.184,416.936 
			"/>
	<path style="fill:#8C67CB;" d="M201.184,416.936V497h-67.954c0-59.57,49.89-80.064,49.89-80.064H201.184z"/>
	<path style="fill:#8048BE;" d="M201.184,423.76v-6.824H183.12c0,0-49.89,20.494-49.89,80.064h30
		C163.229,456.379,186.425,433.932,201.184,423.76z"/>
	<path style="fill:#8C67CB;" d="M363.771,497h-67.954v-80.064h18.064C313.88,416.936,363.771,437.43,363.771,497z"/>
	<circle style="fill:#8C67CB;" cx="248.5" cy="451.98" r="7.477"/>
	<circle style="fill:#8C67CB;" cx="248.5" cy="475.476" r="7.477"/>
	<path style="fill:#DF5B6C;" d="M429.89,6.915c-4.463-6.582-13.178-8.823-20.239-5.164c-18.38,9.526-63.366,25.084-161.151,25.084
		S105.729,11.278,87.349,1.752c-7.06-3.659-15.775-1.418-20.239,5.164C2.279,102.518,65.682,208.96,65.682,208.96h365.636
		C431.318,208.96,494.721,102.518,429.89,6.915z"/>
	<path style="fill:#CA283E;" d="M97.11,6.915c0.127-0.188,0.27-0.359,0.404-0.54c-4.045-1.628-7.407-3.194-10.166-4.624
		c-7.06-3.659-15.775-1.418-20.239,5.164C2.279,102.518,65.682,208.96,65.682,208.96h30C95.682,208.96,32.279,102.518,97.11,6.915z"
		/>
	<path style="fill:#34B764;" d="M420.71,201.106c0,0,16.706-20.55,40.775-23.989c0,0,33.961,108.584-47.664,108.584L420.71,201.106z
		"/>
	<path style="fill:#9FE0B6;" d="M248.5,130.353c0,0-136.936-98.503-172.21,70.753c-1.522,9.271-2.327,18.785-2.327,28.487
		c0,96.394,78.143,174.537,174.537,174.537s174.537-78.143,174.537-174.537c0-9.702-0.805-19.215-2.327-28.487
		C385.436,31.85,248.5,130.353,248.5,130.353z"/>
	<path style="fill:#34B764;" d="M103.963,229.593c0-9.702,0.805-19.215,2.327-28.487c14.128-67.791,44.564-92.624,75.979-98.041
		c-40.231-6.093-87.323,8.524-105.979,98.041l0,0v0c0,0-16.706-20.55-40.775-23.989c0,0-33.961,108.584,47.664,108.584l0-0.002
		c23.365,68.87,88.555,118.431,165.322,118.431c5.054,0,10.055-0.227,15-0.648C174.13,395.873,103.963,320.933,103.963,229.593z"/>
	<path style="fill:#CA283E;" d="M228.033,425.146c0,0-57.542,52.099-57.542-17.326s57.542-17.326,57.542-17.326V425.146z"/>
	<path style="fill:#CA283E;" d="M268.967,425.146c0,0,57.542,52.099,57.542-17.326s-57.542-17.326-57.542-17.326V425.146z"/>
	<path style="fill:#DF5B6C;" d="M255.803,386.059h-14.606c-12.019,0-21.762,9.743-21.762,21.762v0
		c0,12.019,9.743,21.762,21.762,21.762h14.606c12.019,0,21.762-9.743,21.762-21.762v0
		C277.565,395.802,267.822,386.059,255.803,386.059z"/>
	<g>
		<ellipse style="fill:#EE9FA9;" cx="152.502" cy="269.885" rx="35.422" ry="28.208"/>
		<ellipse style="fill:#EE9FA9;" cx="344.498" cy="269.885" rx="35.422" ry="28.208"/>
	</g>
	<g>
		<path style="fill:#434050;" d="M273.293,236.645c-3.123-2.721-7.861-2.396-10.582,0.728c-3.587,4.117-8.767,6.478-14.212,6.478
			s-10.625-2.361-14.212-6.478c-2.721-3.123-7.459-3.448-10.582-0.727c-3.123,2.721-3.448,7.458-0.727,10.582
			c6.437,7.387,15.739,11.624,25.521,11.624c9.783,0,19.085-4.237,25.521-11.624C276.742,244.104,276.417,239.366,273.293,236.645z"
			/>
		<path style="fill:#434050;" d="M189.352,215.863l-29.038-7.781c-3.999-1.068-8.113,1.302-9.186,5.303
			c-1.072,4.001,1.302,8.114,5.303,9.186l10.317,2.765c-0.695,1.138-1.104,2.47-1.104,3.901v12.508c0,4.142,3.358,7.5,7.5,7.5
			s7.5-3.358,7.5-7.5v-12.508c0-0.061-0.008-0.12-0.009-0.18l4.833,1.295c0.65,0.174,1.303,0.257,1.946,0.257
			c3.311,0,6.342-2.21,7.24-5.561C195.727,221.048,193.353,216.935,189.352,215.863z"/>
		<path style="fill:#434050;" d="M345.872,213.385c-1.072-4.001-5.184-6.373-9.186-5.303l-29.038,7.781
			c-4.001,1.072-6.375,5.185-5.303,9.186c0.898,3.351,3.928,5.561,7.24,5.561c0.643,0,1.296-0.083,1.946-0.257l4.833-1.295
			c-0.001,0.06-0.009,0.119-0.009,0.18v12.508c0,4.142,3.358,7.5,7.5,7.5s7.5-3.358,7.5-7.5v-12.508
			c0-1.431-0.408-2.764-1.104-3.901l10.317-2.765C344.57,221.498,346.944,217.385,345.872,213.385z"/>
	</g>
</g>
<g>
</g>
<g>
</g>
<g>
</g>
<g>
</g>
<g>
</g>
<g>
</g>
<g>
</g>
<g>
</g>
<g>
</g>
<g>
</g>
<g>
</g>
<g>
</g>
<g>
</g>
<g>
</g>
<g>
</g>
</svg>
