<?xml version="1.0" encoding="iso-8859-1"?>
<!-- Generator: Adobe Illustrator 23.0.3, SVG Export Plug-In . SVG Version: 6.00 Build 0)  -->
<svg version="1.1" id="Capa_1" xmlns="http://www.w3.org/2000/svg" xmlns:xlink="http://www.w3.org/1999/xlink" x="0px" y="0px"
	 viewBox="0 0 497 497" style="enable-background:new 0 0 497 497;" xml:space="preserve">
<g>
	<path style="fill:#FFB25A;" d="M92.774,134.877c-28.529,0-54.698,15.759-68.101,40.944C11.553,200.473,0,235.959,0,281.463
		s11.553,80.989,24.673,105.642c13.403,25.184,39.572,40.944,68.101,40.944h25.596V134.877H92.774z"/>
	<path style="fill:#F88000;" d="M54.673,395.189C41.553,368.65,30,330.449,30,281.463c0-48.986,11.553-87.188,24.673-113.726
		c6.712-13.578,16.627-24.61,28.437-32.242c-24.673,3.115-46.565,18.018-58.437,40.326C11.553,200.473,0,235.959,0,281.463
		s11.553,80.99,24.673,105.642c11.872,22.308,33.764,37.211,58.437,40.327C71.3,419.799,61.385,408.767,54.673,395.189z"/>
	<path style="fill:#FFB25A;" d="M404.226,134.877c28.529,0,54.698,15.759,68.101,40.944C485.447,200.473,497,235.959,497,281.463
		s-11.553,80.989-24.673,105.642c-13.403,25.184-39.572,40.944-68.101,40.944H378.63V134.877H404.226z"/>
	<path style="fill:#80E0B7;" d="M286.185,37.423c-7.191-11.836-23.852-13.047-32.767-2.449
		c-25.746,30.608-25.145,72.686-25.096,74.832l40.356-0.84c-0.004-0.345-0.188-29.284,15.646-48.01
		C289.936,54.32,290.698,44.85,286.185,37.423z"/>
	<path style="fill:#F88000;" d="M160.119,116.013c-20.476,0-39.326,11.231-48.979,29.288
		c-14.663,27.429-32.436,73.583-32.436,136.161s17.773,108.731,32.436,136.161c9.653,18.058,28.504,29.288,48.979,29.288h45.208
		V116.013H160.119z"/>
	<path style="fill:#F88000;" d="M336.881,116.013c20.476,0,39.326,11.231,48.979,29.288c14.663,27.429,32.436,73.583,32.436,136.161
		s-17.773,108.731-32.436,136.161c-9.653,18.058-28.504,29.288-48.979,29.288h-45.208V116.013H336.881z"/>
	<path style="fill:#00B762;" d="M254.014,63.655h-11.028c-2.082,0-4.157,0.092-6.225,0.24c-8.78,23.135-8.473,44.401-8.438,45.91
		l40.356-0.84c-0.004-0.307-0.14-23.24,10.977-41.484C271.385,64.968,262.739,63.655,254.014,63.655z"/>
	<path style="fill:#FFB25A;" d="M310.831,139.471c-5.7-26.76-29.455-45.816-56.816-45.816h-11.028
		c-27.361,0-51.116,19.056-56.816,45.816c-8.208,38.531-13.005,93.065-13.005,141.991s4.797,103.46,13.005,141.991
		c5.7,26.76,29.455,45.816,56.816,45.816h11.028c27.361,0,51.116-19.056,56.816-45.816c8.208-38.531,13.005-93.065,13.005-141.991
		S319.038,178.002,310.831,139.471z"/>
	<g>
		<g>
			<path style="fill:#423E4F;" d="M137.541,289.824c-4.142,0-7.5-3.358-7.5-7.5v-21.322c0-4.142,3.358-7.5,7.5-7.5
				s7.5,3.358,7.5,7.5v21.322C145.041,286.466,141.683,289.824,137.541,289.824z"/>
		</g>
		<g>
			<path style="fill:#423E4F;" d="M359.46,289.824c-4.143,0-7.5-3.358-7.5-7.5v-21.322c0-4.142,3.357-7.5,7.5-7.5s7.5,3.358,7.5,7.5
				v21.322C366.96,286.466,363.602,289.824,359.46,289.824z"/>
		</g>
		<g>
			<path style="fill:#423E4F;" d="M248.5,302.516c-13.379,0-26.102-5.795-34.908-15.9c-2.721-3.123-2.396-7.86,0.727-10.582
				c3.123-2.721,7.86-2.396,10.582,0.727c5.956,6.834,14.558,10.754,23.599,10.754c9.042,0,17.644-3.92,23.6-10.754
				c2.721-3.123,7.458-3.448,10.582-0.727s3.448,7.459,0.727,10.582C274.602,296.721,261.879,302.516,248.5,302.516z"/>
		</g>
	</g>
</g>
<g>
</g>
<g>
</g>
<g>
</g>
<g>
</g>
<g>
</g>
<g>
</g>
<g>
</g>
<g>
</g>
<g>
</g>
<g>
</g>
<g>
</g>
<g>
</g>
<g>
</g>
<g>
</g>
<g>
</g>
</svg>
