<?xml version="1.0" encoding="iso-8859-1"?>
<!-- Generator: Adobe Illustrator 23.0.3, SVG Export Plug-In . SVG Version: 6.00 Build 0)  -->
<svg version="1.1" id="Capa_1" xmlns="http://www.w3.org/2000/svg" xmlns:xlink="http://www.w3.org/1999/xlink" x="0px" y="0px"
	 viewBox="0 0 497 497" style="enable-background:new 0 0 497 497;" xml:space="preserve">
<g>
	<path style="fill:#F9D171;" d="M366.952,465.916l64.506-290.731c1.873-8.439,0.938-17.26-2.662-25.119L370.662,23.154
		C364.199,9.046,350.106,0,334.588,0L162.412,0c-15.518,0-29.612,9.046-36.074,23.154L68.204,150.066
		c-3.6,7.859-4.535,16.679-2.662,25.119l64.506,290.731C134.077,484.077,150.182,497,168.784,497h159.432
		C346.818,497,362.923,484.077,366.952,465.916z"/>
	<path style="fill:#996ACC;" d="M163.232,431.207l-56.303-253.762c-1.559-7.026-0.781-14.369,2.217-20.912l44.589-97.341
		c5.38-11.745,17.113-19.276,30.032-19.276h129.467c12.919,0,24.652,7.531,30.033,19.277l44.588,97.341
		c2.997,6.543,3.775,13.886,2.217,20.912l-56.303,253.762c-3.354,15.119-16.762,25.878-32.249,25.878H195.481
		C179.994,457.085,166.587,446.326,163.232,431.207z"/>
	<path style="fill:#6D36AB;" d="M193.232,431.207l-56.303-253.762c-1.559-7.026-0.781-14.369,2.217-20.912l44.589-97.341
		c5.38-11.745,17.113-19.276,30.032-19.276h-30c-12.919,0-24.652,7.531-30.032,19.276l-44.589,97.341
		c-2.997,6.543-3.775,13.886-2.217,20.912l56.303,253.762c3.354,15.119,16.762,25.878,32.249,25.878h30
		C209.994,457.085,196.587,446.326,193.232,431.207z"/>
	<path style="fill:#F9D171;" d="M315.637,157.682h-34.726c-5.416,0-9.807-4.391-9.807-9.807v-39.298
		c0-5.416-4.391-9.807-9.807-9.807h-25.595c-5.416,0-9.807,4.391-9.807,9.807v39.298c0,5.416-4.391,9.807-9.807,9.807h-34.726
		c-5.416,0-9.807,4.391-9.807,9.807v25.595c0,5.416,4.391,9.807,9.807,9.807h34.726c5.416,0,9.807,4.391,9.807,9.807v139.086
		c0,5.416,4.391,9.807,9.807,9.807h25.595c5.416,0,9.807-4.391,9.807-9.807V212.696c0-5.416,4.391-9.807,9.807-9.807h34.726
		c5.416,0,9.807-4.391,9.807-9.807v-25.595C325.443,162.072,321.053,157.682,315.637,157.682z"/>
</g>
<g>
</g>
<g>
</g>
<g>
</g>
<g>
</g>
<g>
</g>
<g>
</g>
<g>
</g>
<g>
</g>
<g>
</g>
<g>
</g>
<g>
</g>
<g>
</g>
<g>
</g>
<g>
</g>
<g>
</g>
</svg>
