<?xml version="1.0" encoding="iso-8859-1"?>
<!-- Generator: Adobe Illustrator 23.0.3, SVG Export Plug-In . SVG Version: 6.00 Build 0)  -->
<svg version="1.1" id="Capa_1" xmlns="http://www.w3.org/2000/svg" xmlns:xlink="http://www.w3.org/1999/xlink" x="0px" y="0px"
	 viewBox="0 0 497 497" style="enable-background:new 0 0 497 497;" xml:space="preserve">
<g>
	<path style="fill:#DADADA;" d="M392.524,165.66L248.5,207.946L104.479,165.66l29.511-84.397
		c8.508-24.334,24.245-44.653,44.306-58.882C198.345,8.151,222.719,0,248.502,0c51.564,0,97.496,32.595,114.512,81.263
		L392.524,165.66z"/>
	<path style="fill:#B7B5BD;" d="M134.479,165.66l29.511-84.397c8.508-24.334,24.245-44.653,44.306-58.882
		c16.114-11.436,35.022-18.935,55.208-21.443C258.57,0.325,253.564,0,248.502,0c-25.782,0-50.156,8.151-70.207,22.381
		c-20.061,14.23-35.797,34.548-44.306,58.882l-29.511,84.397L248.5,207.946l15-4.404L134.479,165.66z"/>
	<path style="fill:#F9D171;" d="M458.903,376.012c0,23.313-6.733,46.428-19.842,66.399C416.69,476.473,378.672,497,337.916,497
		H159.087c-20.378,0-40.071-5.127-57.464-14.517c-17.393-9.391-32.495-23.035-43.681-40.071
		c-20.665-31.484-25.495-70.792-13.06-106.341l1.656-4.74L248.5,294.246l201.965,37.084l1.656,4.74
		C456.672,349.07,458.903,362.576,458.903,376.012z"/>
	<path style="fill:#FFA93F;" d="M87.942,442.411c-20.666-31.484-25.495-70.792-13.06-106.342l1.656-4.74L263.5,297l-15-2.754
		L46.538,331.33l-1.656,4.74c-12.435,35.55-7.606,74.857,13.06,106.342c11.185,17.036,26.288,30.681,43.681,40.071
		S138.709,497,159.087,497h30c-20.378,0-40.071-5.127-57.464-14.517S99.127,459.447,87.942,442.411z"/>
	<polygon style="fill:#FFB25A;" points="450.465,331.33 46.538,331.33 104.479,165.66 392.524,165.66 	"/>
	<polygon style="fill:#F88000;" points="104.479,165.66 46.538,331.33 76.538,331.33 134.479,165.66 	"/>
	<g>
		<path style="fill:#423E4F;" d="M165.92,252.506c-4.142,0-7.5-3.358-7.5-7.5v-15.869c0-4.142,3.358-7.5,7.5-7.5s7.5,3.358,7.5,7.5
			v15.869C173.42,249.148,170.062,252.506,165.92,252.506z"/>
	</g>
	<g>
		<path style="fill:#423E4F;" d="M331.083,252.506c-4.142,0-7.5-3.358-7.5-7.5v-15.869c0-4.142,3.358-7.5,7.5-7.5s7.5,3.358,7.5,7.5
			v15.869C338.583,249.148,335.225,252.506,331.083,252.506z"/>
	</g>
	<g>
		<path style="fill:#423E4F;" d="M248.502,261.952c-10.512,0-20.508-4.553-27.426-12.491c-2.721-3.123-2.396-7.86,0.727-10.582
			c3.123-2.721,7.859-2.396,10.582,0.727c4.068,4.668,9.943,7.346,16.118,7.346c6.174,0,12.049-2.678,16.118-7.346
			c2.72-3.123,7.458-3.448,10.582-0.726c3.123,2.721,3.448,7.459,0.726,10.582C269.009,257.4,259.013,261.952,248.502,261.952z"/>
	</g>
</g>
<g>
</g>
<g>
</g>
<g>
</g>
<g>
</g>
<g>
</g>
<g>
</g>
<g>
</g>
<g>
</g>
<g>
</g>
<g>
</g>
<g>
</g>
<g>
</g>
<g>
</g>
<g>
</g>
<g>
</g>
</svg>
