<?xml version="1.0" encoding="iso-8859-1"?>
<!-- Generator: Adobe Illustrator 23.0.3, SVG Export Plug-In . SVG Version: 6.00 Build 0)  -->
<svg version="1.1" id="Capa_1" xmlns="http://www.w3.org/2000/svg" xmlns:xlink="http://www.w3.org/1999/xlink" x="0px" y="0px"
	 viewBox="0 0 497 497" style="enable-background:new 0 0 497 497;" xml:space="preserve">
<g>
	<path style="fill:#996ACC;" d="M447.977,250.378l32.894,77.507c10.345,24.374,10.802,51.817,1.274,76.522l0,0
		c-15.168,39.332-52.978,65.275-95.133,65.275h-83.655H193.643h-83.655c-42.156,0-79.965-25.942-95.133-65.275l0,0
		c-9.527-24.705-9.071-52.148,1.274-76.522l32.894-77.507H447.977z"/>
	<path style="fill:#6D36AB;" d="M44.855,404.407L44.855,404.407c-9.528-24.705-9.071-52.148,1.274-76.522l32.894-77.507h-30
		l-32.894,77.507c-10.345,24.374-10.802,51.817-1.274,76.522v0c15.168,39.332,52.978,65.275,95.133,65.275h30
		C97.832,469.682,60.023,443.74,44.855,404.407z"/>
	<circle style="fill:#80E0B7;" cx="248.5" cy="317.558" r="177.525"/>
	<path style="fill:#00B762;" d="M100.975,317.558c0-92.991,71.502-169.271,162.525-176.888c-4.946-0.414-9.947-0.637-15-0.637
		c-98.044,0-177.525,79.48-177.525,177.525c0,98.044,79.48,177.525,177.525,177.525c5.053,0,10.054-0.223,15-0.637
		C172.477,486.829,100.975,410.549,100.975,317.558z"/>
	<polygon style="fill:#996ACC;" points="430.676,212.567 248.5,240.024 66.324,212.567 104.77,153.454 392.23,153.454 	"/>
	<polygon style="fill:#6D36AB;" points="96.324,212.567 134.77,153.454 104.77,153.454 66.324,212.567 248.5,240.024 263.5,237.763 
			"/>
	<path style="fill:#5C576E;" d="M392.23,153.454H104.77L178.7,39.779c15.36-23.619,41.628-37.861,69.8-37.861
		c14.081,0,27.699,3.566,39.705,10.072c12.006,6.517,22.421,15.974,30.096,27.789L392.23,153.454z"/>
	<path style="fill:#423E4F;" d="M263.496,3.286c-4.903-0.898-9.918-1.369-14.996-1.369c-28.172,0-54.44,14.242-69.8,37.861
		l-73.93,113.675h30L208.7,39.779C221.289,20.42,241.208,7.367,263.496,3.286z"/>
	<path style="fill:#F9D171;" d="M282.773,129.884h-68.547c-11.766,0-21.304,9.538-21.304,21.304v88.838h111.154v-88.838
		C304.077,139.422,294.539,129.884,282.773,129.884z"/>
	<rect x="223.14" y="160.1" style="fill:#996ACC;" width="50.721" height="79.924"/>
	<path style="fill:#5C576E;" d="M476.534,212.567H20.466C9.163,212.567,0,221.73,0,233.033v13.986
		c0,11.303,9.163,20.466,20.466,20.466h456.068c11.303,0,20.466-9.163,20.466-20.466v-13.986
		C497,221.73,487.837,212.567,476.534,212.567z"/>
	<path style="fill:#423E4F;" d="M30,247.019v-13.986c0-11.303,9.163-20.466,20.466-20.466h-30C9.163,212.567,0,221.729,0,233.033
		v13.986c0,11.303,9.163,20.466,20.466,20.466h30C39.163,267.484,30,258.322,30,247.019z"/>
	<g>
		<ellipse style="fill:#FFA1AC;" cx="149.087" cy="373.052" rx="36.682" ry="29.211"/>
		<ellipse style="fill:#FFA1AC;" cx="347.913" cy="373.052" rx="36.681" ry="29.211"/>
	</g>
	<g>
		<path style="fill:#423E4F;" d="M274.001,338.831c-3.122-2.721-7.86-2.396-10.582,0.727c-3.766,4.321-9.204,6.8-14.919,6.8
			s-11.153-2.479-14.919-6.8c-2.722-3.123-7.459-3.448-10.582-0.727c-3.123,2.722-3.448,7.459-0.727,10.582
			c6.616,7.591,16.175,11.945,26.228,11.945c10.052,0,19.612-4.354,26.228-11.945C277.449,346.29,277.124,341.553,274.001,338.831z"
			/>
		<path style="fill:#423E4F;" d="M187.179,317.365l-30.071-8.058c-3.999-1.069-8.114,1.303-9.186,5.304s1.303,8.113,5.304,9.186
			l11.029,2.955c-0.814,1.199-1.29,2.647-1.29,4.206v12.954c0,4.142,3.358,7.5,7.5,7.5s7.5-3.358,7.5-7.5v-12.954
			c0-0.182-0.014-0.36-0.027-0.539l5.36,1.436c0.65,0.174,1.303,0.257,1.946,0.257c3.311,0,6.342-2.21,7.24-5.561
			C193.555,322.55,191.18,318.437,187.179,317.365z"/>
		<path style="fill:#423E4F;" d="M349.078,314.611c-1.072-4.001-5.187-6.374-9.186-5.304l-30.071,8.058
			c-4.001,1.072-6.375,5.185-5.304,9.186c0.898,3.351,3.928,5.561,7.24,5.561c0.643,0,1.296-0.083,1.946-0.257l5.359-1.436
			c-0.013,0.179-0.027,0.357-0.027,0.539v12.954c0,4.142,3.358,7.5,7.5,7.5s7.5-3.358,7.5-7.5v-12.954
			c0-1.559-0.476-3.006-1.29-4.205l11.029-2.955C347.775,322.725,350.15,318.612,349.078,314.611z"/>
	</g>
</g>
<g>
</g>
<g>
</g>
<g>
</g>
<g>
</g>
<g>
</g>
<g>
</g>
<g>
</g>
<g>
</g>
<g>
</g>
<g>
</g>
<g>
</g>
<g>
</g>
<g>
</g>
<g>
</g>
<g>
</g>
</svg>
