<?xml version="1.0" encoding="iso-8859-1"?>
<!-- Generator: Adobe Illustrator 23.0.3, SVG Export Plug-In . SVG Version: 6.00 Build 0)  -->
<svg version="1.1" id="Capa_1" xmlns="http://www.w3.org/2000/svg" xmlns:xlink="http://www.w3.org/1999/xlink" x="0px" y="0px"
	 viewBox="0 0 497 497" style="enable-background:new 0 0 497 497;" xml:space="preserve">
<g>
	<path style="fill:#FF9C86;" d="M436.481,14.24l-5.809-4.252c-7.177-5.253-17.209-3.975-22.839,2.91l-75.494,92.327l43.081,31.534
		l65.19-99.869C445.472,29.443,443.658,19.494,436.481,14.24z"/>
	<path style="fill:#5C576E;" d="M474.608,255.817h-45.413v44.784h45.413c12.367,0,22.392-10.025,22.392-22.392v0
		C497,265.842,486.975,255.817,474.608,255.817z"/>
	<path style="fill:#5C576E;" d="M22.392,255.817h45.413v44.784H22.392C10.025,300.601,0,290.576,0,278.209v0
		C0,265.842,10.025,255.817,22.392,255.817z"/>
	<path style="fill:#5C576E;" d="M102.134,361.369L65.158,467.961c-3.782,10.903,4.314,22.282,15.855,22.282h11.435
		c5.96,0,11.474-3.161,14.484-8.306l43.954-75.106L102.134,361.369z"/>
	<path style="fill:#5C576E;" d="M394.866,361.369l36.977,106.592c3.782,10.903-4.314,22.282-15.855,22.282h-11.435
		c-5.96,0-11.474-3.161-14.484-8.306l-43.954-75.106L394.866,361.369z"/>
	<path style="fill:#423E4F;" d="M429.195,255.817v44.784h45.413c1.57,0,3.102-0.163,4.581-0.471
		c1.894-12.051,2.875-24.332,2.875-36.765c0-2.101-0.031-4.202-0.087-6.302c-2.308-0.804-4.786-1.247-7.369-1.247H429.195z"/>
	<path style="fill:#423E4F;" d="M416.979,425.115l-22.113-63.746l-48.752,45.463l30.408,51.959
		c13.23-8.705,25.675-18.813,37.133-30.27C414.779,427.397,415.881,426.257,416.979,425.115z"/>
	<path style="fill:#423E4F;" d="M80.021,425.115c1.098,1.143,2.2,2.282,3.324,3.406c11.458,11.458,23.903,21.565,37.133,30.27
		l30.408-51.959l-48.752-45.463L80.021,425.115z"/>
	<path style="fill:#423E4F;" d="M15.023,257.064c-0.056,2.1-0.087,4.201-0.087,6.302c0,12.433,0.981,24.714,2.875,36.765
		c1.479,0.308,3.011,0.471,4.581,0.471h45.413v-44.784H22.392C19.809,255.817,17.331,256.259,15.023,257.064z"/>
	<path style="fill:#996ACC;" d="M49.926,218.413c-3.26,14.463-4.991,29.505-4.991,44.952c0,112.426,91.139,203.565,203.565,203.565
		s203.565-91.139,203.565-203.565c0-15.448-1.73-30.49-4.991-44.952L248.5,188.824L49.926,218.413z"/>
	<path style="fill:#6D36AB;" d="M74.935,263.366c0-15.448,1.731-30.49,4.991-44.952L263.5,191.059l-15-2.235L49.926,218.413
		c-3.26,14.463-4.991,29.505-4.991,44.952c0,112.426,91.139,203.564,203.565,203.564c5.046,0,10.046-0.191,15-0.552
		C158.079,458.7,74.935,370.746,74.935,263.366z"/>
	<g>
		<ellipse style="fill:#FFA1AC;" cx="139.943" cy="330.756" rx="40.055" ry="31.898"/>
		<ellipse style="fill:#FFA1AC;" cx="357.057" cy="330.756" rx="40.055" ry="31.898"/>
	</g>
	<g>
		<path style="fill:#423E4F;" d="M163.287,307.55c-4.142,0-7.5-3.358-7.5-7.5v-16.375c0-4.142,3.358-7.5,7.5-7.5s7.5,3.358,7.5,7.5
			v16.375C170.787,304.192,167.43,307.55,163.287,307.55z"/>
	</g>
	<g>
		<path style="fill:#423E4F;" d="M333.712,307.55c-4.142,0-7.5-3.358-7.5-7.5v-16.375c0-4.142,3.358-7.5,7.5-7.5s7.5,3.358,7.5,7.5
			v16.375C341.212,304.192,337.854,307.55,333.712,307.55z"/>
	</g>
	<g>
		<path style="fill:#423E4F;" d="M248.5,317.297c-10.778,0-21.027-4.668-28.12-12.807c-2.721-3.123-2.396-7.86,0.727-10.582
			c3.123-2.721,7.86-2.396,10.582,0.727c4.243,4.869,10.371,7.662,16.812,7.662s12.568-2.792,16.812-7.662
			c2.721-3.124,7.459-3.448,10.582-0.727c3.123,2.722,3.448,7.459,0.727,10.582C269.527,312.629,259.278,317.297,248.5,317.297z"/>
	</g>
	<path style="fill:#80E0B7;" d="M381.101,200.817c27.263,0,49.364-22.101,49.364-49.364s-22.101-49.364-49.364-49.364
		c-4.894,0-9.617,0.723-14.081,2.049c-4.456-29.397-29.833-51.927-60.474-51.927c-9.866,0-19.178,2.35-27.43,6.498
		c-12.858-17.823-33.79-29.436-57.446-29.436c-37.163,0-67.618,28.637-70.552,65.045c-7.213-2.992-15.118-4.651-23.414-4.651
		c-33.783,0-61.17,27.387-61.17,61.17c0,33.783,27.387,61.17,61.17,61.17L381.101,200.817z"/>
	<path style="fill:#00B762;" d="M129.795,188.824c-14.162-11.203-23.261-28.528-23.261-47.988c0-21.213,10.802-39.9,27.202-50.872
		c-1.984-0.195-3.996-0.298-6.032-0.298c-33.783,0-61.17,27.387-61.17,61.17c0,14.359,4.961,27.552,13.244,37.988H129.795z"/>
	<path style="fill:#5C576E;" d="M445.38,159.235H51.62c-13.201,0-23.902,10.701-23.902,23.902v11.373
		c0,13.201,10.701,23.902,23.902,23.902h393.76c13.201,0,23.902-10.701,23.902-23.902v-11.373
		C469.282,169.936,458.581,159.235,445.38,159.235z"/>
	<path style="fill:#423E4F;" d="M57.718,194.511v-11.373c0-13.201,10.702-23.902,23.902-23.902h-30
		c-13.201,0-23.902,10.701-23.902,23.902v11.373c0,13.201,10.702,23.903,23.902,23.903h30
		C68.419,218.413,57.718,207.712,57.718,194.511z"/>
</g>
<g>
</g>
<g>
</g>
<g>
</g>
<g>
</g>
<g>
</g>
<g>
</g>
<g>
</g>
<g>
</g>
<g>
</g>
<g>
</g>
<g>
</g>
<g>
</g>
<g>
</g>
<g>
</g>
<g>
</g>
</svg>
