<?xml version="1.0" encoding="iso-8859-1"?>
<!-- Generator: Adobe Illustrator 23.0.3, SVG Export Plug-In . SVG Version: 6.00 Build 0)  -->
<svg version="1.1" id="Capa_1" xmlns="http://www.w3.org/2000/svg" xmlns:xlink="http://www.w3.org/1999/xlink" x="0px" y="0px"
	 viewBox="0 0 497 497" style="enable-background:new 0 0 497 497;" xml:space="preserve">
<g>
	<path style="fill:#A8E1F6;" d="M248.5,0L248.5,0C136.004,0,44.809,91.196,44.809,203.691v244.581
		c0,17.747,9.792,34.046,25.461,42.379h0c15.919,8.466,35.004,8.466,50.923,0c15.919-8.466,35.004-8.466,50.923,0h0
		c15.919,8.466,35.004,8.466,50.923,0h0c15.919-8.466,35.004-8.466,50.923,0h0c15.919,8.466,35.004,8.466,50.923,0h0
		c15.919-8.466,35.004-8.466,50.923,0h0c15.919,8.466,35.004,8.466,50.923,0h0c15.669-8.333,25.461-24.632,25.461-42.379V203.691
		C452.191,91.196,360.996,0,248.5,0z"/>
	<path style="fill:#34B6E2;" d="M110.27,490.651L110.27,490.651c-15.669-8.333-25.461-24.632-25.461-42.379V203.691
		c0-105.747,80.584-192.664,183.691-202.713C261.919,0.337,255.249,0,248.5,0h0C136.004,0,44.809,91.196,44.809,203.691v244.581
		c0,17.747,9.792,34.046,25.461,42.379h0c14.137,7.518,30.766,8.343,45.461,2.508C113.879,492.424,112.052,491.599,110.27,490.651z"
		/>
	<ellipse style="fill:#FFA1AC;" cx="135.502" cy="264.752" rx="41.694" ry="33.203"/>
	<ellipse style="fill:#FFA1AC;" cx="361.498" cy="264.752" rx="41.694" ry="33.203"/>
	<ellipse style="fill:#5C576E;" cx="248.5" cy="239.24" rx="22.132" ry="24.766"/>
	<g>
		<path style="fill:#423E4F;" d="M142.472,232.185c-4.142,0-7.5-3.358-7.5-7.5v-16.172c0-4.142,3.358-7.5,7.5-7.5s7.5,3.358,7.5,7.5
			v16.172C149.972,228.827,146.614,232.185,142.472,232.185z"/>
	</g>
	<g>
		<path style="fill:#423E4F;" d="M354.528,232.185c-4.143,0-7.5-3.358-7.5-7.5v-16.172c0-4.142,3.357-7.5,7.5-7.5s7.5,3.358,7.5,7.5
			v16.172C362.028,228.827,358.671,232.185,354.528,232.185z"/>
	</g>
</g>
<g>
</g>
<g>
</g>
<g>
</g>
<g>
</g>
<g>
</g>
<g>
</g>
<g>
</g>
<g>
</g>
<g>
</g>
<g>
</g>
<g>
</g>
<g>
</g>
<g>
</g>
<g>
</g>
<g>
</g>
</svg>
