<?xml version="1.0" encoding="iso-8859-1"?>
<!-- Generator: Adobe Illustrator 23.0.3, SVG Export Plug-In . SVG Version: 6.00 Build 0)  -->
<svg version="1.1" id="Capa_1" xmlns="http://www.w3.org/2000/svg" xmlns:xlink="http://www.w3.org/1999/xlink" x="0px" y="0px"
	 viewBox="0 0 497 497" style="enable-background:new 0 0 497 497;" xml:space="preserve">
<g>
	<path style="fill:#B7B5BD;" d="M378.293,426.23c11.253,17.873,20.56,41.506,20.56,70.77H98.147c0-29.264,9.307-52.897,20.56-70.77
		H378.293z"/>
	<path style="fill:#A29DAE;" d="M128.147,497c0-29.264,9.307-52.897,20.56-70.77h-30c-7.033,11.17-13.306,24.591-17.022,40.23
		c-2.229,9.383-3.538,19.565-3.538,30.54H128.147z"/>
	<path style="fill:#DADADA;" d="M378.293,426.23c-24.571,18.831-73.477,31.665-129.793,31.665s-105.221-12.834-129.793-31.665
		c17.181-27.288,38.877-41.15,38.877-41.15h181.83C339.415,385.08,361.111,398.942,378.293,426.23z"/>
	<path style="fill:#B7B5BD;" d="M148.707,426.23c17.181-27.288,38.878-41.15,38.878-41.15h-30c0,0-21.696,13.862-38.878,41.15
		c6.161,4.722,13.853,9.066,22.807,12.926C143.762,434.563,146.181,430.243,148.707,426.23z"/>
	<path style="fill:#DADADA;" d="M403.743,72.054c18.841,22.269,32.969,48.639,40.863,77.587H52.393
		c7.894-28.948,22.022-55.318,40.863-77.587L248.5,36.027L403.743,72.054z"/>
	<path style="fill:#DADADA;" d="M403.743,334.455v-0.01c18.841-22.269,32.969-48.639,40.863-77.587H52.393
		c7.894,28.948,22.022,55.318,40.863,77.587v0.01L248.5,370.478L403.743,334.455z"/>
	<path style="fill:#B7B5BD;" d="M123.257,334.455v-0.01c-18.841-22.27-32.969-48.639-40.863-77.587h-30
		c5.427,19.902,13.801,38.585,24.627,55.555c4.921,7.714,10.349,15.073,16.236,22.032l0,0v0.01l37.911,8.797
		C128.451,340.394,125.805,337.468,123.257,334.455z"/>
	<path style="fill:#B7B5BD;" d="M403.743,334.455c-37.287,44.064-93,72.044-155.243,72.044s-117.956-27.98-155.243-72.044
		c44.223,8.339,97.673,13.219,155.243,13.219S359.521,342.794,403.743,334.455z"/>
	<path style="fill:#80E0B7;" d="M451.75,203.25c0,18.554-2.49,36.526-7.143,53.599v0.01
		c-49.992,13.98-119.389,22.645-196.107,22.645s-146.114-8.665-196.107-22.645v-0.01c-4.653-17.073-7.143-35.044-7.143-53.599
		c0-18.555,2.49-36.516,7.143-53.599v-0.01c49.992-13.97,119.389-22.635,196.107-22.635s146.114,8.665,196.107,22.635v0.01
		C449.26,166.734,451.75,184.695,451.75,203.25z"/>
	<g>
		<ellipse style="fill:#FFA1AC;" cx="141.651" cy="216.722" rx="39.425" ry="31.396"/>
		<ellipse style="fill:#FFA1AC;" cx="355.349" cy="216.722" rx="39.425" ry="31.396"/>
	</g>
	<g>
		<path style="fill:#423E4F;" d="M164.628,193.999c-4.143,0-7.5-3.358-7.5-7.5v-16.117c0-4.142,3.357-7.5,7.5-7.5s7.5,3.358,7.5,7.5
			v16.117C172.128,190.641,168.771,193.999,164.628,193.999z"/>
	</g>
	<g>
		<path style="fill:#423E4F;" d="M332.371,193.999c-4.143,0-7.5-3.358-7.5-7.5v-16.117c0-4.142,3.357-7.5,7.5-7.5s7.5,3.358,7.5,7.5
			v16.117C339.871,190.641,336.514,193.999,332.371,193.999z"/>
	</g>
	<g>
		<path style="fill:#423E4F;" d="M248.5,203.593c-10.643,0-20.764-4.609-27.767-12.646c-2.722-3.123-2.396-7.86,0.728-10.582
			c3.122-2.721,7.86-2.396,10.581,0.727c4.154,4.767,10.152,7.501,16.458,7.501c6.305,0,12.304-2.734,16.458-7.501
			c2.723-3.123,7.459-3.448,10.582-0.726c3.123,2.721,3.447,7.459,0.727,10.582C269.262,198.983,259.142,203.593,248.5,203.593z"/>
	</g>
	<path style="fill:#B7B5BD;" d="M403.743,72.054C359.521,63.716,306.07,58.835,248.5,58.835S137.479,63.716,93.257,72.054
		C130.544,27.98,186.256,0,248.5,0S366.457,27.98,403.743,72.054z"/>
	<path style="fill:#A29DAE;" d="M257.43,406.287c2.03-0.092,4.055-0.205,6.07-0.352c-53.517-3.905-101.279-28.525-135.307-65.881
		c-12.172-1.634-23.845-3.507-34.936-5.599c37.287,44.064,93,72.044,155.243,72.044c1.608,0,3.21-0.03,4.809-0.067
		C254.033,406.414,256.779,406.315,257.43,406.287z"/>
	<path style="fill:#B7B5BD;" d="M123.257,72.054c2.549-3.012,5.193-5.94,7.91-8.798l-37.91,8.798c0,0,0,0,0,0
		c-8.243,9.743-15.584,20.271-21.895,31.455c-8.115,14.381-14.528,29.848-18.968,46.132h30
		C90.287,120.693,104.416,94.324,123.257,72.054z"/>
	<path style="fill:#A29DAE;" d="M93.257,72.054c11.091-2.091,22.763-3.965,34.935-5.599C162.22,29.091,209.982,4.47,263.5,0.565
		c-2.017-0.147-4.043-0.26-6.075-0.352C254.453,0.079,251.476,0,248.5,0C186.257,0,130.544,27.98,93.257,72.054z"/>
	<path style="fill:#00B762;" d="M82.393,256.848c-4.653-17.073-7.143-35.044-7.143-53.599c0-18.554,2.49-36.516,7.143-53.608
		c0.709-2.599,1.485-5.169,2.293-7.725c-11.474,2.345-22.279,4.927-32.293,7.735c-4.653,17.083-7.143,35.044-7.143,53.599
		c0,18.084,2.391,36.159,7.143,53.609c10.015,2.801,20.82,5.384,32.295,7.73C83.88,262.031,83.102,259.459,82.393,256.848z"/>
</g>
<g>
</g>
<g>
</g>
<g>
</g>
<g>
</g>
<g>
</g>
<g>
</g>
<g>
</g>
<g>
</g>
<g>
</g>
<g>
</g>
<g>
</g>
<g>
</g>
<g>
</g>
<g>
</g>
<g>
</g>
</svg>
