<?xml version="1.0" encoding="iso-8859-1"?>
<!-- Generator: Adobe Illustrator 23.0.3, SVG Export Plug-In . SVG Version: 6.00 Build 0)  -->
<svg version="1.1" id="Capa_1" xmlns="http://www.w3.org/2000/svg" xmlns:xlink="http://www.w3.org/1999/xlink" x="0px" y="0px"
	 viewBox="0 0 497 497" style="enable-background:new 0 0 497 497;" xml:space="preserve">
<g>
	<path style="fill:#A8E1F6;" d="M101.388,85.842l-18.998,17.39c-13.717,12.556-21.528,30.296-21.528,48.892v278.594
		c0,18.596,7.812,36.336,21.528,48.892l0,0C94.61,490.796,110.577,497,127.144,497h242.713c16.567,0,32.533-6.204,44.754-17.39l0,0
		c13.717-12.556,21.528-30.296,21.528-48.892V152.124c0-18.596-7.812-36.336-21.528-48.892l-18.998-17.39L248.5,46.43
		L101.388,85.842z"/>
	<path style="fill:#34B6E2;" d="M90.862,430.718V152.124c0-18.596,7.812-36.336,21.528-48.892l18.998-17.39L263.5,50.448l-15-4.019
		L101.388,85.842l-18.998,17.39c-13.717,12.556-21.528,30.296-21.528,48.892v278.594c0,18.596,7.812,36.336,21.528,48.892
		C94.61,490.796,110.577,497,127.144,497h30c-16.567,0-32.533-6.204-44.754-17.39C98.673,467.054,90.862,449.314,90.862,430.718z"/>
	<path style="fill:#996ACC;" d="M395.612,0H101.388C79.006,0,60.862,18.144,60.862,40.526v4.789
		c0,22.382,18.144,40.527,40.526,40.527h294.224c22.382,0,40.527-18.144,40.527-40.527v-4.789C436.138,18.144,417.994,0,395.612,0z"
		/>
	<path style="fill:#6D36AB;" d="M90.862,45.315v-4.789C90.862,18.144,109.006,0,131.388,0h-30C79.006,0,60.862,18.144,60.862,40.526
		v4.789c0,22.382,18.144,40.527,40.526,40.527h30C109.006,85.842,90.862,67.698,90.862,45.315z"/>
	<g>
		<g>
			<path style="fill:#423E4F;" d="M165.606,55.509c-4.142,0-7.5-3.358-7.5-7.5V32.08c0-4.142,3.358-7.5,7.5-7.5s7.5,3.358,7.5,7.5
				v15.929C173.106,52.151,169.748,55.509,165.606,55.509z"/>
		</g>
		<g>
			<path style="fill:#423E4F;" d="M331.394,55.509c-4.142,0-7.5-3.358-7.5-7.5V32.08c0-4.142,3.358-7.5,7.5-7.5s7.5,3.358,7.5,7.5
				v15.929C338.894,52.151,335.536,55.509,331.394,55.509z"/>
		</g>
		<g>
			<path style="fill:#423E4F;" d="M248.5,64.99c-10.543,0-20.57-4.566-27.509-12.529c-2.721-3.123-2.396-7.86,0.727-10.582
				c3.122-2.721,7.86-2.396,10.582,0.727c4.089,4.692,9.994,7.384,16.2,7.384s12.111-2.691,16.2-7.384
				c2.721-3.123,7.459-3.447,10.582-0.727c3.123,2.722,3.448,7.459,0.727,10.582C269.07,60.424,259.044,64.99,248.5,64.99z"/>
		</g>
	</g>
	<path style="fill:#996ACC;" d="M378.151,155.3c-0.184-0.121-0.369-0.243-0.553-0.365c-11.189-7.374-25.696-7.374-36.885,0h0
		c-11.189,7.374-25.696,7.374-36.885,0c-11.189-7.374-25.696-7.374-36.885,0h0c-11.189,7.374-25.696,7.374-36.885,0h0
		c-11.189-7.374-25.696-7.374-36.885,0c-11.189,7.374-25.696,7.374-36.885,0h0c-11.189-7.374-25.696-7.374-36.885,0l-0.552,0.364
		c-11.168,7.36-17.89,19.833-17.89,33.208c0,62.822,0,242.21,0,242.21c0,7.327,3.1,14.367,8.505,19.315
		c4.84,4.43,11.119,6.87,17.679,6.87h242.713c7.805,0,15.209-3.452,20.272-9.605c3.938-4.786,5.913-10.892,5.913-17.09V188.515
		C396.041,175.14,389.32,162.66,378.151,155.3z"/>
	<path style="fill:#6D36AB;" d="M130.959,430.718c0,0,0-179.388,0-242.21c0-13.375,6.722-25.848,17.89-33.208l0.552-0.364
		c1.114-0.734,2.269-1.375,3.443-1.963c-10.611-5.317-23.367-4.677-33.443,1.963l-0.552,0.364
		c-11.168,7.36-17.89,19.833-17.89,33.208c0,62.822,0,242.21,0,242.21c0,7.327,3.1,14.367,8.505,19.314
		c4.84,4.43,11.119,6.87,17.679,6.87h30c-6.56,0-12.839-2.441-17.679-6.87C134.059,445.085,130.959,438.045,130.959,430.718z"/>
	<circle style="fill:#DADADA;" cx="248.5" cy="305.798" r="93.171"/>
	<circle style="fill:#00B762;" cx="248.5" cy="297.778" r="49.394"/>
	<circle style="fill:#423E4F;" cx="248.5" cy="287.754" r="15.83"/>
</g>
<g>
</g>
<g>
</g>
<g>
</g>
<g>
</g>
<g>
</g>
<g>
</g>
<g>
</g>
<g>
</g>
<g>
</g>
<g>
</g>
<g>
</g>
<g>
</g>
<g>
</g>
<g>
</g>
<g>
</g>
</svg>
