<?xml version="1.0" encoding="iso-8859-1"?>
<!-- Generator: Adobe Illustrator 23.0.3, SVG Export Plug-In . SVG Version: 6.00 Build 0)  -->
<svg version="1.1" id="Capa_1" xmlns="http://www.w3.org/2000/svg" xmlns:xlink="http://www.w3.org/1999/xlink" x="0px" y="0px"
	 viewBox="0 0 497 497" style="enable-background:new 0 0 497 497;" xml:space="preserve">
<g>
	<path style="fill:#996ACC;" d="M324.948,497H172.052l-50.082-39.977c13.454-40.243,43.04-63.103,43.04-63.103h166.981
		c0,0,29.587,22.86,43.04,63.103L324.948,497z"/>
	<path style="fill:#6D36AB;" d="M151.969,457.023c13.454-40.243,43.04-63.103,43.04-63.103h-30c0,0-29.586,22.86-43.04,63.103
		H151.969z"/>
	<circle style="fill:#80E0B7;" cx="248.831" cy="408.39" r="43.407"/>
	<path style="fill:#80E0B7;" d="M172.052,457.023V497h-56.632c0-14.744,2.571-28.119,6.55-39.977H172.052z"/>
	<path style="fill:#00B762;" d="M121.969,457.023c-3.979,11.858-6.55,25.233-6.55,39.977h30c0-14.744,2.571-28.119,6.55-39.977
		H121.969z"/>
	<path style="fill:#80E0B7;" d="M381.581,497h-56.632v-39.977h50.082C379.01,468.881,381.581,482.256,381.581,497z"/>
	<circle style="fill:#00B762;" cx="426.463" cy="227.893" r="48.245"/>
	<path style="fill:#FFA1AC;" d="M87.095,117.841c-1.502-16.118,6.349-31.746,20.304-40.137l0.011-0.007
		c8.685-5.222,15.204-13.39,18.37-23.017l0.019-0.057c5.249-15.959,19.45-27.293,36.175-28.873l0.097-0.009
		c10.064-0.951,19.454-5.477,26.467-12.758l0.035-0.037c11.671-12.117,29.417-16.159,45.184-10.29l0,0
		c9.51,3.539,19.975,3.539,29.485,0h0c15.767-5.868,33.513-1.827,45.184,10.29l0.036,0.037c7.013,7.281,16.403,11.807,26.467,12.757
		l0.097,0.009c16.725,1.58,30.927,12.915,36.175,28.873l0.019,0.058c3.166,9.626,9.685,17.795,18.37,23.017l0.011,0.007
		c13.955,8.391,21.806,24.019,20.303,40.137l-36.358,34.598H135.793L87.095,117.841z"/>
	<path style="fill:#FD5C6F;" d="M127.115,126.135c-1.663-17.845,7.029-35.147,22.479-44.437l0.013-0.008
		c9.615-5.781,16.833-14.825,20.338-25.482l0.021-0.064c5.811-17.668,21.534-30.217,40.051-31.966l0.107-0.01
		c11.142-1.052,21.538-6.063,29.302-14.124l0.039-0.041c1.71-1.776,3.541-3.39,5.466-4.847c-3.792-0.322-7.552-1.153-11.173-2.5l0,0
		c-15.767-5.868-33.513-1.826-45.184,10.291l-0.035,0.037c-7.013,7.281-16.403,11.807-26.467,12.758l-0.097,0.009
		c-16.725,1.58-30.927,12.915-36.176,28.873l-0.019,0.057c-3.166,9.626-9.685,17.795-18.37,23.017l-0.011,0.007
		c-13.955,8.391-21.806,24.019-20.303,40.137l48.698,34.598h28.346L127.115,126.135z"/>
	<path style="fill:#80E0B7;" d="M407.481,116.362c-0.226-0.128-0.452-0.256-0.678-0.383c-14.033-7.933-31.196-7.933-45.229,0
		c-14.033,7.933-31.196,7.933-45.229,0h0c-14.033-7.933-31.196-7.933-45.229,0h0c-14.033,7.933-31.197,7.933-45.229,0h0
		c-14.033-7.933-31.197-7.933-45.229,0c-14.033,7.933-31.196,7.933-45.229,0h0c-14.033-7.933-31.196-7.933-45.229,0l-0.678,0.383
		c-13.556,7.663-21.937,22.03-21.937,37.602v77.87c0,99.689,81.56,182.645,181.248,182.467
		c99.766-0.179,180.587-81.11,180.587-180.917v-79.42C429.417,138.391,421.037,124.025,407.481,116.362z"/>
	<path style="fill:#00B762;" d="M97.583,231.833V112.645c-2.53,0.889-5.005,1.988-7.385,3.333l-0.678,0.383
		c-13.556,7.663-21.937,22.03-21.937,37.602v25.784c-25.268,1.528-45.29,22.494-45.29,48.146c0,26.645,21.6,48.245,48.245,48.245
		c0.873,0,1.713-0.026,2.528-0.072c19.844,78.836,91.291,138.384,175.765,138.233c4.984-0.009,9.919-0.228,14.801-0.633
		C170.986,405.905,97.583,326.404,97.583,231.833z"/>
	<g>
		<g>
			<ellipse style="fill:#FFA1AC;" cx="145.513" cy="270.766" rx="38" ry="30.261"/>
			<ellipse style="fill:#FFA1AC;" cx="351.487" cy="270.766" rx="38" ry="30.261"/>
		</g>
		<path style="fill:#FD5C6F;" d="M285.306,256.774l6.609,37.087c1.993,11.185-5.458,21.869-16.644,23.862l0,0
			c-11.185,1.993-21.869-5.458-23.862-16.643l-6.609-37.087L285.306,256.774z"/>
		<path style="fill:#5C576E;" d="M248.639,269.458c18.727-0.034,35.426,12.519,45.887-3.019
			c10.611-15.761-13.263-40.127-45.965-40.068c-32.702,0.06-56.487,24.513-45.819,40.235
			C213.259,282.106,229.913,269.492,248.639,269.458z"/>
		
			<ellipse transform="matrix(0.1516 -0.9884 0.9884 0.1516 -79.1497 351.3956)" style="fill:#FFFFFF;" cx="165.117" cy="221.803" rx="29.563" ry="29.563"/>
		
			<ellipse transform="matrix(0.9694 -0.2456 0.2456 0.9694 -49.4179 47.3468)" style="fill:#80E0B7;" cx="165.117" cy="221.803" rx="16.654" ry="16.654"/>
		
			<ellipse transform="matrix(0.049 -0.9988 0.9988 0.049 94.4792 542.2281)" style="fill:#FFFFFF;" cx="331.987" cy="221.499" rx="29.563" ry="29.563"/>
		<path style="fill:#80E0B7;" d="M321.853,221.517c-0.01-5.597,4.519-10.142,10.116-10.152c5.597-0.01,10.142,4.519,10.152,10.116
			c0.01,5.597-4.519,10.142-10.115,10.153C326.409,231.643,321.863,227.114,321.853,221.517z"/>
	</g>
</g>
<g>
</g>
<g>
</g>
<g>
</g>
<g>
</g>
<g>
</g>
<g>
</g>
<g>
</g>
<g>
</g>
<g>
</g>
<g>
</g>
<g>
</g>
<g>
</g>
<g>
</g>
<g>
</g>
<g>
</g>
</svg>
