<?xml version="1.0" encoding="iso-8859-1"?>
<!-- Generator: Adobe Illustrator 23.0.3, SVG Export Plug-In . SVG Version: 6.00 Build 0)  -->
<svg version="1.1" id="Capa_1" xmlns="http://www.w3.org/2000/svg" xmlns:xlink="http://www.w3.org/1999/xlink" x="0px" y="0px"
	 viewBox="0 0 497 497" style="enable-background:new 0 0 497 497;" xml:space="preserve">
<g>
	<path style="fill:#F9475E;" d="M367.146,432.308c-15.706-24.945-35.539-37.616-35.539-37.616H165.392
		c0,0-19.833,12.671-35.539,37.616c-10.287,16.338-18.794,37.941-18.794,64.692h52.928l7.5-4.565l7.5,4.565h139.026l7.5-4.565
		l7.5,4.565h52.928C385.941,470.249,377.433,448.645,367.146,432.308z"/>
	<path style="fill:#E92740;" d="M195.392,394.692h-30c0,0-19.833,12.671-35.539,37.616c-10.287,16.338-18.794,37.941-18.794,64.692
		h30c0-26.751,8.508-48.354,18.794-64.692C175.559,407.363,195.392,394.692,195.392,394.692z"/>
	<path style="fill:#F9D171;" d="M389.686,2.517c-5.718-5.239-15.034-1.825-15.997,5.87c-1.49,11.896-5.775,27.281-17.67,34.202
		l53.086,43.648C409.106,86.236,420.664,30.905,389.686,2.517z"/>
	<path style="fill:#FFA93F;" d="M393.689,16.162c0.26-2.673,1.134-4.939,2.378-6.697c-1.895-2.449-4.012-4.778-6.381-6.948
		c-5.718-5.239-15.034-1.825-15.997,5.87c-1.49,11.896-5.775,27.281-17.67,34.202l20.679,17.002
		C388.074,50.458,392.228,31.158,393.689,16.162z"/>
	<path style="fill:#F9D171;" d="M107.314,2.517c5.718-5.239,15.034-1.825,15.997,5.87c1.49,11.896,5.775,27.281,17.67,34.202
		L87.894,86.236C87.894,86.236,76.336,30.905,107.314,2.517z"/>
	<path style="fill:#FFA93F;" d="M123.014,6.934c-1.874-6.65-10.357-9.314-15.7-4.417C76.336,30.904,87.894,86.236,87.894,86.236
		l18.179-14.947C104.975,54.208,106.276,26.143,123.014,6.934z"/>
	<path style="fill:#5C576E;" d="M33.075,228.476c0-28.763,5.825-56.85,17.314-83.479c11.006-25.509,26.678-48.509,46.581-68.361
		c19.871-19.821,42.878-35.427,68.382-46.384c26.563-11.413,54.538-17.2,83.148-17.2s56.584,5.787,83.147,17.2
		c25.504,10.958,48.512,26.563,68.382,46.384c19.903,19.852,35.575,42.853,46.581,68.361c11.489,26.629,17.314,54.715,17.314,83.479
		H33.075z"/>
	<path style="fill:#423E4F;" d="M136.971,76.636c19.871-19.821,42.878-35.427,68.382-46.384
		c20.338-8.738,41.504-14.166,63.148-16.236c-6.626-0.634-13.295-0.964-20-0.964c-28.61,0-56.584,5.787-83.148,17.2
		c-25.504,10.958-48.511,26.563-68.382,46.384c-19.903,19.853-35.575,42.853-46.581,68.361
		c-11.489,26.629-17.314,54.715-17.314,83.479h40c0-28.763,5.826-56.85,17.314-83.479
		C101.396,119.489,117.067,96.489,136.971,76.636z"/>
	<path style="fill:#F9475E;" d="M492.388,179.702c-0.673-2.911-3.762-4.549-6.553-3.482c-38.781,14.82-51.993,39.544-51.993,39.544
		l-12.61,80.213C513.432,295.978,497.818,203.191,492.388,179.702z"/>
	<path style="fill:#FD5C6F;" d="M434.295,228.347c-0.006-7.75-0.857-15.485-2.463-23.067
		C404.914,78.219,305.174,63.202,248.5,120.764C191.826,63.202,92.086,78.219,65.168,205.28c-1.606,7.582-2.457,15.317-2.463,23.067
		c0,0.043,0,0.086,0,0.129c0,101.21,84.723,185.795,185.796,185.795c101.072,0,185.795-84.586,185.795-185.795
		C434.295,228.433,434.295,228.39,434.295,228.347z"/>
	<path style="fill:#F9475E;" d="M92.704,228.476c0-0.043,0-0.086,0-0.129c0.006-7.75,0.857-15.485,2.463-23.067
		c15.352-72.465,54.39-108.47,95.617-115.369c-50.953-8.4-106.551,25.373-125.617,115.369c-0.81,3.822-1.426,7.682-1.841,11.564
		l-0.17-1.08c0,0-13.211-24.725-51.993-39.544c-2.791-1.066-5.88,0.571-6.553,3.482c-5.43,23.489-21.044,116.276,71.156,116.276
		l0-0.001c27.518,68.689,95.331,118.295,172.733,118.295c5.044,0,10.046-0.22,15-0.633
		C169.184,405.778,92.704,324.635,92.704,228.476z"/>
	<g>
		<g>
			<path style="fill:#E92740;" d="M163.987,497v-41.664c0-4.142,3.358-7.5,7.5-7.5s7.5,3.358,7.5,7.5V497H163.987z"/>
		</g>
	</g>
	<g>
		<g>
			<path style="fill:#E92740;" d="M318.013,497v-41.664c0-4.142,3.358-7.5,7.5-7.5s7.5,3.358,7.5,7.5V497H318.013z"/>
		</g>
	</g>
	<g>
		<ellipse style="fill:#FFA1AC;" cx="140.766" cy="273.762" rx="39.752" ry="31.656"/>
		<ellipse style="fill:#FFA1AC;" cx="356.234" cy="273.762" rx="39.752" ry="31.656"/>
	</g>
	<g>
		<path style="fill:#423E4F;" d="M275.724,237.151c-3.124-2.721-7.86-2.396-10.582,0.727c-4.201,4.82-10.267,7.585-16.642,7.585
			c-6.375,0-12.441-2.765-16.641-7.584c-2.721-3.124-7.459-3.448-10.582-0.727c-3.123,2.721-3.448,7.459-0.727,10.582
			c7.05,8.09,17.237,12.73,27.95,12.73c10.712,0,20.899-4.64,27.95-12.73C279.171,244.61,278.846,239.872,275.724,237.151z"/>
		<path style="fill:#423E4F;" d="M181.884,214.021l-32.588-8.732c-3.994-1.072-8.113,1.302-9.186,5.304
			c-1.072,4.001,1.303,8.113,5.304,9.186l12.867,3.448c-1.147,1.317-1.847,3.035-1.847,4.919v14.038c0,4.142,3.358,7.5,7.5,7.5
			s7.5-3.358,7.5-7.5v-14.038c0-0.49-0.05-0.968-0.14-1.432l6.709,1.798c0.65,0.174,1.303,0.257,1.946,0.257
			c3.311,0,6.342-2.21,7.24-5.561C188.259,219.206,185.885,215.094,181.884,214.021z"/>
		<path style="fill:#423E4F;" d="M356.89,210.593c-1.072-4.001-5.187-6.375-9.186-5.304l-32.588,8.732
			c-4.001,1.072-6.375,5.185-5.304,9.186c0.898,3.351,3.928,5.561,7.24,5.561c0.643,0,1.296-0.083,1.946-0.257l6.709-1.798
			c-0.09,0.464-0.14,0.942-0.14,1.432v14.038c0,4.142,3.358,7.5,7.5,7.5s7.5-3.358,7.5-7.5v-14.038c0-1.884-0.7-3.601-1.847-4.919
			l12.867-3.448C355.587,218.706,357.962,214.594,356.89,210.593z"/>
	</g>
</g>
<g>
</g>
<g>
</g>
<g>
</g>
<g>
</g>
<g>
</g>
<g>
</g>
<g>
</g>
<g>
</g>
<g>
</g>
<g>
</g>
<g>
</g>
<g>
</g>
<g>
</g>
<g>
</g>
<g>
</g>
</svg>
