<?xml version="1.0" encoding="iso-8859-1"?>
<!-- Generator: Adobe Illustrator 23.0.3, SVG Export Plug-In . SVG Version: 6.00 Build 0)  -->
<svg version="1.1" id="Capa_1" xmlns="http://www.w3.org/2000/svg" xmlns:xlink="http://www.w3.org/1999/xlink" x="0px" y="0px"
	 viewBox="0 0 497 497" style="enable-background:new 0 0 497 497;" xml:space="preserve">
<g>
	<path style="fill:#F86745;" d="M406.2,470.8c-9.044-32.556-32.967-44.676-32.967-44.676L242.55,398.188l-130.682,27.937
		c0,0-23.923,12.12-32.967,44.676c-3.658,13.17,6.291,26.2,19.96,26.2H386.24C399.908,497,409.858,483.97,406.2,470.8z"/>
	<path style="fill:#C94D2F;" d="M108.901,470.8c9.044-32.556,32.967-44.676,32.967-44.676l115.682-24.73l-15-3.207l-130.682,27.937
		c0,0-23.923,12.12-32.967,44.676c-3.658,13.17,6.291,26.2,19.96,26.2h30C115.193,497,105.243,483.97,108.901,470.8z"/>
	<path style="fill:#A8E1F6;" d="M111.869,370.251l130.682,27.937l130.682-27.937c47.268-38.165,77.51-96.576,77.51-162.059
		C450.743,93.211,357.532,0,242.55,0S34.358,93.211,34.358,208.192C34.358,273.675,64.6,332.086,111.869,370.251z"/>
	<path style="fill:#34B6E2;" d="M141.869,370.251c-47.268-38.165-77.51-96.575-77.51-162.059
		c0-109.937,85.214-199.961,193.192-207.65C252.595,0.19,247.595,0,242.55,0C127.569,0,34.358,93.211,34.358,208.192
		c0,65.483,30.242,123.894,77.51,162.059l130.682,27.937l15-3.207L141.869,370.251z"/>
	<rect x="111.869" y="370.251" style="fill:#F9D171;" width="261.364" height="55.874"/>
	<rect x="111.869" y="370.251" style="fill:#FFA93F;" width="30" height="55.874"/>
	<path style="fill:#F9D171;" d="M8.908,277.291c13.684,2.884,23.771,12.773,26.671,26.791c1.012,4.891,5.348,8.38,10.451,8.38h0.563
		c5.011,0,9.33-3.519,10.351-8.425c2.911-13.99,12.987-23.859,26.65-26.743c4.914-1.038,8.529-5.21,8.529-10.363v-0.671
		c0-4.994-3.489-9.33-8.379-10.342c-14.014-2.899-23.901-12.981-26.789-26.659c-1.037-4.914-5.211-8.529-10.234-8.529h-0.929
		c-5.023,0-9.196,3.614-10.234,8.529c-2.888,13.678-12.774,23.76-26.788,26.659c-4.891,1.012-8.38,5.348-8.38,10.471v0.672
		C0.391,272.079,3.998,276.256,8.908,277.291z"/>
	<path style="fill:#FFB25A;" d="M321.315,114.806c9.767,2.059,16.967,9.117,19.037,19.123c0.722,3.491,3.817,5.981,7.46,5.981h0.402
		c3.577,0,6.66-2.512,7.389-6.014c2.078-9.986,9.27-17.03,19.022-19.089c3.508-0.741,6.088-3.719,6.088-7.397v-0.479
		c0-3.564-2.49-6.66-5.981-7.382c-10.003-2.069-17.06-9.266-19.121-19.029c-0.74-3.508-3.719-6.088-7.305-6.088h-0.663
		c-3.585,0-6.564,2.58-7.305,6.088c-2.061,9.763-9.118,16.96-19.121,19.029c-3.491,0.722-5.981,3.817-5.981,7.474v0.48
		C315.236,111.085,317.81,114.067,321.315,114.806z"/>
	<path style="fill:#F9D171;" d="M413.393,148.955c13.684,2.884,23.771,12.773,26.671,26.791c1.012,4.891,5.348,8.38,10.451,8.38
		h0.563c5.011,0,9.33-3.519,10.351-8.425c2.911-13.99,12.987-23.859,26.65-26.743c4.914-1.037,8.529-5.21,8.529-10.363v-0.671
		c0-4.994-3.489-9.33-8.379-10.342c-14.014-2.899-23.901-12.981-26.789-26.659c-1.037-4.914-5.211-8.529-10.234-8.529h-0.929
		c-5.023,0-9.196,3.614-10.234,8.529c-2.888,13.678-12.774,23.76-26.788,26.659c-4.891,1.012-8.38,5.348-8.38,10.471v0.672
		C404.876,143.743,408.483,147.92,413.393,148.955z"/>
	<ellipse style="fill:#FFA2AE;" cx="135.746" cy="223.245" rx="39.409" ry="31.383"/>
	<ellipse style="fill:#FFA2AE;" cx="349.355" cy="223.245" rx="39.409" ry="31.383"/>
	<ellipse style="fill:#5C576E;" cx="242.55" cy="199.132" rx="20.919" ry="23.409"/>
	<g>
		<path style="fill:#423E4F;" d="M142.334,192.874c-4.142,0-7.5-3.358-7.5-7.5v-15.286c0-4.142,3.358-7.5,7.5-7.5s7.5,3.358,7.5,7.5
			v15.286C149.834,189.516,146.476,192.874,142.334,192.874z"/>
	</g>
	<g>
		<path style="fill:#423E4F;" d="M342.767,192.874c-4.142,0-7.5-3.358-7.5-7.5v-15.286c0-4.142,3.358-7.5,7.5-7.5s7.5,3.358,7.5,7.5
			v15.286C350.267,189.516,346.909,192.874,342.767,192.874z"/>
	</g>
</g>
<g>
</g>
<g>
</g>
<g>
</g>
<g>
</g>
<g>
</g>
<g>
</g>
<g>
</g>
<g>
</g>
<g>
</g>
<g>
</g>
<g>
</g>
<g>
</g>
<g>
</g>
<g>
</g>
<g>
</g>
</svg>
