<?xml version="1.0" encoding="iso-8859-1"?>
<!-- Generator: Adobe Illustrator 23.0.3, SVG Export Plug-In . SVG Version: 6.00 Build 0)  -->
<svg version="1.1" id="Capa_1" xmlns="http://www.w3.org/2000/svg" xmlns:xlink="http://www.w3.org/1999/xlink" x="0px" y="0px"
	 viewBox="0 0 497 497" style="enable-background:new 0 0 497 497;" xml:space="preserve">
<g>
	<path style="fill:#DADADA;" d="M424.584,162.441c-25.262-52.144-33.036-107.086-25.367-155.17
		c-39.93,27.866-92.764,44.824-150.705,44.824S137.737,35.137,97.807,7.271c7.669,48.084-0.105,103.026-25.367,155.17
		c-16.607,34.28-38.848,63.379-64.21,86.051l0,0c25.362,22.672,48.93,51.771,65.537,86.051
		c25.262,52.144,33.036,107.086,25.367,155.17c39.93-27.866,92.764-44.824,150.705-44.824c56.525,0,108.185,16.145,147.75,42.807
		c-7.138-47.601,0.757-101.735,25.667-153.153c16.607-34.28,40.176-63.379,65.537-86.051l0,0
		C463.432,225.819,441.191,196.721,424.584,162.441z"/>
	<path style="fill:#B7B5BD;" d="M160.656,391.546c-5.669-29.014-15.243-57.802-28.549-85.267
		c-10.189-21.031-22.137-40.633-35.744-58.674c13.058-17.551,24.56-36.558,34.416-56.902c13.305-27.464,22.881-56.252,28.549-85.267
		c28.582,7.549,58.665,11.483,89.183,11.483s60.601-3.935,89.184-11.483c5.668,29.014,15.243,57.803,28.549,85.268
		c9.857,20.345,21.357,39.351,34.417,56.902c-13.608,18.041-25.557,37.644-35.744,58.674
		c-13.195,27.236-22.725,55.815-28.409,84.637c-27.865-7.135-57.095-10.853-86.669-10.853
		C219.321,380.064,189.238,383.998,160.656,391.546z"/>
	<path style="fill:#DADADA;" d="M207.114,317.417c-4.863-13.364-10.425-26.516-16.667-39.4
		c-5.078-10.481-10.562-20.717-16.423-30.66c5.364-9.23,10.404-18.707,15.095-28.391c6.242-12.884,11.804-26.037,16.667-39.4
		c14.148,1.45,28.409,2.179,42.726,2.179c14.317,0,28.579-0.729,42.726-2.179c4.863,13.364,10.425,26.517,16.668,39.402
		c4.691,9.684,9.731,19.16,15.094,28.39c-5.862,9.944-11.346,20.181-16.423,30.661c-6.2,12.798-11.731,25.87-16.571,39.153
		c-13.317-1.287-26.723-1.932-40.166-1.932C235.523,315.239,221.261,315.967,207.114,317.417z"/>
	<path style="fill:#423E4F;" d="M493.646,243.064c-25.289-22.607-46.904-51.584-62.51-83.798
		C390.956,76.327,406.956,10.155,406.43,6.293c-0.683-5.03-6.146-7.752-10.547-5.486c-4.539,2.334-57.022,44.007-147.371,44.007
		c-92.732,0-144.115-43.037-148.427-44.456c-5.072-1.674-10.299,2.836-9.462,8.095C104.067,92.84,66.901,186.276,3.378,243.064
		c-3.232,2.884-3.234,7.969,0,10.855c72.382,64.707,100.796,157.998,88.568,234.647c-1.014,6.363,6.145,10.754,11.356,7.117
		c82.608-57.65,207.471-57.713,290.22-1.949c4.522,3.04,10.543,0.216,11.277-5.032c0.537-3.832-14.629-69.164,25.011-150.984
		c26.117-53.911,62.845-81.612,65.189-85.431C496.805,249.333,496.229,245.369,493.646,243.064z M376.952,29.168l-43.657,69.878
		c-27.466,7.023-55.974,10.593-84.782,10.593c-28.812,0-57.319-3.57-84.783-10.593l-43.657-69.877
		C197.761,69.408,299.126,69.48,376.952,29.168z M235.38,241.211h-49.537c7.87-14.399,14.993-29.318,21.373-45.079L235.38,241.211z
		 M219.316,188.018c9.71,0.664,19.482,1.007,29.197,1.007c9.712,0,19.484-0.343,29.196-1.007l-29.197,46.732L219.316,188.018z
		 M235.396,255.772l-27.35,43.884c-3.423-8.383-7.11-16.687-11.048-24.813c-3.113-6.425-6.412-12.798-9.841-19.071H235.396z
		 M248.512,262.255l29.054,46.619c-9.227-0.601-18.507-0.916-27.727-0.916c-10.151,0-20.362,0.383-30.501,1.108L248.512,262.255z
		 M261.629,255.772h48.237c-3.43,6.273-6.729,12.647-9.842,19.072c-3.936,8.127-7.625,16.431-11.046,24.812L261.629,255.772z
		 M261.644,241.211l28.163-45.079c3.559,8.792,7.423,17.497,11.547,26.009c3.111,6.421,6.399,12.802,9.826,19.07H261.644z
		 M287.324,172.628c-12.843,1.214-25.881,1.836-38.811,1.836c-12.933,0-25.973-0.622-38.812-1.836l-35.035-56.078
		c24.108,5.079,48.871,7.65,73.847,7.65c24.974,0,49.738-2.571,73.847-7.65L287.324,172.628z M197.59,180.723
		c-8.052,21.483-17.499,41.343-28.446,60.488h-59.265c23.833-34.719,42.155-74.68,52.642-116.62L197.59,180.723z M170.468,255.772
		c4.737,8.285,9.252,16.804,13.426,25.419c5.345,11.032,10.236,22.394,14.569,33.842l-34.946,56.074
		c-5.916-23.288-14.241-46.088-24.858-68.002c-8.043-16.603-17.263-32.46-27.473-47.333H170.468z M209.733,324.48
		c13.255-1.296,26.736-1.961,40.107-1.961c12.416,0,24.948,0.577,37.291,1.702l34.822,55.874
		c-23.594-4.853-47.777-7.312-72.113-7.312c-25.427,0-50.633,2.67-75.155,7.933L209.733,324.48z M298.565,315.039
		c4.33-11.447,9.218-22.812,14.564-33.847c4.174-8.616,8.689-17.135,13.427-25.42h59.283
		c-10.214,14.879-19.433,30.736-27.473,47.333c-10.609,21.898-18.934,44.705-24.85,68.014L298.565,315.039z M327.881,241.211
		c-4.732-8.274-9.249-16.803-13.423-25.419c-5.534-11.422-10.576-23.202-15.024-35.069l35.07-56.133
		c5.934,23.734,14.376,46.968,25.188,69.287c8.041,16.597,17.249,32.467,27.453,47.333H327.881z M107.81,37.022l43.758,70.039
		c-10.041,48.979-31.108,95.288-59.56,134.151h-65.71C78.606,187.392,109.737,110.842,107.81,37.022z M26.414,255.772h66.916
		c27.852,38.046,49.027,83.755,59.294,132.815l-43.444,69.71C110.508,389.561,83.907,313.966,26.414,255.772z M119.932,468.571
		l43.812-70.299c53.734-13.971,112.552-14.89,169.053-0.774l43.061,69.094C297.89,427.316,197.088,427.946,119.932,468.571z
		 M387.863,458.325l-43.448-69.716c5.684-27.192,14.772-53.804,27.055-79.156c9.229-19.053,20.069-37.077,32.225-53.681h66.915
		C413.37,313.71,386.53,389.319,387.863,458.325z M405.016,241.211c-12.143-16.586-22.986-34.623-32.219-53.682
		c-12.495-25.79-21.678-52.848-27.34-80.471l43.756-70.037c-1.927,73.835,29.214,150.38,81.513,204.189H405.016z"/>
</g>
<g>
</g>
<g>
</g>
<g>
</g>
<g>
</g>
<g>
</g>
<g>
</g>
<g>
</g>
<g>
</g>
<g>
</g>
<g>
</g>
<g>
</g>
<g>
</g>
<g>
</g>
<g>
</g>
<g>
</g>
</svg>
