<?xml version="1.0" encoding="iso-8859-1"?>
<!-- Generator: Adobe Illustrator 23.0.3, SVG Export Plug-In . SVG Version: 6.00 Build 0)  -->
<svg version="1.1" id="Capa_1" xmlns="http://www.w3.org/2000/svg" xmlns:xlink="http://www.w3.org/1999/xlink" x="0px" y="0px"
	 viewBox="0 0 512 512" style="enable-background:new 0 0 512 512;" xml:space="preserve">
<g>
	<g>
		<path style="fill:#FF9C86;" d="M332.371,381.902c0,0,64.232,30.645,64.232,122.598H115.397
			c0-91.953,64.232-122.598,64.232-122.598H332.371z"/>
		<path style="fill:#F86745;" d="M209.629,381.902h-30c0,0-64.232,30.645-64.232,122.598h30
			C145.397,412.547,209.629,381.902,209.629,381.902z"/>
		<path style="fill:#C94D2F;" d="M459.848,22.52c-3.376-6.551-9.505-11.242-16.71-12.791c-36.581-7.864-76.087,5.231-100.34,36.915
			c-26.695,34.874-26.827,81.707-3.671,116.274c39.413,13.329,84.588,0.975,111.283-33.899
			C474.662,97.335,476.989,55.779,459.848,22.52z"/>
		<path style="fill:#FFCFC6;" d="M433.095,51.455c-1.32-4.897-5.805-8.351-10.877-8.357c-0.028,0-0.056,0-0.083,0
			c-20.205,0-38.819,9.179-51.071,25.184c-14.153,18.488-17.02,42.834-8.31,63.745c2.747,0.357,5.524,0.536,8.319,0.536
			c0.002,0,0.002,0,0.003,0c20.202,0,38.815-9.179,51.066-25.183C434.393,91.375,438.238,70.535,433.095,51.455z"/>
		<path style="fill:#C94D2F;" d="M52.152,22.52c3.376-6.551,9.505-11.242,16.71-12.791c36.581-7.864,76.087,5.231,100.34,36.915
			c26.695,34.874,26.827,81.707,3.671,116.274c-39.413,13.329-84.588,0.975-111.283-33.899
			C37.338,97.335,35.011,55.779,52.152,22.52z"/>
		<path style="fill:#FFCFC6;" d="M78.905,51.455c1.32-4.897,5.805-8.351,10.877-8.357c0.028,0,0.056,0,0.083,0
			c20.205,0,38.819,9.179,51.071,25.184c14.153,18.488,17.02,42.834,8.31,63.745c-2.747,0.357-5.524,0.536-8.319,0.536
			c-0.002,0-0.002,0-0.003,0c-20.202,0-38.815-9.179-51.066-25.183C77.607,91.375,73.762,70.535,78.905,51.455z"/>
		<path style="fill:#F86745;" d="M457.634,202.098c0-105.742-95.892-191.463-201.634-191.463S54.366,96.355,54.366,202.098
			c0,1.671,0.022,3.337,0.065,4.998c2.724,138.312,128.28,176.264,186.545,228.518c8.573,7.689,21.476,7.689,30.049,0
			c58.265-52.253,183.821-90.206,186.545-228.518C457.612,205.435,457.634,203.769,457.634,202.098z"/>
		<path style="fill:#C94D2F;" d="M270.975,435.613C212.71,383.36,87.154,345.408,84.431,207.096
			c-0.043-1.661-0.065-3.327-0.065-4.998C84.366,101.381,171.36,18.83,271,11.211c-4.972-0.38-9.975-0.576-15-0.576
			c-105.742,0-201.634,85.721-201.634,191.463c0,1.671,0.022,3.337,0.065,4.998c2.724,138.312,128.28,176.265,186.545,228.518
			c8.566,7.682,21.451,7.688,30.025,0.02C270.992,435.627,270.983,435.621,270.975,435.613z"/>
		<path style="fill:#FFCFC6;" d="M392.665,183.22c-11.235-28.178-43.129-42.039-71.421-30.969
			c-19.448,7.61-42.009,11.633-65.244,11.633c-23.232,0-45.792-4.022-65.24-11.631c-28.405-11.113-60.439,2.905-71.553,31.309
			c-11.113,28.405,2.905,60.44,31.309,71.553c8.787,3.438,17.9,6.425,27.255,8.958c6.519,1.765,10.626,8.129,9.786,14.829
			c-0.463,3.692-0.634,7.474-0.488,11.324c1.375,36.438,31.473,65.792,67.933,66.307c38.554,0.545,69.978-30.545,69.978-68.974
			c0-2.916-0.181-5.79-0.533-8.611c-0.845-6.783,3.347-13.13,9.943-14.92c9.023-2.449,17.821-5.321,26.317-8.612
			C389.217,244.372,403.988,211.618,392.665,183.22z"/>
	</g>
	<g>
		<path d="M336.352,271.276c9.305-2.525,18.41-5.505,27.061-8.856c32.386-12.546,49.102-49.633,36.212-81.963l0,0
			c-12.726-31.918-49.116-47.696-81.117-35.174c-37.888,14.826-87.115,14.83-125.012,0.001
			c-32.209-12.601-68.664,3.351-81.266,35.559c-12.602,32.209,3.35,68.664,35.559,81.266c8.947,3.5,18.376,6.6,28.027,9.212
			c2.833,0.767,4.683,3.629,4.303,6.657c-5.75,45.911,30.332,86.068,75.893,86.068c46.14,0,81.562-40.434,75.876-86.016
			C331.501,274.924,333.378,272.084,336.352,271.276z M317.003,279.886c4.61,36.97-24.385,69.688-61.894,69.155
			c-36.047-0.509-64.703-32.476-60.107-69.196c1.305-10.403-5.259-20.292-15.267-23.001c-9.128-2.471-18.038-5.399-26.481-8.702
			c-24.507-9.588-36.644-37.326-27.055-61.833c9.564-24.444,37.265-36.667,61.832-27.056c41.392,16.195,94.531,16.202,135.943-0.002
			c24.35-9.528,52.036,2.477,61.719,26.761l0,0c9.791,24.558-3.073,52.882-27.697,62.422c-8.166,3.163-16.769,5.978-25.571,8.367
			C322.168,259.584,315.683,269.292,317.003,279.886z"/>
		<path d="M277.672,258.658c-3.122-2.721-7.86-2.396-10.582,0.727c-5.862,6.727-16.3,6.747-22.182,0
			c-2.722-3.122-7.459-3.448-10.581-0.727s-3.448,7.459-0.727,10.581c11.83,13.575,32.933,13.615,44.797,0
			C281.12,266.116,280.794,261.379,277.672,258.658z"/>
		<path d="M202.864,204.975l-26.181-7.015c-4.002-1.072-8.113,1.303-9.185,5.303c-1.072,4.001,1.302,8.113,5.303,9.185l8.41,2.253
			c-1.1,2.472-0.465,3.78-0.649,14.322c0,4.142,3.357,7.5,7.5,7.5c4.141,0,7.5-3.358,7.5-7.5v-10.477
			c3.018,0.75,3.807,1.174,5.367,1.174c3.311,0,6.342-2.21,7.239-5.56C209.238,210.16,206.864,206.048,202.864,204.975z"/>
		<path d="M335.317,197.96l-26.181,7.015c-4.001,1.072-6.375,5.184-5.303,9.185c0.898,3.351,3.928,5.56,7.24,5.56
			c1.558,0,2.345-0.423,5.366-1.174v10.477c0,4.142,3.358,7.5,7.5,7.5s7.5-3.358,7.5-7.5c-0.184-10.499,0.453-11.846-0.649-14.322
			l8.41-2.253c4.001-1.072,6.375-5.184,5.303-9.185C343.43,199.263,339.319,196.888,335.317,197.96z"/>
		<path d="M277.057,237.793c2.905-4.726-1.061-10.529-7.047-10.529h-28.02c-5.986,0-9.951,5.803-7.047,10.529
			C244.115,252.719,267.888,252.714,277.057,237.793z"/>
		<path d="M58.695,137.386c-8.326,22.129-12.384,45.471-11.754,69.87c1.836,93.203,57.666,142.661,111.75,179.816
			c-7.229,5.967-15.649,14.291-23.567,25.446c-2.397,3.378-1.603,8.059,1.775,10.457c3.377,2.398,8.059,1.603,10.457-1.774
			c8.382-11.809,17.35-20.012,24.392-25.341c4.471,2.959,8.9,5.853,13.25,8.694c49.639,32.415,47.562,34.723,54.326,39.256
			c11.373,7.632,26.533,6.514,36.707-2.61c17.022-15.265,40.861-29.885,64.218-45.338c16.662,12.634,46.317,43.128,48.696,101.138
			H347.99v-37.379c0-4.142-3.357-7.5-7.5-7.5c-4.141,0-7.5,3.358-7.5,7.5v37.379H179.008v-37.379c0-4.142-3.357-7.5-7.5-7.5
			c-4.141,0-7.5,3.358-7.5,7.5v37.379h-40.954c0.761-18.574,4.372-35.772,10.762-51.217c1.583-3.827-0.236-8.214-4.063-9.797
			c-3.827-1.583-8.214,0.236-9.797,4.063c-7.998,19.332-12.053,41.016-12.053,64.451c0,4.142,3.358,7.5,7.5,7.5
			c32.853,0,247.411,0,281.194,0c4.142,0,7.5-3.358,7.5-7.5c0-64.873-30.819-100.898-50.8-117.428
			c51.19-35.185,104.237-81.656,111.06-165.917c0.334-4.129-2.742-7.746-6.87-8.081c-4.127-0.333-7.746,2.742-8.08,6.87
			c-9.984,123.287-126.045,158.661-183.389,210.089c-5.402,4.845-13.31,5.063-18.93,0.9c-5.981-4.43-5.494-7.337-53.902-38.949
			c-66.997-43.756-129.333-87.824-131.248-185.069C59.22,101.192,154.664,18.156,256,18.156c98.64,0,187.406,77.039,193.747,172.953
			c0.273,4.133,3.85,7.262,7.978,6.988c4.133-0.273,7.262-3.845,6.988-7.978c-1.196-18.091-5.091-35.786-11.449-52.687
			c27.774-32.951,32.981-80.023,13.24-118.327c-4.42-8.576-12.366-14.659-21.8-16.687c-33.27-7.152-67.629,1.774-93.033,23.898
			c-59.264-30.188-128.751-31.555-191.243,0.09c-25.414-22.189-59.82-31.15-93.135-23.988c-9.434,2.028-17.379,8.111-21.8,16.687
			c-18.941,36.75-14.956,81.689,10.15,114.487C56.613,134.858,57.633,136.126,58.695,137.386z M424.785,86.64
			c-8.127-10.557-17.694-20.766-28.264-29.993c7.883-3.982,16.653-6.042,25.681-6.028c1.673,0.002,3.206,1.183,3.644,2.809
			C428.801,64.391,428.371,76.012,424.785,86.64z M441.552,17.083c5.028,1.081,9.263,4.323,11.62,8.895
			c15.762,30.582,13.073,67.755-6.662,95.69c-3.413-7.063-7.275-13.953-11.57-20.638c8.036-15.787,10.03-34.287,5.388-51.505
			c-2.165-8.036-9.486-13.905-18.2-13.905c-13.701,0-26.771,3.75-38.137,10.896c-5.965-4.468-11.808-8.465-18.239-12.367
			C387.1,17.681,414.736,11.318,441.552,17.083z M86.154,53.427c0.438-1.625,1.971-2.807,3.718-2.809
			c9.057,0,17.757,2.064,25.607,6.029c-10.039,8.763-19.499,18.67-28.266,29.985C83.629,76.006,83.199,64.389,86.154,53.427z
			 M58.827,25.978c2.356-4.572,6.591-7.814,11.62-8.895c27.138-5.834,54.743,0.797,75.851,17.103
			c-6.337,3.823-12.438,7.944-18.29,12.329c-11.902-7.483-25.574-11.039-38.243-10.896c-8.452,0.017-15.891,5.733-18.093,13.904
			c-4.638,17.206-2.651,35.69,5.369,51.469c-4.305,6.685-8.178,13.567-11.59,20.619C45.752,93.683,43.076,56.54,58.827,25.978z"/>
	</g>
</g>
<g>
</g>
<g>
</g>
<g>
</g>
<g>
</g>
<g>
</g>
<g>
</g>
<g>
</g>
<g>
</g>
<g>
</g>
<g>
</g>
<g>
</g>
<g>
</g>
<g>
</g>
<g>
</g>
<g>
</g>
</svg>
