<?xml version="1.0" encoding="iso-8859-1"?>
<!-- Generator: Adobe Illustrator 23.0.3, SVG Export Plug-In . SVG Version: 6.00 Build 0)  -->
<svg version="1.1" id="Capa_1" xmlns="http://www.w3.org/2000/svg" xmlns:xlink="http://www.w3.org/1999/xlink" x="0px" y="0px"
	 viewBox="0 0 512 512" style="enable-background:new 0 0 512 512;" xml:space="preserve">
<g>
	<g>
		<path style="fill:#5C576E;" d="M355.652,428.385c12.456,16.942,24.309,42.023,24.309,76.115H132.04
			c0-34.092,11.852-59.173,24.309-76.115H355.652z"/>
		<path style="fill:#423E4F;" d="M162.04,504.5c0-34.092,11.852-59.173,24.309-76.115c0,0,0,0,0,0h-30c0,0,0,0,0,0
			c-5.839,7.941-11.545,17.671-15.96,29.279c-1.472,3.87-2.8,7.948-3.942,12.238c-2.74,10.296-4.407,21.813-4.407,34.598H162.04z"/>
		<path style="fill:#DADADA;" d="M355.652,428.385c-5.396,25.061-27.685,43.845-54.371,43.845c-16.863,0-31.953-7.506-42.152-19.348
			c-1.654-1.921-4.604-1.921-6.258,0c-10.199,11.842-25.289,19.348-42.152,19.348c-26.685,0-48.974-18.784-54.371-43.845
			c13.773-18.764,28.299-27.547,28.299-27.547h142.704C327.352,400.838,341.878,409.621,355.652,428.385z"/>
		<path style="fill:#F9D171;" d="M83.229,144.34c-19.684,31.353-31.087,68.407-31.087,108.08h407.716
			c0-39.673-11.403-76.727-31.087-108.08H83.229z"/>
		<path style="fill:#FFA93F;" d="M83.229,144.34c-19.684,31.353-31.087,68.407-31.087,108.08h40
			c0-39.673,11.403-76.727,31.087-108.08H83.229z"/>
		<path style="fill:#F9D171;" d="M469.764,294.998l-9.906-42.577h-29.705l-59.049,100.472h52.689
			C454.181,352.893,476.65,324.595,469.764,294.998z"/>
		<path style="fill:#F9D171;" d="M42.236,294.998l9.906-42.577h29.705l59.049,100.472H88.207
			C57.82,352.893,35.35,324.595,42.236,294.998z"/>
		<path style="fill:#FFA93F;" d="M72.236,294.998l9.822-42.217l-0.211-0.36H52.142l-9.906,42.577
			c-6.886,29.598,15.583,57.895,45.971,57.895h30C87.82,352.893,65.35,324.595,72.236,294.998z"/>
		<circle style="fill:#FFCBBE;" cx="430.153" cy="252.421" r="45.467"/>
		<path style="fill:#B7B5BD;" d="M184.648,400.838c0,0-14.526,8.783-28.299,27.547c2.265,10.52,7.515,19.925,14.809,27.307
			c0.027-0.166,3.847-23.821,22.302-40.688c7.217-6.597,10.183-11.108,11.127-14.166H184.648z"/>
		<circle style="fill:#FFDDCF;" cx="256" cy="252.421" r="174.153"/>
		<path style="fill:#FFCBBE;" d="M111.847,252.42c0-91.127,69.995-165.895,159.153-173.502c-4.945-0.422-9.946-0.65-15-0.65
			c-80.607,0-148.412,54.769-168.261,129.12c-1.828-0.279-3.78-0.435-5.891-0.435c-25.111,0-45.468,20.356-45.468,45.467
			c0,25.111,20.356,45.468,45.468,45.468c2.111,0,4.064-0.156,5.891-0.435c19.849,74.351,87.654,129.12,168.261,129.12
			c5.054,0,10.055-0.228,15-0.65C181.842,418.315,111.847,343.548,111.847,252.42z"/>
		<path style="fill:#5C576E;" d="M408.527,81.516L256,100.023L103.473,81.516l10.238-31.775c8.11-25.17,31.527-42.241,57.975-42.241
			h168.627c26.448,0,49.865,17.071,57.975,42.241L408.527,81.516z"/>
		<path style="fill:#423E4F;" d="M133.473,81.516l10.238-31.775c8.11-25.17,31.527-42.241,57.975-42.241h-30
			c-26.448,0-49.865,17.071-57.975,42.241l-10.238,31.775L256,100.023l15-1.82L133.473,81.516z"/>
		<polygon style="fill:#DADADA;" points="428.766,144.343 83.234,144.343 103.473,81.516 408.527,81.516 		"/>
		<polygon style="fill:#B7B5BD;" points="103.473,81.516 83.234,144.343 113.234,144.343 133.473,81.516 		"/>
		<path style="fill:#FFA93F;" d="M280.952,51.811h-49.905c-14.62,0-26.473,11.852-26.473,26.473v66.057h102.85V78.284
			C307.425,63.663,295.573,51.811,280.952,51.811z"/>
		<rect x="234.28" y="81.517" style="fill:#DADADA;" width="43.439" height="62.824"/>
		<path style="fill:#5C576E;" d="M454.502,120.115H57.498c-10.332,0-18.708,8.376-18.708,18.708v11.036
			c0,10.332,8.376,18.708,18.708,18.708h397.004c10.332,0,18.708-8.376,18.708-18.708v-11.036
			C473.21,128.49,464.834,120.115,454.502,120.115z"/>
		<path style="fill:#423E4F;" d="M68.79,149.858v-11.036c0-10.332,8.376-18.708,18.708-18.708h-30
			c-10.332,0-18.708,8.376-18.708,18.708v11.036c0,10.332,8.376,18.708,18.708,18.708h30C77.166,168.566,68.79,160.19,68.79,149.858
			z"/>
		<g>
			<ellipse style="fill:#FFA1AC;" cx="150.984" cy="274.776" rx="38.749" ry="30.858"/>
			<ellipse style="fill:#FFA1AC;" cx="361.016" cy="274.776" rx="38.749" ry="30.858"/>
		</g>
	</g>
	<g>
		<path d="M173.567,252.571c4.142,0,7.5-3.357,7.5-7.5v-15.84c0-4.142-3.358-7.5-7.5-7.5s-7.5,3.358-7.5,7.5v15.84
			C166.067,249.213,169.425,252.571,173.567,252.571z"/>
		<path d="M338.434,252.571c4.142,0,7.5-3.357,7.5-7.5v-15.84c0-4.142-3.358-7.5-7.5-7.5s-7.5,3.358-7.5,7.5v15.84
			C330.934,249.213,334.292,252.571,338.434,252.571z"/>
		<path d="M283.388,249.527c2.721-3.123,2.396-7.86-0.727-10.582c-3.122-2.721-7.86-2.396-10.582,0.727
			c-8.499,9.753-23.635,9.781-32.158,0c-2.721-3.123-7.459-3.448-10.582-0.727c-3.123,2.722-3.448,7.459-0.727,10.582
			C243.107,266.159,268.909,266.141,283.388,249.527z"/>
		<path d="M37.659,281.578l-2.727,11.721c-3.804,16.349,0.002,33.265,10.439,46.41c10.438,13.145,26.052,20.684,42.837,20.684
			h21.804c14.398,19.417,32.573,35.868,53.427,48.269c-23.944,23.906-38.9,56.607-38.9,95.838c0,4.142,3.358,7.5,7.5,7.5h247.921
			c4.142,0,7.5-3.358,7.5-7.5c0-38.201-14.217-71.195-38.9-95.838c20.854-12.401,39.029-28.853,53.428-48.269h21.804
			c35.194,0,61.264-32.766,53.276-67.095l-2.727-11.72c5.541-8.369,8.779-18.391,8.779-29.158c0-16.68-7.758-31.574-19.846-41.291
			c-2.378-11.943-5.797-23.686-10.222-35.064h1.45c14.451,0,26.208-11.757,26.208-26.208v-11.036
			c0-14.451-11.757-26.208-26.208-26.208h-28.077c-0.325-1.008-20.941-64.999-20.998-65.174C396.286,19.065,370.119,0,340.314,0
			h-24.886c-4.142,0-7.5,3.358-7.5,7.5s3.358,7.5,7.5,7.5h24.886c23.269,0,43.698,14.885,50.836,37.041l7.081,21.975h-83.573
			c-2.088-16.653-16.381-29.705-33.706-29.705c-25.461,0.033-49.418-0.093-52.133,0.081c-16.267,1.067-29.471,13.623-31.477,29.624
			H113.77l7.081-21.975C127.989,29.885,148.418,15,171.687,15h113.741c4.142,0,7.5-3.358,7.5-7.5s-3.358-7.5-7.5-7.5H171.687
			c-29.804,0-55.971,19.065-65.113,47.44c-0.388,1.205-20.962,65.065-20.998,65.174H57.498c-14.451,0-26.207,11.757-26.207,26.208
			v11.036c0,14.451,11.756,26.208,26.207,26.208h1.45c-4.425,11.377-7.843,23.121-10.222,35.064
			C27.13,228.489,22.718,259.009,37.659,281.578z M78.3,214.624c-5.009,23.649-5.479,49.69-0.001,75.587
			c-19.231-1.767-34.417-18.027-34.417-37.79C43.881,232.659,59.105,216.373,78.3,214.624z M88.208,345.393
			c-12.182,0-23.514-5.472-31.09-15.012c-7.575-9.541-10.337-21.818-7.577-33.683l0.45-1.933
			c9.702,7.339,21.171,10.723,32.214,10.622c4.265,14.023,10.2,27.417,17.723,40.006H88.208z M139.743,497
			c1.027-18.822,5.951-36.179,14.696-51.827c19.795,38.46,71.359,46.514,101.562,15.396c30.697,31.623,82.732,22.265,101.562-15.396
			c8.745,15.648,13.669,33.005,14.696,51.828H139.743z M334.725,416.163c3.737,3.445,8.239,8.073,12.769,13.871
			c-10.476,36.179-57.543,47.142-82.681,17.954c-4.671-5.426-13.017-5.357-17.625,0c-24.904,28.919-72.081,18.62-82.681-17.953
			c4.532-5.799,9.033-10.427,12.77-13.872C226.43,439.803,284.64,440.252,334.725,416.163z M454.883,330.38
			c-7.576,9.541-18.908,15.012-31.09,15.012h-11.721c7.523-12.59,13.458-25.982,17.724-40.006
			c11.145,0.102,22.592-3.343,32.214-10.622C462.024,295.575,468.369,313.396,454.883,330.38z M468.121,252.42
			c0,19.695-15.123,36.017-34.418,37.79c5.24-24.777,5.257-50.766-0.001-75.587C452.733,216.358,468.121,232.48,468.121,252.42z
			 M445.725,201.78c-4.862-1.495-10.455-2.37-15.931-2.326c-2.129-6.99-5.418-15.781-8.948-23.389h16.035
			C440.426,184.43,443.382,193.027,445.725,201.78z M403.064,89.016l7.602,23.599h-95.741V89.016H403.064z M282.89,59.409
			c9.527,0.971,17.036,9.04,17.036,18.875c0,4.821,0,27.195,0,34.331H285.22V81.517c0-4.142-3.358-7.5-7.5-7.5h-43.439
			c-4.142,0-7.5,3.358-7.5,7.5v31.098h-14.705c0-9.155,0-27.955,0-34.331c0-10.461,8.511-18.973,18.973-18.973
			C283.354,59.345,281.114,59.228,282.89,59.409z M270.22,112.615h-28.439V89.017h28.439V112.615z M108.937,89.016h88.139v23.599
			h-95.741L108.937,89.016z M46.291,149.858v-11.036c0-6.18,5.027-11.208,11.207-11.208c51.465,0,354.433,0,397.005,0
			c6.18,0,11.208,5.028,11.208,11.208v11.036c0,6.18-5.028,11.208-11.208,11.208c-286.785,0-267.369-0.081-268.509,0.152
			c-3.464,0.71-5.989,3.764-5.989,7.348l0,0l0,0c0,4.15,3.367,7.5,7.5,7.5h216.63c59.393,114.982-30.182,252.579-161.386,242.48
			c-117.651-9.3-189.713-136.348-134.883-242.48c50.747-0.389,51.069,1.047,54.41-1.713c1.672-1.379,2.729-3.463,2.729-5.787l0,0
			l0,0c0-4.127-3.343-7.5-7.5-7.5c-11.028,0-89.858,0-100.008,0C51.318,161.066,46.291,156.038,46.291,149.858z M66.275,201.781
			c2.343-8.753,5.3-17.352,8.845-25.715h16.035c-3.172,6.836-6.526,15.439-8.948,23.389
			C76.755,199.407,71.214,200.261,66.275,201.781z"/>
	</g>
</g>
<g>
</g>
<g>
</g>
<g>
</g>
<g>
</g>
<g>
</g>
<g>
</g>
<g>
</g>
<g>
</g>
<g>
</g>
<g>
</g>
<g>
</g>
<g>
</g>
<g>
</g>
<g>
</g>
<g>
</g>
</svg>
