<?xml version="1.0" encoding="iso-8859-1"?>
<!-- Generator: Adobe Illustrator 23.0.3, SVG Export Plug-In . SVG Version: 6.00 Build 0)  -->
<svg version="1.1" id="Capa_1" xmlns="http://www.w3.org/2000/svg" xmlns:xlink="http://www.w3.org/1999/xlink" x="0px" y="0px"
	 viewBox="0 0 512 512" style="enable-background:new 0 0 512 512;" xml:space="preserve">
<g>
	<g>
		<path style="fill:#DADADA;" d="M182.499,295.216L14.6,463.116c-9.466,9.466-9.466,24.815,0,34.281
			c9.467,9.467,24.815,9.467,34.281,0l167.899-167.9L182.499,295.216z"/>
		<path style="fill:#FFB25A;" d="M489.595,273.417l0.017,0.026c16.661-39.744,19.339-83.96,8.03-125.141l-110.701-125.9l0.027-0.013
			c-39.747-16.664-83.966-19.333-125.15-8.025L135.934,125.011c-16.671,39.756-19.347,83.985-8.038,125.178l110.639,125.874
			c39.755,16.671,83.985,19.347,125.178,8.038L489.595,273.417z"/>
		<path style="fill:#996ACC;" d="M497.642,148.302c0,0-94.575-39.371-184.881,50.934c-15.206-126.8,74.18-176.835,74.18-176.835
			l0.027-0.013c22.307,9.345,43.208,23.106,61.372,41.27C472.697,88.016,489.136,117.297,497.642,148.302z"/>
		<path style="fill:#996ACC;" d="M261.826,14.356c0,0-39.371,94.575,50.934,184.881c-126.8,15.206-176.835-74.18-176.835-74.18
			l-0.013-0.027c9.345-22.307,23.106-43.208,41.27-61.372C201.54,39.3,230.821,22.861,261.826,14.356z"/>
		<path style="fill:#B7B5BD;" d="M139.786,337.93c5.055,6.302,10.441,12.357,16.182,18.099c5.763,5.763,11.799,11.16,18.074,16.207
			l42.738-42.738l-34.281-34.281L139.786,337.93z"/>
		<path style="fill:#996ACC;" d="M127.88,250.171c0,0,94.575,39.371,184.881-50.934c15.206,126.8-74.18,176.835-74.18,176.835
			l-0.012,0.006c-22.307-9.345-43.223-23.098-61.387-41.262C152.824,310.457,136.385,281.177,127.88,250.171z"/>
		<g>
			<path style="fill:#F88000;" d="M392.028,326.803c-18.076,12.566-37.821,21.688-58.333,27.314c0,0,0.005-0.011,0.005-0.013
				c-39.27,10.777-81.294,8.836-119.575-5.812l24.41,27.771c0.011,0.005,0.023,0.009,0.034,0.014
				c39.743,16.657,83.953,19.329,125.131,8.028h0c0.004-0.001,0.009-0.002,0.013-0.003L392.028,326.803z"/>
			<path style="fill:#F88000;" d="M489.595,273.417l0.01,0.016l0.007,0.011c9.893-23.598,14.855-48.773,14.888-73.953
				c0.022-17.228-2.264-34.459-6.858-51.188h0l-25.934-11.75c6.16,35.776,2.127,72.963-12.096,106.892l-0.017-0.027l0.013,0.027
				c-2.444,5.833-5.197,11.566-8.244,17.183L489.595,273.417z"/>
		</g>
		<path style="fill:#996ACC;" d="M363.695,384.118c0,0,39.371-94.575-50.934-184.881c126.8-15.206,176.835,74.18,176.835,74.18
			l0.013,0.027c-9.345,22.307-23.106,43.208-41.27,61.372C423.981,359.173,394.7,375.612,363.695,384.118z"/>
		<path style="fill:#6D36AB;" d="M238.569,376.077c0,0,9.28-5.19,21.346-16.466c-35.651-4.252-68.959-18.207-96.883-40.585
			C182.762,344.037,208.942,363.779,238.569,376.077z"/>
		<path style="fill:#6D36AB;" d="M460.904,240.282c-0.421,1.058-0.847,2.114-1.287,3.165l-0.017-0.027l0.013,0.027
			c-16.748,39.978-47.458,74.381-87.497,95.48c-1.032,27.316-8.343,45.015-8.413,45.185c-0.002,0.004-0.004,0.009-0.004,0.009
			c57.555-15.79,103.649-57.529,125.914-110.674l-0.013-0.027C489.6,273.42,480.702,257.526,460.904,240.282z"/>
		<path style="fill:#6D36AB;" d="M432.493,49.455c-0.003-0.002-0.006-0.004-0.008-0.007c20.653,25.752,35.017,57.276,40.06,92.415
			c15.695,2.529,25.096,6.438,25.097,6.439C486.983,109.449,464.34,74.981,432.493,49.455z"/>
	</g>
	<g>
		<path d="M54.17,502.697l141.922-141.922c104.366,75.594,251.635,32.671,300.431-84.44
			c28.982-69.134,17.208-151.007-34.893-209.494c-2.756-3.093-7.496-3.366-10.589-0.611c-3.093,2.755-3.367,7.496-0.611,10.589
			c15.873,17.819,27.871,37.996,35.775,60.131c-60.452-14.801-121.27,5.567-167.344,46.243
			c-3.897-68.249,25.33-123.427,68.745-152.37c15.165,6.735,29.357,15.519,42.238,26.148c3.194,2.637,7.922,2.184,10.558-1.011
			c2.636-3.194,2.184-7.922-1.011-10.558c-15.011-12.387-31.675-22.461-49.53-29.941c0,0,0,0,0,0
			c-40.907-17.151-87.05-20.12-129.941-8.367c-0.029,0.007-0.059,0.009-0.087,0.018c-33.114,9.084-63.532,26.8-87.965,51.233
			c-69.653,69.653-77.456,178.925-20.645,257.525l-86.027,86.028c-2.929,2.929-2.929,7.678,0,10.607
			c2.929,2.929,7.678,2.929,10.607,0l84.728-84.727c7.004,8.283,15.071,16.418,23.67,23.68L43.564,492.091
			c-6.527,6.526-17.148,6.527-23.675,0c-6.527-6.527-6.527-17.148,0-23.675l34.887-34.887c2.929-2.929,2.929-7.678,0-10.607
			c-2.929-2.929-7.678-2.929-10.607,0L9.282,457.809c-12.376,12.375-12.376,32.512,0,44.889
			C21.657,515.073,41.794,515.074,54.17,502.697z M254.577,374.066c41.924-32.793,69.291-87.22,67.286-153.785
			c15.392,18.424,27.362,38.759,34.694,61.124c10.943,33.354,10.331,69.213,1.404,96.447
			C323.886,386.43,287.788,385.063,254.577,374.066z M215.129,247.281c-28.83,6.425-58.58,4.5-81.002-2.843
			c-8.579-34.076-7.212-70.175,3.786-103.386c37.932,48.261,92.406,68.287,153.785,67.286
			C273.5,223.515,242.214,241.303,215.129,247.281z M414.204,150.367c27.801-5.49,55.942-3.297,77.185,3.654
			c8.584,34.076,7.218,70.178-3.787,103.398c-34.312-43.682-89.258-69.335-153.797-67.302
			C353.649,173.509,386.548,156.034,414.204,150.367z M375.034,372.663c13.273-54.36-0.625-115.655-46.254-167.334
			c26.984-1.545,46.662,1.448,69.065,7.983c35.642,11.31,66.243,35.14,83.312,60.77
			C460.707,320.167,421.941,355.817,375.034,372.663z M370.94,24.379c-41.956,32.961-69.325,86.948-67.3,153.795
			c-42.18-50.543-51.731-109.888-36.097-157.578C301.626,12.013,337.728,13.378,370.94,24.379z M250.469,25.792
			c-13.123,53.746,0.218,115.178,46.247,167.326c-68.178,3.909-123.351-25.172-152.37-68.745
			C164.795,78.29,203.561,42.639,250.469,25.792z M306.642,215.263c1.134,19.838-0.282,39.6-5.099,58.88
			c-9.897,39.55-34.997,74.455-63.646,93.491c-46.324-20.556-81.859-59.564-98.58-106.123
			C193.139,274.652,254.489,261.291,306.642,215.263z"/>
	</g>
</g>
<g>
</g>
<g>
</g>
<g>
</g>
<g>
</g>
<g>
</g>
<g>
</g>
<g>
</g>
<g>
</g>
<g>
</g>
<g>
</g>
<g>
</g>
<g>
</g>
<g>
</g>
<g>
</g>
<g>
</g>
</svg>
