<?xml version="1.0" encoding="iso-8859-1"?>
<!-- Generator: Adobe Illustrator 23.0.3, SVG Export Plug-In . SVG Version: 6.00 Build 0)  -->
<svg version="1.1" id="Capa_1" xmlns="http://www.w3.org/2000/svg" xmlns:xlink="http://www.w3.org/1999/xlink" x="0px" y="0px"
	 viewBox="0 0 512 512" style="enable-background:new 0 0 512 512;" xml:space="preserve">
<g>
	<g>
		<path style="fill:#996ACC;" d="M17.913,128.999v285.365c0,23.748,19.252,43,43,43h390.175c23.748,0,43-19.252,43-43V128.999
			H17.913z"/>
		<path style="fill:#6D36AB;" d="M47.913,414.364V128.999h-30v285.365c0,23.748,19.252,43,43,43h30
			C67.164,457.364,47.913,438.112,47.913,414.364z"/>
		<path style="fill:#80E0B7;" d="M448.752,54.636H63.248C32.459,54.636,7.5,79.595,7.5,110.384v114.178
			c0,20.234,16.21,36.682,36.352,37.068c20.785,0.398,37.798-17.011,37.798-37.8v-25.458c0-18.728,15.327-34.412,34.052-34.054
			c18.146,0.347,32.749,15.165,32.749,33.394v73.899c0,20.789,17.013,38.198,37.798,37.8c20.142-0.385,36.352-16.833,36.352-37.068
			v-73.972c0-18.728,15.327-34.412,34.052-34.054c18.146,0.347,32.749,15.165,32.749,33.394v45.231
			c0,20.789,17.013,38.198,37.798,37.8c20.142-0.385,36.352-16.833,36.352-37.068v-45.303c0-18.728,15.327-34.412,34.052-34.054
			c18.146,0.347,32.749,15.165,32.749,33.394v26.118c0,20.789,17.013,38.198,37.798,37.8c20.142-0.385,36.352-16.834,36.352-37.068
			V110.384C504.5,79.595,479.541,54.636,448.752,54.636z"/>
		<path style="fill:#00B762;" d="M37.5,224.562V110.384c0-30.789,24.959-55.748,55.748-55.748h-30
			C32.459,54.637,7.5,79.596,7.5,110.384v114.178c0,20.234,16.21,36.682,36.352,37.067c5.547,0.106,10.821-1.066,15.579-3.223
			C46.506,252.614,37.5,239.642,37.5,224.562z"/>
	</g>
	<g>
		<path d="M228.794,134.617c3.121,2.721,7.859,2.396,10.582-0.727c8.787-10.084,24.436-10.113,33.248,0
			c2.721,3.122,7.459,3.448,10.582,0.727c3.123-2.722,3.448-7.459,0.727-10.582c-14.784-16.963-41.098-16.944-55.865,0
			C225.346,127.158,225.671,131.896,228.794,134.617z"/>
		<path d="M152.992,95.811l12.848,3.442c-1.144,1.316-1.841,3.031-1.841,4.912v14.027c0,4.142,3.358,7.5,7.5,7.5s7.5-3.358,7.5-7.5
			c-0.049-14.632,0.109-14.158-0.139-15.45c6.25,1.603,6.978,2.051,8.641,2.051c3.311,0,6.342-2.21,7.24-5.561
			c1.072-4.001-1.302-8.114-5.304-9.186l-32.563-8.726c-3.996-1.071-8.113,1.302-9.186,5.303
			C146.616,90.626,148.99,94.739,152.992,95.811z"/>
		<path d="M364.312,86.625c-1.072-4.001-5.185-6.375-9.186-5.303l-32.563,8.726c-4.001,1.072-6.375,5.185-5.304,9.186
			c1.073,4.003,5.189,6.375,9.186,5.303l6.695-1.794c-0.248,1.292-0.09,0.81-0.139,15.45c0,4.142,3.358,7.5,7.5,7.5
			s7.5-3.358,7.5-7.5v-14.027c0-1.88-0.697-3.595-1.841-4.912l12.848-3.442C363.01,94.739,365.384,90.626,364.312,86.625z"/>
		<path d="M10.413,414.364c0,27.846,22.654,50.5,50.5,50.5c3.408,0,329.333,0,329.813,0c4.142,0,7.5-3.358,7.5-7.5
			s-3.358-7.5-7.5-7.5h-57.077V348.096h152.938v66.268c0,19.575-15.925,35.5-35.5,35.5h-30.362c-4.142,0-7.5,3.358-7.5,7.5
			s3.358,7.5,7.5,7.5h30.362c27.846,0,50.5-22.654,50.5-50.5V253.046C508.074,245.29,512,235.341,512,224.562V110.384
			c0-34.875-28.373-63.248-63.248-63.248H157.299c-4.142,0-7.5,3.358-7.5,7.5s3.358,7.5,7.5,7.5h291.453
			c26.604,0,48.248,21.644,48.248,48.248v114.178c0,15.999-13.007,29.264-28.995,29.569c-16.686,0.317-30.154-13.822-30.154-30.302
			c-0.135-25.733,0.323-27.083-0.463-32.229c-2.336-15.288-13.278-27.963-27.729-32.747c-26.95-8.919-53.609,12.066-53.609,39.518
			l0,0v45.303c0,10.372-5.494,19.759-13.972,25.075c-20.208,12.691-45.177-2.859-45.177-25.807
			c-0.519-43.822,1.238-47.355-1.806-57.184c-5.223-16.863-20.86-28.607-38.3-28.939c-23.254-0.446-41.695,18.968-41.695,41.553l0,0
			c-0.114,76.493,0.279,74.375-0.335,78.391c-3.604,23.602-32.334,33.637-49.6,16.695c-5.855-5.745-9.214-13.708-9.214-21.846
			v-73.899c0-22.128-17.993-40.47-40.106-40.893c-23.399-0.447-41.695,19.151-41.695,41.553l0,0v25.458
			c0,16.32-13.316,30.623-30.154,30.302C28.007,253.825,15,240.56,15,224.562V110.384c0-26.604,21.644-48.248,48.248-48.248h64.052
			c4.142,0,7.5-3.358,7.5-7.5s-3.358-7.5-7.5-7.5H63.248C28.373,47.136,0,75.509,0,110.384v114.178
			c0,10.779,3.926,20.728,10.413,28.484V414.364z M88.502,231.329h19.699v101.767H25.413V264.83
			C52.409,277.703,83.524,260.659,88.502,231.329z M25.413,414.364v-66.268h152.938v101.767H60.913
			C41.338,449.864,25.413,433.939,25.413,414.364z M318.649,449.864H193.351V348.096h125.299V449.864z M486.587,264.83v68.266
			h-82.789V231.329h19.7C428.481,260.681,459.617,277.693,486.587,264.83z M415.405,179.61c3.117,3.177,5.48,7.203,6.645,11.743
			c1.32,5.15,0.587,7.354,0.801,24.976H371.05v-17.958C371.05,175.381,398.683,162.554,415.405,179.61z M361.057,271.666
			c5.021-6.182,8.298-13.536,9.489-21.331c0.803-5.261,0.393-8.16,0.504-19.006h17.749v101.767H263.5V231.329h18.401v11.613
			C281.901,284.176,333.677,305.358,361.057,271.666z M270.696,176.433c6.778,4.715,11.205,12.548,11.205,21.279v18.618H230.1
			v-17.958C230.1,177.598,253.175,164.237,270.696,176.433z M230.1,272.344v-41.014h18.4v101.767H123.201V231.329h17.75v40.282
			c0,29.026,27.475,51.712,56.351,43.71C216.298,310.058,230.1,292.539,230.1,272.344z M140.951,216.329H89.149v-17.958
			c0-6.688,2.588-13.241,7.141-18.184c14.348-15.583,38.929-8.052,43.859,11.166C141.47,196.503,140.737,198.707,140.951,216.329z"
			/>
	</g>
</g>
<g>
</g>
<g>
</g>
<g>
</g>
<g>
</g>
<g>
</g>
<g>
</g>
<g>
</g>
<g>
</g>
<g>
</g>
<g>
</g>
<g>
</g>
<g>
</g>
<g>
</g>
<g>
</g>
<g>
</g>
</svg>
