<?xml version="1.0" encoding="iso-8859-1"?>
<!-- Generator: Adobe Illustrator 23.0.3, SVG Export Plug-In . SVG Version: 6.00 Build 0)  -->
<svg version="1.1" id="Capa_1" xmlns="http://www.w3.org/2000/svg" xmlns:xlink="http://www.w3.org/1999/xlink" x="0px" y="0px"
	 viewBox="0 0 512 512" style="enable-background:new 0 0 512 512;" xml:space="preserve">
<g>
	<g>
		<path style="fill:#FD5C6F;" d="M481.011,215.194l-48.308,48.308c-33.775,33.775-81.626,45.081-124.83,33.937
			c-15.728-4.057-32.264-3.761-47.682,1.35l-0.492,0.169c-5.28,1.751-10.349,4.022-15.144,6.763l-35.522-2.754l-2.753-35.522
			c2.742-4.795,5.013-9.864,6.763-15.144l0.26-0.78c5.055-15.25,5.456-31.624,1.476-47.204
			c-11.123-43.59,0.675-91.976,34.732-126.032l47.296-47.296c6.714-6.714,17.556-6.799,24.368-0.239
			c7.024,6.771,6.813,18.273-0.084,25.17l-47.985,47.985c-7.073,7.073-12.81,14.989-17.19,23.433
			c-19.784,38.078,30.098,74.04,60.443,43.696l60.246-60.246c6.714-6.714,17.556-6.799,24.375-0.232
			c7.017,6.764,6.806,18.266-0.091,25.163l-59.923,59.923c-30.344,30.344,5.617,80.227,43.696,60.443
			c8.444-4.38,16.36-10.117,23.433-17.19l47.985-47.985c6.897-6.897,18.399-7.108,25.17-0.084
			C487.809,197.638,487.725,208.479,481.011,215.194z"/>
		<path style="fill:#F9475E;" d="M481.25,190.825c-1.808-1.875-3.958-3.218-6.262-4.072c2.33,6.197,1.008,13.456-3.977,18.441
			l-48.308,48.308c-33.775,33.775-81.626,45.081-124.83,33.937c-15.728-4.057-32.264-3.761-47.682,1.35l-0.492,0.168
			c-5.28,1.75-10.349,4.021-15.144,6.764l-26.241-2.034l0.719,9.281l35.522,2.753c4.795-2.742,9.864-5.013,15.144-6.764l0.492-0.168
			c15.418-5.111,31.954-5.407,47.682-1.35c43.204,11.144,91.055-0.162,124.83-33.937l48.308-48.308
			C487.725,208.479,487.809,197.638,481.25,190.825z"/>
		<path style="fill:#F9475E;" d="M412.102,145.088l11.683-35.049c4.496-13.488-8.336-26.32-21.824-21.824l-35.049,11.683
			c-7.587,2.529-9.86,12.159-4.205,17.814l31.582,31.582C399.943,154.949,409.573,152.676,412.102,145.088z"/>
		<path style="fill:#F9475E;" d="M332.302,65.289l11.683-35.049c4.496-13.488-8.336-26.32-21.824-21.824l-35.049,11.683
			c-7.587,2.529-9.86,12.159-4.205,17.814l31.582,31.582C320.144,75.149,329.773,72.876,332.302,65.289z"/>
		<path style="fill:#F9475E;" d="M446.711,179.698l35.049-11.683c13.488-4.496,26.32,8.336,21.824,21.824l-11.683,35.049
			c-2.529,7.587-12.159,9.86-17.814,4.205l-31.582-31.582C436.851,191.856,439.124,182.227,446.711,179.698z"/>
		<path style="fill:#5C576E;" d="M244.554,305.721c-6.363,3.635-12.233,8.113-17.45,13.33L48.735,497.42
			c-9.435,9.435-24.727,9.442-34.162,0.007S5.145,472.7,14.58,463.265l178.369-178.369c5.217-5.217,9.695-11.087,13.33-17.45
			L244.554,305.721z"/>
		<path style="fill:#423E4F;" d="M234.554,295.721c-6.363,3.635-12.234,8.113-17.45,13.33L38.735,487.42
			c-7.695,7.695-19.283,9.114-28.415,4.26c1.098,2.065,2.512,4.007,4.252,5.748c9.435,9.435,24.727,9.428,34.162-0.007
			l178.369-178.369c5.217-5.217,11.088-9.695,17.45-13.33L234.554,295.721z"/>
	</g>
	<g>
		<path d="M244.386,200.524l7.465-7.465c2.929-2.929,2.929-7.678,0-10.607c-2.929-2.929-7.678-2.929-10.607,0l-7.465,7.465
			c-4.738,4.738-1.319,12.804,5.303,12.804C241.002,202.72,242.921,201.988,244.386,200.524z"/>
		<path d="M322.083,278.221l7.465-7.465c2.929-2.929,2.929-7.678,0-10.607c-2.929-2.929-7.678-2.929-10.607,0l-7.465,7.465
			c-2.929,2.929-2.929,7.677,0,10.607C314.405,281.149,319.153,281.15,322.083,278.221z"/>
		<path d="M268.425,216.122c-4.129-0.281-7.712,2.836-7.996,6.969c-1.107,16.112,12.238,29.591,28.481,28.481
			c4.132-0.284,7.252-3.864,6.968-7.997c-0.284-4.132-3.859-7.251-7.997-6.968c-7.091,0.486-12.976-5.376-12.488-12.488
			C275.677,219.986,272.557,216.406,268.425,216.122z"/>
		<path d="M54.023,502.739l38.696-38.696c2.929-2.929,2.929-7.678,0-10.607c-2.929-2.929-7.678-2.929-10.607,0l-38.696,38.696
			c-6.496,6.497-17.064,6.5-23.556,0.007c-6.493-6.492-6.489-17.059,0.007-23.555c186.411-186.953,180.094-178.815,187.656-189.259
			l25.152,25.152c-10.28,7.445-4.25,3.183-129.508,127.905c-2.929,2.929-2.929,7.678,0,10.607c2.929,2.929,7.678,2.929,10.607,0
			C237.19,320.782,232.967,320.985,248.261,312.247c0,0,0,0,0,0c0.957-0.251,24.467-16.11,57.725-7.532
			c46.989,12.121,97.246-1.133,132.008-35.896l32.735-32.735c9.911,7.483,24.317,3.067,28.278-8.811l11.683-35.05
			c6.448-19.343-11.973-37.757-31.311-31.311l-35.05,11.683h0c-11.947,3.982-16.25,18.45-8.825,28.285l-32.724,32.723
			c-6.398,6.398-13.659,11.725-21.588,15.838c-30.54,15.868-59.169-24.249-34.935-48.485l44.673-44.673
			c9.911,7.481,24.316,3.065,28.276-8.812l0,0l11.683-35.05c6.448-19.344-11.974-37.758-31.311-31.311l-35.05,11.683
			c-11.949,3.983-16.249,18.453-8.823,28.287l-44.662,44.662c-24.237,24.236-64.353-4.396-48.482-34.94
			c4.11-7.924,9.438-15.186,15.835-21.583l32.735-32.735c9.932,7.494,24.322,3.045,28.274-8.814l11.683-35.05
			c6.448-19.343-11.973-37.757-31.31-31.311l-35.05,11.683c-11.95,3.984-16.251,18.455-8.823,28.288
			c-27.327,28.062-36.719,34.728-48.432,51.908c-2.334,3.422-1.45,8.088,1.972,10.421c3.423,2.334,8.089,1.45,10.422-1.972
			c10.606-15.559,19.057-21.482,46.515-49.622l14.001,14.001l-32.594,32.594c-7.486,7.486-13.725,15.992-18.542,25.279
			c-23.749,45.711,36.122,88.74,72.402,52.458l44.532-44.532l14.001,14.001l-44.532,44.532
			c-36.409,36.409,6.802,96.124,52.453,72.404c9.291-4.819,17.798-11.058,25.283-18.545l32.594-32.594
			c4.702,4.702-7.85-7.85,14.001,14.001l-32.594,32.594c-30.561,30.561-75.644,42.814-117.654,31.978
			c-22.347-5.764-44.559-3.115-63.806,6.324l-30.441-30.441c9.706-19.791,12.069-41.977,6.547-63.598
			c-6.385-25.021-4.654-52.131,4.872-76.336c1.517-3.855-0.378-8.209-4.232-9.726c-3.854-1.517-8.209,0.378-9.726,4.232
			c-10.671,27.112-12.606,57.49-5.448,85.54c7.159,28.028-2.095,55.647-19.866,73.421L9.26,457.977
			c-12.344,12.345-12.347,32.429-0.007,44.769C21.593,515.085,41.675,515.086,54.023,502.739z M289.47,27.225
			c36.725-12.061,35.385-12.206,38.212-12.206c6.13,0,11.414,6.144,9.174,12.859l-11.683,35.05
			c-0.767,2.301-3.673,2.995-5.396,1.273c-0.215-0.215-27.928-27.928-31.582-31.582C286.479,30.903,287.162,27.994,289.47,27.225z
			 M369.27,107.026c36.891-12.115,35.39-12.206,38.213-12.206c6.143,0,11.41,6.154,9.174,12.859l-11.683,35.05
			c-0.769,2.306-3.677,2.992-5.396,1.274c-1.839-1.839-31.582-31.582-31.582-31.582C366.278,110.702,366.965,107.794,369.27,107.026
			z M449.071,186.826l35.05-11.683c7.614-2.538,14.892,4.678,12.337,12.338l-11.683,35.05c-0.769,2.306-3.677,2.992-5.396,1.274
			c-0.1-0.1-28.441-28.441-31.582-31.582C446.082,190.506,446.761,187.596,449.071,186.826z"/>
	</g>
</g>
<g>
</g>
<g>
</g>
<g>
</g>
<g>
</g>
<g>
</g>
<g>
</g>
<g>
</g>
<g>
</g>
<g>
</g>
<g>
</g>
<g>
</g>
<g>
</g>
<g>
</g>
<g>
</g>
<g>
</g>
</svg>
