<?xml version="1.0" encoding="iso-8859-1"?>
<!-- Generator: Adobe Illustrator 23.0.3, SVG Export Plug-In . SVG Version: 6.00 Build 0)  -->
<svg version="1.1" id="Capa_1" xmlns="http://www.w3.org/2000/svg" xmlns:xlink="http://www.w3.org/1999/xlink" x="0px" y="0px"
	 viewBox="0 0 512 512" style="enable-background:new 0 0 512 512;" xml:space="preserve">
<g>
	<g>
		<path style="fill:#FFB25A;" d="M149.87,374.936l10.921,12.046c4.896,5.4,5.552,13.415,1.6,19.54h0
			c-2.964,4.594-8.058,7.369-13.525,7.369h-27.85c-5.467,0-10.561-2.775-13.525-7.369h0c-3.952-6.124-3.296-14.14,1.6-19.54
			l10.921-12.046H149.87z"/>
		<path style="fill:#996ACC;" d="M391.989,307.913l10.921,12.046c4.896,5.4,5.552,13.415,1.6,19.54l0,0
			c-2.964,4.594-8.058,7.369-13.525,7.369h-27.85c-5.467,0-10.561-2.775-13.525-7.369l0,0c-3.952-6.124-3.296-14.14,1.6-19.54
			l10.921-12.046H391.989z"/>
		<path style="fill:#996ACC;" d="M504.464,134.903c0-70.364-57.041-127.405-127.405-127.405S249.655,64.539,249.655,134.903
			c0,6.606,0.503,13.095,1.473,19.431c3.893,33.805,18.043,103.313,69.349,139.719c33.951,24.091,79.215,24.091,113.166,0
			c51.307-36.406,65.457-105.915,69.349-139.719C503.961,147.998,504.464,141.509,504.464,134.903z"/>
		<path style="fill:#6D36AB;" d="M350.477,294.053c-51.306-36.406-65.456-105.915-69.349-139.719
			c-0.969-6.335-1.473-12.824-1.473-19.431c0-65.288,49.111-119.097,112.405-126.521c-4.921-0.577-9.924-0.883-15-0.883
			c-70.364,0-127.405,57.041-127.405,127.405c0,6.606,0.503,13.095,1.473,19.431c3.893,33.805,18.043,103.313,69.349,139.719
			c21.275,15.096,46.991,20.729,71.583,16.906C377.407,308.68,363.153,303.048,350.477,294.053z"/>
		<path style="fill:#FFB25A;" d="M262.345,201.926c0-70.364-57.041-127.405-127.405-127.405S7.536,131.563,7.536,201.926
			c0,6.606,0.503,13.095,1.473,19.431c3.893,33.805,18.043,103.313,69.349,139.719c33.951,24.091,79.215,24.091,113.166,0
			c51.307-36.406,65.457-105.915,69.349-139.719C261.842,215.022,262.345,208.533,262.345,201.926z"/>
		<path style="fill:#F88000;" d="M108.357,361.076C57.051,324.67,42.901,255.161,39.008,221.357
			c-0.969-6.335-1.473-12.825-1.473-19.431c0-65.288,49.111-119.097,112.405-126.521c-4.921-0.578-9.924-0.883-15-0.883
			c-70.364,0-127.405,57.041-127.405,127.404c0,6.606,0.503,13.096,1.473,19.431c3.893,33.804,18.043,103.313,69.349,139.719
			c21.275,15.096,46.991,20.729,71.583,16.906C135.288,375.704,121.034,370.071,108.357,361.076z"/>
		<g>
			<g>
				<path style="fill:#423E4F;" d="M62.074,237.741c-10.348,0-19.835-6.871-22.703-17.333c-3.44-12.546,3.942-25.506,16.488-28.946
					c11.638-3.191,15.461-11.703,15.49-11.786c4.293-12.28,17.728-18.756,30.009-14.463c12.281,4.293,18.756,17.728,14.463,30.009
					c-1.134,3.243-12.099,31.966-47.505,41.674C66.231,237.468,64.135,237.741,62.074,237.741z"/>
			</g>
			<g>
				<path style="fill:#423E4F;" d="M207.807,237.741c10.348,0,19.835-6.871,22.703-17.333c3.44-12.546-3.942-25.506-16.488-28.946
					c-11.638-3.191-15.461-11.703-15.49-11.786c-4.293-12.28-17.728-18.756-30.009-14.463
					c-12.281,4.293-18.756,17.728-14.463,30.009c1.134,3.243,12.099,31.966,47.505,41.674
					C203.65,237.468,205.746,237.741,207.807,237.741z"/>
			</g>
		</g>
		<path style="fill:#423E4F;" d="M169.193,265.066c0,18.917-15.335,41.205-34.252,41.205s-34.252-22.288-34.252-41.205
			s15.335-20.347,34.252-20.347S169.193,246.149,169.193,265.066z"/>
		<g>
			<g>
				<path style="fill:#423E4F;" d="M304.193,170.718c-10.348,0-19.835-6.871-22.703-17.333c-3.44-12.546,3.942-25.506,16.488-28.946
					c11.638-3.191,15.461-11.703,15.49-11.786c4.293-12.28,17.728-18.756,30.009-14.463c12.281,4.293,18.756,17.728,14.463,30.009
					c-1.134,3.243-12.099,31.966-47.505,41.674C308.35,170.445,306.254,170.718,304.193,170.718z"/>
			</g>
			<g>
				<path style="fill:#423E4F;" d="M449.926,170.718c10.348,0,19.835-6.871,22.703-17.333c3.44-12.546-3.942-25.506-16.488-28.946
					c-11.638-3.191-15.461-11.703-15.49-11.786c-4.293-12.28-17.728-18.756-30.009-14.463
					c-12.281,4.293-18.756,17.728-14.463,30.009c1.134,3.243,12.099,31.966,47.505,41.674
					C445.769,170.445,447.865,170.718,449.926,170.718z"/>
			</g>
		</g>
		<path style="fill:#423E4F;" d="M411.312,198.043c0,18.917-15.335,41.205-34.252,41.205s-34.252-22.288-34.252-41.205
			s15.335-20.347,34.252-20.347S411.312,179.126,411.312,198.043z"/>
	</g>
	<g>
		<path d="M80.114,159.475c-7.323,3.53-12.87,9.648-15.66,17.247c-0.552,0.99-3.433,5.553-10.565,7.508
			c-16.552,4.538-26.277,21.607-21.738,38.161c4.516,16.473,21.591,26.281,38.161,21.739c39.098-10.72,51.335-42.809,52.602-46.432
			C132.113,171.379,104.729,147.611,80.114,159.475z M108.753,192.749c-1.001,2.863-10.692,28.22-42.407,36.916
			c-8.665,2.374-17.418-2.809-19.73-11.239c-2.346-8.558,2.68-17.382,11.239-19.729c13.339-3.657,19.482-13.403,20.587-16.544
			c2.354-6.733,8.647-10.766,15.143-10.766C104.559,171.388,112.428,182.234,108.753,192.749z"/>
		<path d="M199.594,244.131c26.819,7.353,48.748-21.53,35.195-45.322c-4.106-7.207-10.773-12.385-18.773-14.579
			c-7.136-1.957-10.016-6.522-10.566-7.51c-9.498-25.818-45.319-27.236-57.119-2.753c-3.601,7.473-4.077,15.9-1.34,23.73
			C148.259,201.322,160.496,233.412,199.594,244.131z M161.845,180.481c6.187-12.837,24.921-11.768,29.624,1.687
			c1.1,3.126,7.242,12.873,20.582,16.529c4.136,1.134,7.583,3.811,9.705,7.537c7.011,12.309-4.333,27.23-18.196,23.431
			c-31.716-8.696-41.407-34.053-42.408-36.916C159.737,188.701,159.983,184.344,161.845,180.481z"/>
		<path d="M107.717,240.933c-30.848,13.547-8.179,72.839,27.236,72.839c35.239,0,58.207-59.238,27.235-72.839
			c-7.801-3.426-17.732-3.712-27.235-3.712C125.449,237.221,115.518,237.507,107.717,240.933z M161.704,265.067
			c0,18.152-14.71,33.705-26.752,33.705c-12.042,0-26.752-15.553-26.752-33.705c0-9.639,3.867-12.847,26.752-12.847
			C157.838,252.221,161.704,255.428,161.704,265.067z"/>
		<path d="M365.031,130.676c9.072-25.955-17.944-50.202-42.799-38.223c-7.323,3.53-12.87,9.648-15.66,17.247
			c-0.552,0.99-3.433,5.553-10.566,7.508c-16.514,4.528-26.266,21.647-21.738,38.161c4.515,16.468,21.589,26.282,38.161,21.739
			C351.527,166.388,363.764,134.3,365.031,130.676z M308.463,162.642c-8.656,2.372-17.415-2.801-19.729-11.239
			c-2.341-8.538,2.7-17.388,11.238-19.729c13.34-3.657,19.482-13.404,20.587-16.544c1.415-4.048,4.322-7.303,8.185-9.165
			c12.854-6.194,26.829,6.307,22.126,19.761C349.87,128.589,340.178,153.946,308.463,162.642z"/>
		<path d="M479.873,155.37c4.528-16.514-5.224-33.634-21.738-38.161c-7.136-1.957-10.016-6.522-10.566-7.51
			c-5.832-15.852-23.39-24.18-39.39-18.586c-16.201,5.663-24.733,23.359-19.068,39.563c1.267,3.624,13.504,35.713,52.602,46.432
			C458.273,181.649,475.356,171.848,479.873,155.37z M403.27,125.726c-1.416-4.048-1.169-8.405,0.692-12.269
			c6.183-12.83,24.917-11.777,29.624,1.687c1.1,3.126,7.242,12.873,20.581,16.53c8.538,2.341,13.58,11.191,11.239,19.729
			c-2.314,8.439-11.076,13.611-19.728,11.239C413.963,153.946,404.271,128.589,403.27,125.726z"/>
		<path d="M377.07,246.749c35.239,0,58.208-59.238,27.236-72.839c-7.801-3.426-17.732-3.712-27.236-3.712
			s-19.435,0.287-27.236,3.712C318.989,187.455,341.655,246.749,377.07,246.749z M377.07,185.198
			c22.886,0,26.752,3.208,26.752,12.847c0,18.152-14.71,33.705-26.752,33.705c-12.042,0-26.752-15.553-26.752-33.705
			C350.318,188.405,354.185,185.198,377.07,185.198z"/>
		<path d="M29.433,315.404c1.979,3.638,6.533,4.983,10.172,3.003c3.638-1.98,4.983-6.534,3.003-10.173
			c-17.696-32.521-23.972-68.927-26.138-87.734c-0.106-0.955-1.423-8.341-1.423-18.573c0-66.115,53.789-119.904,119.904-119.904
			c65.351,0,119.904,52.975,119.904,119.904c0,9.238-1.056,15.346-1.423,18.573c-5.744,49.881-24.952,105.164-66.238,134.46
			c-31.249,22.173-73.238,22.173-104.485,0c-8.863-6.289-17.079-14.065-24.417-23.111c-2.609-3.216-7.332-3.709-10.549-1.099
			c-3.217,2.609-3.709,7.332-1.1,10.549c8.197,10.104,17.411,18.816,27.385,25.894c9.207,6.533,19.215,11.41,29.617,14.641
			l-0.101,0.111c-13.719,15.132-2.956,39.446,17.482,39.446h10.476c0.161,26.315-17.535,32.346-3.809,84.998
			c1.047,4.016,5.15,6.409,9.149,5.365c4.008-1.044,6.41-5.141,5.366-9.149c-12.783-49.033,4.459-50.039,4.293-81.214h2.374
			c20.428,0,31.209-24.305,17.482-39.446l-0.101-0.111c10.402-3.232,20.41-8.108,29.617-14.641
			c40.931-29.044,61.879-79.693,70.255-129.461c16.232,34.737,43.057,65.716,79.634,77.079l-0.101,0.111
			c-13.719,15.133-2.956,39.446,17.482,39.446h10.476c0.16,26.315-17.535,32.346-3.809,84.998c0.879,3.374,3.921,5.61,7.252,5.61
			c4.91,0,8.501-4.643,7.262-9.394c-12.78-49.026,4.458-50.046,4.293-81.215c0.721-0.163,14.134,1.7,22.202-10.803
			c5.783-8.962,4.819-20.741-2.345-28.643l-0.101-0.111c40.509-12.586,68.742-48.833,84.697-88.813
			c10.689-26.785,15.342-53.19,17.364-70.669c5.959-39.219-5.612-78.367-30.474-107.663c-2.68-3.158-7.413-3.546-10.571-0.865
			c-3.158,2.68-3.545,7.413-0.865,10.571c18.345,21.616,28.448,49.151,28.448,77.531c0,9.443-1.05,15.365-1.423,18.573
			c-5.746,49.885-24.951,105.164-66.239,134.46c-31.247,22.173-73.237,22.173-104.485,0c-24.625-17.473-43.136-45.061-55.032-82.007
			c0.585-19.824-3.106-40.38-12.116-60.064C251.227,75.249,307.047,15,377.071,15c25.769,0,50.328,8.056,71.022,23.297
			c3.336,2.456,8.03,1.744,10.487-1.591c2.456-3.335,1.744-8.03-1.591-10.487C433.698,9.066,406.063,0,377.071,0
			c-69.716,0-127.25,53.157-134.2,121.067c-24.633-32.793-63.84-54.044-107.919-54.044c-82.091,0-145.84,73.27-133.366,155.33
			C4.394,246.644,11.506,282.458,29.433,315.404z M148.877,406.392c-8.886,0-17.027,0-27.85,0c-7.444,0-11.37-8.856-6.369-14.371
			l5.797-6.395c9.638,1.346,19.356,1.346,28.993,0l5.798,6.395C160.245,397.534,156.323,406.392,148.877,406.392z M390.996,339.369
			c-3.563,0-4.405,0-10.265,0h-17.585c-7.444,0-11.369-8.856-6.369-14.371l5.797-6.395c9.638,1.346,19.354,1.346,28.994,0
			l5.797,6.395C402.373,330.522,398.429,339.369,390.996,339.369z"/>
	</g>
</g>
<g>
</g>
<g>
</g>
<g>
</g>
<g>
</g>
<g>
</g>
<g>
</g>
<g>
</g>
<g>
</g>
<g>
</g>
<g>
</g>
<g>
</g>
<g>
</g>
<g>
</g>
<g>
</g>
<g>
</g>
</svg>
