<?xml version="1.0" encoding="iso-8859-1"?>
<!-- Generator: Adobe Illustrator 23.0.3, SVG Export Plug-In . SVG Version: 6.00 Build 0)  -->
<svg version="1.1" id="Capa_1" xmlns="http://www.w3.org/2000/svg" xmlns:xlink="http://www.w3.org/1999/xlink" x="0px" y="0px"
	 viewBox="0 0 512 512" style="enable-background:new 0 0 512 512;" xml:space="preserve">
<g>
	<g>
		<path style="fill:#FFB25A;" d="M188.427,126.615l55.83,121.849c4.604,10.048,18.882,10.048,23.486,0l55.83-121.849H188.427z"/>
		<path style="fill:#996ACC;" d="M31.42,80.922l18.45,132.754c1.522,10.948,15.196,15.052,22.495,6.751l88.497-100.66L31.42,80.922z
			"/>
		<path style="fill:#996ACC;" d="M480.58,80.922l-18.45,132.754c-1.522,10.948-15.196,15.052-22.495,6.751l-88.497-100.66
			L480.58,80.922z"/>
		<path style="fill:#996ACC;" d="M188.427,341.499l55.83,121.849c4.604,10.048,18.882,10.048,23.486,0l55.83-121.849H188.427z"/>
		<path style="fill:#FFB25A;" d="M31.42,295.806l18.45,132.754c1.522,10.948,15.196,15.052,22.495,6.751l88.497-100.66
			L31.42,295.806z"/>
		<path style="fill:#FFB25A;" d="M480.58,295.806l-18.45,132.754c-1.522,10.948-15.196,15.052-22.495,6.751l-88.497-100.66
			L480.58,295.806z"/>
		<path style="fill:#6D36AB;" d="M480.58,80.922l-129.442,38.845l33.511,38.117c32.235-7.046,62.352-16.763,89.256-28.939
			L480.58,80.922z"/>
		<path style="fill:#F88000;" d="M480.58,295.806l-129.442,38.845l33.511,38.117c32.235-7.046,62.352-16.763,89.256-28.939
			L480.58,295.806z"/>
		<path style="fill:#F88000;" d="M303.906,169.538l19.667-42.923H188.428l19.667,42.923c15.746,1.182,31.747,1.784,47.906,1.784
			S288.16,170.72,303.906,169.538z"/>
		<path style="fill:#6D36AB;" d="M303.906,384.422l19.667-42.923H188.428l19.667,42.923c15.746,1.182,31.747,1.784,47.906,1.784
			C272.158,386.206,288.16,385.604,303.906,384.422z"/>
		<path style="fill:#6D36AB;" d="M38.094,128.945c26.905,12.176,57.021,21.893,89.256,28.939l33.511-38.117L31.42,80.922
			L38.094,128.945z"/>
		<path style="fill:#F88000;" d="M38.094,343.829c26.905,12.176,57.021,21.893,89.257,28.939l33.511-38.117L31.42,295.806
			L38.094,343.829z"/>
		<path style="fill:#423E4F;" d="M504.5,41.116c-12.078,10.518-27.032,20.257-44.686,29.08C405.616,97.283,333.233,112.2,256,112.2
			c-77.234,0-149.616-14.917-203.814-42.004C34.532,61.373,19.578,51.634,7.5,41.116v36.671
			c9.553,6.518,20.122,12.688,31.668,18.459C97.329,125.313,174.335,141.322,256,141.322s158.671-16.008,216.833-45.076
			c11.546-5.77,22.115-11.941,31.667-18.459V41.116z"/>
		<path style="fill:#423E4F;" d="M504.5,256c-12.078,10.518-27.032,20.257-44.686,29.08
			c-54.197,27.087-126.58,42.004-203.814,42.004c-77.234,0-149.616-14.917-203.814-42.004C34.532,276.257,19.578,266.518,7.5,256
			v36.671c9.553,6.518,20.122,12.688,31.668,18.459C97.329,340.198,174.335,356.206,256,356.206s158.671-16.008,216.833-45.076
			c11.546-5.77,22.115-11.941,31.667-18.459V256z"/>
	</g>
	<g>
		<path d="M428.188,75.851c-3.87,1.478-5.809,5.813-4.331,9.682c1.478,3.87,5.814,5.809,9.682,4.331
			c22.089-8.436,44.399-19.411,63.46-33.233v17.158c-9.501,6.245-18.344,11.113-27.52,15.753l0,0
			C345.568,151.481,130.919,149.982,15,73.788V56.63c63.828,46.282,161.928,63.076,241,63.076
			c52.688,0,104.166-6.977,148.867-20.177c3.973-1.173,6.242-5.344,5.069-9.317c-1.173-3.972-5.343-6.242-9.317-5.069
			C271.29,123.332,92.034,104.788,12.425,35.465C7.586,31.251,0,34.692,0,41.121v36.67c0,2.479,1.225,4.798,3.273,6.195
			c7.109,4.851,14.798,9.521,22.939,13.955l16.229,116.772c2.403,17.289,24.009,23.802,35.556,10.67l75.027-85.339
			c11.646,2.054,23.542,3.76,35.642,5.102l48.772,106.446c7.283,15.894,29.85,15.871,37.122,0l48.772-106.446
			c12.1-1.342,23.996-3.048,35.642-5.102l75.027,85.339c11.564,13.153,33.156,6.587,35.556-10.67l16.229-116.772
			c8.141-4.433,15.831-9.104,22.939-13.955c2.048-1.397,3.273-3.716,3.273-6.195V41.121c0-6.41-7.571-9.884-12.425-5.656
			c-11.589,10.092-26.095,19.522-43.114,28.027C447.676,67.883,438.164,72.041,428.188,75.851z M135.947,136.752L66.732,215.48
			c-3.056,3.475-8.792,1.787-9.434-2.831L42.506,106.21C72.031,120.147,103.998,130.044,135.947,136.752z M306.075,146.804
			l-45.15,98.541c-1.923,4.196-7.903,4.246-9.849,0l-45.15-98.541C238.821,149.488,272.997,149.488,306.075,146.804z
			 M454.702,212.649c-0.637,4.582-6.355,6.332-9.433,2.831l-69.215-78.728c31.588-6.639,63.678-16.482,93.441-30.542
			L454.702,212.649z"/>
		<path d="M74.746,303.309c3.854,1.521,8.21-0.369,9.73-4.222c1.521-3.853-0.369-8.209-4.222-9.73
			c-23.663-9.342-48.57-22.236-67.829-39.007C7.586,246.136,0,249.575,0,256.005v36.67c0,2.479,1.225,4.798,3.273,6.195
			c7.109,4.85,14.798,9.522,22.939,13.955l16.229,116.772c2.407,17.314,24.026,23.785,35.556,10.67l75.027-85.339
			c11.646,2.054,23.542,3.76,35.642,5.102l48.772,106.446c7.283,15.894,29.85,15.871,37.122,0l48.772-106.446
			c12.1-1.342,23.996-3.048,35.642-5.102l75.027,85.338c11.542,13.129,33.151,6.627,35.556-10.67l16.229-116.772
			c8.141-4.433,15.831-9.104,22.939-13.955c2.048-1.397,3.273-3.716,3.273-6.195v-36.671c0-6.416-7.576-9.879-12.425-5.656
			c-11.59,10.093-26.095,19.522-43.114,28.027c-96.992,48.476-243.597,52.639-348.571,20.599c-3.964-1.209-8.154,1.022-9.363,4.984
			c-1.209,3.962,1.022,8.153,4.984,9.363c122.236,37.309,299.487,26.354,393.49-41.808v17.158c-123.974,81.49-362.826,78.331-482,0
			v-17.158C33.034,284.592,53.94,295.093,74.746,303.309z M135.947,351.637l-69.215,78.728c-3.063,3.483-8.793,1.779-9.433-2.831
			L42.506,321.094C72.256,335.146,104.376,345.009,135.947,351.637z M306.075,361.688l-45.15,98.541
			c-1.928,4.207-7.907,4.238-9.849,0l-45.15-98.541C239.186,364.382,272.796,364.367,306.075,361.688z M454.702,427.533
			c-0.636,4.572-6.349,6.339-9.433,2.831l-69.215-78.728c31.902-6.705,63.842-16.57,93.441-30.542L454.702,427.533z"/>
	</g>
</g>
<g>
</g>
<g>
</g>
<g>
</g>
<g>
</g>
<g>
</g>
<g>
</g>
<g>
</g>
<g>
</g>
<g>
</g>
<g>
</g>
<g>
</g>
<g>
</g>
<g>
</g>
<g>
</g>
<g>
</g>
</svg>
