<?xml version="1.0" encoding="iso-8859-1"?>
<!-- Generator: Adobe Illustrator 23.0.3, SVG Export Plug-In . SVG Version: 6.00 Build 0)  -->
<svg version="1.1" id="Capa_1" xmlns="http://www.w3.org/2000/svg" xmlns:xlink="http://www.w3.org/1999/xlink" x="0px" y="0px"
	 viewBox="0 0 512 512" style="enable-background:new 0 0 512 512;" xml:space="preserve">
<g>
	<g>
		<path style="fill:#5C576E;" d="M255.893,7.5C138.681,7.558,42.79,105.342,42.79,222.554v135.702
			c0,62.408,50.591,112.999,112.999,112.999h200.422c62.408,0,112.999-50.591,112.999-112.999V220.71
			C469.21,103.11,373.506,7.442,255.893,7.5z"/>
		<path style="fill:#423E4F;" d="M72.79,358.256V222.554c0-112.245,87.942-206.661,198.329-214.512
			c-5.031-0.354-10.106-0.544-15.226-0.542C138.681,7.558,42.79,105.342,42.79,222.554v135.703
			c0,62.407,50.591,112.999,112.999,112.999h30C123.381,471.255,72.79,420.664,72.79,358.256z"/>
		<path style="fill:#FFB25A;" d="M343.384,380.612c0,0,49.719,50.171,49.719,123.888H118.897
			c0-73.717,49.719-123.888,49.719-123.888H343.384z"/>
		<path style="fill:#F88000;" d="M168.616,380.612c0,0-49.719,50.171-49.719,123.888h30c0-73.717,49.719-123.888,49.719-123.888
			H168.616z"/>
		<path style="fill:#FFDDCF;" d="M197.969,380.612c0,49.568,31.395,68.48,48.001,75.016c6.443,2.536,13.618,2.536,20.06,0
			c16.606-6.536,48.001-25.448,48.001-75.016H197.969z"/>
		<path style="fill:#FFDDCF;" d="M265.293,169.782c-3.586-8.01-15-8.01-18.586,0c-41.177,91.983-97.024,34.537-134.339,163.024
			c33.346,42.666,85.283,70.098,143.631,70.098c58.348,0,110.286-27.432,143.632-70.098
			C362.317,204.319,306.47,261.765,265.293,169.782z"/>
		<path style="fill:#FFCBBE;" d="M121.274,306.356c-3.068,7.823-6.042,16.586-8.906,26.449
			c33.346,42.666,85.283,70.098,143.631,70.098c6.009,0,11.945-0.307,17.804-0.875C221.642,394.902,155.92,345.217,121.274,306.356z
			"/>
		<path style="fill:#5C576E;" d="M256,304.114c12.811,0,24.22,8.696,31.396-6.139c7.279-15.048-9.023-37.378-31.396-37.378
			c-22.373,0-38.675,22.33-31.396,37.378C231.779,312.81,243.188,304.114,256,304.114z"/>
		<path style="fill:#FD5C6F;" d="M266.213,297.742L266.213,297.742c-6.546-2.674-13.88-2.674-20.426,0l0,0
			c-4.335,1.771-7.167,5.988-7.167,10.67v18.633c0,9.599,7.781,17.38,17.38,17.38l0,0c9.599,0,17.38-7.781,17.38-17.38v-18.633
			C273.38,303.73,270.547,299.513,266.213,297.742z"/>
	</g>
	<g>
		<path d="M256,351.925c13.719,0,24.88-11.161,24.88-24.88v-13.661c5.713-1.563,10.093-5.581,13.268-12.143
			c9.69-20.033-10.099-48.144-38.148-48.144c-27.852,0-47.92,27.939-38.147,48.145c3.175,6.563,7.555,10.578,13.268,12.141v13.662
			C231.12,340.764,242.281,351.925,256,351.925z M265.88,327.044c0,5.448-4.432,9.88-9.88,9.88c-5.448,0-9.879-4.433-9.879-9.88
			c0.016-19.684-0.04-18.66,0.045-19.231c0.046-0.104,0.256-2.229,2.459-3.129c4.754-1.942,9.996-1.943,14.753,0
			c1.587,0.649,2.503,2.168,2.503,3.728V327.044z M255.999,268.097c8.954,0,17.832,4.931,22.618,12.562
			c3.119,4.974,3.877,10.226,2.027,14.05c-0.926,1.914-1.754,3.03-2.624,3.669c-2.068-3.333-5.156-6.02-8.972-7.579l0,0
			c-8.416-3.438-17.685-3.438-26.099,0c-3.816,1.559-6.904,4.246-8.972,7.58c-0.87-0.639-1.698-1.755-2.624-3.669
			C226.76,285.21,238.631,268.097,255.999,268.097z"/>
		<path d="M452.402,430.837c15.902-21.041,24.308-46.139,24.308-72.581V220.71c0-47.935-15.171-93.556-43.874-131.932
			c-2.48-3.317-7.18-3.995-10.498-1.514c-3.317,2.481-3.995,7.181-1.514,10.498c26.748,35.763,40.885,78.277,40.885,122.948v137.546
			c0,23.151-7.357,45.122-21.275,63.537c-11.878,15.715-28.161,27.935-46.433,34.978c-10.013-36.011-28.928-62.231-38.875-74.225
			c16.635-10.219,31.527-22.965,44.08-37.449c6.148-7.082,8.956-9.804,7.627-14.383c-38.376-132.136-94.944-75.196-134.696-163.997
			c-6.224-13.901-26.031-13.947-32.276,0c-24.728,55.244-54.792,53.128-84.938,77.074c-3.243,2.577-3.783,7.295-1.207,10.538
			c2.577,3.243,7.295,3.783,10.538,1.207c28.218-22.423,62.168-22.092,89.297-82.69c0.949-2.12,3.957-2.094,4.895,0
			c42.351,94.609,96.545,37.917,132.882,158.336c-14.026,17.123-31.046,31.612-51.575,42.851c0,0,0,0-0.001,0
			c-52.211,28.588-115.677,28.38-167.508,0c0,0-0.001,0-0.001,0c-19.831-10.858-37.056-25.127-51.574-42.85
			c5.705-18.9,13.6-39.395,24.855-55.517c2.371-3.396,1.54-8.072-1.856-10.443c-3.395-2.371-8.072-1.54-10.443,1.856
			c-18.024,25.817-28.271,63.579-28.351,65.393c-0.08,1.78,0.479,3.539,1.583,4.952c13.602,17.408,30.569,32.932,50.413,45.122
			c-9.947,11.993-28.862,38.213-38.875,74.225c-18.272-7.043-34.555-19.263-46.433-34.978
			c-13.918-18.415-21.275-40.385-21.275-63.536V222.553c0-54.816,21.462-106.733,60.433-146.189
			C149.782,36.82,201.339,15.027,255.897,15c0.037,0,0.067,0,0.104,0c55.094,0,106.89,21.589,145.847,60.793
			c2.92,2.938,7.669,2.953,10.606,0.033c2.938-2.919,2.953-7.668,0.033-10.606C370.692,23.159,315.123,0,256.001,0
			c-0.036,0-0.076,0-0.112,0c-58.597,0.029-113.941,23.405-155.838,65.823c-41.762,42.282-64.761,97.942-64.761,156.73v135.703
			c0,26.442,8.406,51.54,24.308,72.581c13.973,18.487,33.302,32.718,54.952,40.635c-1.982,10.371-3.152,21.407-3.152,33.028
			c0,4.142,3.358,7.5,7.5,7.5h274.205c4.142,0,7.5-3.358,7.5-7.5c0-11.621-1.17-22.657-3.152-33.028
			C419.1,463.555,438.429,449.324,452.402,430.837z M303.502,404.432c-7.611,27.412-27.871,39.356-40.219,44.216
			c-4.697,1.849-9.871,1.849-14.567,0c-12.348-4.86-32.608-16.805-40.219-44.216C238.762,412.195,271.879,412.542,303.502,404.432z
			 M344.23,497v-34.899c0-4.142-3.358-7.5-7.5-7.5s-7.5,3.358-7.5,7.5V497H182.769v-34.899c0-4.142-3.358-7.5-7.5-7.5
			s-7.5,3.358-7.5,7.5V497h-41.19c2.626-54.202,32.974-94.41,43.666-106.975c7.052,3.574,14.32,6.713,21.781,9.374
			c6.879,40.025,34.766,56.739,51.197,63.207c8.239,3.242,17.314,3.242,25.554,0c16.431-6.468,44.317-23.182,51.197-63.207
			c7.46-2.661,14.729-5.799,21.78-9.374c10.698,12.572,41.04,52.778,43.666,106.975H344.23z"/>
	</g>
</g>
<g>
</g>
<g>
</g>
<g>
</g>
<g>
</g>
<g>
</g>
<g>
</g>
<g>
</g>
<g>
</g>
<g>
</g>
<g>
</g>
<g>
</g>
<g>
</g>
<g>
</g>
<g>
</g>
<g>
</g>
</svg>
