<?xml version="1.0" encoding="iso-8859-1"?>
<!-- Generator: Adobe Illustrator 23.0.3, SVG Export Plug-In . SVG Version: 6.00 Build 0)  -->
<svg version="1.1" id="Capa_1" xmlns="http://www.w3.org/2000/svg" xmlns:xlink="http://www.w3.org/1999/xlink" x="0px" y="0px"
	 viewBox="0 0 512 512" style="enable-background:new 0 0 512 512;" xml:space="preserve">
<g>
	<g>
		<path style="fill:#423E4F;" d="M391.714,151.646c32.313-32.313,42.653-78.252,31.068-119.313
			c-2.771-9.821-10.422-17.472-20.243-20.243c-41.06-11.585-87-1.245-119.313,31.068L391.714,151.646z"/>
		<path style="fill:#423E4F;" d="M59.572,151.646C27.259,119.333,16.919,73.394,28.505,32.334
			c2.771-9.821,10.422-17.472,20.243-20.243c41.06-11.585,87-1.245,119.313,31.068L59.572,151.646z"/>
		<g>
			<path style="fill:#4F4C5E;" d="M313.76,453.529c-7.651-0.72-14.721-5.376-18.179-12.853c-5.171-11.183-0.296-24.44,10.886-29.611
				l38.398-17.755c20.581-9.516,35.962-27.477,42.201-49.276c10.235-35.766,35.752-64.599,70.006-79.107
				c11.346-4.807,24.436,0.497,29.241,11.841c4.805,11.345-0.497,24.437-11.841,29.241c-21.781,9.225-38.005,27.559-44.513,50.3
				c-9.811,34.285-34.002,62.532-66.369,77.498l-38.398,17.755C321.486,453.274,317.551,453.885,313.76,453.529z"/>
		</g>
		<path style="fill:#423E4F;" d="M378.689,425.485c-0.003-13.277-1.831-26.445-5.489-39.443c-1.05-3.733-2.261-7.351-3.572-10.865
			c-6.895,7.535-15.265,13.741-24.762,18.132l-38.398,17.755c-11.182,5.171-16.056,18.428-10.886,29.611
			c3.458,7.477,10.528,12.133,18.179,12.853c3.791,0.356,7.726-0.254,11.432-1.967l38.398-17.754
			C368.849,431.375,373.888,428.587,378.689,425.485z"/>
		<path style="fill:#4F4C5E;" d="M344.321,394.17c-5.085-18.069-15.2-33.875-22.682-50.947
			c-7.268-16.585-13.438-33.631-18.935-50.878H148.582c-5.498,17.247-11.667,34.293-18.935,50.878
			c-7.482,17.072-17.596,32.878-22.682,50.947c-7.874,27.978-4.626,54.223,5.257,79.143c7.488,18.883,25.866,31.187,46.179,31.187
			h134.485c20.313,0,38.691-12.305,46.179-31.187C348.947,448.393,352.195,422.147,344.321,394.17z"/>
		<path style="fill:#423E4F;" d="M142.222,473.313c-9.882-24.92-13.13-51.166-5.257-79.143c5.085-18.069,15.2-33.875,22.682-50.947
			c7.268-16.585,13.438-33.631,18.935-50.878h-30c-5.498,17.248-11.667,34.293-18.935,50.878
			c-7.482,17.072-17.596,32.878-22.682,50.947c-7.874,27.978-4.626,54.223,5.257,79.143c7.488,18.883,25.865,31.187,46.179,31.187
			h30C168.087,504.5,149.71,492.196,142.222,473.313z"/>
		<path style="fill:#5C576E;" d="M225.644,22.372L225.644,22.372c-95.602,0-173.102,77.5-173.102,173.101v10.446
			c0,78.438,63.586,142.024,142.024,142.024h62.156c78.438,0,142.024-63.586,142.024-142.024v-10.446
			C398.745,99.872,321.245,22.372,225.644,22.372z"/>
		<path style="fill:#4F4C5E;" d="M82.542,205.919v-10.446c0-90.547,69.525-164.843,158.102-172.448
			c-4.945-0.424-9.945-0.654-15-0.654h0c-95.601,0-173.101,77.5-173.101,173.102v10.446c0,78.437,63.586,142.024,142.024,142.024h30
			C146.128,347.943,82.542,284.357,82.542,205.919z"/>
		<ellipse style="fill:#FFA2AE;" cx="124.511" cy="240.706" rx="37.316" ry="29.717"/>
		<ellipse style="fill:#FFA2AE;" cx="326.776" cy="240.706" rx="37.316" ry="29.717"/>
	</g>
	<g>
		<path d="M162.239,170.658l-26.437-4.662c-4.075-0.718-7.969,2.004-8.688,6.083c-0.719,4.08,2.005,7.969,6.084,8.688l26.437,4.662
			c4.123,0.722,7.976-2.043,8.688-6.084C169.043,175.268,166.318,171.378,162.239,170.658z"/>
		<path d="M291.616,185.431l26.437-4.662c4.079-0.719,6.803-4.609,6.084-8.688c-0.719-4.079-4.605-6.803-8.688-6.083l-26.437,4.662
			c-4.079,0.719-6.803,4.609-6.084,8.688C283.64,183.391,287.497,186.152,291.616,185.431z"/>
		<path d="M225.625,232.404c16.018,16.025,43.682,4.728,43.682-18.083c0-4.142-3.358-7.5-7.5-7.5c-4.142,0-7.5,3.358-7.5,7.5
			c0,5.84-4.751,10.592-10.591,10.592c-5.84,0-10.592-4.751-10.592-10.592c0-4.142-3.358-7.5-7.5-7.5c-4.142,0-7.5,3.358-7.5,7.5
			c0,5.84-4.751,10.592-10.591,10.592s-10.591-4.751-10.591-10.592c0-4.142-3.358-7.5-7.5-7.5c-4.142,0-7.5,3.358-7.5,7.5
			C181.943,237.147,209.616,248.422,225.625,232.404z"/>
		<path d="M146.242,189.469c-4.142,0-7.5,3.358-7.5,7.5v15.018c0,4.142,3.358,7.5,7.5,7.5c4.142,0,7.5-3.358,7.5-7.5v-15.018
			C153.742,192.827,150.384,189.469,146.242,189.469z"/>
		<path d="M305.009,189.469c-4.142,0-7.5,3.358-7.5,7.5v15.018c0,4.142,3.358,7.5,7.5,7.5c4.142,0,7.5-3.358,7.5-7.5v-15.018
			C312.509,192.827,309.151,189.469,305.009,189.469z"/>
		<path d="M471.525,299.106c-23.878,10.114-41.664,30.212-48.798,55.142c-2.595,9.069-6.308,17.81-11.034,25.98
			c-2.074,3.585-0.85,8.173,2.736,10.247c3.586,2.074,8.174,0.85,10.247-2.736c5.343-9.234,9.538-19.114,12.471-29.365
			c5.881-20.551,20.543-37.119,40.227-45.456c15.169-6.424,22.248-23.899,15.822-39.072c-6.425-15.169-23.9-22.25-39.071-15.822
			c-36.351,15.396-63.429,45.994-74.29,83.948c-4.93,17.224-16.175,31.795-31.354,40.934c-5.886-15.731-14.036-28.752-21.1-45.252
			c46.895-25.263,78.842-74.833,78.842-131.73c-0.285-6.289,1.485-26.119-5.144-53.271c29.96-32.849,41.037-79.325,28.898-122.348
			c-3.503-12.417-13.007-21.921-25.424-25.425c-39.553-11.16-81.887-2.915-114.163,22.017
			c-40.318-15.542-86.734-16.499-129.535,0.001c-14.913-11.505-32.38-19.704-50.796-23.792c-4.047-0.898-8.05,1.653-8.947,5.696
			s1.652,8.049,5.696,8.947c13.547,3.007,26.516,8.528,38.081,16.157c-39.682,19.907-73.365,55.58-89.616,101.521
			C33.344,107.02,25.825,69.405,35.708,34.378c2.075-7.355,7.706-12.986,15.061-15.061c9.289-2.621,18.939-4.056,28.682-4.266
			c4.141-0.089,7.426-3.518,7.336-7.66c-0.091-4.228-3.628-7.443-7.66-7.336c-11.01,0.237-21.922,1.86-32.432,4.826
			C34.28,8.384,24.775,17.888,21.272,30.305c-12.139,43.024-1.062,89.5,28.898,122.35c-3.352,13.734-5.143,28.073-5.143,42.824
			v10.446c0,56.897,31.947,106.467,78.843,131.73c-0.377,0.881-0.746,1.732-1.108,2.56c-7.385,16.85-17.704,32.998-23.032,51.925
			c-7.76,27.574-5.959,55.031,5.505,83.938C113.888,497.9,134.751,512,158.384,512h134.483c23.633,0,44.496-14.1,53.15-35.922
			c4.001-10.088,6.797-19.996,8.448-29.797c7.482-4.09,29.806-10.744,52.09-34.271c2.848-3.007,2.72-7.754-0.288-10.603
			c-3.007-2.849-7.754-2.719-10.603,0.288c-18.027,19.034-37.23,25.993-39.482,27.266c0.292-10.736-0.931-21.424-3.246-31.325
			c20.074-10.905,34.989-29.418,41.32-51.537c9.608-33.576,33.562-60.644,65.72-74.263c12.054-5.106,24.456,6.952,19.499,19.194
			C477.991,294.695,475.168,297.564,471.525,299.106z M306.351,33.903c27.523-18.2,61.87-23.688,94.13-14.586
			c7.356,2.076,12.986,7.705,15.061,15.061c9.883,35.027,2.364,72.641-19.567,101.05C380.527,91.739,348.174,54.877,306.351,33.903z
			 M60.027,205.924v-10.446c0-90.798,73.809-165.599,165.599-165.599c91.315,0,165.599,74.291,165.599,165.599v10.446
			c0,71.668-56.428,130.648-127.435,134.335c-5.584,0.287-3.604,0.168-69.241,0.187C120.699,340.446,60.027,280.422,60.027,205.924z
			 M332.073,470.549C325.701,486.617,310.311,497,292.867,497h-10.425c1.718-44.819,19.457-53.179,19.457-103.337
			c0-4.142-3.358-7.5-7.5-7.5s-7.5,3.358-7.5,7.5c0,47.157-17.756,55.186-19.468,103.337h-34.306V393.664c0-4.142-3.358-7.5-7.5-7.5
			c-4.142,0-7.5,3.358-7.5,7.5V497H183.82c-1.709-48.066-19.467-56.188-19.467-103.337c0-4.142-3.358-7.5-7.5-7.5
			c-4.142,0-7.5,3.358-7.5,7.5c0,50.265,17.734,58.419,19.456,103.337h-10.425c-17.445,0-32.834-10.383-39.206-26.452
			c-10.206-25.736-11.845-50.055-5.009-74.345c4.966-17.647,14.842-32.568,23.242-52.067c18.629,7.728,37.909,11.309,57.137,11.309
			c70.065-0.002,63.021,0.021,66.333-0.061c18.369-0.497,36.132-4.267,52.959-11.248c0.308,0.715,0.611,1.413,0.911,2.099
			c0,0,0,0,0,0C327.936,376.321,355.789,410.745,332.073,470.549z"/>
	</g>
</g>
<g>
</g>
<g>
</g>
<g>
</g>
<g>
</g>
<g>
</g>
<g>
</g>
<g>
</g>
<g>
</g>
<g>
</g>
<g>
</g>
<g>
</g>
<g>
</g>
<g>
</g>
<g>
</g>
<g>
</g>
</svg>
