<?xml version="1.0" encoding="iso-8859-1"?>
<!-- Generator: Adobe Illustrator 23.0.3, SVG Export Plug-In . SVG Version: 6.00 Build 0)  -->
<svg version="1.1" id="Capa_1" xmlns="http://www.w3.org/2000/svg" xmlns:xlink="http://www.w3.org/1999/xlink" x="0px" y="0px"
	 viewBox="0 0 512 512" style="enable-background:new 0 0 512 512;" xml:space="preserve">
<g>
	<g>
		<path style="fill:#C8C6CC;" d="M489.604,435.731c70.94-274.33-194.199-390.003-194.199-390.003L217.689,132.5
			c163.239,74.896,234.197,240.12,256.205,303.821C476.547,444,487.57,443.596,489.604,435.731z"/>
		<path style="fill:#A29DAE;" d="M295.405,45.727l-77.716,86.772c21.474,9.853,41.336,21.28,59.715,33.823
			c11.772-21.158,26.511-40.719,43.989-58.197l29.74-29.741C319.458,56.226,295.405,45.727,295.405,45.727z"/>
		<path style="fill:#F86745;" d="M183.737,350.802c16.868-32.835,28.473-67.95,34.491-104.372
			c10.045-60.79,38.384-115.951,81.952-159.518l30.489-30.489c6.875-6.875,6.875-18.021,0-24.896l-18.871-18.871
			c-6.875-6.875-18.021-6.875-24.896,0l-30.489,30.489c-26.103,26.103-47.891,55.987-64.76,88.822
			c-16.798,32.697-28.376,67.656-34.416,103.914c-10.033,60.231-38.06,116.01-81.236,159.186l-56.602,56.602
			c-12.086,12.086-12.086,31.681,0,43.767l0,0c12.086,12.086,31.681,12.086,43.767,0l55.812-55.812
			C145.08,413.521,166.868,383.637,183.737,350.802z"/>
	</g>
	<g>
		<path d="M326.567,119.835l-10.327,10.327c-2.929,2.929-2.929,7.678,0,10.607c2.929,2.929,7.678,2.929,10.607,0l10.327-10.327
			c2.929-2.929,2.929-7.678,0-10.607C334.246,116.905,329.496,116.905,326.567,119.835z"/>
		<path d="M434.05,227.317l-10.327,10.327c-4.739,4.739-1.318,12.804,5.304,12.804c1.92,0,3.839-0.732,5.304-2.197l10.327-10.327
			c2.929-2.929,2.929-7.678,0-10.607C441.728,224.388,436.979,224.388,434.05,227.317z"/>
		<path d="M361.939,167.248c-4.141-0.287-7.713,2.836-7.997,6.968c-1.413,20.554,15.61,37.756,36.334,36.334
			c4.133-0.284,7.253-3.864,6.969-7.997c-0.284-4.133-3.87-7.251-7.997-6.969c-11.544,0.795-21.136-8.762-20.341-20.34
			C369.191,171.112,366.071,167.531,361.939,167.248z"/>
		<path d="M68.47,500.757l55.815-55.815c53.035-53.033,88.881-121.8,101.353-197.286c5.078-30.729,14.964-59.976,29.219-86.941
			c132.168,80.156,192.147,220.683,211.973,278.07c5.078,14.697,26.177,13.855,30.061-1.162
			c11.257-43.53,14.802-85.901,10.537-125.935c-0.439-4.119-4.141-7.104-8.253-6.663c-4.119,0.439-7.102,4.134-6.664,8.252
			c4.074,38.238,0.661,78.81-10.143,120.591c-0.064,0.251-0.126,0.487-0.637,0.507c-0.558,0.023-0.639-0.249-0.722-0.488
			c-20.384-59.001-82.155-203.602-218.787-286.252c22.748-37.989,45.13-56.718,64.32-76.467
			c79.047,48.737,142.43,122.427,161.513,213.734c0.847,4.055,4.825,6.655,8.876,5.807c4.055-0.847,6.655-4.822,5.807-8.876
			C483.064,187.697,418.836,111.39,337.355,60.23c8.422-9.868,7.967-24.684-1.366-34.016L317.117,7.341
			c-9.789-9.788-25.716-9.787-35.505,0c-19.067,21.052-61.709,53.235-96.622,121.194c-17.153,33.387-28.978,69.09-35.145,106.116
			c-9.317,55.935-34.225,107.019-72.028,147.727c-2.819,3.035-2.643,7.781,0.392,10.6c3.035,2.819,7.782,2.644,10.6-0.392
			c39.809-42.867,66.031-96.627,75.833-155.469c5.912-35.494,17.248-69.72,33.691-101.726
			c33.625-65.452,74.662-96.249,93.886-117.441c3.939-3.94,10.35-3.94,14.29,0l18.872,18.873c3.948,3.947,3.95,10.339,0,14.289
			c-27.603,28.386-53.089,48.798-78.727,93.409c-17.744,30.879-29.89,64.826-35.817,100.691
			c-11.721,70.936-45.298,137.262-97.161,189.124L57.863,490.15c-9.143,9.142-24.019,9.142-33.162,0
			c-9.164-9.164-9.165-23.997,0-33.162l42.845-42.845c2.929-2.929,2.929-7.678,0-10.607c-2.929-2.929-7.678-2.929-10.607,0
			L14.094,446.38c-15.026,15.026-15.029,39.348,0,54.376C29.084,515.747,53.478,515.748,68.47,500.757z"/>
	</g>
</g>
<g>
</g>
<g>
</g>
<g>
</g>
<g>
</g>
<g>
</g>
<g>
</g>
<g>
</g>
<g>
</g>
<g>
</g>
<g>
</g>
<g>
</g>
<g>
</g>
<g>
</g>
<g>
</g>
<g>
</g>
</svg>
