<?xml version="1.0" encoding="iso-8859-1"?>
<!-- Generator: Adobe Illustrator 23.0.3, SVG Export Plug-In . SVG Version: 6.00 Build 0)  -->
<svg version="1.1" id="Capa_1" xmlns="http://www.w3.org/2000/svg" xmlns:xlink="http://www.w3.org/1999/xlink" x="0px" y="0px"
	 viewBox="0 0 512 512" style="enable-background:new 0 0 512 512;" xml:space="preserve">
<g>
	<g>
		<path style="fill:#F86745;" d="M109.829,457.679c12.745,8.046,28.98,8.046,41.725,0l0,0c12.745-8.046,28.98-8.046,41.725,0l0,0
			c12.745,8.046,28.98,8.046,41.725,0l0,0c12.745-8.046,28.98-8.046,41.725,0l0,0c12.745,8.046,28.98,8.046,41.725,0l0,0
			c12.745-8.046,28.98-8.046,41.725,0l0,0c12.745,8.046,28.98,8.046,41.725,0l0.038-0.024c13.849-8.743,21.657-24.471,20.274-40.791
			c-2.621-30.926-13.003-72.295-50.804-115.052H140.588c-37.866,42.831-48.219,84.304-50.817,115.212
			C88.407,433.254,96.108,448.905,109.829,457.679L109.829,457.679z"/>
		<path style="fill:#C94D2F;" d="M139.829,457.68L139.829,457.68c-13.721-8.774-21.423-24.425-20.058-40.655
			c2.598-30.908,12.951-72.381,50.817-115.212h-30c-37.866,42.832-48.219,84.304-50.817,115.212
			c-1.364,16.229,6.338,31.88,20.058,40.654l0,0c10.861,6.857,24.252,7.848,35.862,3.018
			C143.679,459.86,141.712,458.869,139.829,457.68z"/>
		<circle style="fill:#423E4F;" cx="115.233" cy="228.07" r="107.733"/>
		<circle style="fill:#423E4F;" cx="396.767" cy="228.07" r="107.733"/>
		<path style="fill:#F86745;" d="M164.228,48.286H56.976c-21.986,0-39.81,17.823-39.81,39.81v0c0,21.986,17.823,39.81,39.81,39.81
			h107.252c21.986,0,39.81-17.823,39.81-39.81v0C204.038,66.11,186.214,48.286,164.228,48.286z"/>
		<path style="fill:#C94D2F;" d="M47.167,88.096L47.167,88.096c0-21.986,17.823-39.81,39.81-39.81h-30
			c-21.986,0-39.81,17.824-39.81,39.81l0,0c0,21.986,17.823,39.81,39.81,39.81h30C64.99,127.906,47.167,110.083,47.167,88.096z"/>
		<path style="fill:#F86745;" d="M347.772,48.286h107.252c21.986,0,39.81,17.823,39.81,39.81v0c0,21.986-17.823,39.81-39.81,39.81
			H347.772c-21.986,0-39.81-17.823-39.81-39.81v0C307.962,66.11,325.786,48.286,347.772,48.286z"/>
		<path style="fill:#C94D2F;" d="M337.962,88.096L337.962,88.096c0-21.986,17.823-39.81,39.81-39.81h-30
			c-21.986,0-39.81,17.824-39.81,39.81l0,0c0,21.986,17.823,39.81,39.81,39.81h30C355.786,127.906,337.962,110.083,337.962,88.096z"
			/>
		<circle style="fill:#A8E1F6;" cx="115.233" cy="228.07" r="63.139"/>
		<path style="fill:#34B6E2;" d="M82.094,228.07c0-29.7,20.512-54.597,48.139-61.331c-4.81-1.172-9.83-1.808-15-1.808
			c-34.871,0-63.139,28.269-63.139,63.139c0,34.871,28.268,63.139,63.139,63.139c5.17,0,10.19-0.636,15-1.808
			C102.606,282.667,82.094,257.77,82.094,228.07z"/>
		<circle style="fill:#A8E1F6;" cx="396.767" cy="228.07" r="63.139"/>
		<path style="fill:#34B6E2;" d="M363.628,228.07c0-29.7,20.512-54.597,48.139-61.331c-4.81-1.172-9.83-1.808-15-1.808
			c-34.871,0-63.139,28.269-63.139,63.139c0,34.871,28.268,63.139,63.139,63.139c5.17,0,10.19-0.636,15-1.808
			C384.14,282.667,363.628,257.77,363.628,228.07z"/>
		<path style="fill:#FFDDCF;" d="M349.665,282.951c0,51.73-41.935,85.745-93.665,85.745s-93.665-34.015-93.665-85.745
			s41.935-134.4,93.665-134.4S349.665,231.221,349.665,282.951z"/>
		<path style="fill:#FFCBBE;" d="M192.335,282.951c0-46.624,34.067-118.369,78.665-132.082c-4.885-1.502-9.894-2.319-15-2.319
			c-51.73,0-93.665,82.67-93.665,134.4S204.27,368.696,256,368.696c5.106,0,10.115-0.336,15-0.984
			C226.402,361.803,192.335,329.575,192.335,282.951z"/>
	</g>
	<g>
		<path d="M464.076,134.476c21.77-4.237,38.257-23.441,38.257-46.431c0-26.086-21.223-47.31-47.31-47.31H347.771
			c-26.086,0-47.31,21.223-47.31,47.31c0,20.602,13.242,38.16,31.657,44.637c-11.28,7.673-21.209,17.309-29.173,28.438
			c-29.285-26.068-62.936-27.557-93.894,0c-7.964-11.129-17.893-20.765-29.173-28.438c18.416-6.477,31.657-24.035,31.657-44.637
			c0-26.086-21.223-47.31-47.31-47.31H56.976c-26.086,0-47.31,21.223-47.31,47.31c0,22.991,16.487,42.194,38.257,46.431
			c-10.635,7.657-19.947,17.11-27.532,28.077C7.051,181.844,0,204.482,0,228.019c0,28.291,10.358,55.499,29.167,76.614
			c2.754,3.093,7.496,3.366,10.589,0.612c3.093-2.755,3.367-7.496,0.611-10.589C24.009,276.292,15,252.627,15,228.019
			c0-20.475,6.131-40.162,17.729-56.935c11.069-16.006,26.338-28.336,44.226-35.729h76.522
			c18.142,7.502,33.864,20.367,44.871,36.638c-7.082,8.126-13.461,17.433-18.832,26.827c-11.247-24.575-36.185-41.44-64.283-41.44
			c-38.951,0-70.639,31.688-70.639,70.639c0,56.878,63.89,89.994,110.311,58.428c0.387,10.734,2.491,21.176,6.236,30.689
			c-32.052,16.411-69.97,14.446-99.75-4.56c-3.491-2.228-8.128-1.205-10.357,2.288c-2.229,3.492-1.204,8.128,2.288,10.357
			c15.131,9.656,32.223,15.58,50.004,17.414c-11.901,23.084-18.809,47.313-21.028,73.711c-1.603,19.07,7.398,37.31,23.528,47.625
			c15.105,9.537,34.627,9.537,49.732,0c10.242-6.466,23.477-6.465,33.717,0c15.105,9.537,34.627,9.537,49.732,0
			c10.241-6.465,23.476-6.465,33.717,0c15.103,9.535,34.624,9.538,49.732,0c10.241-6.465,23.476-6.465,33.717,0
			c34.032,21.483,76.929-7.49,73.514-47.79c-2.231-26.337-9.133-50.51-21.008-73.542C466.643,336.658,512,287.537,512,228.019
			C512,189.442,493.037,155.328,464.076,134.476z M24.667,88.045c0-17.815,14.494-32.31,32.31-32.31h107.251
			c17.815,0,32.31,14.494,32.31,32.31c0,17.816-14.494,32.31-32.31,32.31c-0.104,0-96.385,0-107.251,0
			C39.161,120.355,24.667,105.861,24.667,88.045z M315.462,88.045c0-17.815,14.494-32.31,32.31-32.31h107.251
			c17.816,0,32.31,14.494,32.31,32.31c0,17.816-14.494,32.31-32.31,32.31c-3.413,0-107.38,0-107.251,0
			C329.956,120.355,315.462,105.861,315.462,88.045z M256,156c18.27,0,34.944,12.683,46.806,26.444
			c13.744,15.868,24.756,37.041,31.366,56.942c49.194,146.996-159.044,158.392-164.234,47.661C167.613,240.059,207.84,156,256,156z
			 M115.233,283.658c-30.68,0-55.639-24.959-55.639-55.639s24.959-55.639,55.639-55.639c26.765,0,49.899,19.416,54.705,45.512
			c-6.868,15.713-11.732,32.26-13.875,47.898C145.531,277.172,130.775,283.658,115.233,283.658z M364.182,451.287
			c-15.105-9.537-34.627-9.537-49.732,0c-10.242,6.466-23.477,6.465-33.717,0c-15.105-9.537-34.627-9.537-49.732,0
			c-10.242,6.465-23.477,6.465-33.717,0c-15.105-9.537-34.626-9.537-49.732,0c-23.611,14.906-52.644-5.863-50.306-33.684
			c2.255-26.826,9.734-51.226,22.837-74.459c15.872-0.666,32.888-4.868,47.738-12.572c37.148,60.804,139.221,60.801,176.361,0
			c13.955,7.218,30.518,11.849,47.741,12.572c13.078,23.184,20.552,47.535,22.82,74.303
			C417.096,445.23,387.881,466.248,364.182,451.287z M396.361,328.246c-0.452-0.06-23.508,0.524-45.502-11.11
			c3.632-9.224,5.846-19.635,6.236-30.689c46.308,31.487,110.311-1.445,110.311-58.428c0-11.647-2.903-23.201-8.394-33.412
			c-1.962-3.648-6.51-5.015-10.158-3.053c-3.648,1.962-5.015,6.51-3.053,10.158c4.321,8.035,6.605,17.131,6.605,26.307
			c0,30.68-24.959,55.639-55.639,55.639c-15.542,0-30.298-6.486-40.83-17.868c-2.143-15.638-7.007-32.186-13.875-47.899
			c7.218-39.184,53.033-58.697,86.329-35.642c3.405,2.358,8.078,1.509,10.436-1.896s1.509-8.077-1.896-10.436
			c-36.173-25.049-86.142-11.09-104.446,28.902c-5.329-9.322-11.684-18.626-18.832-26.827
			c11.006-16.271,26.729-29.136,44.871-36.638h76.522C471.724,150.515,497,186.53,497,228.019
			C497,283.24,452.03,328.447,396.361,328.246z"/>
	</g>
</g>
<g>
</g>
<g>
</g>
<g>
</g>
<g>
</g>
<g>
</g>
<g>
</g>
<g>
</g>
<g>
</g>
<g>
</g>
<g>
</g>
<g>
</g>
<g>
</g>
<g>
</g>
<g>
</g>
<g>
</g>
</svg>
