<?xml version="1.0" encoding="iso-8859-1"?>
<!-- Generator: Adobe Illustrator 23.0.3, SVG Export Plug-In . SVG Version: 6.00 Build 0)  -->
<svg version="1.1" id="Capa_1" xmlns="http://www.w3.org/2000/svg" xmlns:xlink="http://www.w3.org/1999/xlink" x="0px" y="0px"
	 viewBox="0 0 512 512" style="enable-background:new 0 0 512 512;" xml:space="preserve">
<g>
	<g>
		<rect x="228.914" y="388.739" style="fill:#FFB25A;" width="54.171" height="115.761"/>
		<path style="fill:#80E0B7;" d="M383.151,40.618C374.358,20.501,354.486,7.5,332.531,7.5H179.469
			c-21.955,0-41.827,13.001-50.62,33.118l-17.338,39.664L256,108.014l144.489-27.731L383.151,40.618z"/>
		<path style="fill:#00B762;" d="M141.511,80.282l17.338-39.664C167.642,20.501,187.514,7.5,209.469,7.5h-30
			c-21.955,0-41.827,13.001-50.62,33.118l-17.338,39.664L256,108.014l15-2.879L141.511,80.282z"/>
		<path style="fill:#FFB25A;" d="M403.069,267.437c9.928-21.027,15.489-44.521,15.489-69.317c0-22.101-4.418-43.167-12.407-62.375
			L256,108.014l-150.151,27.731c-7.989,19.208-12.407,40.275-12.407,62.375c0,24.796,5.561,48.289,15.489,69.317L256,294.471
			L403.069,267.437z"/>
		<path style="fill:#F88000;" d="M138.931,267.437c-9.928-21.027-15.489-44.521-15.489-69.316c0-22.101,4.418-43.167,12.407-62.375
			L271,110.784l-15-2.771l-150.151,27.731c-7.989,19.208-12.407,40.275-12.407,62.375c0,24.795,5.561,48.29,15.489,69.316
			L256,294.471l15-2.757L138.931,267.437z"/>
		<path style="fill:#996ACC;" d="M442.396,120.047c-5.792-12.13-17.732-28.668-41.907-39.765H111.511
			c-24.175,11.097-36.114,27.635-41.907,39.765c-3.478,7.284,1.849,15.698,9.92,15.698h352.952
			C440.547,135.745,445.874,127.33,442.396,120.047z"/>
		<path style="fill:#6D36AB;" d="M99.604,120.047c5.792-12.13,17.732-28.668,41.907-39.765h-30
			c-24.175,11.097-36.114,27.635-41.907,39.765c-3.478,7.284,1.849,15.698,9.92,15.698h30
			C101.453,135.745,96.126,127.331,99.604,120.047z"/>
		<path style="fill:#FFB25A;" d="M465.835,267.437h-23.457l-28.824,30.398l28.824,30.398h23.457
			c16.788,0,30.398-13.61,30.398-30.398v0C496.233,281.047,482.623,267.437,465.835,267.437z"/>
		<path style="fill:#FFB25A;" d="M46.165,267.437h23.457l28.824,30.398l-28.824,30.398H46.165c-16.788,0-30.398-13.61-30.398-30.398
			v0C15.767,281.047,29.377,267.437,46.165,267.437z"/>
		<rect x="228.914" y="388.739" style="fill:#F88000;" width="54.171" height="73.672"/>
		<polygon style="fill:#996ACC;" points="331.067,267.437 180.933,267.437 155.003,349.924 180.933,432.411 331.067,432.411 
			356.628,349.924 		"/>
		<path style="fill:#423E4F;" d="M195.003,184.049l-9.916-14.971c-5.064-7.645-16.288-7.645-21.352,0l-9.916,14.971
			c-4.51,6.81,0.373,15.901,8.541,15.901h24.103C194.631,199.95,199.514,190.859,195.003,184.049z"/>
		<path style="fill:#423E4F;" d="M316.997,184.049l9.916-14.971c5.064-7.645,16.288-7.645,21.352,0l9.916,14.971
			c4.51,6.81-0.372,15.901-8.54,15.901h-24.103C317.369,199.95,312.486,190.859,316.997,184.049z"/>
		<path style="fill:#423E4F;" d="M272.512,193.489l-7.951-12.005c-4.061-6.131-13.061-6.131-17.121,0l-7.951,12.005
			c-3.617,5.46,0.299,12.75,6.848,12.75h19.327C272.213,206.24,276.129,198.95,272.512,193.489z"/>
		<path style="fill:#80E0B7;" d="M442.378,267.437v76.239H398.41l14.367,63.275c2.961,13.042-6.952,25.459-20.327,25.459h-61.384
			V267.437H442.378z"/>
		<path style="fill:#80E0B7;" d="M69.622,267.437v76.239h43.968l-14.367,63.275c-2.961,13.042,6.952,25.459,20.327,25.459h61.384
			V267.437H69.622z"/>
	</g>
	<g>
		<path d="M201.256,179.907l-9.916-14.971c-8.015-12.101-25.82-12.134-33.857,0l-9.917,14.971
			c-7.804,11.784,0.664,27.542,14.793,27.542h24.103C200.597,207.45,209.058,191.686,201.256,179.907z M160.072,188.19l9.916-14.971
			c2.099-3.168,6.749-3.166,8.846,0l9.916,14.971c1.206,1.822-0.08,4.259-2.288,4.259H162.36
			C160.181,192.45,158.85,190.035,160.072,188.19z"/>
		<path d="M325.537,207.45h24.103c14.134,0,22.596-15.763,14.793-27.542l-9.916-14.971c-8.015-12.101-25.821-12.134-33.857,0
			l-9.916,14.971h0C302.938,191.689,311.408,207.45,325.537,207.45z M323.249,188.19C323.25,188.19,323.25,188.19,323.249,188.19
			l9.917-14.971c2.098-3.168,6.749-3.166,8.846,0l9.917,14.971c1.206,1.822-0.08,4.259-2.288,4.259h-24.103
			c-1.428,0-2.127-0.906-2.417-1.446S322.461,189.381,323.249,188.19z"/>
		<path d="M246.336,213.739h19.327c12.518,0,20.01-13.96,13.101-24.392l-7.951-12.005c-7.014-10.59-22.595-10.617-29.627,0
			l-7.951,12.005C226.323,199.783,233.824,213.739,246.336,213.739z M253.692,185.626c0.714-1.079,1.753-1.24,2.308-1.24
			s1.593,0.161,2.308,1.239l7.951,12.005v0c0.32,0.481-0.016,1.108-0.595,1.108c-21.132,0-19.662,0.173-19.957-0.376
			C245.419,197.826,244.986,198.769,253.692,185.626z"/>
		<path d="M219.677,240.131c1.844-1.626,4.639-1.644,6.499-0.042c0.208,0.121,4.94,5.007,13.248,5.006
			c4.726,0,9.451-1.657,13.199-4.963c1.844-1.626,4.639-1.644,6.5-0.042l0.236,0.204c7.512,6.464,18.78,6.395,26.211-0.161
			c1.843-1.626,4.639-1.644,6.503-0.04c3.139,2.702,7.875,2.347,10.577-0.792c2.702-3.14,2.347-7.875-0.792-10.577
			c-7.512-6.464-18.78-6.396-26.21,0.161c-1.844,1.626-4.64,1.644-6.5,0.042l-0.236-0.204c-7.511-6.464-18.779-6.396-26.21,0.161
			c-1.844,1.626-4.64,1.644-6.5,0.042l-0.237-0.204c-7.511-6.464-18.78-6.395-26.21,0.161c-3.106,2.74-3.403,7.479-0.663,10.586
			S216.57,242.871,219.677,240.131z"/>
		<path d="M449.878,343.676v-7.942h15.957c20.897,0,37.898-17.001,37.898-37.898c0-20.897-17.001-37.898-37.898-37.898
			c-10.538,0-40.905,0-51.384,0c15.001-38.315,15.066-80.003,2.539-116.692h15.486c13.585,0,22.544-14.17,16.688-26.43
			c-6.049-12.669-18.377-30.052-42.923-42.102l-16.217-37.1C380.036,14.764,357.469,0,332.531,0H179.469
			c-24.938,0-47.504,14.764-57.492,37.614l-16.217,37.1c-24.545,12.049-36.874,29.433-42.923,42.101
			c-5.855,12.26,3.102,26.43,16.688,26.43H95.01c-12.524,36.684-12.465,78.371,2.54,116.692H46.165
			c-20.897,0-37.898,17.001-37.898,37.898c0,20.897,17.001,37.898,37.898,37.898h15.957v7.942c0,4.142,3.358,7.5,7.5,7.5h34.574
			l-12.287,54.115c-4.024,17.72,9.435,34.62,27.64,34.62c10.245,0,89.095,0,101.865,0V504.5c0,4.142,3.358,7.5,7.5,7.5h54.172
			c4.142,0,7.5-3.358,7.5-7.5v-64.589c33.985,0,67.831,0,101.865,0c18.207,0,31.664-16.903,27.641-34.62l-12.287-54.115h34.574
			C446.52,351.176,449.878,347.818,449.878,343.676z M488.733,297.835c0,12.626-10.272,22.898-22.898,22.898h-15.957v-45.796h15.957
			C478.461,274.937,488.733,285.209,488.733,297.835z M76.372,123.279c5.079-10.636,15.571-25.316,36.81-35.497h58.356
			c4.142,0,7.5-3.358,7.5-7.5s-3.358-7.5-7.5-7.5h-48.563l12.746-29.161C143.321,26.234,160.493,15,179.469,15h153.063
			c18.976,0,36.148,11.234,43.748,28.622l12.747,29.161H201.537c-4.142,0-7.5,3.358-7.5,7.5s3.358,7.5,7.5,7.5h197.281
			c21.24,10.182,31.731,24.861,36.81,35.497c1.103,2.311-0.587,4.966-3.152,4.966c-11.017,0-344.679,0-352.952,0
			C76.952,128.245,75.271,125.584,76.372,123.279z M110.938,143.245h290.123c13.797,36.409,13.763,78.644-2.823,116.692
			c-16.432,0-268.122,0-284.477,0C97.179,221.896,97.138,179.663,110.938,143.245z M62.122,320.733H46.165
			c-12.626,0-22.898-10.272-22.898-22.898s10.272-22.898,22.898-22.898h15.957V320.733z M106.536,408.612l14.367-63.276
			c1.064-4.689-2.504-9.16-7.314-9.16H77.122v-61.239c11.934,0,85.783,0,96.311,0V424.91h-53.884
			C110.978,424.91,104.643,416.953,106.536,408.612z M275.586,497h-39.172v-57.089h39.172V497z M434.878,336.176H398.41
			c-4.809,0-8.379,4.47-7.314,9.161l14.367,63.275c1.898,8.358-4.458,16.299-13.013,16.299h-53.884v-39.009
			c0-4.142-3.358-7.5-7.5-7.5s-7.5,3.358-7.5,7.5v39.009c-14.91,0-119.064,0-135.134,0V274.937h135.134v80.964
			c0,4.142,3.358,7.5,7.5,7.5s7.5-3.358,7.5-7.5v-80.964c10.373,0,85.028,0,96.311,0
			C434.878,290.696,434.878,320.741,434.878,336.176z"/>
	</g>
</g>
<g>
</g>
<g>
</g>
<g>
</g>
<g>
</g>
<g>
</g>
<g>
</g>
<g>
</g>
<g>
</g>
<g>
</g>
<g>
</g>
<g>
</g>
<g>
</g>
<g>
</g>
<g>
</g>
<g>
</g>
</svg>
