<?xml version="1.0" encoding="iso-8859-1"?>
<!-- Generator: Adobe Illustrator 23.0.3, SVG Export Plug-In . SVG Version: 6.00 Build 0)  -->
<svg version="1.1" id="Capa_1" xmlns="http://www.w3.org/2000/svg" xmlns:xlink="http://www.w3.org/1999/xlink" x="0px" y="0px"
	 viewBox="0 0 512 512" style="enable-background:new 0 0 512 512;" xml:space="preserve">
<g>
	<g>
		<path style="fill:#996ACC;" d="M391.443,174.737c77.637-2.155,106.3-30.605,106.3-30.605l-0.021-0.021l0,0
			c11.942-12.756,7.559-34.486-8.877-44.01l-0.001,0c-10.322-5.981-16.491-17.361-15.556-28.694l0.001-0.012
			c1.489-18.04-14.646-34.175-32.686-32.686l-0.012,0.001c-11.333,0.936-22.713-5.234-28.694-15.556l0,0
			c-9.524-16.436-31.254-20.819-44.01-8.877l0,0c0,0-28.449,28.663-30.604,106.3L391.443,174.737z"/>
		<path style="fill:#6D36AB;" d="M497.723,144.112c11.942-12.756,7.559-34.486-8.877-44.01h-0.001
			c-2.563-1.485-4.869-3.305-6.875-5.373c4.309,9.839,3.247,21.377-4.248,29.383h0l0.021,0.021c0,0-28.663,28.45-106.3,30.604l20,20
			c77.637-2.155,106.3-30.604,106.3-30.604L497.723,144.112L497.723,144.112z"/>
		<path style="fill:#FFB25A;" d="M174.737,391.443c-2.155,77.637-30.605,106.3-30.605,106.3l-0.021-0.021l0,0
			c-12.756,11.942-34.486,7.559-44.01-8.877l0-0.001c-5.981-10.322-17.361-16.491-28.694-15.556l-0.012,0.001
			c-18.04,1.489-34.175-14.646-32.686-32.686l0.001-0.012c0.936-11.333-5.234-22.713-15.556-28.694l0,0
			c-16.436-9.524-20.819-31.254-8.877-44.01l0,0c0,0,28.663-28.45,106.3-30.604L174.737,391.443z"/>
		<path style="fill:#F88000;" d="M154.737,371.444c-2.155,77.637-30.604,106.3-30.604,106.3l-0.021-0.021h0
			c-8.005,7.495-19.544,8.557-29.383,4.248c2.068,2.006,3.887,4.312,5.372,6.875l0,0.001c9.524,16.436,31.254,20.819,44.01,8.876h0
			l0.021,0.021c0,0,28.45-28.663,30.604-106.3L154.737,371.444z"/>
		<path style="fill:#FFB25A;" d="M263.524,452.107c-32.642,3.902-64.89-0.841-93.005-14.5l-34.36-269.561
			c4.721-5.741,9.786-11.324,15.175-16.713c19.716-19.716,41.983-34.985,65.306-45.662l60.479,20.47l53.24,122.553l-5.525,127.073
			L263.524,452.107z"/>
		<path style="fill:#FFB25A;" d="M324.397,89.009c32.039,4.749,61.743,18.66,85.13,42.048
			c65.702,65.702,56.619,181.297-20.277,258.194c-5.375,5.375-10.936,10.419-16.663,15.125L324.397,89.009z"/>
		<path style="fill:#F88000;" d="M409.528,131.057c-3.353-3.353-6.82-6.498-10.421-9.462
			c55.026,66.97,43.079,174.722-29.856,247.656c-0.584,0.583-1.178,1.148-1.766,1.724l5.104,33.4
			c5.727-4.706,11.288-9.75,16.663-15.125C466.147,312.355,475.229,196.759,409.528,131.057z"/>
		<path style="fill:#F88000;" d="M263.524,452.107l24.69-30.741c-14.74,5.368-29.756,8.962-44.69,10.741
			c-25.726,3.075-51.198,0.756-74.604-7.041l1.599,12.541c7.029,3.415,14.316,6.272,21.803,8.577
			C215.33,453.267,239.658,454.957,263.524,452.107z"/>
		<path style="fill:#996ACC;" d="M324.397,89.009c74.662,124.355,63.345,248.206,48.191,315.366
			c-33.002,27.167-71.299,43.233-109.064,47.731c17.345-60.413,42.86-203.737-46.884-346.435
			C251.87,89.527,289.52,83.836,324.397,89.009z"/>
		<path style="fill:#996ACC;" d="M136.159,168.047c52.028,106.003,45.942,208.414,34.36,269.561
			c-14.406-7.006-27.728-16.346-39.461-28.08C69.961,348.432,73.533,244.196,136.159,168.047z"/>
		<path style="fill:#6D36AB;" d="M372.588,404.376c3.073-13.62,5.988-29.572,8.061-47.387c-3.62,4.181-7.412,8.276-11.398,12.262
			c-5.375,5.374-10.936,10.418-16.663,15.125c-25.332,20.854-53.786,35.159-82.723,42.719c-2.091,9.417-4.274,17.811-6.342,25.013
			c24.784-2.952,49.796-10.886,73.391-23.669C349.547,421.594,361.498,413.506,372.588,404.376z"/>
		<path style="fill:#6D36AB;" d="M172.519,426.24c-7.556-2.314-14.91-5.188-22-8.633c-10.289-5.004-20.012-11.221-29.011-18.628
			c0.736,0.896,1.483,1.784,2.242,2.666c2.328,2.705,4.754,5.328,7.277,7.852c0.01,0.01,0.02,0.021,0.03,0.031
			c11.347,11.415,24.906,21.002,39.461,28.08C171.209,433.964,171.879,430.169,172.519,426.24z"/>
	</g>
	<path d="M492.604,93.613c-7.777-4.506-12.535-13.182-11.84-21.6c1.869-22.631-18.081-42.651-40.789-40.776
		c-8.401,0.695-17.082-4.064-21.588-11.841C405.929-2.103,377.418-5.97,362.563,8.997c-0.899,0.906-21.11,21.842-29.396,73.917
		C194.961,55.997,55.927,195.406,82.872,333.175c-52.047,8.29-72.972,28.491-73.878,29.39
		c-14.76,14.432-11.385,43.201,10.398,55.824c7.776,4.506,12.535,13.182,11.84,21.6c-1.869,22.64,18.089,42.648,40.789,40.776
		c8.397-0.696,17.082,4.065,21.588,11.842c12.472,21.524,41.023,25.33,55.845,10.42c0.702-0.708,16.169-16.676,25.631-55.133
		c66.794,28.055,145.666,8.865,202.261-37.722c0,0,0.001,0,0.001,0c0.001-0.001,0.002-0.002,0.003-0.003c0,0,0.001,0,0.001-0.001
		c0,0,0,0,0,0c46.87-38.524,78.307-94.07,82.985-153.623c2.292-29.18-2.033-56.866-12.393-81.469
		c38.417-9.464,54.37-24.915,55.077-25.617C517.907,134.693,514.17,106.11,492.604,93.613z M139.078,492.163
		c-9.779,9.015-25.628,4.764-32.489-7.077c-7.461-12.874-21.506-20.448-35.813-19.269c-13.418,1.11-25.704-11.146-24.593-24.605
		c1.179-14.282-6.385-28.335-19.27-35.801c-11.85-6.867-15.956-22.781-7.303-32.243c1.462-1.336,20.813-18.281,66.803-25.376
		c11.855,40.854,38.7,73.94,74.837,93.482C153.586,474.66,141.074,489.895,139.078,492.163z M178.94,433.237
		c3.703-21.052,6.099-43.687,6.791-66.01c0.113-3.675-2.445-7.347-7.265-7.728l0,0c-3.861-0.12-7.591,2.733-7.741,7.595
		c-0.602,18.969-2.475,38.945-5.797,59.013c-81.889-47.315-92.543-159.34-30.348-243.827
		c22.566,49.649,34.175,102.033,36.09,155.036c0.149,4.14,3.631,7.375,7.766,7.225c4.14-0.149,7.374-3.626,7.225-7.766
		c-2.122-58.839-15.651-115.061-40.635-167.619c18.702-21.753,41.925-40.491,68.771-53.818
		c1.396,4.057,96.152,138.448,43.876,329.848C229.741,447.748,202.733,443.646,178.94,433.237z M384.395,383.5
		c12.011-69.167,7.7-136.632-9.47-196.905c-1.134-3.984-5.282-6.292-9.268-5.159c-3.984,1.135-6.293,5.284-5.158,9.268
		c19.003,66.721,20.722,139.443,5.325,209.506c-27.615,22.208-59.188,36.86-92.049,42.784
		c29.567-114.847,14.047-233.683-46.217-333.887c30.367-12.449,62.019-16.977,92.23-13.16c12.36,20.976,23.249,43.796,31.85,67.415
		c1.419,3.898,5.727,5.897,9.613,4.481c3.892-1.417,5.898-5.721,4.481-9.613c-7.282-20.003-16.272-39.8-26.571-58.561
		c41.738,10.695,73.453,37.587,91.04,72.839C461.779,235.938,445.194,322.361,384.395,383.5z M492.158,139.082
		c-2.276,2.001-17.549,14.507-50.847,22.161c-18.769-34.617-51.097-62.522-93.525-74.809c7.129-46.243,24.214-65.554,25.365-66.809
		c9.543-8.746,25.433-4.486,32.257,7.291c7.467,12.885,21.521,20.448,35.813,19.269c13.417-1.11,25.704,11.145,24.593,24.605
		c-1.179,14.282,6.385,28.335,19.271,35.801c6.292,3.646,10.66,9.971,11.686,16.919
		C497.616,129.239,496.221,134.675,492.158,139.082z"/>
</g>
<g>
</g>
<g>
</g>
<g>
</g>
<g>
</g>
<g>
</g>
<g>
</g>
<g>
</g>
<g>
</g>
<g>
</g>
<g>
</g>
<g>
</g>
<g>
</g>
<g>
</g>
<g>
</g>
<g>
</g>
</svg>
