<?xml version="1.0" encoding="iso-8859-1"?>
<!-- Generator: Adobe Illustrator 23.0.3, SVG Export Plug-In . SVG Version: 6.00 Build 0)  -->
<svg version="1.1" id="Capa_1" xmlns="http://www.w3.org/2000/svg" xmlns:xlink="http://www.w3.org/1999/xlink" x="0px" y="0px"
	 viewBox="0 0 512 512" style="enable-background:new 0 0 512 512;" xml:space="preserve">
<g>
	<g>
		<path style="fill:#996ACC;" d="M220.668,403.431l-35.332,21.564v70.576c0,6.938,7.576,11.216,13.517,7.633l17.133-10.332
			c2.88-1.737,6.484-1.737,9.363,0l17.133,10.332c5.941,3.583,13.517-0.696,13.517-7.633v-70.576L220.668,403.431z"/>
		<polygon style="fill:#6D36AB;" points="185.336,424.996 185.336,461.953 256,461.953 256,424.996 220.668,403.431 		"/>
		<rect x="69.226" y="24.87" style="fill:#FD5C6F;" width="373.548" height="407.083"/>
		<path style="fill:#F9475E;" d="M69.226,24.87v119.629c30.957,0,56.142-25.186,56.142-56.143v0c0-4.482,3.634-8.116,8.116-8.116
			h0.001c30.698,0,55.706-24.769,56.123-55.37H69.226z"/>
		<path style="fill:#F9D171;" d="M143.031,7.5H75.45c-12.604,0-22.821,10.217-22.821,22.821v67.581
			c0,9.166,7.431,16.597,16.597,16.597h0c14.438,0,26.143-11.705,26.143-26.143V70.244c0-11.048,8.956-20.004,20.004-20.004h18.113
			c14.438,0,26.143-11.705,26.143-26.143C159.628,14.931,152.197,7.5,143.031,7.5z"/>
		<path style="fill:#F9475E;" d="M133.485,376.583L133.485,376.583c-4.483,0-8.117-3.634-8.117-8.116l0,0
			c0-30.958-25.185-56.143-56.142-56.143v119.629h120.383C189.192,401.353,164.183,376.583,133.485,376.583z"/>
		<path style="fill:#F9D171;" d="M143.031,449.324H75.45c-12.604,0-22.821-10.217-22.821-22.821v-67.581
			c0-9.166,7.431-16.597,16.597-16.597h0c14.438,0,26.143,11.705,26.143,26.143v18.113c0,11.048,8.956,20.004,20.004,20.004h18.113
			c14.438,0,26.143,11.704,26.143,26.143C159.628,441.893,152.197,449.324,143.031,449.324z"/>
		<path style="fill:#F9475E;" d="M378.515,80.24L378.515,80.24c4.483,0,8.117,3.634,8.117,8.116v0
			c0,30.957,25.185,56.143,56.142,56.143V24.87H322.392C322.809,55.471,347.817,80.24,378.515,80.24z"/>
		<path style="fill:#F9D171;" d="M368.969,7.5h67.581c12.604,0,22.821,10.217,22.821,22.821v67.581
			c0,9.166-7.431,16.597-16.597,16.597h0c-14.438,0-26.143-11.705-26.143-26.143V70.244c0-11.048-8.956-20.004-20.004-20.004
			h-18.113c-14.438,0-26.143-11.705-26.143-26.143C352.372,14.931,359.803,7.5,368.969,7.5z"/>
		<path style="fill:#F9475E;" d="M442.774,431.953V312.324c-30.957,0-56.142,25.186-56.142,56.143l0,0
			c0,4.482-3.634,8.116-8.116,8.116h-0.001c-30.698,0-55.706,24.77-56.123,55.37H442.774z"/>
		<path style="fill:#F9D171;" d="M368.969,449.324h67.581c12.604,0,22.821-10.217,22.821-22.821v-67.581
			c0-9.166-7.431-16.597-16.597-16.597h0c-14.438,0-26.143,11.705-26.143,26.143v18.113c0,11.048-8.956,20.004-20.004,20.004
			h-18.113c-14.438,0-26.143,11.704-26.143,26.143C352.372,441.893,359.803,449.324,368.969,449.324z"/>
		<path style="fill:#F9D171;" d="M256,110.389c-79.617,0-144.159,64.542-144.159,144.159S176.383,398.706,256,398.706
			s144.159-64.542,144.159-144.159S335.617,110.389,256,110.389z M256,359.939c-58.206,0-105.391-47.185-105.391-105.391
			S197.794,149.157,256,149.157s105.391,47.185,105.391,105.391S314.206,359.939,256,359.939z"/>
		<ellipse style="fill:#5C576E;" cx="256" cy="71.637" rx="14.356" ry="16.064"/>
	</g>
	<g>
		<path d="M104.346,254.539c0,83.622,68.031,151.654,151.654,151.654s151.654-68.032,151.654-151.654S339.622,102.886,256,102.886
			S104.346,170.917,104.346,254.539z M256,117.885c75.352,0,136.654,61.303,136.654,136.654
			c0,75.351-61.303,136.655-136.654,136.655S119.346,329.89,119.346,254.539C119.346,179.188,180.648,117.885,256,117.885z"/>
		<path d="M256,367.426c62.246,0,112.887-50.641,112.887-112.887c0-62.246-50.641-112.887-112.887-112.887
			c-62.246,0-112.887,50.641-112.887,112.887C143.113,316.785,193.754,367.426,256,367.426z M256,156.652
			c53.975,0,97.887,43.912,97.887,97.887c0,53.976-43.912,97.888-97.887,97.888c-53.976,0-97.888-43.912-97.888-97.888
			C158.112,200.564,202.024,156.652,256,156.652z"/>
		<path d="M179.832,284.109h52.738l16.297,50.158c2.24,6.893,12.028,6.886,14.265,0l16.297-50.158h52.738
			c3.249,0,6.129-2.092,7.133-5.182c1.004-3.09-0.096-6.475-2.725-8.385l-42.666-30.999l16.297-50.157
			c2.24-6.892-5.682-12.642-11.541-8.385L256,212l-42.667-30.999c-5.862-4.26-13.779,1.497-11.541,8.385l16.297,50.157
			l-42.666,30.999C169.56,274.803,172.589,284.109,179.832,284.109z M256,230.541l20.277,14.732l-7.745,23.837h-25.064
			l-7.745-23.837L256,230.541z M256,307.679l-7.658-23.57h15.317L256,307.679z M309.086,269.11h-24.783l4.733-14.567L309.086,269.11
			z M281.151,230.273l-12.391-9.003l20.049-14.567L281.151,230.273z M243.241,221.27l-12.392,9.003l-7.658-23.57L243.241,221.27z
			 M222.964,254.543l4.733,14.567h-24.783L222.964,254.543z"/>
		<path d="M194.728,62.194v-10.49c0-4.142-3.358-7.5-7.5-7.5s-7.5,3.358-7.5,7.5v10.49c0,4.141,3.358,7.5,7.5,7.5
			S194.728,66.335,194.728,62.194z"/>
		<path d="M277.855,71.635c0-12.993-9.804-23.564-21.855-23.564s-21.855,10.57-21.855,23.564c0,12.993,9.804,23.564,21.855,23.564
			S277.855,84.628,277.855,71.635z M249.144,71.635c0-4.642,3.14-8.564,6.856-8.564s6.856,3.922,6.856,8.564
			c0,4.642-3.14,8.564-6.856,8.564S249.144,76.277,249.144,71.635z"/>
		<path d="M332.272,62.194v-10.49c0-4.142-3.358-7.5-7.5-7.5c-4.142,0-7.5,3.358-7.5,7.5v10.49c0,4.141,3.358,7.5,7.5,7.5
			C328.914,69.693,332.272,66.335,332.272,62.194z"/>
		<path d="M202.728,509.611l17.133-10.333c0.499-0.3,1.117-0.301,1.617,0.001l17.133,10.332
			c10.977,6.618,24.889-1.309,24.889-14.056v-56.117h82.332c2.919,10.022,12.182,17.37,23.134,17.37h67.579
			c16.719,0,30.32-13.602,30.32-30.32v-67.579c0-10.669-6.972-19.734-16.597-22.895V186.505c0-4.142-3.358-7.5-7.5-7.5
			c-4.142,0-7.5,3.358-7.5,7.5v149.15c-14.465,3.324-25.372,15.943-26.101,31.178c-0.075,1.588-0.026,0.775-0.041,19.733
			c0,6.876-5.592,12.503-12.503,12.503h-18.112c-15.581,0-28.92,10.481-32.624,25.369c-23.929,0-150.836,0-179.773,0
			c-3.512-14.116-15.793-24.565-30.983-25.328c-1.603-0.075-0.645-0.025-19.753-0.042c-6.894,0-12.503-5.609-12.503-12.503v-18.112
			c0-15.737-10.982-29.34-26.142-32.799v-47.368c0-4.142-3.358-7.5-7.5-7.5s-7.5,3.358-7.5,7.5v47.726
			c-9.625,3.161-16.597,12.227-16.597,22.896v67.579c0,16.718,13.602,30.32,30.32,30.32h67.579c10.952,0,20.214-7.347,23.134-17.37
			h11.67v56.117C177.839,508.328,191.778,516.214,202.728,509.611z M396.623,414.07c13.743,0,25.164-10.133,27.185-23.32
			c0.541-3.531,0.227-4.746,0.317-22.295c0-10.276,8.36-18.642,18.642-18.642c5.016,0,9.097,4.081,9.097,9.097v67.579
			c0,8.448-6.873,15.321-15.321,15.321h-67.579c-5.223,0-10.107-4.276-8.831-12.109c1.42-8.868,9.142-15.63,18.376-15.63
			C389.723,414.07,385.41,414.07,396.623,414.07z M248.5,439.439c-0.249,58.889,0.64,56.58-0.719,57.348
			c-1.301,0.735-0.658,0.162-18.557-10.351c-5.276-3.183-11.832-3.184-17.109-0.001l-17.133,10.332
			c-0.954,0.575-2.144-0.102-2.144-1.21v-56.117H248.5z M143.035,441.809H75.456c-8.448,0-15.321-6.873-15.321-15.321v-67.579
			c0-5.016,4.081-9.097,9.097-9.097c10.279,0,18.642,8.363,18.642,18.642v18.112c0,15.165,12.338,27.503,27.503,27.503
			c11.213,0,6.9,0,18.113,0c10.359,0,18.642,8.458,18.642,18.642C152.131,437.728,148.05,441.809,143.035,441.809z"/>
		<path d="M466.865,30.32c0-16.719-13.602-30.32-30.32-30.32h-67.579c-10.952,0-20.215,7.347-23.134,17.37H166.168
			C163.249,7.347,153.986,0,143.035,0H75.456c-16.719,0-30.32,13.602-30.32,30.32v67.579c0,10.669,6.972,19.735,16.597,22.895
			v137.661c0,4.142,3.358,7.5,7.5,7.5s7.5-3.358,7.5-7.5V121.153c10.375-2.359,19.32-9.733,23.554-19.871
			c3.319-7.945,2.573-13.14,2.587-31.04c0-6.894,5.609-12.503,12.503-12.503c17.564-0.064,18.406,0.146,21.671-0.19
			c14.195-1.467,25.688-11.607,29.065-25.179h179.773c3.719,14.949,17.107,25.369,32.624,25.369h18.113
			c6.869,0,12.503,5.584,12.503,12.503v18.113l0,0c0,15.946,11.203,29.398,26.142,32.799v36.325c0,4.142,3.358,7.5,7.5,7.5
			c4.142,0,7.5-3.358,7.5-7.5v-36.683c9.625-3.161,16.597-12.227,16.597-22.895V30.32z M60.135,30.32
			C60.135,21.872,67.008,15,75.456,15h67.579c5.016,0,9.097,4.081,9.097,9.097c0,10.21-8.309,18.642-18.642,18.642h-18.113
			c-15.165,0-27.503,12.338-27.503,27.503v18.113c0,10.279-8.363,18.642-18.642,18.642c-5.016,0-9.097-4.081-9.097-9.097V30.32z
			 M451.865,97.899c0,5.016-4.081,9.097-9.097,9.097c-8.681,0-15.975-5.974-18.04-14.025c-1.172-4.576-0.314-8.16-0.602-22.73l0,0
			c0-11.374-6.94-21.157-16.808-25.338c-8.107-3.434-13.683-1.708-28.808-2.165c-10.318,0-18.642-8.414-18.642-18.642
			c0-5.016,4.081-9.097,9.097-9.097h67.579c8.448,0,15.321,6.873,15.321,15.321V97.899z"/>
	</g>
</g>
<g>
</g>
<g>
</g>
<g>
</g>
<g>
</g>
<g>
</g>
<g>
</g>
<g>
</g>
<g>
</g>
<g>
</g>
<g>
</g>
<g>
</g>
<g>
</g>
<g>
</g>
<g>
</g>
<g>
</g>
</svg>
