<?xml version="1.0" encoding="iso-8859-1"?>
<!-- Generator: Adobe Illustrator 23.0.3, SVG Export Plug-In . SVG Version: 6.00 Build 0)  -->
<svg version="1.1" id="Capa_1" xmlns="http://www.w3.org/2000/svg" xmlns:xlink="http://www.w3.org/1999/xlink" x="0px" y="0px"
	 viewBox="0 0 512 512" style="enable-background:new 0 0 512 512;" xml:space="preserve">
<g>
	<g>
		<path style="fill:#996ACC;" d="M262.127,7.5L262.127,7.5C157.13,7.5,72.012,92.617,72.012,197.614v274.411h380.229V197.614
			C452.241,92.617,367.124,7.5,262.127,7.5z"/>
		<path style="fill:#C8C6CC;" d="M123.174,472.025V197.614c0-76.619,62.334-138.953,138.953-138.953S401.08,120.995,401.08,197.614
			v274.411H123.174z"/>
		<path style="fill:#A29DAE;" d="M277.127,59.474c-4.929-0.532-9.932-0.812-15-0.812c-76.619,0-138.953,62.334-138.953,138.953
			v274.411h30V197.614C153.174,126.063,207.537,66.978,277.127,59.474z"/>
		<g>
			<ellipse style="fill:#FFA1AC;" cx="180.722" cy="180.358" rx="30.037" ry="23.92"/>
			<ellipse style="fill:#FFA1AC;" cx="343.532" cy="180.358" rx="30.037" ry="23.92"/>
		</g>
		<path style="fill:#996ACC;" d="M315.319,252.851h-24.379c-4.209,0-7.621-3.412-7.621-7.621v-27.789
			c0-4.209-3.412-7.621-7.621-7.621h-27.144c-4.209,0-7.621,3.412-7.621,7.621v27.789c0,4.209-3.412,7.621-7.621,7.621h-24.379
			c-4.209,0-7.621,3.412-7.621,7.621v27.144c0,4.209,3.412,7.621,7.621,7.621h24.379c4.209,0,7.621,3.412,7.621,7.621v66.671
			c0,4.209,3.412,7.621,7.621,7.621h27.144c4.209,0,7.621-3.412,7.621-7.621v-66.671c0-4.209,3.412-7.621,7.621-7.621h24.379
			c4.209,0,7.621-3.412,7.621-7.621v-27.144C322.94,256.263,319.528,252.851,315.319,252.851z"/>
		<path style="fill:#FF9C86;" d="M446.541,419.117c-0.594-0.021-1.191-0.031-1.79-0.031c-16.856,0-31.78,8.27-40.937,20.973
			c-3.047,4.227-9.455,4.227-12.502,0c-9.157-12.704-24.081-20.973-40.937-20.973s-31.78,8.27-40.937,20.973
			c-3.047,4.227-9.455,4.227-12.502,0c-9.157-12.704-24.081-20.973-40.937-20.973c-16.856,0-31.78,8.27-40.937,20.973
			c-3.047,4.227-9.455,4.227-12.502,0c-9.157-12.704-24.081-20.973-40.937-20.973s-31.78,8.27-40.937,20.973
			c-3.047,4.227-9.455,4.227-12.502,0c-9.157-12.704-24.081-20.973-40.937-20.973c-0.599,0-1.196,0.01-1.79,0.031
			c-25.466,0.889-45.397,22.353-45.397,47.835v0c0,20.737,16.811,37.548,37.548,37.548h396.781
			c20.737,0,37.548-16.811,37.548-37.548v0C491.939,441.47,472.008,420.005,446.541,419.117z"/>
		<path style="fill:#F86745;" d="M50.061,466.952L50.061,466.952c0-20.967,13.499-39.203,32.467-45.506
			c-4.82-1.53-9.952-2.361-15.279-2.361c-0.599,0-1.196,0.01-1.79,0.031c-25.466,0.889-45.397,22.354-45.397,47.835l0,0
			c0,20.737,16.811,37.548,37.548,37.548h30C66.872,504.5,50.061,487.689,50.061,466.952z"/>
	</g>
	<g>
		<path d="M205.728,157.332v-12.278c0-4.143-3.358-7.5-7.5-7.5s-7.5,3.357-7.5,7.5v12.278c0,4.143,3.358,7.5,7.5,7.5
			S205.728,161.475,205.728,157.332z"/>
		<path d="M333.526,157.332v-12.278c0-4.143-3.358-7.5-7.5-7.5s-7.5,3.357-7.5,7.5v12.278c0,4.143,3.358,7.5,7.5,7.5
			S333.526,161.475,333.526,157.332z"/>
		<path d="M284.628,161.895c2.722-3.122,2.396-7.86-0.726-10.582c-3.122-2.722-7.86-2.397-10.582,0.726
			c-5.919,6.79-16.45,6.811-22.385,0c-2.722-3.123-7.459-3.448-10.582-0.727c-3.123,2.722-3.448,7.459-0.727,10.582
			C251.534,175.558,272.732,175.543,284.628,161.895z"/>
		<path d="M248.555,384.649h27.144c8.337,0,15.121-6.783,15.121-15.121v-66.671c0-0.238-1.295-0.064,24.5-0.121
			c8.337,0,15.121-6.783,15.121-15.121v-27.144c0-8.338-6.783-15.121-15.121-15.121h-24.379c-0.24,0-0.064,1.556-0.121-27.909
			c0-8.338-6.783-15.121-15.121-15.121h-27.144c-8.337,0-15.121,6.783-15.121,15.121v27.789c0,0.238,1.296,0.064-24.5,0.121
			c-8.338,0-15.121,6.783-15.121,15.121v27.144c0,8.338,6.783,15.121,15.121,15.121h24.379c0.239,0,0.064-2.598,0.121,66.792
			C233.434,377.866,240.218,384.649,248.555,384.649z M233.314,287.736h-24.379c-0.24,0-0.064,1.57-0.121-27.265
			c0-0.066,0.054-0.121,0.121-0.121h24.379c8.337,0,15.121-6.783,15.121-15.121c0.057-29.524-0.115-27.91,0.121-27.91
			c28.741,0.058,27.265-0.12,27.265,0.121v27.789c0,8.337,6.783,15.121,15.121,15.121h24.379c0.239,0,0.063-1.57,0.121,27.265
			c0,0.066-0.054,0.121-0.121,0.121h-24.379c-8.338,0-15.121,6.783-15.121,15.121c-0.057,69.766,0.12,66.792-0.121,66.792
			c-28.741-0.058-27.265,0.12-27.265-0.121v-66.671C248.434,294.52,241.651,287.736,233.314,287.736z"/>
		<path d="M140.129,61.742c3.081-2.769,3.334-7.511,0.566-10.592c-2.769-3.082-7.511-3.334-10.591-0.566
			c-41.684,37.453-65.59,91.044-65.59,147.03v214.047c-29.299,1.392-51.952,26.073-51.952,55.291
			C12.561,491.792,32.77,512,57.61,512h396.781c24.839,0,45.048-20.209,45.048-45.048c0-25.271-16.847-46.746-39.697-53.289V197.614
			C459.742,88.649,371.093,0,262.127,0c-38.124,0-75.136,10.885-107.037,31.479c-3.48,2.246-4.479,6.889-2.233,10.369
			c2.247,3.48,6.889,4.479,10.369,2.233C192.697,25.056,226.896,15,262.127,15c100.694,0,182.615,81.92,182.615,182.614v213.971
			c-12.531,0-25.45,4.18-36.162,12.73v-90.692c0-4.142-3.358-7.5-7.5-7.5s-7.5,3.358-7.5,7.5v97.305
			c-24.808-27.751-68.731-25.076-90.226,4.745c-0.004,0.006-0.016,0.017-0.032,0.027c-0.066,0.042-0.247,0.044-0.301-0.027
			c-15.814-21.94-45.051-30.31-70.347-19.162c-16.438,7.244-23.134,18.817-23.728,19.189c-0.067,0.042-0.249,0.043-0.3-0.027
			c-17.839-24.747-52.047-31.541-77.972-15.116V197.614c0-72.483,58.97-131.453,131.453-131.453s131.453,58.97,131.453,131.453
			v106.125c0,4.142,3.358,7.5,7.5,7.5s7.5-3.358,7.5-7.5V197.614c0-80.754-65.699-146.453-146.453-146.453
			S115.674,116.86,115.674,197.614v236.664c-0.357,0.465-0.727,0.918-1.071,1.395c-0.005,0.007-0.015,0.021-0.039,0.033
			c-0.44,0.209-0.618-0.91-4.379-5.058c-8.263-9.122-19.145-15.257-30.672-17.736V197.614
			C79.513,145.878,101.607,96.354,140.129,61.742z M484.439,466.952c0,16.568-13.479,30.048-30.048,30.048H57.61
			c-16.569,0-30.048-13.479-30.048-30.048c0-21.714,17.847-42.201,43.751-40.153c12.48,1.174,23.688,7.8,30.79,17.646
			c6.03,8.367,18.637,8.37,24.671,0c17.153-23.803,52.586-23.748,69.705,0c6.099,8.462,18.71,8.266,24.67,0
			c17.138-23.777,52.56-23.786,69.705,0c4.738,6.572,13.973,8.29,20.81,3.717l0,0c1.446-0.964,2.824-2.279,3.86-3.717
			c17.139-23.777,52.561-23.786,69.706,0c5.979,8.289,18.627,8.382,24.67,0c9.539-13.233,25.724-19.748,40.954-17.383
			C469.744,430.039,484.439,447.025,484.439,466.952z"/>
	</g>
</g>
<g>
</g>
<g>
</g>
<g>
</g>
<g>
</g>
<g>
</g>
<g>
</g>
<g>
</g>
<g>
</g>
<g>
</g>
<g>
</g>
<g>
</g>
<g>
</g>
<g>
</g>
<g>
</g>
<g>
</g>
</svg>
