<?xml version="1.0" encoding="iso-8859-1"?>
<!-- Generator: Adobe Illustrator 23.0.3, SVG Export Plug-In . SVG Version: 6.00 Build 0)  -->
<svg version="1.1" id="Capa_1" xmlns="http://www.w3.org/2000/svg" xmlns:xlink="http://www.w3.org/1999/xlink" x="0px" y="0px"
	 viewBox="0 0 512 512" style="enable-background:new 0 0 512 512;" xml:space="preserve">
<g>
	<g>
		<path style="fill:#80E0B7;" d="M388.32,504.5H256l-27.935-49.47L256,389.845l85.634,27.298
			C341.634,417.143,388.32,448.396,388.32,504.5z"/>
		<path style="fill:#FD5C6F;" d="M156.09,35.891c-10.912-19.297-35.401-26.095-54.698-15.183
			c-14.342,8.11-21.77,23.718-20.164,39.121c0.199,1.911-1.321,3.532-3.243,3.53c-0.013,0-0.026,0-0.039,0
			c-22.169,0-40.14,17.971-40.14,40.14c0,7.213,1.909,13.978,5.242,19.826c0.942,1.654,0.259,3.76-1.486,4.519
			c-14.979,6.517-25.21,21.897-24.053,39.523c1.303,19.847,17.356,35.961,37.198,37.332c23.459,1.621,42.992-16.929,42.992-40.041
			L156.09,35.891z"/>
		<path style="fill:#FD5C6F;" d="M355.91,35.891c10.912-19.297,35.401-26.095,54.698-15.183c14.342,8.11,21.77,23.718,20.164,39.121
			c-0.199,1.911,1.321,3.532,3.243,3.53c0.013,0,0.026,0,0.039,0c22.169,0,40.14,17.971,40.14,40.14
			c0,7.213-1.909,13.978-5.242,19.826c-0.942,1.654-0.259,3.76,1.486,4.519c14.979,6.517,25.21,21.897,24.053,39.523
			c-1.303,19.847-17.356,35.961-37.198,37.332c-23.459,1.621-42.992-16.929-42.992-40.041L355.91,35.891z"/>
		<path style="fill:#996ACC;" d="M256,389.845V504.5H123.68c0-56.104,46.686-87.357,46.686-87.357L256,389.845z"/>
		<path style="fill:#6D36AB;" d="M170.366,417.143c0,0-46.686,31.253-46.686,87.357h30c0-56.104,46.686-87.357,46.686-87.357
			H170.366z"/>
		<circle style="fill:#B7B5BD;" cx="445.052" cy="210.986" r="52.746"/>
		<circle style="fill:#DADADA;" cx="256" cy="198.673" r="191.173"/>
		<path style="fill:#B7B5BD;" d="M94.827,198.672C94.827,98.139,172.43,15.734,271,8.083c-4.95-0.384-9.952-0.583-15-0.583
			c-91.728,0-168.353,64.608-186.886,150.796c-0.707-0.031-1.42-0.056-2.166-0.056c-29.131,0-52.746,23.615-52.746,52.746
			c0,29.131,23.615,52.746,52.746,52.746c3.369,0,6.313-0.329,8.915-0.933C102.221,336.837,172.915,389.845,256,389.845
			c5.048,0,10.05-0.199,15-0.583C172.43,381.611,94.827,299.206,94.827,198.672z"/>
		<circle style="fill:#FD5C6F;" cx="256" cy="219.059" r="37.851"/>
		<g>
			<ellipse style="fill:#FFA1AC;" cx="148.625" cy="239.915" rx="39.619" ry="31.551"/>
			<ellipse style="fill:#FFA1AC;" cx="363.375" cy="239.915" rx="39.619" ry="31.551"/>
		</g>
		<circle style="fill:#F9475E;" cx="256" cy="462.621" r="18.381"/>
		<path style="fill:#F9475E;" d="M276.202,411.286c0,0,68.364,70.465,68.364-21.44s-68.364-21.44-68.364-21.44V411.286z"/>
		<path style="fill:#F9475E;" d="M235.798,411.286c0,0-68.364,70.465-68.364-21.44s68.364-21.44,68.364-21.44V411.286z"/>
		<path style="fill:#E92740;" d="M200.387,389.845c0,14.704,6.108,28.001,15.91,37.512c11.003-7.314,19.5-16.072,19.5-16.072
			v-42.881c0,0-8.498-8.758-19.5-16.072C206.496,361.844,200.387,375.141,200.387,389.845z"/>
		<path style="fill:#E92740;" d="M276.202,368.405v42.881c0,0,8.498,8.758,19.5,16.072c9.802-9.511,15.91-22.808,15.91-37.512
			s-6.108-28.001-15.91-37.512C284.7,359.647,276.202,368.405,276.202,368.405z"/>
		<path style="fill:#FD5C6F;" d="M259.311,362.544h-6.623c-15.078,0-27.301,12.223-27.301,27.301v0
			c0,15.078,12.223,27.301,27.301,27.301h6.623c15.078,0,27.301-12.223,27.301-27.301v0
			C286.613,374.767,274.389,362.544,259.311,362.544z"/>
	</g>
	<g>
		<path d="M256.01,173.708c-25.007,0-45.351,20.345-45.351,45.351s20.344,45.351,45.351,45.351
			c25.006,0,45.351-20.344,45.351-45.351S281.016,173.708,256.01,173.708z M256.01,249.41c-16.736,0-30.351-13.615-30.351-30.351
			c0-16.736,13.615-30.351,30.351-30.351c16.735,0,30.351,13.615,30.351,30.351C286.361,235.795,272.745,249.41,256.01,249.41z"/>
		<path d="M283.158,275.779c-3.123-2.721-7.86-2.396-10.582,0.727c-8.774,10.068-24.37,10.057-33.134,0
			c-2.722-3.123-7.459-3.448-10.582-0.727c-3.123,2.721-3.448,7.459-0.727,10.581c14.754,16.929,41.014,16.91,55.751,0
			C286.607,283.238,286.281,278.5,283.158,275.779z"/>
		<path d="M189.622,180.349l-32.48-8.703c-4.002-1.072-8.113,1.303-9.186,5.303c-1.072,4.001,1.303,8.114,5.304,9.186l12.784,3.426
			c-1.131,1.313-1.82,3.019-1.82,4.889v13.991c0,4.143,3.358,7.5,7.5,7.5s7.5-3.357,7.5-7.5
			c-0.046-13.969,0.117-14.049-0.134-15.384l6.649,1.781c3.992,1.073,8.113-1.297,9.186-5.303
			C195.997,185.534,193.623,181.421,189.622,180.349z"/>
		<path d="M354.877,171.646l-32.479,8.703c-4.001,1.072-6.375,5.185-5.304,9.186c1.076,4.016,5.205,6.373,9.186,5.303l6.65-1.781
			c-0.24,1.271-0.087,0.788-0.134,15.384c0,4.143,3.357,7.5,7.5,7.5c4.142,0,7.5-3.357,7.5-7.5v-13.991
			c0-1.87-0.688-3.576-1.82-4.889l12.785-3.426c4.001-1.072,6.375-5.185,5.303-9.186C362.99,172.949,358.88,170.572,354.877,171.646
			z"/>
		<path d="M498.391,183.004c9.437-22.379,0.211-48.32-20.856-60.017c13.385-29.843-6.725-63.902-39.037-66.921
			c0.153-17.206-9.011-33.306-24.188-41.888C393.78,2.571,368.12,7.945,353.766,25.769C324.885,9.376,291.524,0,256.01,0
			c-34.819,0-68.393,9.102-97.79,25.729C143.859,7.938,118.223,2.58,97.71,14.179c-15.176,8.582-24.34,24.679-24.188,41.884
			c-32.273,2.992-52.433,37.062-39.037,66.925c-21.052,11.689-30.302,37.622-20.856,60.017
			C-8.2,224.44,24.034,274.274,70.966,271.081c4.429,11.323,9.904,22.259,16.397,32.66c18.15,29.074,43.479,52.943,73.459,69.336
			c-1.359,11.815-1.281,28.628,1.135,40.982c-12.144,9.603-45.767,40.685-45.767,90.44c0,4.142,3.357,7.5,7.5,7.5
			c7.461,0,257.178,0,264.64,0c4.143,0,7.5-3.358,7.5-7.5c0-11.65-1.901-23.163-5.651-34.219c-1.33-3.922-5.588-6.023-9.511-4.693
			c-3.922,1.33-6.024,5.589-4.694,9.512c2.415,7.119,3.938,14.458,4.549,21.901H263.51v-9.606c24.81-7.551,24.036-42.23,0-49.545
			V424.4c3.951-0.471,7.994-1.656,11.779-3.623c9.789,8.565,19.714,16.629,32.348,21.227c17.639,6.326,30.43,0.553,37.335-12.606
			c5.097,4.539,12.058,11.591,18.51,20.992c2.344,3.415,7.014,4.283,10.428,1.939c3.415-2.344,4.284-7.013,1.939-10.428
			c-9.54-13.9-20.074-23.278-25.79-27.825c2.405-12.285,2.505-29.113,1.138-40.999c39.646-21.678,72.319-57.164,89.856-101.997
			C488.196,274.287,520.112,224.236,498.391,183.004z M406.926,27.236c11.309,6.396,17.745,18.884,16.396,31.815
			c-0.313,3.004,0.667,6.013,2.69,8.255c3.456,3.83,8.151,3.574,8.051,3.552c25.138,0,40.628,27.263,28.382,48.752
			c-3.15,5.526-0.822,12.575,5.01,15.11c12.873,5.602,20.763,18.943,19.5,32.938c-10.274-9.985-23.718-15.908-38.084-16.8
			c-11.741-47.434-41.254-89.634-82.163-117.164C376.734,22.676,393.446,19.613,406.926,27.236z M65.812,256.217
			c-24.422-0.608-44.101-20.665-44.101-45.231c0-22.312,16.376-41.295,38.239-44.688C54.81,197.736,57.48,228.67,65.812,256.217z
			 M187.499,350.578c10.829-3.284,29.2,10.591,37.622,18.03c-4.841,6.256-7.225,13.778-7.225,21.237l0,0l0,0
			c0.103,0.469-0.618,11.082,7.204,21.212c-8.503,7.527-26.602,21.31-37.496,18.084c-14.514-4.214-13.766-44.005-11.244-58.865
			C177.665,363.032,180.429,352.779,187.499,350.578z M259.322,370.044c13.01,0,22.934,12.671,18.896,25.719
			c-2.187,6.968-8.086,12.163-15.119,13.512c-2.691,0.523-4.119,0.342-10.4,0.372c-9.691,0-17.684-7.021-19.416-15.931
			c-1.549-7.79,1.672-15.808,8.406-20.318C247.864,369.252,253.536,370.044,259.322,370.044z M324.612,350.606
			c15.079,4.753,13.932,49.189,9.792,64.568c-1.88,6.914-5.2,13.849-12.369,14.391c-10.861,0.815-26.977-11.276-35.136-18.482
			c9.636-12.457,9.615-30.019,0.02-42.448C295.426,361.106,313.778,347.185,324.612,350.606z M259.608,472.877
			c-7.135,2.513-14.479-2.84-14.479-10.256c0-6.433,5.582-11.475,11.992-10.824C268.479,452.954,270.683,468.98,259.608,472.877z
			 M167.066,429.435c3.725,7.08,9.007,11.428,13.992,13.303c18.682,7.497,40.585-8.758,55.673-21.96
			c3.766,1.957,7.808,3.15,11.78,3.623v13.448c-23.951,7.134-24.91,42.073,0,49.546V497H131.499
			C134.301,463.156,155.496,439.805,167.066,429.435z M348.033,357.667c-7.756-23.958-27.099-27.91-49.175-15.984
			c-9.856,5.273-18.524,12.542-23.6,17.215c-8.57-4.432-15.405-3.857-22.56-3.853c-5.334,0-10.957,1.269-15.937,3.853
			c-16.059-14.784-41.799-31.74-59.988-19.708c-5.744,3.73-9.997,9.854-12.788,18.477c-25.966-15.058-47.932-36.292-63.899-61.869
			c-32.904-52.707-36.85-119.053-10.263-175.4c1.548-3.279,0.511-7.113-2.284-9.204c-3.783-2.836-9.251-1.52-11.288,2.797
			c-5.631,11.932-10.005,24.247-13.129,36.869c-13.819,0.864-27.415,6.453-38.06,16.799c-1.259-13.985,6.616-27.332,19.501-32.938
			c5.831-2.536,8.159-9.586,5.01-15.109c-12.306-21.596,3.335-48.753,28.412-48.753c6.191,0.061,11.386-5.345,10.712-11.807
			c-1.349-12.932,5.087-25.42,16.396-31.815c13.481-7.623,30.193-4.56,40.217,6.46c-21.39,14.404-39.66,32.68-53.855,53.625
			c-2.66,3.922-1.06,9.314,3.342,11.141c3.222,1.343,7.052,0.284,9.087-2.718c13.559-19.999,31.395-37.601,51.914-51.005
			C185.196,25.595,219.88,15,256.01,15c124.338,0,213.432,121.701,174.64,240.664C416.808,298.147,387.572,334.738,348.033,357.667z
			 M446.207,256.217c9.012-29.798,10.616-60.755,5.834-89.923c21.853,3.356,38.266,22.364,38.266,44.692
			C490.308,235.553,470.63,255.609,446.207,256.217z"/>
	</g>
</g>
<g>
</g>
<g>
</g>
<g>
</g>
<g>
</g>
<g>
</g>
<g>
</g>
<g>
</g>
<g>
</g>
<g>
</g>
<g>
</g>
<g>
</g>
<g>
</g>
<g>
</g>
<g>
</g>
<g>
</g>
</svg>
