<?xml version="1.0" encoding="iso-8859-1"?>
<!-- Generator: Adobe Illustrator 23.0.3, SVG Export Plug-In . SVG Version: 6.00 Build 0)  -->
<svg version="1.1" id="Capa_1" xmlns="http://www.w3.org/2000/svg" xmlns:xlink="http://www.w3.org/1999/xlink" x="0px" y="0px"
	 viewBox="0 0 512 512" style="enable-background:new 0 0 512 512;" xml:space="preserve">
<g>
	<g>
		<path style="fill:#5B586E;" d="M408.918,388.897L256,424.407l-152.918-35.51c8.995-29.347,19.96-55.786,30.806-78.315h261.353
			C403.429,335.932,408.918,362.687,408.918,388.897z"/>
		<path style="fill:#434050;" d="M133.082,388.897c8.995-29.347,19.96-55.786,30.806-78.315h-30
			c-10.846,22.53-21.811,48.969-30.806,78.315L256,424.407l15-3.483L133.082,388.897z"/>
		<path style="fill:#8C67CB;" d="M168.734,248.317c7.742-11.935,8.308-27.158,1.535-39.659c-3.18-5.869-4.704-12.24-4.704-18.523
			c0-12.403,5.924-24.512,16.759-32.014l44.624-30.936c12.436-8.624,17.009-24.838,10.922-38.679l-16.258-36.98
			c-7.677-17.488,5.129-37.111,24.218-37.111c3.267,0,6.49,0.61,9.495,1.764s5.793,2.853,8.221,5.053l81.68,73.655
			c16.366,14.755,17.031,40.214,1.448,55.796l-10.378,10.377c-7.176,7.176-8.254,18.425-2.57,26.831
			c15.267,22.563,44.33,69.517,61.513,122.689H133.888C146.857,283.652,159.652,262.31,168.734,248.317z"/>
		<path style="fill:#6134AA;" d="M200.269,208.658c-3.18-5.869-4.704-12.239-4.704-18.522c0-12.403,5.924-24.512,16.759-32.014
			l44.624-30.937c12.435-8.625,17.009-24.838,10.922-38.679l-16.258-36.98c-5.385-12.267-0.684-25.575,9.187-32.433
			c-1.714-1.181-3.542-2.171-5.474-2.913c-3.005-1.154-6.229-1.764-9.495-1.764c-19.089,0-31.895,19.623-24.218,37.11l16.258,36.98
			c6.087,13.84,1.514,30.054-10.922,38.679l-44.624,30.937c-10.835,7.502-16.759,19.611-16.759,32.014
			c0,6.283,1.524,12.653,4.704,18.522c6.773,12.501,6.207,27.724-1.535,39.659c-9.082,13.993-21.876,35.335-34.846,62.265h30
			c12.969-26.929,25.764-48.272,34.846-62.265C206.476,236.382,207.042,221.159,200.269,208.658z"/>
		<path style="fill:#EFD16F;" d="M290.929,291.083h-69.859c-14.353,0-25.988,11.635-25.988,25.988v93.607h121.834v-93.607
			C316.917,302.719,305.282,291.083,290.929,291.083z"/>
		<rect x="227.751" y="323.751" style="fill:#5B586E;" width="56.499" height="86.927"/>
		<path style="fill:#8C67CB;" d="M502.535,472.909c-33.545-63.415-93.615-84.01-93.615-84.01H103.08c0,0-60.07,20.596-93.615,84.01
			c-5.922,11.195,2.262,24.675,14.927,24.675h463.216C500.273,497.584,508.457,484.105,502.535,472.909z"/>
		<path style="fill:#6134AA;" d="M39.465,472.91c33.545-63.415,93.615-84.01,93.615-84.01h-30c0,0-60.07,20.596-93.615,84.01
			c-5.922,11.195,2.262,24.674,14.927,24.674h30C41.727,497.584,33.543,484.105,39.465,472.91z"/>
	</g>
	<g>
		<path d="M509.155,469.394c-29.234-55.265-77.216-79.1-92.816-85.65c-1.26-48.288-19.767-98.57-41.711-141.391
			c-1.89-3.686-6.409-5.142-10.095-3.254c-3.686,1.889-5.143,6.408-3.254,10.094c9.423,18.389,17.304,36.469,23.493,53.886h-63.406
			c-3.965-8.644-11.682-15.468-21.246-18.204c-6.477-1.851-5.059-1.259-79.047-1.293c-13.373,0-25.136,7.957-30.437,19.497h-44.669
			c11.163-22.006,21.742-39.403,29.062-50.68c9.233-14.233,9.938-32.362,1.838-47.311c-7.693-14.2-3.333-31.752,9.732-40.799
			l44.624-30.936c15.346-10.643,21.028-30.771,13.513-47.858L228.481,48.52c-5.511-12.554,3.644-26.594,17.349-26.594
			c4.585,0,9.142,1.67,12.694,4.887l81.677,73.653c13.193,11.894,13.726,32.362,1.167,44.92l-10.377,10.377
			c-9.696,9.695-11.16,24.976-3.478,36.336c6.729,9.944,13.349,20.494,19.675,31.356c2.085,3.58,6.676,4.79,10.255,2.706
			c3.579-2.084,4.791-6.676,2.706-10.255c-6.496-11.153-13.297-21.991-20.213-32.212c-3.661-5.416-2.963-12.703,1.661-17.326
			l10.377-10.377c18.604-18.604,17.884-48.985-1.729-66.667l-81.664-73.64c-6.287-5.695-14.435-8.758-22.751-8.758
			c-24.493,0-40.931,25.191-31.082,47.626l16.257,36.98c4.632,10.531,1.128,22.935-8.329,29.494l-44.619,30.933
			c-19.351,13.399-25.712,39.352-14.378,60.273c5.482,10.118,5.009,22.38-1.232,32.002c-26.589,40.967-49.956,89.745-65.417,138.957
			c-5.328,2.179-16.031,7.031-28.93,15.425c-3.472,2.259-4.455,6.904-2.196,10.376c2.259,3.472,6.905,4.454,10.377,2.195
			c13.696-8.912,24.742-13.482,28.15-14.795c101.299,0,215.022,0,303.132,0c8.093,3.141,59.094,24.739,88.333,80.014
			c3.281,6.202-1.247,13.667-8.297,13.667H24.402c-7.045,0-11.58-7.46-8.297-13.667c9.384-17.74,21.873-33.718,37.117-47.49
			c3.074-2.777,3.315-7.519,0.538-10.592s-7.519-3.315-10.593-0.538c-16.549,14.949-30.115,32.312-40.322,51.607
			c-8.57,16.2,3.249,35.68,21.555,35.68h463.197C505.932,505.073,517.713,485.571,509.155,469.394z M187.587,381.392h-74.248
			c6.948-21.162,15.432-42.402,25.29-63.313h48.958V381.392z M276.749,381.394h-41.497v-50.146h41.497V381.394z M309.416,381.394
			h-17.667v-57.646c0-4.142-3.358-7.5-7.5-7.5h-56.496c-4.142,0-7.5,3.357-7.5,7.5v57.646h-17.667
			c0.036-67.848-0.622-66.51,1.414-71.402c2.584-6.263,8.495-10.668,15.326-11.322c1.31-0.123,71.906-0.182,73.895,0.069
			c9.179,1.145,16.195,8.957,16.195,18.329V381.394z M324.415,381.392v-63.313h65.316c6.867,22.491,10.733,43.732,11.527,63.313
			H324.415z"/>
		<path d="M285.035,461.974c2.721-3.123,2.396-7.86-0.727-10.582c-3.122-2.721-7.86-2.396-10.581,0.727
			c-9.389,10.773-26.075,10.76-35.453,0c-2.721-3.122-7.459-3.448-10.581-0.727c-3.123,2.722-3.448,7.459-0.727,10.582
			C242.331,479.606,269.685,479.589,285.035,461.974z"/>
		<path d="M191.352,436.401c1.072-4.001-1.302-8.113-5.303-9.185l-34.174-9.157c-3.999-1.071-8.113,1.302-9.186,5.303
			c-1.072,4.001,1.302,8.113,5.303,9.185l14.079,3.773c-1.389,1.361-2.253,3.256-2.253,5.354v14.721c0,4.141,3.358,7.5,7.5,7.5
			c4.142,0,7.5-3.358,7.5-7.5c-0.096-15.039,0.216-14.948-0.282-16.735l7.63,2.044C186.159,442.777,190.279,440.406,191.352,436.401
			z"/>
		<path d="M369.312,423.362c-1.072-4.001-5.183-6.376-9.186-5.303l-34.174,9.157c-4.001,1.072-6.375,5.184-5.303,9.185
			c0.898,3.35,3.928,5.56,7.239,5.56c1.672,0,2.281-0.422,9.576-2.302c-0.507,1.819-0.188,2.088-0.282,16.735
			c0,4.141,3.358,7.5,7.5,7.5c4.142,0,7.5-3.358,7.5-7.5v-14.721c0-2.098-0.864-3.993-2.253-5.354l14.079-3.773
			C368.01,431.474,370.384,427.362,369.312,423.362z"/>
	</g>
</g>
<g>
</g>
<g>
</g>
<g>
</g>
<g>
</g>
<g>
</g>
<g>
</g>
<g>
</g>
<g>
</g>
<g>
</g>
<g>
</g>
<g>
</g>
<g>
</g>
<g>
</g>
<g>
</g>
<g>
</g>
</svg>
