<?xml version="1.0" encoding="iso-8859-1"?>
<!-- Generator: Adobe Illustrator 23.0.3, SVG Export Plug-In . SVG Version: 6.00 Build 0)  -->
<svg version="1.1" id="Capa_1" xmlns="http://www.w3.org/2000/svg" xmlns:xlink="http://www.w3.org/1999/xlink" x="0px" y="0px"
	 viewBox="0 0 512 512" style="enable-background:new 0 0 512 512;" xml:space="preserve">
<g>
	<g>
		<path style="fill:#DADADA;" d="M325.553,329.617c-49.83-41.538-81.542-104.076-81.542-174.021
			c0-48.473,15.239-93.383,41.175-130.217C161.276,26.72,61.236,127.565,61.236,251.794c0,90.632,53.244,168.828,130.159,205.014
			L299.496,404.1L325.553,329.617z"/>
		<path style="fill:#B7B5BD;" d="M101.236,241.794c0-98.806,63.287-182.815,151.534-213.738
			C144.287,44.846,61.236,138.607,61.236,251.794c0,90.632,53.244,168.828,130.159,205.015l30.385-14.815
			C150.081,403.986,101.236,328.597,101.236,241.794z"/>
		<path style="fill:#A29DAE;" d="M484.844,388.206c-6.038-6.038-12.941-10.678-20.309-13.931c-4.349-1.92-7.155-6.169-7.146-10.922
			c0-0.058,0-0.116,0-0.173c0-52.781-42.787-95.568-95.568-95.568c-43.167,0-79.644,28.622-91.501,67.922
			c-1.811,6.002-8.145,9.278-14.204,7.671c-19.571-5.19-41.296-0.118-56.645,15.23c-7.851,7.851-13.006,17.373-15.48,27.42
			c-1.295,5.261-5.899,9.046-11.317,9.07c-13.717,0.061-27.413,5.317-37.879,15.783c-0.439,0.439-0.868,0.883-1.289,1.333
			c-26.582,28.441-5.307,75.006,33.62,74.577l293.019-3.232c21.468-0.237,40.015-15.671,43.474-36.86
			C506.98,425.937,500.721,404.083,484.844,388.206z"/>
		<path style="fill:#F9D171;" d="M403.569,42.961c-3.52,16.699-15.587,29.009-32.694,32.548
			c-5.968,1.235-10.227,6.526-10.227,12.755v0.688c0,6.116,4.294,11.387,10.282,12.632c17.073,3.553,29.116,15.848,32.636,32.522
			c1.266,5.997,6.358,10.408,12.647,10.408h0.819c6.094,0,11.386-4.258,12.621-10.226c3.537-17.102,15.842-29.168,32.534-32.692
			c5.997-1.266,10.408-6.359,10.408-12.489v-1.134c0-6.13-4.411-11.223-10.408-12.489c-16.692-3.524-28.996-15.589-32.534-32.691
			c-1.235-5.968-6.526-10.227-12.779-10.227h-0.821C409.93,32.567,404.833,36.969,403.569,42.961z"/>
		<g>
			<ellipse style="fill:#FFA1AC;" cx="235.096" cy="425.768" rx="33.377" ry="26.58"/>
			<ellipse style="fill:#FFA1AC;" cx="416.01" cy="425.768" rx="33.377" ry="26.58"/>
		</g>
		<path style="fill:#F9D171;" d="M15.9,317.779c13.496,2.845,23.445,12.597,26.305,26.423c0.998,4.824,5.274,8.265,10.308,8.265
			h0.556c4.943,0,9.202-3.471,10.209-8.31c2.871-13.798,12.808-23.531,26.284-26.376c4.847-1.023,8.412-5.138,8.412-10.221v-0.662
			c0-4.925-3.441-9.202-8.264-10.2c-13.822-2.859-23.573-12.803-26.421-26.293c-1.023-4.847-5.139-8.412-10.093-8.412h-0.916
			c-4.954,0-9.07,3.565-10.093,8.412c-2.848,13.49-12.599,23.434-26.421,26.293c-4.823,0.998-8.265,5.274-8.265,10.328v0.663
			C7.5,312.638,11.057,316.758,15.9,317.779z"/>
	</g>
	<g>
		<path d="M369.405,108.925c13.874,2.887,23.902,12.879,26.825,26.729c2.034,9.632,10.252,16.359,19.985,16.359h0.819
			c9.626,0,18.023-6.815,19.965-16.206c2.875-13.9,12.871-23.946,26.738-26.873c9.632-2.033,16.359-10.187,16.359-19.827v-1.134
			c0-9.641-6.727-17.794-16.359-19.827c-13.868-2.928-23.863-12.974-26.738-26.873c-1.942-9.391-10.406-16.207-20.124-16.207h-0.82
			c-9.643,0-17.795,6.722-19.824,16.347c-2.924,13.874-12.971,23.875-26.874,26.751c-9.391,1.943-16.208,10.396-16.208,20.099v0.688
			C353.151,98.565,359.987,106.966,369.405,108.925z M368.151,88.263c0-2.668,1.746-4.893,4.246-5.41
			c19.924-4.121,34.322-18.456,38.514-38.346c0.551-2.614,2.667-4.44,5.146-4.44c2.799,0,5.615,1.152,6.254,4.246
			c4.12,19.917,18.449,34.313,38.33,38.511c2.624,0.554,4.457,2.672,4.457,5.15c0,3.028-1.229,5.603-4.458,6.284
			c-19.88,4.197-34.209,18.594-38.329,38.511c-0.616,2.98-3.314,4.245-6.095,4.245c-2.612,0-4.746-1.791-5.309-4.457
			c-4.191-19.855-18.564-34.179-38.446-38.316C369.542,93.632,368.151,91.034,368.151,88.263z"/>
		<path d="M247.049,386.538v13.644c0,4.142,3.358,7.5,7.5,7.5c4.142,0,7.5-3.358,7.5-7.5v-13.644c0-4.142-3.358-7.5-7.5-7.5
			C250.407,379.038,247.049,382.396,247.049,386.538z"/>
		<path d="M389.061,386.538v13.644c0,4.142,3.358,7.5,7.5,7.5s7.5-3.358,7.5-7.5v-13.644c0-4.142-3.358-7.5-7.5-7.5
			S389.061,382.396,389.061,386.538z"/>
		<path d="M338.621,394.849c-6.907,7.926-19.205,7.949-26.132,0c-2.721-3.123-7.459-3.448-10.582-0.727
			c-3.123,2.722-3.448,7.459-0.727,10.582c12.901,14.802,35.863,14.786,48.749,0c2.721-3.123,2.396-7.86-0.727-10.582
			C346.08,391.4,341.343,391.726,338.621,394.849z"/>
		<path d="M467.567,367.415c-1.653-0.729-2.678-2.28-2.675-3.998c-0.198-1.464,1.38-26.273-14.432-52.852
			c-2.118-3.56-6.72-4.73-10.28-2.612c-3.56,2.118-4.729,6.72-2.611,10.28c8.063,13.554,12.324,29.097,12.324,44.948l0,0.159
			c-0.014,7.69,4.546,14.676,11.617,17.798c24.837,10.964,39.071,37.472,34.712,64.182c-2.858,17.513-18.064,30.369-36.155,30.569
			l-293.021,3.231c-18.134,0.198-29.791-11.453-34.627-22.426c-12.009-27.252,11.153-54.139,40.29-54.268
			c8.786-0.039,16.43-6.099,18.567-14.777c6.832-27.753,35.289-44.521,62.92-37.194c10.115,2.682,20.347-2.941,23.307-12.754
			c18.409-61.046,94.351-83.075,142.529-40.605c3.107,2.739,7.847,2.44,10.586-0.667c2.739-3.107,2.441-7.846-0.667-10.586
			c-37.961-33.464-96.126-35.012-135.768-0.404c-56.887-76.937-56.013-180.259-2.86-255.744c1.621-2.302,1.816-5.317,0.506-7.809
			c-1.311-2.492-3.947-4.046-6.719-4.009c-72.173,0.781-138.854,34.096-182.947,91.404c-2.526,3.283-1.912,7.992,1.371,10.518
			c3.282,2.525,7.992,1.912,10.518-1.371c38.32-49.805,94.863-80.249,156.822-84.931c-48.531,79.078-46.936,183.772,12.619,262.711
			c-9.633,11.272-16.437,24.196-20.349,37.159c-0.618,2.046-2.86,3.183-5.102,2.588c-35.629-9.449-72.469,12.113-81.33,48.108
			c-0.477,1.939-2.128,3.355-4.067,3.363c-15.707,0.069-30.632,6.068-42.03,16.887c-21.048-21.694-37.533-47.698-48.074-75.864
			c2.63-1.59,5.579-2.696,8.574-3.33c19.539-4.121,18.637-31.935,0.117-35.766c-8.399-1.737-14.568-6.612-17.943-13.058
			c-2.737-5.145-2.248-7.922-4.18-11.852c-2.458-42.922,7.695-85.105,28.522-121.413c2.061-3.593,0.819-8.176-2.774-10.238
			c-3.593-2.061-8.177-0.819-10.238,2.774c-20.608,35.927-31.361,77.141-30.856,118.95c-10.499-0.326-17.212,6.283-18.912,14.338
			c-2.278,10.79-9.787,18.261-20.602,20.498C5.991,291.061,0,298.494,0,307.026v0.664c0,8.481,5.902,15.648,14.353,17.429
			c10.795,2.275,18.27,9.785,20.507,20.604c1.708,8.254,9.132,14.245,17.652,14.245h0.556c8.449,0,15.831-6.007,17.552-14.282
			c0.281-1.349,0.643-2.646,1.083-3.888c11.517,27.551,28.392,52.927,49.451,74.288c-8.27,14.007-9.341,31.051-2.462,46.659
			c8.55,19.401,26.867,31.379,47.907,31.379c0.203,0,0.408-0.001,0.612-0.003l293.021-3.231
			c25.397-0.28,46.759-18.428,50.793-43.152C516.468,414.385,498.735,381.175,467.567,367.415z M55.935,342.63
			c-0.354,1.7-1.857,2.338-3.422,2.338c-1.467,0-2.686-0.939-2.963-2.284c-3.45-16.68-15.451-28.733-32.103-32.242
			c-1.44-0.304-2.447-1.436-2.447-2.751c0.028-0.1-0.362-3.099,2.284-3.646c16.674-3.449,28.726-15.444,32.24-32.089
			c0.306-1.449,1.438-2.46,2.754-2.46c0.378,0.072,2.504-0.49,3.487,1.869c0.35,0.845,4.166,26.835,32.425,32.681
			c1.84,0.381,2.157,1.945,2.284,3.517c0,1.471-1.046,2.585-2.461,2.883c-1.668,0.354-3.583,0.869-5.457,1.53
			C68.792,316.752,59.007,327.871,55.935,342.63z"/>
	</g>
</g>
<g>
</g>
<g>
</g>
<g>
</g>
<g>
</g>
<g>
</g>
<g>
</g>
<g>
</g>
<g>
</g>
<g>
</g>
<g>
</g>
<g>
</g>
<g>
</g>
<g>
</g>
<g>
</g>
<g>
</g>
</svg>
