<?xml version="1.0" encoding="iso-8859-1"?>
<!-- Generator: Adobe Illustrator 23.0.3, SVG Export Plug-In . SVG Version: 6.00 Build 0)  -->
<svg version="1.1" id="Capa_1" xmlns="http://www.w3.org/2000/svg" xmlns:xlink="http://www.w3.org/1999/xlink" x="0px" y="0px"
	 viewBox="0 0 512 512" style="enable-background:new 0 0 512 512;" xml:space="preserve">
<g>
	<g>
		<path style="fill:#80E0B7;" d="M349.149,306.654H465.76c17.065,0,30.899-13.834,30.899-30.899s-13.834-30.899-30.899-30.899
			h-80.43L349.149,306.654z"/>
		<path style="fill:#80E0B7;" d="M408.056,103.944c12.067-12.067,12.067-31.63,0-43.697s-31.63-12.067-43.697,0
			c12.067-12.067,12.067-31.63,0-43.697c-12.067-12.067-31.63-12.067-43.697,0L92.509,244.703l174.788,174.788L495.45,191.339
			c12.067-12.067,12.067-31.63,0-43.697c-12.067-12.067-31.63-12.067-43.697,0c12.067-12.067,12.067-31.63,0-43.697
			S420.123,91.878,408.056,103.944z"/>
		<path style="fill:#00B762;" d="M495.45,147.642c-3.605-3.605-7.881-6.125-12.425-7.575c3.406,10.665,0.886,22.811-7.575,31.272
			L247.298,399.491l20,20L495.45,191.338C507.517,179.272,507.517,159.708,495.45,147.642z"/>
		
			<ellipse transform="matrix(0.7071 -0.7071 0.7071 0.7071 -182.1353 224.4799)" style="fill:#FD5C6F;" cx="179.904" cy="332.097" rx="66.599" ry="123.594"/>
		<path style="fill:#E92740;" d="M226.996,285.004c-3.382-3.382-6.825-6.61-10.309-9.691c40.882,46.23,54.796,99.992,30.61,124.178
			c-24.186,24.186-77.948,10.272-124.178-30.61c3.081,3.484,6.309,6.927,9.692,10.309c48.266,48.267,108.478,66.31,134.487,40.301
			C293.306,393.482,275.263,333.271,226.996,285.004z"/>
		<path style="fill:#DADADA;" d="M126.33,440.358l78.99-78.99c9.343-9.343,4.675-29.159-10.427-44.261s-34.918-19.77-44.261-10.427
			l-78.99,78.99c-15.761-11.626-38.076-10.305-52.346,3.965c-15.728,15.728-15.728,41.227,0,56.955
			c9.485,9.485,22.523,13.24,34.83,11.285c-1.956,12.307,1.799,25.345,11.285,34.83c15.728,15.728,41.227,15.728,56.955,0
			C136.636,478.434,137.956,456.119,126.33,440.358z"/>
		<path style="fill:#B7B5BD;" d="M194.894,317.107c-3.531-3.531-7.32-6.483-11.172-8.828c7.683,12.624,8.758,25.93,1.6,33.089
			l-64.754,64.755c-7.369,7.369-10.204,18.072-7.644,28.175c3.372,13.305-0.147,27.997-10.557,38.407
			c-12.208,12.208-30.301,14.934-45.144,8.19c2.215,4.878,5.448,9.408,9.715,13.259c15.003,13.543,38.134,13.766,53.365,0.479
			c16.185-14.119,18.194-37.784,6.03-54.274l78.99-78.991C214.664,352.024,209.995,332.208,194.894,317.107z"/>
	</g>
	<g>
		<path d="M93.873,512c36.314,0,59.109-38.91,41.986-70.558l27.568-27.568c25.134,16.455,50.174,24.937,71.127,24.936
			c15.43,0,28.646-4.6,38.046-14L383.25,314.16h82.525c21.175,0,38.401-17.227,38.401-38.401s-17.227-38.401-38.401-38.401h-5.722
			l40.718-40.718c14.972-14.973,14.972-39.335,0-54.308c-8.943-8.943-21.233-12.543-32.877-10.805
			c3.829-25.693-18.191-47.525-43.72-43.72c3.797-25.405-17.919-47.542-43.701-43.701c1.74-11.641-1.861-23.934-10.804-32.877
			c-14.973-14.972-39.335-14.972-54.308,0l-60.849,60.849c-2.929,2.929-2.929,7.678,0,10.607c2.929,2.929,7.678,2.929,10.607,0
			l60.849-60.848c9.123-9.124,23.969-9.124,33.093,0c9.123,9.123,9.123,23.967,0.002,33.091
			C351.993,62,328.023,85.97,320.951,93.041c-4.74,4.739-1.318,12.804,5.304,12.804c1.92,0,3.839-0.732,5.304-2.196
			c1.108-1.108-6.948,6.948,38.111-38.111c4.42-4.42,10.296-6.854,16.547-6.854c20.626,0,31.363,25.123,16.55,39.943
			c-45.574,45.574-35.806,35.805-38.115,38.114c-4.739,4.739-1.318,12.804,5.304,12.804c1.919,0,3.839-0.732,5.304-2.197
			c1.03-1.03,40.637-40.636,38.111-38.11c4.42-4.42,10.296-6.854,16.547-6.854c20.653,0,31.335,25.159,16.546,39.947
			c-5.679,5.679-32.414,32.414-38.111,38.111c-4.738,4.738-1.319,12.804,5.304,12.804c1.92,0,3.839-0.732,5.304-2.197
			c5.364-5.364,32.624-32.624,38.111-38.111c9.123-9.124,23.969-9.124,33.093,0c9.123,9.124,9.123,23.97,0,33.093L286.579,389.616
			c0.417-10.275-1.395-21.048-4.395-31.117c-0.25-0.837-1.252-4.155-1.635-4.998c-1.564-3.446-5.526-5.244-9.221-3.998
			c-3.926,1.323-6.036,5.578-4.713,9.503c6.227,18.478,8.801,41.061-4.622,55.196v0c-16.327,16.326-51.63,11.568-87.712-11.184
			l36.337-36.337c6.4-6.4,7.976-15.52,6.458-24.445c-2.108-12.424-9.948-22.359-9.888-22.259
			c-16.429-22.507-46.565-33.902-61.87-18.596l-36.336,36.336c-37.574-59.586-24.281-112.874,40.261-93.532
			c29.986,8.986,58.825,30.684,79.99,54.053c17.995,19.873,26.161,36.246,27.206,37.678c2.019,2.76,5.688,3.83,8.884,2.517
			c4.239-1.738,5.87-6.712,3.727-10.577c-23.78-42.896-69.507-84.258-115.5-98.041c-9.931-2.973-20.585-4.854-31.065-4.494
			L243.906,103.9c2.929-2.929,2.929-7.678,0-10.607c-2.929-2.929-7.678-2.929-10.607,0C222.029,104.562,80.129,246.462,87.191,239.4
			c-22.164,22.164-17.626,65.524,10.943,109.166l-27.575,27.575c-18.258-9.879-41.578-6.807-56.587,8.203
			c-18.628,18.628-18.628,48.938,0,67.566c8.604,8.604,20.176,13.53,32.169,13.95C47.038,491.486,67.919,512,93.873,512z
			 M489.175,275.759c0,12.903-10.497,23.4-23.4,23.4h-67.523l46.801-46.801h20.723C478.678,252.359,489.175,262.856,489.175,275.759
			z M24.579,394.951c11.37-11.369,29.681-12.758,42.594-3.233c2.987,2.203,7.134,1.892,9.756-0.732
			c34.464-34.463,42.202-42.202,78.997-78.997c3.942-3.942,11.478-2.767,16.815-0.772c23.878,9.301,35.454,36.671,27.27,44.857
			l-78.996,78.996c-2.623,2.623-2.935,6.77-0.732,9.756c9.526,12.915,8.135,31.226-3.233,42.595
			c-12.78,12.779-33.572,12.779-46.352,0c-7.395-7.396-10.828-17.995-9.181-28.352c0.802-5.046-3.569-9.385-8.585-8.585
			c-10.361,1.647-20.957-1.786-28.352-9.182C11.799,428.524,11.799,407.731,24.579,394.951z"/>
	</g>
</g>
<g>
</g>
<g>
</g>
<g>
</g>
<g>
</g>
<g>
</g>
<g>
</g>
<g>
</g>
<g>
</g>
<g>
</g>
<g>
</g>
<g>
</g>
<g>
</g>
<g>
</g>
<g>
</g>
<g>
</g>
</svg>
