<?xml version="1.0" encoding="iso-8859-1"?>
<!-- Generator: Adobe Illustrator 23.0.3, SVG Export Plug-In . SVG Version: 6.00 Build 0)  -->
<svg version="1.1" id="Capa_1" xmlns="http://www.w3.org/2000/svg" xmlns:xlink="http://www.w3.org/1999/xlink" x="0px" y="0px"
	 viewBox="0 0 512 512" style="enable-background:new 0 0 512 512;" xml:space="preserve">
<g>
	<g>
		<path style="fill:#F9D171;" d="M167.605,354.162l-88.42-59.912c-17.62,12.583-36.41,27.875-56.091,46.345
			c-8.439,7.922-7.615,22.274,1.851,31.741l9.78,9.78v0h10.204l0.402,10.606h0l20.834,20.834v0h11.152l-0.546,10.606h0
			l20.833,20.833l10.606,2.211v8.396l20.833,20.833l6.991-1.035l3.615,11.641l9.78,9.78c9.467,9.467,23.819,10.29,31.741,1.851
			c18.47-19.681,33.762-38.471,46.345-56.091L167.605,354.162z"/>
		<path style="fill:#FFA93F;" d="M149.43,496.822c9.467,9.467,23.819,10.29,31.741,1.851c18.47-19.681,33.762-38.471,46.345-56.091
			l-59.912-88.421l-11.922-8.078l51.834,76.499c-12.583,17.619-44.442,49.732-62.912,69.414L149.43,496.822z"/>
		<path style="fill:#F86745;" d="M312.645,237.456c0,0,12.684-27.275,12.689-27.286c6.021-12.948,17.478-22.583,30.941-27.902
			c33.779-13.333,58.12-42.568,65.113-78.203c3.763-19.178,17.609-34.609,36.218-40.438l16.652-3.875
			c14.237-3.313,23.092-17.54,19.779-31.777c-3.313-14.237-17.541-23.093-31.778-19.779c0,0-18.57,4.339-19.088,4.493
			c-37.867,11.298-66.117,42.406-73.727,81.183c-3.501,17.844-15.69,32.483-32.607,39.161
			c-25.787,10.178-47.54,29.097-59.502,54.816l-12.689,27.286c-2.619,5.632-6.206,10.761-10.598,15.153l-43.148,43.148l37.43,37.43
			l43.147-43.147C300.276,258.921,307.398,248.74,312.645,237.456z"/>
		<path style="fill:#C94D2F;" d="M291.874,267.305c-4.675-7.4-10.228-14.394-16.623-20.789
			c-6.338-6.338-13.343-11.912-20.816-16.632c-0.13,0.133-0.254,0.272-0.386,0.404l-43.147,43.147l37.43,37.43l43.147-43.146
			C291.614,267.583,291.74,267.441,291.874,267.305z"/>
		<path style="fill:#F9D171;" d="M249.859,407.909l-82.255-53.746l-53.746-82.255c26.106-14.972,48.448-23.486,65.789-27.692
			c12.631-3.063,26.099-2.307,38.975,1.776c12.883,4.076,25.167,11.488,35.416,21.737c20.498,20.498,29.638,49.143,23.513,74.391
			C273.345,359.46,264.832,381.803,249.859,407.909z"/>
		<path style="fill:#FFA93F;" d="M254.038,267.729c-3.39-3.39-7.006-6.462-10.789-9.213c13.885,19.094,19.414,42.53,14.302,63.604
			c-4.206,17.341-12.719,39.683-27.692,65.789l-70.159-45.843l7.904,12.096l82.255,53.746
			c14.972-26.106,23.486-48.448,27.692-65.789C283.676,316.871,274.536,288.227,254.038,267.729z"/>
		<path style="fill:#FD5C6F;" d="M227.517,442.583L79.184,294.25c12.148-8.691,23.738-16.088,34.674-22.342l136.001,136.001
			C243.605,418.845,236.208,430.435,227.517,442.583z"/>
		<path style="fill:#E92740;" d="M229.859,387.908c-6.254,10.937-13.652,22.526-22.343,34.674l20,20
			c8.691-12.148,16.088-23.738,22.343-34.674L229.859,387.908z"/>
	</g>
	<g>
		<path d="M174.328,271.579l-6.274,6.274c-2.929,2.929-2.929,7.677,0,10.606c2.928,2.929,7.678,2.929,10.606,0l6.274-6.274
			c2.929-2.929,2.929-7.677,0-10.606C182.006,268.65,177.257,268.65,174.328,271.579z"/>
		<path d="M239.625,336.875l-6.273,6.274c-4.738,4.737-1.319,12.803,5.303,12.803c1.92,0,3.839-0.732,5.304-2.197l6.273-6.274
			c2.929-2.929,2.929-7.677,0-10.606C247.302,333.946,242.553,333.946,239.625,336.875z"/>
		<path d="M214.287,316.742c-5.235,0.36-9.58-3.968-9.219-9.219c0.284-4.132-2.836-7.713-6.968-7.996
			c-4.132-0.281-7.713,2.836-7.997,6.968c-0.986,14.354,10.931,26.194,25.211,25.212c4.132-0.284,7.252-3.864,6.969-7.996
			C221.999,319.579,218.424,316.461,214.287,316.742z"/>
		<path d="M459.629,70.871l16.367-3.809c29.287-6.816,35.871-45.974,10.25-61.92c-7.703-4.795-16.811-6.303-25.655-4.244
			c-18.788,4.39-19.247,4.526-19.525,4.609c-12.043,3.593-23.331,9.109-33.548,16.394c-3.373,2.404-4.157,7.088-1.752,10.461
			c2.404,3.372,7.088,4.156,10.461,1.752c8.835-6.299,18.593-11.075,29.001-14.195c1.369-0.34,12.139-2.864,18.771-4.414
			c4.935-1.148,10.02-0.306,14.321,2.371c14.313,8.91,10.622,30.772-5.724,34.576c-12.407,2.893-16.771,3.891-17.193,4.023
			c-21.215,6.644-37.054,24.328-41.336,46.15c-6.499,33.115-29.118,60.282-60.508,72.671c-15.988,6.316-28.413,17.579-34.979,31.697
			c-12.735,27.206-16.988,40.047-32.367,55.425l-14.727,14.728c-7.128-10.615-16.353-19.804-26.824-26.823
			c11.104-11.919,20.094-17.549,26.825-32.023l12.689-27.286c10.695-22.996,30.389-41.109,55.455-51.002
			c19.306-7.62,33.216-24.327,37.213-44.692c3.018-15.38,9.719-29.967,19.378-42.184c2.569-3.249,2.017-7.966-1.232-10.535
			c-3.249-2.568-7.966-2.018-10.535,1.232c-11.133,14.082-18.854,30.887-22.33,48.598c-3.007,15.323-13.474,27.894-28.001,33.629
			c-28.656,11.31-51.225,32.133-63.549,58.629l-12.688,27.286c-5.292,11.379-11.937,15.05-26.847,30.758
			c-17.836-8.091-36.531-9.825-53.12-5.803c-57.377,13.916-116.824,57.758-159.918,98.199c-11.782,11.06-10.537,30.295,1.681,42.512
			l15.083,15.083c0,0,0,0,0,0c0,0,0,0,0,0c15.873,15.873,95.622,95.621,109.402,109.401c12.355,12.356,31.57,13.338,42.513,1.681
			c40.205-42.842,84.356-102.842,98.198-159.917c4.213-17.364,1.975-36.069-5.781-53.141l17.723-17.724
			c35.048-35.049,25.274-69.172,62.247-83.777c36.167-14.275,62.23-45.578,69.719-83.735
			C431.991,89.182,443.798,75.932,459.629,70.871z M226.54,430.962c-31.997-31.978-30.117-30.166-30.677-30.623
			c-2.953-2.408-7.298-2.225-10.037,0.515c-2.929,2.929-2.929,7.677,0,10.606l31.904,31.904
			c-12.264,16.678-26.364,33.532-41.986,50.178c-4.409,4.696-13.789,5.159-20.97-2.021l-9.78-9.78l30.174-30.174
			c2.929-2.929,2.929-7.678,0-10.606c-2.929-2.929-7.678-2.929-10.606,0l-30.174,30.174l-20.833-20.833l30.174-30.174
			c2.929-2.929,2.929-7.678,0-10.607c-2.929-2.929-7.678-2.929-10.606,0l-30.174,30.174l-20.834-20.833l30.174-30.174
			c2.929-2.929,2.929-7.677,0-10.606c-2.929-2.929-7.678-2.929-10.606,0l-30.174,30.174l-20.833-20.833l30.174-30.174
			c2.929-2.929,2.929-7.677,0-10.606c-2.929-2.929-7.678-2.929-10.606,0l-30.174,30.174l-9.78-9.78
			c-5.909-5.909-7.722-15.618-2.022-20.969c16.647-15.622,33.501-29.723,50.179-41.987l86.923,86.923
			c2.563,2.563,6.519,2.883,9.43,0.961c3.964-2.617,4.533-8.21,1.176-11.568l-85.127-85.128c7.317-5.015,14.624-9.689,21.834-13.969
			l127.828,127.828C236.229,416.339,231.555,423.645,226.54,430.962z M270.301,340.355c-2.907,11.987-9.08,30.861-22.134,55.219
			L126.236,273.642c24.358-13.053,43.231-19.227,55.218-22.134C230.178,239.698,282.264,291.047,270.301,340.355z"/>
	</g>
</g>
<g>
</g>
<g>
</g>
<g>
</g>
<g>
</g>
<g>
</g>
<g>
</g>
<g>
</g>
<g>
</g>
<g>
</g>
<g>
</g>
<g>
</g>
<g>
</g>
<g>
</g>
<g>
</g>
<g>
</g>
</svg>
