<?xml version="1.0" encoding="iso-8859-1"?>
<!-- Generator: Adobe Illustrator 23.0.3, SVG Export Plug-In . SVG Version: 6.00 Build 0)  -->
<svg version="1.1" id="Capa_1" xmlns="http://www.w3.org/2000/svg" xmlns:xlink="http://www.w3.org/1999/xlink" x="0px" y="0px"
	 viewBox="0 0 512 512" style="enable-background:new 0 0 512 512;" xml:space="preserve">
<g>
	<g>
		<g>
			<g>
				<path style="fill:#C8C6CC;" d="M55.593,474.692c-6.024,0.006-12.063-2.197-16.538-6.671c-9.133-9.133-9.133-23.94,0-33.074
					l8.876-8.875c-9.328-22.572-4.291-48.579,13.238-66.108c23.934-23.935,62.964-25.761,87.334-1.391l36.174,36.174
					c9.133,9.133,9.133,23.94,0,33.074c-9.133,9.133-23.94,9.133-33.074,0c0,0-36.122-36.122-36.174-36.174
					c-11.414-11.414-30.914,3.718-23.758,17.672c7.939,15.484,5.106,34.053-7.051,46.21c0,0-12.491,12.491-12.492,12.492
					C67.708,472.441,61.658,474.686,55.593,474.692z"/>
			</g>
			<rect x="192.89" y="156.636" style="fill:#DADADA;" width="199.554" height="251.324"/>
			<path style="fill:#FD5C6F;" d="M412.665,220.059c0,16.214-13.366,29.306-29.681,28.858
				c-15.725-0.431-28.058-13.728-28.058-29.459v-17.407c0-9.358-7.658-17.305-17.014-17.13c-9.073,0.17-16.377,7.578-16.377,16.692
				v37.748c0,15.731-12.333,29.027-28.058,29.459c-16.315,0.447-29.681-12.645-29.681-28.858l0-47.862
				c0-9.358-7.658-17.305-17.014-17.13c-9.073,0.17-16.377,7.578-16.377,16.692v17.845c0,15.73-12.333,29.027-28.058,29.459
				c-16.315,0.447-29.681-12.644-29.681-28.858v-45.796c0-20.727,16.803-37.53,37.53-37.53h164.938
				c20.727,0,37.53,16.803,37.53,37.53V220.059z"/>
			<path style="fill:#E92740;" d="M202.668,210.107v-45.796c0-20.727,16.803-37.53,37.53-37.53h-30
				c-20.727,0-37.53,16.803-37.53,37.53v45.796c0,16.214,13.366,29.305,29.681,28.858c5.178-0.142,9.984-1.686,14.108-4.246
				C208.187,229.642,202.668,220.522,202.668,210.107z"/>
			<path style="fill:#F9D171;" d="M330.489,61.484c0,20.889-16.934,37.823-37.823,37.823c-20.889,0-37.823-16.934-37.823-37.823
				S271.778,7.5,292.667,7.5C313.556,7.5,330.489,40.595,330.489,61.484z"/>
			<path style="fill:#FFA93F;" d="M296.186,85.537c-12.633-6.125-21.343-19.072-21.343-34.054c0-13.661,7.244-32.539,18.099-43.97
				c-0.093-0.001-0.184-0.014-0.276-0.014c-20.889,0-37.823,33.095-37.823,53.983c0,20.889,16.934,37.823,37.823,37.823
				L296.186,85.537z"/>
			<path style="fill:#C8C6CC;" d="M130.233,455.11c0,0,14.657-63.304,62.656-86.956h199.554c48,23.652,62.656,86.956,62.656,86.956
				l-162.433,24.695L130.233,455.11z"/>
			<path style="fill:#A29DAE;" d="M160.233,455.109c0,0,14.657-63.304,62.656-86.956h-30c-48,23.652-62.656,86.956-62.656,86.956
				l162.433,24.695l15-2.28L160.233,455.109z"/>
			<path style="fill:#A29DAE;" d="M455.1,455.11H130.233c-13.639,0-24.695,11.057-24.695,24.695v0
				c0,13.639,11.056,24.695,24.695,24.695H455.1c13.639,0,24.695-11.056,24.695-24.695v0
				C479.795,466.166,468.739,455.11,455.1,455.11z"/>
			<path style="fill:#77728D;" d="M135.538,479.805L135.538,479.805c0-13.639,11.056-24.696,24.695-24.696h-30
				c-13.639,0-24.695,11.057-24.695,24.695v0c0,13.639,11.056,24.695,24.695,24.695h30
				C146.594,504.5,135.538,493.444,135.538,479.805z"/>
		</g>
	</g>
	<g>
		<path d="M235.015,291.928c-4.142,0-7.5,3.358-7.5,7.5v11.077c0,4.142,3.358,7.5,7.5,7.5s7.5-3.358,7.5-7.5v-11.077
			C242.515,295.286,239.157,291.928,235.015,291.928z"/>
		<path d="M350.304,291.928c-4.142,0-7.5,3.358-7.5,7.5v11.077c0,4.142,3.358,7.5,7.5,7.5s7.5-3.358,7.5-7.5v-11.077
			C357.804,295.286,354.446,291.928,350.304,291.928z"/>
		<path d="M302.203,305.248c-5.047,5.791-14.027,5.806-19.087,0c-2.722-3.123-7.458-3.448-10.582-0.727
			c-3.123,2.721-3.448,7.459-0.727,10.582c11.034,12.661,30.681,12.649,41.704,0c2.721-3.123,2.396-7.86-0.727-10.582
			C309.662,301.8,304.924,302.125,302.203,305.248z"/>
		<path d="M460.986,448.159c-4.627-15.769-21.25-62.38-61.049-84.532v-55.412c0-4.029-3.178-7.317-7.164-7.493
			c-4.32-0.189-7.853,3.233-7.853,7.492c0,0.169,0.006,0.337,0.017,0.503v51.937H200.383V246.458
			c20.694,0.657,37.517-16.573,37.517-36.951c0-11.046,0-6.797,0-17.845c0-4.976,4.045-9.101,9.017-9.194
			c5.22-0.075,9.374,4.519,9.374,9.631v47.863c0,10.477,4.389,20.469,12.727,27.628c18.386,15.777,46.908,9.498,56.918-13.449
			c2.119-4.859,3.094-9.819,3.094-14.779v-37.748c0-4.976,4.045-9.101,9.017-9.194c5.128-0.089,9.374,4.437,9.374,9.631
			c0.573,15.692-2.436,25.982,7.032,39.117c6.916,9.597,18.057,15.612,30.484,15.236l0,21.822c0,4.143,3.358,7.5,7.5,7.501
			c4.142,0,7.5-3.358,7.5-7.5v-25.564c11.921-5.923,20.222-18.189,20.222-32.604v-55.748c0-24.83-20.2-45.03-45.03-45.03h-74.969
			v-13.106c21.433-3.586,37.823-22.255,37.823-44.691C337.982,37.016,318.601,0,292.659,0c-25.813,0-45.323,36.837-45.323,61.483
			c0,22.436,16.39,41.105,37.823,44.691v13.106H210.19c-24.83,0-45.03,20.2-45.03,45.03v45.796c0,14.392,8.29,26.673,20.222,32.603
			v120.917c-4.549,2.532-8.796,5.383-12.756,8.472l-18.828-18.828c-27.262-27.263-71.001-25.55-97.941,1.391
			c-18.374,18.375-24.646,45.173-16.635,69.505l-5.479,5.479c-12.042,12.042-12.042,31.637,0,43.68
			c12.053,12.053,32.088,11.593,43.68,0l12.492-12.492c14.467-14.467,17.851-36.544,8.42-54.936
			c-2.516-4.906,2.364-8.655,2.928-9.066c1.185-0.863,5.326-3.407,8.857,0.125c2.105,2.101-8.282-8.283,24.512,24.512
			c-5.367,11.197-8.624,20.972-10.302,26.692c-14.947,2.778-26.302,15.906-26.302,31.646c0,17.752,14.443,32.195,32.195,32.195
			h324.866c17.752,0,32.195-14.443,32.195-32.195C487.288,464.066,475.932,450.937,460.986,448.159z M262.337,61.483
			c0-19.201,15.682-46.483,30.323-46.483s30.323,27.282,30.323,46.483c0,14.133-9.718,26.036-22.823,29.383V53.403
			c0-4.142-3.358-7.5-7.5-7.5s-7.5,3.358-7.5,7.5v37.463C272.055,87.52,262.337,75.616,262.337,61.483z M180.16,164.311
			c0-16.558,13.471-30.03,30.03-30.03h164.938c16.559,0,30.03,13.472,30.03,30.03v55.748c0,10.119-6.941,18.448-16.287,20.742
			c-13.986,3.385-26.451-7.669-26.451-21.342v-17.407c0-9.586-5.681-18.478-14.316-22.461c-15.87-7.329-34.075,4.649-34.075,22.024
			c0,23.366,0,14.379,0,37.748c0,5.08-1.781,9.712-4.403,13.246c-12.374,16.685-38.335,7.671-38.335-12.645V192.1
			c0-13.092-10.471-24.394-23.813-24.623c-0.439-0.007-0.945-0.006-0.843-0.006c-13.092,0.245-23.736,11.101-23.736,24.191v17.844
			c0,14.313-13.482,25.293-27.557,21.045c-8.625-2.597-15.182-10.594-15.182-20.444V164.311z M120.725,386.344
			c-17.554-17.554-46.733,4.949-35.735,26.397c6.448,12.575,4.165,27.639-5.68,37.485l-12.492,12.492
			c-4.804,4.804-11.357,4.494-11.257,4.474c-14.406,0-21.082-17.069-11.21-26.941l8.876-8.875c2.144-2.144,2.786-5.367,1.628-8.168
			c-8.229-19.915-3.672-42.658,11.61-57.941c21.113-21.114,55.373-22.746,76.727-1.391l18.256,18.256
			c-7.832,8.033-14.231,16.877-19.406,25.528C141.661,407.281,119.308,384.927,120.725,386.344z M455.093,497H130.226
			c-9.481,0-17.195-7.714-17.195-17.195c0-9.482,7.714-17.196,17.195-17.196h59.988c4.142,0,7.5-3.358,7.5-7.5s-3.358-7.5-7.5-7.5
			h-49.953c9.603-28.663,27.594-58.001,54.412-71.956h195.973c26.711,13.909,44.862,43.392,54.415,71.956H220.214
			c-4.142,0-7.5,3.358-7.5,7.5s3.358,7.5,7.5,7.5h234.878c9.481,0,17.195,7.714,17.195,17.196
			C472.288,489.287,464.574,497,455.093,497z"/>
	</g>
</g>
<g>
</g>
<g>
</g>
<g>
</g>
<g>
</g>
<g>
</g>
<g>
</g>
<g>
</g>
<g>
</g>
<g>
</g>
<g>
</g>
<g>
</g>
<g>
</g>
<g>
</g>
<g>
</g>
<g>
</g>
</svg>
