<?xml version="1.0" encoding="iso-8859-1"?>
<!-- Generator: Adobe Illustrator 23.0.3, SVG Export Plug-In . SVG Version: 6.00 Build 0)  -->
<svg version="1.1" id="Capa_1" xmlns="http://www.w3.org/2000/svg" xmlns:xlink="http://www.w3.org/1999/xlink" x="0px" y="0px"
	 viewBox="0 0 512 512" style="enable-background:new 0 0 512 512;" xml:space="preserve">
<g>
	<g>
		<path style="fill:#5C576E;" d="M17.424,440.27c-13.232,13.232-13.232,34.685,0,47.917l0,0c13.232,13.232,34.685,13.232,47.917,0
			l126.478-126.478l-2.467-45.449l-45.449-2.467L17.424,440.27z"/>
		<path style="fill:#C8C6CC;" d="M441.6,16.094l-74.247,74.247l-65.076,109.331l-109.331,65.076l-49.044,49.044l87.765,87.765
			c7.709,7.709,20.208,7.709,27.917,0L465.601,195.54c45.865-45.865,45.865-120.227,0-166.092l-13.354-13.354
			C449.306,13.154,444.54,13.154,441.6,16.094z"/>
		<path style="fill:#A29DAE;" d="M465.601,29.449l-13.354-13.354c-0.46-0.46-0.968-0.839-1.504-1.155
			c40.645,46.129,38.936,116.523-5.142,160.602L239.584,381.557c-7.709,7.709-20.208,7.709-27.917,0l20,20
			c7.709,7.709,20.208,7.709,27.917,0L465.601,195.54C511.466,149.675,511.466,75.314,465.601,29.449z"/>
		<path style="fill:#FD5C6F;" d="M496.126,219.114c11.166,11.166,11.166,29.269,0,40.435c-11.166,11.166-29.269,11.166-40.435,0
			l-43.834-43.834c-7.332-7.332-19.219-7.332-26.551,0s-7.332,19.219,0,26.551l33.586,33.586c11.166,11.166,11.166,29.269,0,40.435
			c-11.166,11.166-29.269,11.166-40.435,0l-47.25-47.25c-7.332-7.332-19.219-7.332-26.551,0c-7.332,7.332-7.332,19.219,0,26.551
			l37.002,37.002c11.166,11.166,11.166,29.269,0,40.435c-11.166,11.166-29.269,11.166-40.435,0L192.946,264.748L367.353,90.341
			L496.126,219.114z"/>
		
			<ellipse transform="matrix(0.7071 -0.7071 0.7071 0.7071 -59.3409 288.36)" style="fill:#5C576E;" cx="318.417" cy="215.812" rx="15.867" ry="17.756"/>
	</g>
	<g>
		<path d="M63.055,428.15c-3.978,3.978-3.978,10.429,0,14.407s10.429,3.978,14.407,0c3.979-3.978,3.979-10.429,0-14.407
			C73.484,424.171,67.033,424.171,63.055,428.15z"/>
		<path d="M115.451,375.754c-3.979,3.978-3.979,10.429,0,14.407c3.978,3.979,10.429,3.979,14.407,0
			c3.978-3.978,3.978-10.429,0-14.407C125.88,371.775,119.429,371.775,115.451,375.754z"/>
		<path d="M243.775,259.3l8.199,8.199c2.929,2.929,7.678,2.929,10.607,0c2.929-2.929,2.929-7.678,0-10.607l-8.199-8.199
			c-2.928-2.929-7.678-2.929-10.607,0C240.846,251.622,240.846,256.371,243.775,259.3z"/>
		<path d="M336.268,233.681c9.111-9.111,8.512-24.535-1.335-34.383c-9.847-9.848-25.271-10.446-34.383-1.335
			c-9.111,9.111-8.512,24.536,1.335,34.383C311.845,242.305,327.259,242.69,336.268,233.681z M311.157,208.57
			c3.511-3.511,9.485-2.349,13.169,1.335c3.999,3.999,4.598,9.907,1.336,13.169c-3.263,3.263-9.17,2.664-13.169-1.335
			C308.494,217.74,307.895,211.832,311.157,208.57z"/>
		<path d="M364.782,162.19c6.622,0,10.042-8.066,5.303-12.804l-8.199-8.199c-2.929-2.929-7.678-2.929-10.607,0
			c-2.929,2.929-2.929,7.678,0,10.607l8.199,8.199C360.943,161.459,362.863,162.19,364.782,162.19z"/>
		<path d="M479.24,191.632c19.56-23.813,29.513-53.625,28.129-84.731c-0.185-4.139-3.71-7.343-7.826-7.159
			c-4.138,0.185-7.344,3.689-7.159,7.826c1.196,26.873-7.214,52.649-23.802,73.405l-90.625-90.625L446.94,21.4
			c7.315,8.603,30.153,24.284,40.723,58.789c1.213,3.961,5.405,6.189,9.368,4.975c3.961-1.213,6.188-5.407,4.974-9.368
			c-11.871-38.76-37.121-56.312-44.458-65.003c-5.874-5.874-15.38-5.874-21.254,0c-18.412,18.412-173.926,173.926-181.19,181.19
			c-2.929,2.929-2.929,7.678,0,10.607c2.929,2.929,7.678,2.929,10.607,0l101.637-101.637l123.474,123.474
			c3.984,3.984,6.178,9.281,6.178,14.915c0,18.622-22.681,28.24-36.007,14.915l-43.836-43.836
			c-10.691-10.691-28.214-10.134-38.202,1.11c-8.888,9.946-8.866,25.017,0,34.939c0.785,0.884-2.127-2.06,34.631,34.698
			c8.224,8.224,8.224,21.605,0,29.829c-8.224,8.223-21.606,8.223-29.83,0l-47.252-47.252c-16.507-16.508-44.856-4.648-44.856,18.58
			c0,6.104,2.069,11.888,5.872,16.557c1.95,2.329-0.78-0.658,38.828,39.026c3.984,3.984,6.178,9.281,6.178,14.915
			c0,18.746-22.809,28.113-36.007,14.915c-12.674-12.674-91.481-91.481-102.978-102.978l41.152-41.152
			c2.929-2.929,2.929-7.678,0-10.607c-2.929-2.929-7.678-2.929-10.607,0c-10.727,10.727-83.557,83.557-95.502,95.502L12.102,434.985
			c-16.135,16.135-16.135,42.39,0,58.526c16.135,16.135,42.389,16.136,58.525,0l121.179-121.179l34.546,34.546
			c10.646,10.646,27.878,10.647,38.525,0l29.784-29.784c0.755,0.509,9.537,11.806,26.772,11.805
			c19.838-0.002,36.093-16.006,36.093-36.076c0-17.088-11.364-26.109-11.822-26.772l15.945-15.946l11.498,11.499
			c14.073,14.073,36.971,14.072,51.043,0c14.072-14.072,14.073-36.97,0-51.043l-11.498-11.498l15.945-15.946l21.747,21.747
			c22.849,22.85,61.615,6.299,61.615-25.522c0-9.641-3.755-18.705-10.572-25.521L479.24,191.632z M60.02,482.904
			c-10.288,10.286-27.025,10.286-37.311,0c-10.287-10.287-10.287-27.025,0-37.312l121.179-121.179l18.656,18.656l18.656,18.656
			L60.02,482.904z M254.27,396.271c-4.773,4.773-12.539,4.773-17.311,0l-39.847-39.847c-0.001-0.001-0.001-0.001-0.002-0.002
			l-42.615-42.615l38.439-38.439c11.065,11.065,80.016,80.016,91.121,91.12L254.27,396.271z M335.097,315.444l-25.147-25.146
			c-7.134-7.134-1.922-19.243,7.973-19.243c3.726,0,6.307,1.901,6.207,1.856c1.988,1.31,1.739,1.635,26.912,26.588L335.097,315.444z
			 M402.086,248.455l-11.482-11.482c-4.01-4.01-4.434-10.448-0.87-14.958c4.372-5.465,12.2-5.603,16.815-0.987l11.482,11.482
			L402.086,248.455z"/>
	</g>
</g>
<g>
</g>
<g>
</g>
<g>
</g>
<g>
</g>
<g>
</g>
<g>
</g>
<g>
</g>
<g>
</g>
<g>
</g>
<g>
</g>
<g>
</g>
<g>
</g>
<g>
</g>
<g>
</g>
<g>
</g>
</svg>
