<?xml version="1.0" encoding="iso-8859-1"?>
<!-- Generator: Adobe Illustrator 23.0.3, SVG Export Plug-In . SVG Version: 6.00 Build 0)  -->
<svg version="1.1" id="Capa_1" xmlns="http://www.w3.org/2000/svg" xmlns:xlink="http://www.w3.org/1999/xlink" x="0px" y="0px"
	 viewBox="0 0 512 512" style="enable-background:new 0 0 512 512;" xml:space="preserve">
<g>
	<g>
		<path style="fill:#C94D2F;" d="M498.278,251.423l-19.241-5.971l9.976-18.642c2.148-4.015,0.106-8.992-4.242-10.342l-19.241-5.971
			l9.976-18.642c2.148-4.015,0.106-8.992-4.242-10.342l-9.074-2.816c-6.585-2.044-13.666-1.803-20.097,0.682l-88.892,34.35
			l40.523,104.865l88.23-34.095c6.833-2.64,12.492-7.645,15.948-14.104l4.618-8.631
			C504.669,257.751,502.627,252.773,498.278,251.423z"/>
		<path style="fill:#C94D2F;" d="M13.722,251.423l19.241-5.971l-9.976-18.642c-2.148-4.015-0.106-8.992,4.242-10.342l19.241-5.971
			l-9.976-18.642c-2.148-4.015-0.106-8.992,4.242-10.342l9.074-2.816c6.585-2.044,13.666-1.803,20.097,0.682l88.892,34.35
			l-40.523,104.865L30.047,284.5c-6.833-2.64-12.492-7.645-15.948-14.104l-4.618-8.631C7.331,257.751,9.373,252.773,13.722,251.423z
			"/>
		<path style="fill:#B84224;" d="M393.723,318.594l40.171-15.523V189.254c0-1.917,0.051-4.191,0.178-6.775L353.2,213.729
			L393.723,318.594z"/>
		<path style="fill:#B84224;" d="M77.928,182.479c0.127,2.584,0.178,4.858,0.178,6.775v113.817l40.171,15.523L158.8,213.729
			L77.928,182.479z"/>
		<path style="fill:#F86745;" d="M403.894,322.746V189.254c0-62.706,33.108-129.265,50.251-159.524
			c4.202-7.418-2.098-16.377-10.502-14.942c-57.693,9.849-100.027,57.475-100.027,57.475c0-22.96,5.247-39.324,10.726-50.153
			c3.844-7.597-3.009-16.266-11.301-14.335C288.972,20.36,256,72.262,256,72.262S223.028,20.36,168.96,7.773
			c-8.293-1.93-15.145,6.738-11.301,14.335c5.48,10.83,10.726,27.194,10.726,50.153c0,0-42.334-47.626-100.027-57.475
			c-8.404-1.435-14.704,7.524-10.502,14.942c17.143,30.26,50.251,96.819,50.251,159.524v133.492
			c0,62.706-33.108,129.265-50.251,159.524c-4.202,7.418,2.098,16.377,10.502,14.942c57.693-9.849,100.027-57.475,100.027-57.475
			c0,22.96-5.247,39.324-10.726,50.154c-3.844,7.597,3.009,16.266,11.301,14.335C223.028,491.64,256,439.738,256,439.738
			s32.972,51.902,87.04,64.489c8.293,1.93,15.145-6.738,11.301-14.335c-5.48-10.83-10.726-27.194-10.726-50.154
			c0,0,42.334,47.626,100.027,57.475c8.404,1.435,14.704-7.525,10.502-14.942C437.002,452.011,403.894,385.452,403.894,322.746z"/>
		<path style="fill:#C94D2F;" d="M138.106,327.157V184.843c0-63.038-29.435-129.714-47.166-164.164
			c-7.2-2.517-14.748-4.555-22.582-5.892c-8.404-1.435-14.704,7.524-10.502,14.942c17.142,30.26,50.251,96.819,50.251,159.524
			v133.492c0,62.706-33.108,129.265-50.251,159.524c-4.202,7.418,2.098,16.377,10.502,14.942c7.834-1.337,15.382-3.375,22.582-5.892
			C108.671,456.871,138.106,390.195,138.106,327.157z"/>
		<path style="fill:#423E4F;" d="M312.975,251.188c-7.04-4.869-15.101-3.352-21.724,1.229c-7.07,4.89-16.43,4.89-23.501,0
			s-16.43-4.89-23.501,0c-7.07,4.89-16.43,4.89-23.501,0c-6.657-4.604-14.652-6.12-21.724-1.229
			c-8.471,5.859-13.527,15.503-13.527,25.804c0,10.3,5.056,19.944,13.527,25.803c7.004,4.844,15.122,3.338,21.724-1.229
			c7.07-4.89,16.43-4.89,23.501,0c7.07,4.89,16.43,4.89,23.501,0c7.07-4.89,16.43-4.89,23.501,0
			c6.657,4.605,14.654,6.119,21.724,1.229c8.471-5.859,13.527-15.503,13.527-25.804
			C326.502,266.692,321.446,257.048,312.975,251.188z"/>
	</g>
	<g>
		<path d="M286.983,246.248c-4.477,3.096-10.491,3.096-14.968,0c-9.58-6.626-22.452-6.626-32.032,0
			c-4.476,3.096-10.491,3.096-14.968,0c-10.028-6.936-21.339-7.396-30.255-1.229c-22.329,15.444-22.324,48.502,0,63.941
			c8.916,6.167,20.226,5.708,30.256-1.228c4.475-3.097,10.491-3.097,14.967,0c9.579,6.625,22.452,6.625,32.032,0
			c4.476-3.096,10.491-3.096,14.967,0c9.471,6.55,20.862,7.726,30.256,1.229c22.329-15.445,22.323-48.501,0-63.942
			C308.322,238.851,297.011,239.311,286.983,246.248z M308.706,296.624c-4.717,3.263-9.776,1.132-13.191-1.229
			c-9.578-6.625-22.452-6.626-32.032,0c-4.476,3.096-10.491,3.097-14.968,0c-9.58-6.626-22.452-6.626-32.032,0
			c-2.795,1.934-8.224,4.663-13.191,1.228c-13.712-9.483-13.709-29.786,0-39.268c4.717-3.263,9.776-1.133,13.191,1.229
			c9.58,6.626,22.452,6.626,32.032,0c4.477-3.097,10.492-3.096,14.968,0c9.58,6.626,22.453,6.626,32.032,0
			c3.414-2.361,8.473-4.492,13.19-1.229C322.42,266.841,322.415,287.143,308.706,296.624z"/>
		<path d="M193.998,207.086l-30.395-8.144c-4.003-1.073-8.113,1.302-9.185,5.303c-1.072,4.001,1.302,8.113,5.303,9.185l11.264,3.018
			c-0.854,1.218-1.359,2.698-1.359,4.298v13.093c0,4.142,3.357,7.5,7.5,7.5c4.141,0,7.5-3.358,7.5-7.5
			c-0.015-13.785,0.031-12.998-0.033-13.745c5.239,1.333,5.843,1.737,7.47,1.737c3.311,0,6.342-2.21,7.239-5.561
			C200.372,212.271,197.998,208.158,193.998,207.086z"/>
		<path d="M357.582,204.246c-1.072-4.001-5.183-6.373-9.185-5.303l-30.395,8.144c-4.001,1.072-6.375,5.184-5.303,9.185
			c1.073,4.003,5.184,6.374,9.185,5.303l5.524-1.48c-0.063,0.733-0.018-0.046-0.033,13.745c0,4.142,3.358,7.5,7.5,7.5
			c4.142,0,7.5-3.358,7.5-7.5v-13.093c0-1.6-0.505-3.08-1.359-4.298l11.264-3.018C356.28,212.358,358.655,208.246,357.582,204.246z"
			/>
		<path d="M500.491,244.26C500.49,244.26,500.49,244.26,500.491,244.26l-10.565-3.279l5.689-10.632
			c4.376-8.174,0.208-18.299-8.631-21.043l-10.565-3.279l5.69-10.633c4.374-8.177,0.207-18.298-8.632-21.042
			c-5.242-1.013-17.735-8.291-34.096-1.966l-27.883,10.774c2.119-60.401,34.832-124.428,49.164-149.726
			c3.384-5.974,3.036-13.175-0.909-18.793c-3.947-5.621-10.607-8.396-17.38-7.238c-39.844,6.801-72.254,30.367-89.9,45.847
			c1.546-10.261,4.407-19.546,8.556-27.747c6.715-13.273-5.194-28.399-19.694-25.025C298.289,10.499,268.38,43.4,256,59.41
			c-12.38-16.01-42.29-48.911-85.336-58.932c-14.486-3.374-26.414,11.742-19.693,25.025c4.15,8.201,7.009,17.486,8.556,27.747
			C141.881,37.77,109.471,14.205,69.627,7.403C54.991,4.904,44.022,20.521,51.338,33.434c6.86,12.108,16.981,31.329,26.243,54.132
			c1.559,3.838,5.933,5.685,9.77,4.126c3.838-1.559,5.685-5.933,4.127-9.771c-9.565-23.549-20.011-43.386-27.089-55.881
			c-1.082-1.91,0.516-4.228,2.715-3.852c54.31,9.271,95.276,54.61,95.68,55.062c4.567,5.138,13.105,1.902,13.105-4.982
			c0-20.399-3.881-38.412-11.534-53.537c-0.963-1.904,0.782-4.139,2.909-3.644c50.329,11.716,82.096,60.716,82.406,61.203
			c2.339,3.681,6.433,3.501,6.333,3.475c2.56,0,4.946-1.31,6.324-3.468c0.315-0.494,32.081-49.493,82.411-61.21
			c2.123-0.496,3.874,1.738,2.909,3.644c-7.653,15.126-11.534,33.139-11.534,53.537c0,6.867,8.52,10.123,13.101,4.987
			c0.407-0.457,41.374-45.796,95.684-55.067c2.179-0.37,3.808,1.923,2.714,3.852c-8.8,15.534-21.507,40.062-32.064,68.694
			c-22.203,60.218-18.8,95.785-19.159,99.406c0,15.032,0,112.93,0,128.601c0,26.723,5.788,56.697,17.201,89.09
			c1.373,3.894,5.649,5.961,9.566,4.581c3.907-1.376,5.958-5.659,4.581-9.566c-18.669-52.983-16.085-84.343-16.349-87.045
			l73.261-28.309c17.495-6.761,21.47-21.882,24.474-26.19C513.497,257.126,509.329,247.003,500.491,244.26z M491.279,266.856
			c-2.608,4.873-6.883,8.654-12.039,10.646l-67.854,26.221V199.284l33.4-12.907c4.834-1.868,10.221-2.051,15.17-0.515l8.782,2.725
			l-9.831,18.372c-2.222,4.15-0.108,9.305,4.389,10.701l18.949,5.881l-9.832,18.372c-2.221,4.151-0.108,9.305,4.389,10.701
			l18.948,5.881L491.279,266.856z"/>
		<path d="M51.338,478.563c-7.319,12.917,3.659,28.531,18.289,26.031c39.844-6.801,72.254-30.366,89.899-45.847
			c-1.547,10.261-4.406,19.546-8.556,27.747c-6.715,13.273,5.192,28.399,19.693,25.025c43.046-10.021,72.956-42.922,85.336-58.932
			c12.38,16.01,42.289,48.911,85.336,58.932c14.551,3.39,26.378-11.81,19.693-25.025c-4.15-8.201-7.01-17.486-8.556-27.747
			c17.646,15.48,50.056,39.045,89.899,45.847c14.64,2.499,25.604-13.117,18.289-26.031c-5.612-9.906-14.022-25.677-22.219-44.553
			c-1.649-3.799-6.066-5.541-9.866-3.892c-3.8,1.65-5.542,6.067-3.892,9.866c8.459,19.478,17.136,35.751,22.927,45.972
			c1.088,1.919-0.522,4.223-2.714,3.852c-54.31-9.271-95.277-54.609-95.68-55.062c-4.568-5.137-13.105-1.902-13.105,4.983
			c0,20.399,3.881,38.411,11.534,53.537c0.967,1.91-0.788,4.141-2.909,3.645c-50.329-11.716-82.095-60.716-82.407-61.203
			c-2.955-4.654-9.735-4.585-12.656-0.007c-0.315,0.494-32.081,49.493-82.41,61.21c-2.124,0.493-3.874-1.737-2.909-3.644
			c7.653-15.125,11.534-33.138,11.534-53.537c0-6.873-8.531-10.128-13.105-4.983c-0.406,0.457-41.214,45.765-95.68,55.062
			c-2.205,0.372-3.794-1.946-2.714-3.852c26.721-47.169,51.223-108.524,51.223-163.214c0-14.521,0-119.24,0-133.487
			c0-23.873-4.645-50.449-13.808-78.993c-1.267-3.944-5.488-6.115-9.433-4.848c-3.944,1.266-6.115,5.49-4.848,9.433
			c7.904,24.623,12.25,47.563,12.971,68.31l-27.874-10.771c-16.486-6.372-29.006,0.983-34.096,1.966
			c-8.857,2.749-12.997,12.883-8.631,21.043l5.69,10.632l-10.565,3.279c-8.856,2.749-12.997,12.882-8.631,21.043l5.69,10.632
			l-10.565,3.279c-8.855,2.748-12.999,12.883-8.631,21.043c3.119,4.474,7.095,19.474,24.475,26.191l73.26,28.309
			C100.232,321.266,105.694,382.612,51.338,478.563z M32.759,277.502c-5.156-1.993-9.431-5.774-12.039-10.647l-4.474-8.361
			l18.948-5.881c4.496-1.396,6.611-6.548,4.389-10.701l-9.831-18.372l18.948-5.881c4.496-1.396,6.611-6.548,4.389-10.701
			l-9.831-18.372l8.781-2.725c4.949-1.536,10.336-1.353,15.17,0.515l33.399,12.906v104.438L32.759,277.502z"/>
	</g>
</g>
<g>
</g>
<g>
</g>
<g>
</g>
<g>
</g>
<g>
</g>
<g>
</g>
<g>
</g>
<g>
</g>
<g>
</g>
<g>
</g>
<g>
</g>
<g>
</g>
<g>
</g>
<g>
</g>
<g>
</g>
</svg>
