<?xml version="1.0" encoding="iso-8859-1"?>
<!-- Generator: Adobe Illustrator 23.0.3, SVG Export Plug-In . SVG Version: 6.00 Build 0)  -->
<svg version="1.1" id="Capa_1" xmlns="http://www.w3.org/2000/svg" xmlns:xlink="http://www.w3.org/1999/xlink" x="0px" y="0px"
	 viewBox="0 0 512 512" style="enable-background:new 0 0 512 512;" xml:space="preserve">
<g>
	<g>
		<path style="fill:#F9D171;" d="M374.452,473.416l64.506-290.731c1.873-8.439,0.938-17.26-2.662-25.119L378.162,30.654
			C371.699,16.546,357.606,7.5,342.088,7.5H169.912c-15.518,0-29.612,9.046-36.074,23.154L75.704,157.566
			c-3.6,7.859-4.535,16.679-2.662,25.119l64.506,290.731c4.029,18.161,20.134,31.084,38.737,31.084h159.432
			C354.318,504.5,370.423,491.577,374.452,473.416z"/>
		<path style="fill:#996ACC;" d="M170.732,438.707l-56.303-253.762c-1.559-7.026-0.781-14.369,2.217-20.912l44.589-97.341
			c5.38-11.745,17.113-19.276,30.032-19.276h129.467c12.919,0,24.652,7.531,30.033,19.277l44.588,97.341
			c2.997,6.543,3.775,13.886,2.217,20.912l-56.303,253.762c-3.354,15.119-16.762,25.878-32.249,25.878H202.981
			C187.494,464.585,174.087,453.826,170.732,438.707z"/>
		<path style="fill:#6D36AB;" d="M200.732,438.707l-56.303-253.762c-1.559-7.026-0.781-14.369,2.217-20.912l44.589-97.341
			c5.38-11.745,17.113-19.276,30.032-19.276h-30c-12.919,0-24.652,7.531-30.032,19.276l-44.589,97.341
			c-2.997,6.543-3.775,13.886-2.217,20.912l56.303,253.762c3.354,15.119,16.762,25.878,32.249,25.878h30
			C217.494,464.585,204.087,453.826,200.732,438.707z"/>
		<path style="fill:#F9D171;" d="M323.137,165.182h-34.726c-5.416,0-9.807-4.391-9.807-9.807v-39.298
			c0-5.416-4.391-9.807-9.807-9.807h-25.595c-5.416,0-9.807,4.391-9.807,9.807v39.298c0,5.416-4.391,9.807-9.807,9.807h-34.726
			c-5.416,0-9.807,4.391-9.807,9.807v25.595c0,5.416,4.391,9.807,9.807,9.807h34.726c5.416,0,9.807,4.391,9.807,9.807v139.086
			c0,5.416,4.391,9.807,9.807,9.807h25.595c5.416,0,9.807-4.391,9.807-9.807V220.196c0-5.416,4.391-9.807,9.807-9.807h34.726
			c5.416,0,9.807-4.391,9.807-9.807v-25.595C332.943,169.572,328.553,165.182,323.137,165.182z"/>
	</g>
	<g>
		<path d="M110.052,82.583c-3.765-1.723-8.216-0.07-9.942,3.695l-31.224,68.165c-4.254,9.287-5.378,19.894-3.166,29.867
			l64.506,290.731C135.054,496.802,153.994,512,176.284,512h159.432c22.29,0,41.23-15.198,46.059-36.959l64.506-290.731
			c2.212-9.973,1.088-20.58-3.166-29.866L384.98,27.531C377.319,10.807,360.483,0,342.088,0H169.912
			c-18.395,0-35.231,10.807-42.893,27.531l-14.495,31.643c-1.725,3.766-0.071,8.217,3.695,9.942c3.767,1.725,8.217,0.07,9.942-3.695
			l14.495-31.643C145.882,22.371,157.366,15,169.912,15h172.176c12.546,0,24.03,7.371,29.255,18.778l58.134,126.912
			c2.901,6.334,3.668,13.568,2.16,20.371l-64.506,290.731C363.837,486.634,350.919,497,335.716,497H176.284
			c-15.203,0-28.122-10.366-31.415-25.208l-64.506-290.73c-1.509-6.803-0.742-14.037,2.16-20.371l31.224-68.165
			C115.472,88.759,113.817,84.308,110.052,82.583z"/>
		<path d="M350.194,363.852c-0.897,4.044,1.653,8.049,5.697,8.946c4.047,0.899,8.049-1.654,8.946-5.697l40.055-180.531
			c1.901-8.568,0.935-17.681-2.72-25.66l-44.588-97.341c-6.582-14.369-21.046-23.654-36.851-23.654H191.267
			c-15.805,0-30.27,9.285-36.851,23.653l-44.589,97.341c-3.655,7.979-4.621,17.092-2.719,25.66l56.303,253.762
			c4.148,18.696,20.421,31.754,39.571,31.754h106.038c19.151,0,35.423-13.058,39.571-31.754l9.903-44.634
			c0.897-4.043-1.653-8.049-5.697-8.946c-4.042-0.897-8.049,1.654-8.946,5.697l-9.903,44.634
			c-2.613,11.777-12.864,20.003-24.927,20.003H202.981c-12.063,0-22.313-8.226-24.927-20.003L121.751,183.32
			c-1.197-5.397-0.589-11.138,1.713-16.164l44.589-97.341c4.146-9.051,13.258-14.9,23.213-14.9h129.467
			c9.956,0,19.067,5.849,23.213,14.9l44.588,97.341c2.302,5.026,2.911,10.767,1.714,16.164L350.194,363.852z"/>
		<path d="M243.202,376.589h25.595c9.543,0,17.307-7.764,17.307-17.307V220.196c0-1.272,1.035-2.307,2.307-2.307h34.726
			c9.542,0,17.306-7.764,17.306-17.306v-25.595c0-9.543-7.764-17.307-17.306-17.307h-34.726c-1.272,0-2.307-1.035-2.307-2.307
			v-39.298c0-9.543-7.764-17.307-17.307-17.307h-25.595c-9.543,0-17.307,7.764-17.307,17.307v39.298
			c0,1.272-1.035,2.307-2.306,2.307h-34.726c-9.543,0-17.307,7.764-17.307,17.307v25.595c0,9.542,7.764,17.306,17.307,17.306h34.726
			c1.271,0,2.306,1.035,2.306,2.307v139.086C225.896,368.825,233.659,376.589,243.202,376.589z M223.589,202.89h-34.726
			c-1.272,0-2.307-1.035-2.307-2.306v-25.595c0-1.272,1.035-2.307,2.307-2.307h34.726c9.542,0,17.306-7.764,17.306-17.307v-39.298
			c0-1.272,1.035-2.307,2.307-2.307h25.595c1.272,0,2.307,1.035,2.307,2.307v39.298c0,9.543,7.764,17.307,17.307,17.307h34.726
			c1.271,0,2.306,1.035,2.306,2.307v25.595c0,1.271-1.035,2.306-2.306,2.306h-34.726c-9.543,0-17.307,7.764-17.307,17.307v139.086
			c0,1.272-1.035,2.307-2.307,2.307h-25.595c-1.272,0-2.307-1.035-2.307-2.307V220.196
			C240.896,210.653,233.132,202.89,223.589,202.89z"/>
	</g>
</g>
<g>
</g>
<g>
</g>
<g>
</g>
<g>
</g>
<g>
</g>
<g>
</g>
<g>
</g>
<g>
</g>
<g>
</g>
<g>
</g>
<g>
</g>
<g>
</g>
<g>
</g>
<g>
</g>
<g>
</g>
</svg>
