<?xml version="1.0" encoding="iso-8859-1"?>
<!-- Generator: Adobe Illustrator 23.0.3, SVG Export Plug-In . SVG Version: 6.00 Build 0)  -->
<svg version="1.1" id="Capa_1" xmlns="http://www.w3.org/2000/svg" xmlns:xlink="http://www.w3.org/1999/xlink" x="0px" y="0px"
	 viewBox="0 0 512 512" style="enable-background:new 0 0 512 512;" xml:space="preserve">
<g>
	<g>
		<path style="fill:#FF9C86;" d="M443.981,21.74l-5.809-4.252c-7.177-5.253-17.209-3.975-22.839,2.91l-75.494,92.327l43.081,31.534
			l65.19-99.869C452.972,36.943,451.158,26.994,443.981,21.74z"/>
		<path style="fill:#5C576E;" d="M482.108,263.317h-45.413v44.784h45.413c12.367,0,22.392-10.025,22.392-22.392v0
			C504.5,273.342,494.475,263.317,482.108,263.317z"/>
		<path style="fill:#5C576E;" d="M29.892,263.317h45.413v44.784H29.892c-12.367,0-22.392-10.025-22.392-22.392v0
			C7.5,273.342,17.525,263.317,29.892,263.317z"/>
		<path style="fill:#5C576E;" d="M109.634,368.869L72.658,475.461c-3.782,10.903,4.314,22.282,15.855,22.282h11.435
			c5.96,0,11.474-3.161,14.484-8.306l43.954-75.106L109.634,368.869z"/>
		<path style="fill:#5C576E;" d="M402.366,368.869l36.977,106.592c3.782,10.903-4.314,22.282-15.855,22.282h-11.435
			c-5.96,0-11.474-3.161-14.484-8.306l-43.954-75.106L402.366,368.869z"/>
		<path style="fill:#423E4F;" d="M436.695,263.317v44.784h45.413c1.57,0,3.102-0.163,4.581-0.471
			c1.894-12.051,2.875-24.332,2.875-36.765c0-2.101-0.031-4.202-0.087-6.302c-2.308-0.804-4.786-1.247-7.369-1.247H436.695z"/>
		<path style="fill:#423E4F;" d="M424.479,432.615l-22.113-63.746l-48.752,45.463l30.408,51.959
			c13.23-8.705,25.675-18.813,37.133-30.27C422.279,434.897,423.381,433.757,424.479,432.615z"/>
		<path style="fill:#423E4F;" d="M87.521,432.615c1.098,1.143,2.2,2.282,3.324,3.406c11.458,11.458,23.903,21.565,37.133,30.27
			l30.408-51.959l-48.752-45.463L87.521,432.615z"/>
		<path style="fill:#423E4F;" d="M22.523,264.564c-0.056,2.1-0.087,4.201-0.087,6.302c0,12.433,0.981,24.714,2.875,36.765
			c1.479,0.308,3.011,0.471,4.581,0.471h45.413v-44.784H29.892C27.309,263.317,24.831,263.759,22.523,264.564z"/>
		<path style="fill:#996ACC;" d="M57.426,225.913c-3.26,14.463-4.991,29.505-4.991,44.952c0,112.426,91.139,203.565,203.565,203.565
			s203.565-91.139,203.565-203.565c0-15.448-1.73-30.49-4.991-44.952L256,196.324L57.426,225.913z"/>
		<path style="fill:#6D36AB;" d="M82.435,270.866c0-15.448,1.731-30.49,4.991-44.952L271,198.559l-15-2.235L57.426,225.913
			c-3.26,14.463-4.991,29.505-4.991,44.952c0,112.426,91.139,203.564,203.565,203.564c5.046,0,10.046-0.191,15-0.552
			C165.579,466.2,82.435,378.246,82.435,270.866z"/>
		<g>
			<ellipse style="fill:#FFA1AC;" cx="147.443" cy="338.256" rx="40.055" ry="31.898"/>
			<ellipse style="fill:#FFA1AC;" cx="364.557" cy="338.256" rx="40.055" ry="31.898"/>
		</g>
		<path style="fill:#80E0B7;" d="M388.601,208.317c27.263,0,49.364-22.101,49.364-49.364s-22.101-49.364-49.364-49.364
			c-4.894,0-9.617,0.723-14.081,2.049c-4.456-29.397-29.833-51.927-60.474-51.927c-9.866,0-19.178,2.35-27.43,6.498
			c-12.858-17.823-33.79-29.436-57.446-29.436c-37.163,0-67.618,28.637-70.552,65.045c-7.213-2.992-15.118-4.651-23.414-4.651
			c-33.783,0-61.17,27.387-61.17,61.17c0,33.783,27.387,61.17,61.17,61.17L388.601,208.317z"/>
		<path style="fill:#00B762;" d="M137.295,196.324c-14.162-11.203-23.261-28.528-23.261-47.988c0-21.213,10.802-39.9,27.202-50.872
			c-1.984-0.195-3.996-0.298-6.032-0.298c-33.783,0-61.17,27.387-61.17,61.17c0,14.359,4.961,27.552,13.244,37.988H137.295z"/>
		<path style="fill:#5C576E;" d="M452.88,166.735H59.12c-13.201,0-23.902,10.701-23.902,23.902v11.373
			c0,13.201,10.701,23.902,23.902,23.902h393.76c13.201,0,23.902-10.701,23.902-23.902v-11.373
			C476.782,177.436,466.081,166.735,452.88,166.735z"/>
		<path style="fill:#423E4F;" d="M65.218,202.011v-11.373c0-13.201,10.702-23.902,23.902-23.902h-30
			c-13.201,0-23.902,10.701-23.902,23.902v11.373c0,13.201,10.702,23.903,23.902,23.903h30
			C75.919,225.913,65.218,215.212,65.218,202.011z"/>
	</g>
	<g>
		<path d="M170.787,283.676c-4.142,0-7.5,3.358-7.5,7.5v16.374c0,4.142,3.358,7.5,7.5,7.5s7.5-3.358,7.5-7.5v-16.374
			C178.287,287.034,174.929,283.676,170.787,283.676z"/>
		<path d="M341.212,283.676c-4.142,0-7.5,3.358-7.5,7.5v16.374c0,4.142,3.358,7.5,7.5,7.5s7.5-3.358,7.5-7.5v-16.374
			C348.712,287.034,345.354,283.676,341.212,283.676z"/>
		<path d="M283.393,301.409c-3.122-2.721-7.86-2.396-10.582,0.727c-8.904,10.217-24.729,10.205-33.623,0
			c-2.722-3.124-7.459-3.448-10.582-0.727c-3.123,2.721-3.448,7.459-0.727,10.582c14.881,17.077,41.374,17.059,56.24,0
			C286.841,308.867,286.516,304.13,283.393,301.409z"/>
		<path d="M482.108,255.817h-15.597c-0.577-8.135-1.617-16.227-3.121-24.219c12.161-4.333,20.893-15.957,20.893-29.587v-11.374
			c0-17.315-14.087-31.402-31.402-31.402h-7.42c0.112-21.613-11.973-40.841-30.35-50.568l39.281-60.177
			c7.04-10.786,4.413-25.194-5.98-32.802l-5.809-4.253c-10.394-7.608-24.922-5.755-33.075,4.215l-46.607,57
			c-19.618-19.887-48.949-25.597-74.019-15.678c-28.704-33.812-80.051-37.335-112.943-6.829
			c-12.095,11.218-20.245,25.78-23.492,41.716c-43.869-11.401-86.542,22.288-85.916,67.375H59.12
			c-17.315,0-31.402,14.087-31.402,31.402v11.374c0,13.63,8.731,25.255,20.893,29.587c-1.504,7.991-2.544,16.083-3.121,24.219
			H29.892C13.41,255.817,0,269.226,0,285.709c0,16.483,13.41,29.893,29.892,29.893h19.83c6.915,31.914,21.059,61.164,40.642,85.934
			l-24.792,71.468c-5.466,15.756,6.26,32.241,22.94,32.241h11.435c8.588,0,16.619-4.604,20.958-12.018l24.844-42.452
			c67.577,41.565,152.934,41.56,220.503,0l24.844,42.452c4.338,7.413,12.369,12.017,20.957,12.017h11.435
			c16.677,0,28.408-16.481,22.941-32.24l-24.792-71.469c19.583-24.77,33.727-54.02,40.642-85.934h19.831
			c16.482,0,29.892-13.41,29.892-29.893C512,269.226,498.59,255.817,482.108,255.817z M372.426,84.721l48.713-59.575
			c3.106-3.799,8.642-4.505,12.603-1.606l5.809,4.252c0,0,0,0,0,0c3.96,2.898,4.961,8.389,2.279,12.499l-41.181,63.086
			c-6.695-1.443-13.586-1.681-20.373-0.678C378.524,96.314,375.804,90.173,372.426,84.721z M47.026,300.601H29.892
			c-8.211,0-14.892-6.681-14.892-14.893c0-8.211,6.681-14.892,14.892-14.892h15.043C44.935,280.884,45.68,291.059,47.026,300.601z
			 M107.959,485.65c-1.659,2.834-4.729,4.594-8.012,4.594H88.513c-6.392,0-10.864-6.287-8.769-12.324l21.893-63.111
			c9.571,10.259,20.134,19.541,31.557,27.723L107.959,485.65z M63.518,233.413h300.351c4.142,0,7.5-3.358,7.5-7.5
			s-3.358-7.5-7.5-7.5H59.12c-9.044,0-16.402-7.358-16.402-16.402v-11.374c0-9.044,7.358-16.402,16.402-16.402
			c24.47,0,55.936,0,65.681,0c4.142,0,7.5-3.358,7.5-7.5s-3.358-7.5-7.5-7.5H81.542c-0.687-38.495,38.573-65.269,74.202-50.49
			c4.703,1.949,9.942-1.259,10.349-6.325c1.273-15.799,8.399-30.459,20.065-41.279c27.936-25.909,72.162-21.335,94.375,9.456
			c2.155,2.987,6.16,3.966,9.451,2.313c27.307-13.728,60.23-1.681,72.858,25.673c5.692,12.432,2.602,16.176,7.658,19.386
			c3.77,2.394,6.138,0.484,11.703-0.378c25.52-3.888,48.395,15.858,48.261,41.644H154.8c-4.142,0-7.5,3.358-7.5,7.5
			s3.358,7.5,7.5,7.5c12.317,0,278.278,0,298.08,0c9.044,0,16.402,7.358,16.402,16.402v11.374c0,9.044-7.358,16.402-16.402,16.402
			h-59.012c-4.142,0-7.5,3.358-7.5,7.5s3.358,7.5,7.5,7.5h54.614C471.712,353.521,379.83,466.93,256,466.93
			C132.67,466.93,40.193,354.006,63.518,233.413z M423.487,490.244h-11.435c-3.283,0-6.353-1.76-8.011-4.594l-25.234-43.119
			c11.422-8.182,21.986-17.463,31.557-27.723l21.893,63.111C434.346,483.946,429.889,490.244,423.487,490.244z M482.108,300.601
			h-17.134c1.446-10.253,2.091-20.474,2.091-29.784h15.043c8.211,0,14.892,6.68,14.892,14.892
			C497,293.921,490.319,300.601,482.108,300.601z"/>
	</g>
</g>
<g>
</g>
<g>
</g>
<g>
</g>
<g>
</g>
<g>
</g>
<g>
</g>
<g>
</g>
<g>
</g>
<g>
</g>
<g>
</g>
<g>
</g>
<g>
</g>
<g>
</g>
<g>
</g>
<g>
</g>
</svg>
