<?xml version="1.0" encoding="iso-8859-1"?>
<!-- Generator: Adobe Illustrator 23.0.3, SVG Export Plug-In . SVG Version: 6.00 Build 0)  -->
<svg version="1.1" id="Capa_1" xmlns="http://www.w3.org/2000/svg" xmlns:xlink="http://www.w3.org/1999/xlink" x="0px" y="0px"
	 viewBox="0 0 512 512" style="enable-background:new 0 0 512 512;" xml:space="preserve">
<g>
	<g>
		<path style="fill:#B7B5BD;" d="M385.793,433.73c11.253,17.873,20.56,41.506,20.56,70.77H105.647
			c0-29.264,9.307-52.897,20.56-70.77H385.793z"/>
		<path style="fill:#A29DAE;" d="M135.647,504.5c0-29.264,9.307-52.897,20.56-70.77h-30c-7.033,11.17-13.306,24.591-17.022,40.23
			c-2.229,9.383-3.538,19.565-3.538,30.54H135.647z"/>
		<path style="fill:#DADADA;" d="M385.793,433.73c-24.571,18.831-73.477,31.665-129.793,31.665s-105.221-12.834-129.793-31.665
			c17.181-27.288,38.877-41.15,38.877-41.15h181.83C346.915,392.58,368.611,406.442,385.793,433.73z"/>
		<path style="fill:#B7B5BD;" d="M156.207,433.73c17.181-27.288,38.878-41.15,38.878-41.15h-30c0,0-21.696,13.862-38.878,41.15
			c6.161,4.722,13.853,9.066,22.807,12.926C151.262,442.063,153.681,437.743,156.207,433.73z"/>
		<path style="fill:#DADADA;" d="M411.243,79.554c18.841,22.269,32.969,48.639,40.863,77.587H59.893
			c7.894-28.948,22.022-55.318,40.863-77.587L256,43.527L411.243,79.554z"/>
		<path style="fill:#DADADA;" d="M411.243,341.955v-0.01c18.841-22.269,32.969-48.639,40.863-77.587H59.893
			c7.894,28.948,22.022,55.318,40.863,77.587v0.01L256,377.978L411.243,341.955z"/>
		<path style="fill:#B7B5BD;" d="M130.757,341.955v-0.01c-18.841-22.27-32.969-48.639-40.863-77.587h-30
			c5.427,19.902,13.801,38.585,24.627,55.555c4.921,7.714,10.349,15.073,16.236,22.032l0,0v0.01l37.911,8.797
			C135.951,347.894,133.305,344.968,130.757,341.955z"/>
		<path style="fill:#B7B5BD;" d="M411.243,341.955C373.956,386.02,318.244,414,256,414s-117.956-27.98-155.243-72.044
			c44.223,8.339,97.673,13.219,155.243,13.219S367.021,350.294,411.243,341.955z"/>
		<path style="fill:#80E0B7;" d="M459.25,210.75c0,18.554-2.49,36.526-7.143,53.599v0.01
			c-49.992,13.98-119.389,22.645-196.107,22.645s-146.114-8.665-196.107-22.645v-0.01c-4.653-17.073-7.143-35.044-7.143-53.599
			c0-18.555,2.49-36.516,7.143-53.599v-0.01c49.992-13.97,119.389-22.635,196.107-22.635s146.114,8.665,196.107,22.635v0.01
			C456.76,174.234,459.25,192.195,459.25,210.75z"/>
		<g>
			<ellipse style="fill:#FFA1AC;" cx="149.151" cy="224.222" rx="39.425" ry="31.396"/>
			<ellipse style="fill:#FFA1AC;" cx="362.848" cy="224.222" rx="39.425" ry="31.396"/>
		</g>
		<path style="fill:#B7B5BD;" d="M411.243,79.554C367.021,71.216,313.57,66.335,256,66.335s-111.021,4.881-155.243,13.219
			C138.044,35.48,193.756,7.5,256,7.5S373.956,35.48,411.243,79.554z"/>
		<path style="fill:#A29DAE;" d="M264.93,413.787c2.03-0.092,4.055-0.205,6.07-0.352c-53.517-3.905-101.279-28.525-135.307-65.881
			c-12.172-1.634-23.845-3.507-34.936-5.599C138.043,386.02,193.756,414,256,414c1.608,0,3.21-0.03,4.809-0.067
			C261.533,413.914,264.279,413.815,264.93,413.787z"/>
		<path style="fill:#B7B5BD;" d="M130.757,79.554c2.549-3.012,5.193-5.94,7.91-8.798l-37.91,8.798c0,0,0,0,0,0
			c-8.243,9.743-15.584,20.271-21.895,31.455c-8.115,14.381-14.528,29.848-18.968,46.132h30
			C97.787,128.193,111.916,101.824,130.757,79.554z"/>
		<path style="fill:#A29DAE;" d="M100.757,79.554c11.091-2.091,22.763-3.965,34.935-5.599C169.72,36.591,217.482,11.97,271,8.065
			c-2.017-0.147-4.043-0.26-6.075-0.352C261.953,7.579,258.976,7.5,256,7.5C193.757,7.5,138.044,35.48,100.757,79.554z"/>
		<path style="fill:#00B762;" d="M89.893,264.348c-4.653-17.073-7.143-35.044-7.143-53.599c0-18.554,2.49-36.516,7.143-53.608
			c0.709-2.599,1.485-5.169,2.293-7.725c-11.474,2.345-22.279,4.927-32.293,7.735c-4.653,17.083-7.143,35.044-7.143,53.599
			c0,18.084,2.391,36.159,7.143,53.609c10.015,2.801,20.82,5.384,32.295,7.73C91.379,269.531,90.602,266.959,89.893,264.348z"/>
	</g>
	<g>
		<path d="M172.118,170.382c-4.142,0-7.5,3.358-7.5,7.5v16.116c0,4.142,3.358,7.5,7.5,7.5s7.5-3.358,7.5-7.5v-16.116
			C179.618,173.74,176.26,170.382,172.118,170.382z"/>
		<path d="M339.862,170.382c-4.142,0-7.5,3.358-7.5,7.5v16.116c0,4.142,3.358,7.5,7.5,7.5s7.5-3.358,7.5-7.5v-16.116
			C347.362,173.74,344.004,170.382,339.862,170.382z"/>
		<path d="M283.03,187.865c-3.123-2.722-7.861-2.397-10.582,0.726c-8.701,9.982-24.191,10.013-32.917,0
			c-2.722-3.123-7.459-3.448-10.582-0.727c-3.123,2.722-3.448,7.459-0.727,10.582c14.694,16.862,40.852,16.845,55.533,0
			C286.478,195.324,286.153,190.586,283.03,187.865z"/>
		<path d="M459.363,266.211C495.83,132.121,394.798,0,255.99,0C116.379,0,16.396,132.793,52.592,266.116
			c0.009,0.038,0.025,0.073,0.034,0.11c0.009,0.035,0.012,0.071,0.021,0.105c14.482,53.103,49.718,99.313,98.62,127.329
			c-31.86,26.779-53.129,66.098-53.129,110.839c0,4.142,3.358,7.5,7.5,7.5h300.706c4.142,0,7.5-3.358,7.5-7.5
			c0-44.45-21.059-83.884-53.13-110.839C410.808,364.962,445.687,317.496,459.363,266.211z M66.047,258.266
			c-7.741-31.072-7.745-63.927,0.001-95.032c102.101-27.41,270.884-29.151,379.884,0c7.738,31.073,7.75,63.928,0.001,95.032
			C342.739,285.904,173.641,287.164,66.047,258.266z M104.761,86.449c23.602-4.339,47.613-7.322,71.053-9.306
			c4.148-0.351,7.188-3.998,6.84-8.105c-0.349-4.127-3.975-7.202-8.106-6.841c-17.489,1.48-35.736,3.575-52.929,6.2
			C157.791,34.234,205.671,15,255.99,15s98.195,19.23,134.367,53.394c-59.446-9.086-126.372-11.41-187.214-8.169
			c-4.136,0.22-7.311,3.752-7.09,7.888c0.22,4.136,3.753,7.309,7.888,7.09c65.709-3.5,139.58-0.474,203.279,11.247
			c14.858,18.04,26.169,38.173,33.733,60.016c-107.583-26.52-267.146-25.316-369.925,0
			C78.592,124.622,89.903,104.489,104.761,86.449z M440.952,275.038c-7.566,21.848-18.88,41.982-33.743,60.025
			c-91.811,16.866-211.353,16.762-302.438,0c-14.863-18.042-26.177-38.177-33.743-60.025
			C177.561,301.265,336.931,300.668,440.952,275.038z M346.189,401.264c5.748,4.321,18.011,14.542,29.267,30.495
			c-17.734,11.146-37.682,15.413-39.915,16.555c-3.131,1.602-4.765,5.217-3.802,8.683c1.109,3.99,5.242,6.326,9.235,5.217
			c14.364-3.992,29.814-9.818,42.441-17.74c9.031,16.408,14.13,34.018,15.21,52.525h-285.27c1.08-18.506,6.179-36.115,15.209-52.522
			c40.989,25.727,118.215,34.478,182.565,24.176c4.09-0.655,6.875-4.501,6.22-8.591c-0.655-4.09-4.504-6.875-8.591-6.22
			c-18.752,3.002-38.182,4.273-57.55,4.02c-35.969-0.474-84.61-7.03-114.687-26.094c11.214-15.878,23.524-26.155,29.281-30.499
			c55.67,26.457,121.763,27.33,179.34,0.475C345.49,401.581,345.842,401.429,346.189,401.264z M269.388,406.037
			c-52.933,3.611-106.848-14.292-147.76-52.92c83.241,12.718,185.137,12.764,268.726,0
			C374.633,367.96,314.98,403.021,269.388,406.037z"/>
	</g>
</g>
<g>
</g>
<g>
</g>
<g>
</g>
<g>
</g>
<g>
</g>
<g>
</g>
<g>
</g>
<g>
</g>
<g>
</g>
<g>
</g>
<g>
</g>
<g>
</g>
<g>
</g>
<g>
</g>
<g>
</g>
</svg>
