<?xml version="1.0" encoding="iso-8859-1"?>
<!-- Generator: Adobe Illustrator 23.0.3, SVG Export Plug-In . SVG Version: 6.00 Build 0)  -->
<svg version="1.1" id="Capa_1" xmlns="http://www.w3.org/2000/svg" xmlns:xlink="http://www.w3.org/1999/xlink" x="0px" y="0px"
	 viewBox="0 0 512 512" style="enable-background:new 0 0 512 512;" xml:space="preserve">
<g>
	<path d="M173.567,252.571c4.142,0,7.5-3.357,7.5-7.5v-15.84c0-4.142-3.358-7.5-7.5-7.5s-7.5,3.358-7.5,7.5v15.84
		C166.067,249.213,169.425,252.571,173.567,252.571z"/>
	<path d="M338.434,252.571c4.142,0,7.5-3.357,7.5-7.5v-15.84c0-4.142-3.358-7.5-7.5-7.5s-7.5,3.358-7.5,7.5v15.84
		C330.934,249.213,334.292,252.571,338.434,252.571z"/>
	<path d="M283.388,249.527c2.721-3.123,2.396-7.86-0.727-10.582c-3.122-2.721-7.86-2.396-10.582,0.727
		c-8.499,9.753-23.635,9.781-32.158,0c-2.721-3.123-7.459-3.448-10.582-0.727c-3.123,2.722-3.448,7.459-0.727,10.582
		C243.107,266.159,268.909,266.141,283.388,249.527z"/>
	<path d="M37.659,281.578l-2.727,11.721c-3.804,16.349,0.002,33.265,10.439,46.41c10.438,13.145,26.052,20.684,42.837,20.684h21.804
		c14.398,19.417,32.573,35.868,53.427,48.269c-23.944,23.906-38.9,56.607-38.9,95.838c0,4.142,3.358,7.5,7.5,7.5h247.921
		c4.142,0,7.5-3.358,7.5-7.5c0-38.201-14.217-71.195-38.9-95.838c20.854-12.401,39.029-28.853,53.428-48.269h21.804
		c35.194,0,61.264-32.766,53.276-67.095l-2.727-11.72c5.541-8.369,8.779-18.391,8.779-29.158c0-16.68-7.758-31.574-19.846-41.291
		c-2.378-11.943-5.797-23.686-10.222-35.064h1.45c14.451,0,26.208-11.757,26.208-26.208v-11.036
		c0-14.451-11.757-26.208-26.208-26.208h-28.077c-0.325-1.008-20.941-64.999-20.998-65.174C396.286,19.065,370.119,0,340.314,0
		h-24.886c-4.142,0-7.5,3.358-7.5,7.5s3.358,7.5,7.5,7.5h24.886c23.269,0,43.698,14.885,50.836,37.041l7.081,21.975h-83.573
		c-2.088-16.653-16.381-29.705-33.706-29.705c-25.461,0.033-49.418-0.093-52.133,0.081c-16.267,1.067-29.471,13.623-31.477,29.624
		H113.77l7.081-21.975C127.989,29.885,148.418,15,171.687,15h113.741c4.142,0,7.5-3.358,7.5-7.5s-3.358-7.5-7.5-7.5H171.687
		c-29.804,0-55.971,19.065-65.113,47.44c-0.388,1.205-20.962,65.065-20.998,65.174H57.498c-14.451,0-26.207,11.757-26.207,26.208
		v11.036c0,14.451,11.756,26.208,26.207,26.208h1.45c-4.425,11.377-7.843,23.121-10.222,35.064
		C27.13,228.489,22.718,259.009,37.659,281.578z M78.3,214.624c-5.009,23.649-5.479,49.69-0.001,75.587
		c-19.231-1.767-34.417-18.027-34.417-37.79C43.881,232.659,59.105,216.373,78.3,214.624z M88.208,345.393
		c-12.182,0-23.514-5.472-31.09-15.012c-7.575-9.541-10.337-21.818-7.577-33.683l0.45-1.933
		c9.702,7.339,21.171,10.723,32.214,10.622c4.265,14.023,10.2,27.417,17.723,40.006H88.208z M139.743,497
		c1.027-18.822,5.951-36.179,14.696-51.827c19.795,38.46,71.359,46.514,101.562,15.396c30.697,31.623,82.732,22.265,101.562-15.396
		c8.745,15.648,13.669,33.005,14.696,51.828H139.743z M334.725,416.163c3.737,3.445,8.239,8.073,12.769,13.871
		c-10.476,36.179-57.543,47.142-82.681,17.954c-4.671-5.426-13.017-5.357-17.625,0c-24.904,28.919-72.081,18.62-82.681-17.953
		c4.532-5.799,9.033-10.427,12.77-13.872C226.43,439.803,284.64,440.252,334.725,416.163z M454.883,330.38
		c-7.576,9.541-18.908,15.012-31.09,15.012h-11.721c7.523-12.59,13.458-25.982,17.724-40.006
		c11.145,0.102,22.592-3.343,32.214-10.622C462.024,295.575,468.369,313.396,454.883,330.38z M468.121,252.42
		c0,19.695-15.123,36.017-34.418,37.79c5.24-24.777,5.257-50.766-0.001-75.587C452.733,216.358,468.121,232.48,468.121,252.42z
		 M445.725,201.78c-4.862-1.495-10.455-2.37-15.931-2.326c-2.129-6.99-5.418-15.781-8.948-23.389h16.035
		C440.426,184.43,443.382,193.027,445.725,201.78z M403.064,89.016l7.602,23.599h-95.741V89.016H403.064z M282.89,59.409
		c9.527,0.971,17.036,9.04,17.036,18.875c0,4.821,0,27.195,0,34.331H285.22V81.517c0-4.142-3.358-7.5-7.5-7.5h-43.439
		c-4.142,0-7.5,3.358-7.5,7.5v31.098h-14.705c0-9.155,0-27.955,0-34.331c0-10.461,8.511-18.973,18.973-18.973
		C283.354,59.345,281.114,59.228,282.89,59.409z M270.22,112.615h-28.439V89.017h28.439V112.615z M108.937,89.016h88.139v23.599
		h-95.741L108.937,89.016z M46.291,149.858v-11.036c0-6.18,5.027-11.208,11.207-11.208c51.465,0,354.433,0,397.005,0
		c6.18,0,11.208,5.028,11.208,11.208v11.036c0,6.18-5.028,11.208-11.208,11.208c-286.785,0-267.369-0.081-268.509,0.152
		c-3.464,0.71-5.989,3.764-5.989,7.348l0,0l0,0c0,4.15,3.367,7.5,7.5,7.5h216.63c59.393,114.982-30.182,252.579-161.386,242.48
		c-117.651-9.3-189.713-136.348-134.883-242.48c50.747-0.389,51.069,1.047,54.41-1.713c1.672-1.379,2.729-3.463,2.729-5.787l0,0l0,0
		c0-4.127-3.343-7.5-7.5-7.5c-11.028,0-89.858,0-100.008,0C51.318,161.066,46.291,156.038,46.291,149.858z M66.275,201.781
		c2.343-8.753,5.3-17.352,8.845-25.715h16.035c-3.172,6.836-6.526,15.439-8.948,23.389
		C76.755,199.407,71.214,200.261,66.275,201.781z"/>
</g>
<g>
</g>
<g>
</g>
<g>
</g>
<g>
</g>
<g>
</g>
<g>
</g>
<g>
</g>
<g>
</g>
<g>
</g>
<g>
</g>
<g>
</g>
<g>
</g>
<g>
</g>
<g>
</g>
<g>
</g>
</svg>
