<?xml version="1.0" encoding="iso-8859-1"?>
<!-- Generator: Adobe Illustrator 23.0.3, SVG Export Plug-In . SVG Version: 6.00 Build 0)  -->
<svg version="1.1" id="Capa_1" xmlns="http://www.w3.org/2000/svg" xmlns:xlink="http://www.w3.org/1999/xlink" x="0px" y="0px"
	 viewBox="0 0 512 512" style="enable-background:new 0 0 512 512;" xml:space="preserve">
<g>
	<path d="M54.17,502.697l141.922-141.922c104.366,75.594,251.635,32.671,300.431-84.44c28.982-69.134,17.208-151.007-34.893-209.494
		c-2.756-3.093-7.496-3.366-10.589-0.611c-3.093,2.755-3.367,7.496-0.611,10.589c15.873,17.819,27.871,37.996,35.775,60.131
		c-60.452-14.801-121.27,5.567-167.344,46.243c-3.897-68.249,25.33-123.427,68.745-152.37c15.165,6.735,29.357,15.519,42.238,26.148
		c3.194,2.637,7.922,2.184,10.558-1.011c2.636-3.194,2.184-7.922-1.011-10.558c-15.011-12.387-31.675-22.461-49.53-29.941
		c0,0,0,0,0,0c-40.907-17.151-87.05-20.12-129.941-8.367c-0.029,0.007-0.059,0.009-0.087,0.018
		c-33.114,9.084-63.532,26.8-87.965,51.233c-69.653,69.653-77.456,178.925-20.645,257.525l-86.027,86.028
		c-2.929,2.929-2.929,7.678,0,10.607c2.929,2.929,7.678,2.929,10.607,0l84.728-84.727c7.004,8.283,15.071,16.418,23.67,23.68
		L43.564,492.091c-6.527,6.526-17.148,6.527-23.675,0c-6.527-6.527-6.527-17.148,0-23.675l34.887-34.887
		c2.929-2.929,2.929-7.678,0-10.607c-2.929-2.929-7.678-2.929-10.607,0L9.282,457.809c-12.376,12.375-12.376,32.512,0,44.889
		C21.657,515.073,41.794,515.074,54.17,502.697z M254.577,374.066c41.924-32.793,69.291-87.22,67.286-153.785
		c15.392,18.424,27.362,38.759,34.694,61.124c10.943,33.354,10.331,69.213,1.404,96.447
		C323.886,386.43,287.788,385.063,254.577,374.066z M215.129,247.281c-28.83,6.425-58.58,4.5-81.002-2.843
		c-8.579-34.076-7.212-70.175,3.786-103.386c37.932,48.261,92.406,68.287,153.785,67.286
		C273.5,223.515,242.214,241.303,215.129,247.281z M414.204,150.367c27.801-5.49,55.942-3.297,77.185,3.654
		c8.584,34.076,7.218,70.178-3.787,103.398c-34.312-43.682-89.258-69.335-153.797-67.302
		C353.649,173.509,386.548,156.034,414.204,150.367z M375.034,372.663c13.273-54.36-0.625-115.655-46.254-167.334
		c26.984-1.545,46.662,1.448,69.065,7.983c35.642,11.31,66.243,35.14,83.312,60.77C460.707,320.167,421.941,355.817,375.034,372.663
		z M370.94,24.379c-41.956,32.961-69.325,86.948-67.3,153.795c-42.18-50.543-51.731-109.888-36.097-157.578
		C301.626,12.013,337.728,13.378,370.94,24.379z M250.469,25.792c-13.123,53.746,0.218,115.178,46.247,167.326
		c-68.178,3.909-123.351-25.172-152.37-68.745C164.795,78.29,203.561,42.639,250.469,25.792z M306.642,215.263
		c1.134,19.838-0.282,39.6-5.099,58.88c-9.897,39.55-34.997,74.455-63.646,93.491c-46.324-20.556-81.859-59.564-98.58-106.123
		C193.139,274.652,254.489,261.291,306.642,215.263z"/>
</g>
<g>
</g>
<g>
</g>
<g>
</g>
<g>
</g>
<g>
</g>
<g>
</g>
<g>
</g>
<g>
</g>
<g>
</g>
<g>
</g>
<g>
</g>
<g>
</g>
<g>
</g>
<g>
</g>
<g>
</g>
</svg>
