<?xml version="1.0" encoding="iso-8859-1"?>
<!-- Generator: Adobe Illustrator 23.0.3, SVG Export Plug-In . SVG Version: 6.00 Build 0)  -->
<svg version="1.1" id="Capa_1" xmlns="http://www.w3.org/2000/svg" xmlns:xlink="http://www.w3.org/1999/xlink" x="0px" y="0px"
	 viewBox="0 0 512 512" style="enable-background:new 0 0 512 512;" xml:space="preserve">
<g>
	<path d="M283.96,225.702c2.721-3.123,2.396-7.86-0.727-10.582c-3.122-2.721-7.86-2.396-10.582,0.727
		c-8.794,10.092-24.454,10.118-33.273,0c-2.722-3.123-7.459-3.448-10.582-0.727c-3.123,2.722-3.448,7.459-0.726,10.582
		C242.86,242.672,269.186,242.655,283.96,225.702z"/>
	<path d="M194.718,201.182c1.072-4.001-1.302-8.113-5.303-9.186l-32.581-8.73c-3.998-1.071-8.114,1.302-9.186,5.303
		c-1.072,4.001,1.302,8.114,5.304,9.186l12.861,3.446c-1.146,1.317-1.845,3.034-1.845,4.917v14.034c0,4.142,3.358,7.5,7.5,7.5
		s7.5-3.358,7.5-7.5c-0.049-14.621,0.11-14.173-0.14-15.464l6.704,1.797C189.54,207.557,193.647,205.179,194.718,201.182z"/>
	<path d="M364.382,188.569c-1.072-4.001-5.185-6.375-9.186-5.303l-32.581,8.73c-4.001,1.072-6.375,5.185-5.304,9.186
		c1.073,4.003,5.184,6.374,9.186,5.304l6.705-1.797c-0.25,1.294-0.091,0.822-0.14,15.464c0,4.142,3.358,7.5,7.5,7.5
		s7.5-3.358,7.5-7.5v-14.034c0-1.883-0.699-3.6-1.845-4.917l12.861-3.446C363.08,196.683,365.454,192.57,364.382,188.569z"/>
	<path d="M505.929,157.958c-2.852-12.326-16.363-18.848-27.802-13.437c-7.976,3.773-16.595,8.526-22.865,12.118
		C433.455,66.863,352.403,0,256.016,0c-40.96,0-80.504,12.045-114.355,34.833c-3.436,2.313-4.346,6.974-2.033,10.41
		c2.313,3.436,6.973,4.346,10.41,2.033C181.404,26.161,218.05,15,256.016,15c124.755,0,215.009,118.206,183.916,237.91
		c-26.703,102.504-131.415,162.294-231.494,136.119C94.604,359.576,34.672,234.24,82.487,127.469
		c10.579-23.624,25.636-44.54,44.753-62.167c3.045-2.808,3.238-7.553,0.43-10.598c-2.808-3.045-7.554-3.237-10.598-0.43
		c-30.758,28.361-51.126,64.298-60.348,102.338c-6.266-3.588-14.862-8.328-22.819-12.092c-11.436-5.41-24.95,1.107-27.803,13.437
		c-12.414,53.651-1.767,102.416,53.394,105.551c16.654,55.865,56.521,101.819,108.373,126.613
		c-33.345,23.989-55.2,63.74-55.2,114.378c0,4.142,3.358,7.5,7.5,7.5c61.56,0,217.846,0,271.693,0c4.142,0,7.5-3.358,7.5-7.5
		c0-13.024-1.421-25.593-4.225-37.358c-0.96-4.029-5.003-6.517-9.035-5.557c-4.029,0.96-6.517,5.005-5.557,9.035
		c1.994,8.366,3.214,17.211,3.643,26.38h-89.57l37.553-29.61c2.238-1.764,3.279-4.642,2.698-7.423
		c-0.685-3.281-2.149-3.497-14.874-18.765l34.503-21.524c6.533,7.442,12.079,15.688,16.525,24.582
		c1.852,3.705,6.357,5.207,10.063,3.354c3.705-1.853,5.207-6.357,3.354-10.063c-9.555-19.112-23.717-35.517-40.279-47.43
		c51.852-24.794,91.719-70.748,108.373-126.613c19.451-1.105,34.341-7.965,44.284-20.471
		C516.225,218.629,510.857,179.255,505.929,157.958z M55.536,248.118c-12.622-1.573-22.212-6.403-28.583-14.415
		c-6.647-8.361-16.298-28.881-6.237-72.365c0.69-2.982,3.959-4.59,6.774-3.258c9.472,4.48,20.238,10.622,26.11,14.063
		C49.646,196.728,50.117,222.761,55.536,248.118z M244.137,497h-2.498l-46.354-36.549l13.82-16.108
		c2.987-3.482,2.173-8.816-1.723-11.247l-38.938-24.291c6.412-5.584,12.192-9.367,15.991-11.592
		c11.224,4.18,22.862,7.375,34.698,9.526c6.136,16.886,22.829,62.818,28.903,79.533C247.716,487.153,244.613,495.689,244.137,497z
		 M276.087,409.082l-20.071,55.23c-5.842-16.075-13.84-38.082-20.071-55.23C249.763,410.424,263.389,410.321,276.087,409.082z
		 M127.844,497c1.736-36.912,16.124-61.826,29.693-77.32l34.499,21.522c-13.342,16.007-15.452,16.341-14.998,21.025
		c0.192,1.97,1.167,3.859,2.821,5.163L217.413,497H127.844z M292.898,406.739c11.835-2.151,23.474-5.346,34.698-9.526
		c3.798,2.226,9.579,6.008,15.991,11.592c-40.645,25.515-39.286,24.1-40.756,25.884c-2.312,2.806-2.283,6.881,0.095,9.654
		l13.82,16.108L270.392,497h-10.295C263.602,487.354,290.472,413.416,292.898,406.739z M485.078,233.703
		c-6.37,8.012-15.96,12.841-28.583,14.415c5.198-24.324,6.071-50.202,1.914-75.962c5.864-3.438,16.638-9.584,26.132-14.075
		c2.793-1.322,6.08,0.256,6.774,3.258C501.376,204.822,491.725,225.342,485.078,233.703z"/>
</g>
<g>
</g>
<g>
</g>
<g>
</g>
<g>
</g>
<g>
</g>
<g>
</g>
<g>
</g>
<g>
</g>
<g>
</g>
<g>
</g>
<g>
</g>
<g>
</g>
<g>
</g>
<g>
</g>
<g>
</g>
</svg>
