<?xml version="1.0" encoding="iso-8859-1"?>
<!-- Generator: Adobe Illustrator 23.0.3, SVG Export Plug-In . SVG Version: 6.00 Build 0)  -->
<svg version="1.1" id="Capa_1" xmlns="http://www.w3.org/2000/svg" xmlns:xlink="http://www.w3.org/1999/xlink" x="0px" y="0px"
	 viewBox="0 0 512 512" style="enable-background:new 0 0 512 512;" xml:space="preserve">
<g>
	<path d="M244.386,200.524l7.465-7.465c2.929-2.929,2.929-7.678,0-10.607c-2.929-2.929-7.678-2.929-10.607,0l-7.465,7.465
		c-4.738,4.738-1.319,12.804,5.303,12.804C241.002,202.72,242.921,201.988,244.386,200.524z"/>
	<path d="M322.083,278.221l7.465-7.465c2.929-2.929,2.929-7.678,0-10.607c-2.929-2.929-7.678-2.929-10.607,0l-7.465,7.465
		c-2.929,2.929-2.929,7.677,0,10.607C314.405,281.149,319.153,281.15,322.083,278.221z"/>
	<path d="M268.425,216.122c-4.129-0.281-7.712,2.836-7.996,6.969c-1.107,16.112,12.238,29.591,28.481,28.481
		c4.132-0.284,7.252-3.864,6.968-7.997c-0.284-4.132-3.859-7.251-7.997-6.968c-7.091,0.486-12.976-5.376-12.488-12.488
		C275.677,219.986,272.557,216.406,268.425,216.122z"/>
	<path d="M54.023,502.739l38.696-38.696c2.929-2.929,2.929-7.678,0-10.607c-2.929-2.929-7.678-2.929-10.607,0l-38.696,38.696
		c-6.496,6.497-17.064,6.5-23.556,0.007c-6.493-6.492-6.489-17.059,0.007-23.555c186.411-186.953,180.094-178.815,187.656-189.259
		l25.152,25.152c-10.28,7.445-4.25,3.183-129.508,127.905c-2.929,2.929-2.929,7.678,0,10.607c2.929,2.929,7.678,2.929,10.607,0
		C237.19,320.782,232.967,320.985,248.261,312.247c0,0,0,0,0,0c0.957-0.251,24.467-16.11,57.725-7.532
		c46.989,12.121,97.246-1.133,132.008-35.896l32.735-32.735c9.911,7.483,24.317,3.067,28.278-8.811l11.683-35.05
		c6.448-19.343-11.973-37.757-31.311-31.311l-35.05,11.683h0c-11.947,3.982-16.25,18.45-8.825,28.285l-32.724,32.723
		c-6.398,6.398-13.659,11.725-21.588,15.838c-30.54,15.868-59.169-24.249-34.935-48.485l44.673-44.673
		c9.911,7.481,24.316,3.065,28.276-8.812l0,0l11.683-35.05c6.448-19.344-11.974-37.758-31.311-31.311l-35.05,11.683
		c-11.949,3.983-16.249,18.453-8.823,28.287l-44.662,44.662c-24.237,24.236-64.353-4.396-48.482-34.94
		c4.11-7.924,9.438-15.186,15.835-21.583l32.735-32.735c9.932,7.494,24.322,3.045,28.274-8.814l11.683-35.05
		c6.448-19.343-11.973-37.757-31.31-31.311l-35.05,11.683c-11.95,3.984-16.251,18.455-8.823,28.288
		c-27.327,28.062-36.719,34.728-48.432,51.908c-2.334,3.422-1.45,8.088,1.972,10.421c3.423,2.334,8.089,1.45,10.422-1.972
		c10.606-15.559,19.057-21.482,46.515-49.622l14.001,14.001l-32.594,32.594c-7.486,7.486-13.725,15.992-18.542,25.279
		c-23.749,45.711,36.122,88.74,72.402,52.458l44.532-44.532l14.001,14.001l-44.532,44.532
		c-36.409,36.409,6.802,96.124,52.453,72.404c9.291-4.819,17.798-11.058,25.283-18.545l32.594-32.594
		c4.702,4.702-7.85-7.85,14.001,14.001l-32.594,32.594c-30.561,30.561-75.644,42.814-117.654,31.978
		c-22.347-5.764-44.559-3.115-63.806,6.324l-30.441-30.441c9.706-19.791,12.069-41.977,6.547-63.598
		c-6.385-25.021-4.654-52.131,4.872-76.336c1.517-3.855-0.378-8.209-4.232-9.726c-3.854-1.517-8.209,0.378-9.726,4.232
		c-10.671,27.112-12.606,57.49-5.448,85.54c7.159,28.028-2.095,55.647-19.866,73.421L9.26,457.977
		c-12.344,12.345-12.347,32.429-0.007,44.769C21.593,515.085,41.675,515.086,54.023,502.739z M289.47,27.225
		c36.725-12.061,35.385-12.206,38.212-12.206c6.13,0,11.414,6.144,9.174,12.859l-11.683,35.05c-0.767,2.301-3.673,2.995-5.396,1.273
		c-0.215-0.215-27.928-27.928-31.582-31.582C286.479,30.903,287.162,27.994,289.47,27.225z M369.27,107.026
		c36.891-12.115,35.39-12.206,38.213-12.206c6.143,0,11.41,6.154,9.174,12.859l-11.683,35.05c-0.769,2.306-3.677,2.992-5.396,1.274
		c-1.839-1.839-31.582-31.582-31.582-31.582C366.278,110.702,366.965,107.794,369.27,107.026z M449.071,186.826l35.05-11.683
		c7.614-2.538,14.892,4.678,12.337,12.338l-11.683,35.05c-0.769,2.306-3.677,2.992-5.396,1.274
		c-0.1-0.1-28.441-28.441-31.582-31.582C446.082,190.506,446.761,187.596,449.071,186.826z"/>
</g>
<g>
</g>
<g>
</g>
<g>
</g>
<g>
</g>
<g>
</g>
<g>
</g>
<g>
</g>
<g>
</g>
<g>
</g>
<g>
</g>
<g>
</g>
<g>
</g>
<g>
</g>
<g>
</g>
<g>
</g>
</svg>
