<?xml version="1.0" encoding="iso-8859-1"?>
<!-- Generator: Adobe Illustrator 23.0.3, SVG Export Plug-In . SVG Version: 6.00 Build 0)  -->
<svg version="1.1" id="Capa_1" xmlns="http://www.w3.org/2000/svg" xmlns:xlink="http://www.w3.org/1999/xlink" x="0px" y="0px"
	 viewBox="0 0 512 512" style="enable-background:new 0 0 512 512;" xml:space="preserve">
<g>
	<path d="M96.88,423.027c-3.965-3.965-10.392-3.965-14.357,0s-3.965,10.392,0,14.357c3.965,3.965,10.392,3.965,14.357,0
		C100.844,433.419,100.844,426.991,96.88,423.027z"/>
	<path d="M53.816,451.734c-3.965,3.965-3.965,10.392,0,14.357c3.965,3.964,10.392,3.964,14.357,0c3.965-3.965,3.965-10.392,0-14.357
		C64.208,447.769,57.781,447.769,53.816,451.734z"/>
	<path d="M459.492,2.197l-89.828,89.828c-71.941-50.329-172.034-43.403-236.222,20.784c-20.228,20.227-35.108,44.174-44.229,71.172
		c-1.326,3.924,0.781,8.18,4.705,9.506c3.924,1.326,8.181-0.781,9.506-4.705c8.375-24.793,22.043-46.785,40.624-65.366
		c60.427-60.427,155.485-65.607,221.864-15.566c12.98,9.785,13.8,11.505,77.258,74.91c11.694,11.694,3.223,31.529-13.06,31.529
		c-4.933,0-9.571-1.921-13.06-5.409l-59.344-59.344c-51.704-51.705-135.834-51.705-187.539,0
		c-51.705,51.705-51.705,135.835,0,187.539l59.344,59.344c7.201,7.201,7.201,18.918,0,26.12c-7.202,7.201-18.919,7.201-26.12,0
		c-60.415-60.692-62.686-61.821-72.114-73.68c-29.918-37.58-42.071-85.549-34.705-132.208c0.646-4.091-2.148-7.932-6.239-8.578
		c-4.088-0.646-7.932,2.147-8.578,6.239c-7.205,45.638,2.57,94.08,30.929,134.692c-10.907,10.907-81.911,81.911-92.74,92.74
		c-16.051,16.051-16.051,42.167,0,58.218c16.05,16.051,42.168,16.052,58.218,0l58.019-58.019l10.083,10.083
		c10.543,10.544,27.702,10.546,38.247,0l14.183-14.183c13.053,8.173,30.294,6.432,41.423-4.697c13.05-13.05,13.05-34.284,0-47.333
		l-59.344-59.344c-45.856-45.856-45.856-120.469,0-166.325c45.856-45.856,120.469-45.857,166.325,0l59.344,59.344
		c13.05,13.05,34.285,13.05,47.333,0c11.226-11.226,12.785-28.504,4.697-41.423c5.884-7.137,31.765-25.257,41.928-64.581
		c1.037-4.011-1.374-8.102-5.384-9.139c-4.009-1.036-8.102,1.374-9.139,5.385c-8.911,34.474-31.749,50.293-37.406,57.121
		c-51.381-51.043-55.238-56.072-66.782-65.64l82.909-82.909c15.442,17.883,24.084,40.437,24.491,64.28
		c0.071,4.141,3.459,7.44,7.627,7.371c4.142-0.071,7.442-3.485,7.371-7.627c-0.517-30.268-12.589-58.724-33.993-80.128
		C467.17-0.732,462.421-0.732,459.492,2.197z M67.557,489.355c-10.203,10.203-26.803,10.202-37.005,0
		c-10.202-10.202-10.202-26.802,0-37.004l58.019-58.02c5.587,5.587,26.18,26.18,37.005,37.005L67.557,489.355z M173.906,441.418
		c-4.697,4.696-12.337,4.695-17.033,0l-15.386-15.386h0l-42.308-42.308l22.664-22.664c11.436,13.823,24.475,24.913,65.64,66.782
		L173.906,441.418z"/>
</g>
<g>
</g>
<g>
</g>
<g>
</g>
<g>
</g>
<g>
</g>
<g>
</g>
<g>
</g>
<g>
</g>
<g>
</g>
<g>
</g>
<g>
</g>
<g>
</g>
<g>
</g>
<g>
</g>
<g>
</g>
</svg>
