<?xml version="1.0" encoding="iso-8859-1"?>
<!-- Generator: Adobe Illustrator 23.0.3, SVG Export Plug-In . SVG Version: 6.00 Build 0)  -->
<svg version="1.1" id="Capa_1" xmlns="http://www.w3.org/2000/svg" xmlns:xlink="http://www.w3.org/1999/xlink" x="0px" y="0px"
	 viewBox="0 0 512 512" style="enable-background:new 0 0 512 512;" xml:space="preserve">
<g>
	<path d="M317.417,99.692c-3.123-2.722-7.86-2.396-10.582,0.727c-7.103,8.149-19.693,8.107-26.758,0
		c-2.722-3.123-7.459-3.448-10.582-0.727s-3.448,7.459-0.727,10.582c13.039,14.963,36.297,15.006,49.375,0
		C320.865,107.151,320.54,102.414,317.417,99.692z"/>
	<path d="M236.872,79.715l-27.819-7.455c-4.002-1.072-8.114,1.302-9.186,5.303c-1.072,4.001,1.302,8.114,5.303,9.186l9.483,2.541
		c-1.49,2.776-0.64,4.366-0.889,15.525c0,4.142,3.358,7.5,7.5,7.5s7.5-3.358,7.5-7.5V93.071c3.823,0.961,4.581,1.39,6.171,1.39
		c3.312,0,6.342-2.21,7.24-5.561C243.248,84.899,240.873,80.787,236.872,79.715z"/>
	<path d="M377.861,72.26l-27.82,7.455c-4.001,1.072-6.375,5.184-5.303,9.186c0.898,3.351,3.928,5.561,7.24,5.561
		c1.591,0,2.362-0.432,6.172-1.39v11.744c0,4.142,3.357,7.5,7.5,7.5c4.142,0,7.5-3.358,7.5-7.5
		c-0.245-10.981,0.608-12.737-0.889-15.525l9.483-2.541c4.001-1.072,6.375-5.185,5.303-9.186
		C385.975,73.563,381.862,71.189,377.861,72.26z"/>
	<path d="M480.83,48.808H148.598V31.17c0-17.188-13.983-31.17-31.17-31.17H82.174C64.986,0,51.003,13.983,51.003,31.17v17.637
		H21.822C9.789,48.808,0,58.597,0,70.629v53.95c0,12.033,9.789,21.822,21.822,21.822h29.181v57.064c0,4.142,3.358,7.5,7.5,7.5
		c4.143,0,7.5-3.358,7.5-7.5c0-21.369,0-124.647,0-172.295c0-8.917,7.254-16.17,16.171-16.17h35.254
		c8.916,0,16.17,7.254,16.17,16.17c0,19.601,0,446.263,0,465.83H66.003V233.466c0-4.142-3.357-7.5-7.5-7.5
		c-4.142,0-7.5,3.358-7.5,7.5V504.5c0,4.142,3.358,7.5,7.5,7.5h82.595c4.142,0,7.5-3.358,7.5-7.5V253.613l107.211-107.211h106.623
		v45.704h-11.029c-22.607,0-33.987,27.461-18.036,43.46c-7.888,7.913-9.625,19.842-4.654,29.551
		c-14.722,22.514-24.072,51.025-24.072,74.005c0,45.718,37.194,82.912,82.912,82.912c16.817,0,33.021-5.02,46.858-14.516
		c3.416-2.344,4.284-7.012,1.94-10.428c-2.344-3.415-7.012-4.283-10.428-1.939c-44.586,30.597-106.282-1.22-106.282-56.029
		c0-19.029,7.822-43.482,19.879-63.042c7.533,3.991,13.77,2.809,23.347,2.945c-13.965,18.334-22.265,43.214-22.265,60.097
		c0,25.889,21.062,46.951,46.951,46.951c25.889,0,46.951-21.063,46.951-46.951c0-16.913-8.322-41.791-22.265-60.097
		c9.543-0.013,16.105,0.891,23.346-2.945c12.056,19.559,19.878,44.012,19.878,63.042c0,13.141-3.775,25.904-10.919,36.909
		c-2.255,3.474-1.267,8.119,2.207,10.375c3.475,2.255,8.12,1.267,10.375-2.208c8.726-13.442,13.337-29.029,13.337-45.076
		c0-22.98-9.349-51.492-24.071-74.005c4.97-9.707,3.234-21.638-4.654-29.551c15.958-16.007,4.556-43.46-18.036-43.46h-10.311
		v-45.704h67.438c17.187,0,31.17-13.983,31.17-31.17V79.978C512,62.791,498.017,48.808,480.83,48.808z M21.822,131.401
		c-3.762,0-6.822-3.06-6.822-6.822v-53.95c0-3.762,3.061-6.822,6.822-6.822h29.181v67.594H21.822z M148.598,146.401h27.877
		l-27.877,27.878V146.401z M148.598,232.4v-36.908l49.091-49.091h36.907L148.598,232.4z M419.504,339.123
		c0,17.618-14.333,31.951-31.951,31.951c-17.618,0-31.951-14.333-31.951-31.951c0-18.749,13.349-48.669,27.818-60.097h8.266
		C406.152,290.45,419.504,320.375,419.504,339.123z M345.014,261.835c-7.929-6.114-3.547-18.766,6.386-18.769
		c1.987,0,75.804,0.001,72.306,0c10.883,0.004,14.73,14.992,4.527,19.917c-1.465,0.705-3.065,1.044-4.53,1.044
		C345.958,264.026,348.802,264.768,345.014,261.835z M434.183,217.586c0,5.778-4.699,10.479-10.477,10.48
		c-0.103,0-74.563,0-72.306,0c-5.777-0.001-10.477-4.702-10.477-10.48c0-5.779,4.702-10.48,10.48-10.48c13.467,0,54.557,0,72.3,0
		C429.481,207.105,434.183,211.807,434.183,217.586z M398.392,192.105h-20.96v-45.704h20.96V192.105z M497,115.231
		c0,8.916-7.254,16.17-16.17,16.17c-8.934,0-323.333,0-332.232,0V63.808H480.83c8.916,0,16.17,7.254,16.17,16.17V115.231z"/>
</g>
<g>
</g>
<g>
</g>
<g>
</g>
<g>
</g>
<g>
</g>
<g>
</g>
<g>
</g>
<g>
</g>
<g>
</g>
<g>
</g>
<g>
</g>
<g>
</g>
<g>
</g>
<g>
</g>
<g>
</g>
</svg>
