<?xml version="1.0" encoding="iso-8859-1"?>
<!-- Generator: Adobe Illustrator 23.0.3, SVG Export Plug-In . SVG Version: 6.00 Build 0)  -->
<svg version="1.1" id="Capa_1" xmlns="http://www.w3.org/2000/svg" xmlns:xlink="http://www.w3.org/1999/xlink" x="0px" y="0px"
	 viewBox="0 0 512 512" style="enable-background:new 0 0 512 512;" xml:space="preserve">
<g>
	<path d="M266.769,131.859l11.913-11.912c2.929-2.929,2.929-7.678,0-10.607c-2.929-2.929-7.677-2.929-10.607,0l-11.913,11.912
		c-4.739,4.74-1.318,12.804,5.303,12.804C263.385,134.056,265.304,133.323,266.769,131.859z"/>
	<path d="M390.757,255.847l11.912-11.912c2.929-2.929,2.929-7.678,0-10.607c-2.929-2.929-7.678-2.929-10.607,0L380.15,245.24
		c-4.738,4.738-1.319,12.804,5.303,12.804C387.373,258.043,389.292,257.312,390.757,255.847z"/>
	<path d="M307.984,164.368c-4.13-0.281-7.712,2.836-7.997,6.968c-1.584,23.063,17.523,42.272,40.685,40.685
		c4.132-0.284,7.253-3.864,6.969-7.996c-0.284-4.133-3.867-7.25-7.996-6.969c-14.038,0.961-25.656-10.66-24.692-24.692
		C315.236,168.232,312.116,164.652,307.984,164.368z"/>
	<path d="M61.743,501.413l39.222-39.222c2.929-2.929,2.929-7.678,0-10.607c-2.929-2.929-7.678-2.929-10.607,0l-39.222,39.222
		c-8.253,8.252-21.681,8.252-29.934,0c-8.272-8.272-8.274-21.66,0-29.934l142.353-142.354c18.333,12.45,16.082,6.637,23.23,19.166
		c1.982,3.477,4.467,7.461,6.704,10.767l-82.157,82.157c-2.929,2.929-2.929,7.678,0,10.607c2.929,2.929,7.678,2.929,10.607,0
		l80.662-80.662c19.783,23.693,45.607,39.46,76.004,46.158c94.863,20.902,213.947-51.378,230.682-143.587
		c11.984-66.044-16.371-114.897-72.673-142.03c11.83-5.297,22.726-6.662,32.511-4.028c13.719,3.693,27.879-4.463,31.572-18.177
		c1.789-6.644,0.884-13.587-2.549-19.55c-3.433-5.964-8.984-10.233-15.628-12.021c-27.733-7.467-57.728-1.268-87.242,17.899
		C372.381,29.52,327.826-5.207,264.019,0.653c-4.125,0.378-7.162,4.029-6.783,8.154c0.379,4.125,4.033,7.162,8.155,6.783
		c34.709-3.187,63.75,6.674,86.315,29.307c17.327,17.379,27.353,38.603,32.905,54.415c1.987,5.653,3.822,12.419,11.696,19.428
		c6.897,6.173,13.07,7.368,19.981,9.975c14.863,5.631,36.827,16.343,53.881,34.746c23.283,25.125,31.479,57.756,24.361,96.987
		C486.093,306.924,446.09,352.263,392,377.103c-6.796-6.241-14.872-10.301-23.535-12.084c-11.208-2.306-20.023-9.846-24.346-19.509
		c-2.358-5.27-1.935-7.136-3.811-12.786c-5.562-16.745-19.617-29.115-36.787-32.648c-13.316-2.739-23.86-13.094-26.636-26.632
		c-3.956-19.291-19.003-34.36-38.32-38.32c-13.345-2.736-23.848-13.113-26.632-26.636c-4.022-19.542-19.23-34.394-38.312-38.307
		c-13.348-2.737-23.85-13.12-26.63-26.626c-1.763-8.624-5.928-16.845-12.089-23.539c22.061-48.011,60.808-85.658,102.087-98.87
		c3.945-1.263,6.12-5.485,4.857-9.43c-1.262-3.945-5.484-6.119-9.43-4.857c-50.945,16.307-91.99,62.261-113.385,111.928l0,0
		c0,0,0,0.001,0,0.001c0,0,0,0,0,0c0,0,0,0,0,0c-29.072,67.449-23.981,143.521,32.422,190.619L10.596,450.266
		c-22.573,22.571-6.762,61.725,25.573,61.723C45.429,511.988,54.693,508.463,61.743,501.413z M478.621,81.804
		c2.775,0.747,5.093,2.53,6.527,5.021c1.434,2.49,1.812,5.39,1.064,8.165c-1.542,5.729-7.456,9.136-13.188,7.593
		c-16.629-4.477-34.886-0.765-54.312,11.033c-4.881-1.746-13.692-3.555-18.073-13.958C420.309,86.291,448.539,73.704,478.621,81.804
		z M128.281,136.123c5.154,8.769,3.058,13.053,8.891,23.893c4.853,9.019,12.448,16.318,21.576,20.805
		c10.587,5.209,14.658,3.012,23.728,8.954c7.94,5.202,12.987,13.098,14.765,21.736c4.014,19.501,19.193,34.387,38.312,38.307
		c13.424,2.752,23.885,13.214,26.638,26.638c3.97,19.358,19.03,34.345,38.307,38.312c12.653,2.603,22.601,11.991,26.043,24.191
		c1.018,3.61,2.507,15.861,14,27.354c11.193,11.193,22.814,12.694,27.506,14.046c2.517,0.725,5.231,1.852,7.826,3.373
		c-70.884,25.772-142.017,9.884-177.917-56.833c-6.343-11.782-13.047-11.453-29.268-23.117
		C114.677,264.759,105.434,198.943,128.281,136.123z"/>
</g>
<g>
</g>
<g>
</g>
<g>
</g>
<g>
</g>
<g>
</g>
<g>
</g>
<g>
</g>
<g>
</g>
<g>
</g>
<g>
</g>
<g>
</g>
<g>
</g>
<g>
</g>
<g>
</g>
<g>
</g>
</svg>
