<?xml version="1.0" encoding="iso-8859-1"?>
<!-- Generator: Adobe Illustrator 23.0.3, SVG Export Plug-In . SVG Version: 6.00 Build 0)  -->
<svg version="1.1" id="Capa_1" xmlns="http://www.w3.org/2000/svg" xmlns:xlink="http://www.w3.org/1999/xlink" x="0px" y="0px"
	 viewBox="0 0 512 512" style="enable-background:new 0 0 512 512;" xml:space="preserve">
<g>
	<path d="M464.076,134.476c21.77-4.237,38.257-23.441,38.257-46.431c0-26.086-21.223-47.31-47.31-47.31H347.771
		c-26.086,0-47.31,21.223-47.31,47.31c0,20.602,13.242,38.16,31.657,44.637c-11.28,7.673-21.209,17.309-29.173,28.438
		c-29.285-26.068-62.936-27.557-93.894,0c-7.964-11.129-17.893-20.765-29.173-28.438c18.416-6.477,31.657-24.035,31.657-44.637
		c0-26.086-21.223-47.31-47.31-47.31H56.976c-26.086,0-47.31,21.223-47.31,47.31c0,22.991,16.487,42.194,38.257,46.431
		c-10.635,7.657-19.947,17.11-27.532,28.077C7.051,181.844,0,204.482,0,228.019c0,28.291,10.358,55.499,29.167,76.614
		c2.754,3.093,7.496,3.366,10.589,0.612c3.093-2.755,3.367-7.496,0.611-10.589C24.009,276.292,15,252.627,15,228.019
		c0-20.475,6.131-40.162,17.729-56.935c11.069-16.006,26.338-28.336,44.226-35.729h76.522c18.142,7.502,33.864,20.367,44.871,36.638
		c-7.082,8.126-13.461,17.433-18.832,26.827c-11.247-24.575-36.185-41.44-64.283-41.44c-38.951,0-70.639,31.688-70.639,70.639
		c0,56.878,63.89,89.994,110.311,58.428c0.387,10.734,2.491,21.176,6.236,30.689c-32.052,16.411-69.97,14.446-99.75-4.56
		c-3.491-2.228-8.128-1.205-10.357,2.288c-2.229,3.492-1.204,8.128,2.288,10.357c15.131,9.656,32.223,15.58,50.004,17.414
		c-11.901,23.084-18.809,47.313-21.028,73.711c-1.603,19.07,7.398,37.31,23.528,47.625c15.105,9.537,34.627,9.537,49.732,0
		c10.242-6.466,23.477-6.465,33.717,0c15.105,9.537,34.627,9.537,49.732,0c10.241-6.465,23.476-6.465,33.717,0
		c15.103,9.535,34.624,9.538,49.732,0c10.241-6.465,23.476-6.465,33.717,0c34.032,21.483,76.929-7.49,73.514-47.79
		c-2.231-26.337-9.133-50.51-21.008-73.542C466.643,336.658,512,287.537,512,228.019C512,189.442,493.037,155.328,464.076,134.476z
		 M24.667,88.045c0-17.815,14.494-32.31,32.31-32.31h107.251c17.815,0,32.31,14.494,32.31,32.31c0,17.816-14.494,32.31-32.31,32.31
		c-0.104,0-96.385,0-107.251,0C39.161,120.355,24.667,105.861,24.667,88.045z M315.462,88.045c0-17.815,14.494-32.31,32.31-32.31
		h107.251c17.816,0,32.31,14.494,32.31,32.31c0,17.816-14.494,32.31-32.31,32.31c-3.413,0-107.38,0-107.251,0
		C329.956,120.355,315.462,105.861,315.462,88.045z M256,156c18.27,0,34.944,12.683,46.806,26.444
		c13.744,15.868,24.756,37.041,31.366,56.942c49.194,146.996-159.044,158.392-164.234,47.661C167.613,240.059,207.84,156,256,156z
		 M115.233,283.658c-30.68,0-55.639-24.959-55.639-55.639s24.959-55.639,55.639-55.639c26.765,0,49.899,19.416,54.705,45.512
		c-6.868,15.713-11.732,32.26-13.875,47.898C145.531,277.172,130.775,283.658,115.233,283.658z M364.182,451.287
		c-15.105-9.537-34.627-9.537-49.732,0c-10.242,6.466-23.477,6.465-33.717,0c-15.105-9.537-34.627-9.537-49.732,0
		c-10.242,6.465-23.477,6.465-33.717,0c-15.105-9.537-34.626-9.537-49.732,0c-23.611,14.906-52.644-5.863-50.306-33.684
		c2.255-26.826,9.734-51.226,22.837-74.459c15.872-0.666,32.888-4.868,47.738-12.572c37.148,60.804,139.221,60.801,176.361,0
		c13.955,7.218,30.518,11.849,47.741,12.572c13.078,23.184,20.552,47.535,22.82,74.303
		C417.096,445.23,387.881,466.248,364.182,451.287z M396.361,328.246c-0.452-0.06-23.508,0.524-45.502-11.11
		c3.632-9.224,5.846-19.635,6.236-30.689c46.308,31.487,110.311-1.445,110.311-58.428c0-11.647-2.903-23.201-8.394-33.412
		c-1.962-3.648-6.51-5.015-10.158-3.053c-3.648,1.962-5.015,6.51-3.053,10.158c4.321,8.035,6.605,17.131,6.605,26.307
		c0,30.68-24.959,55.639-55.639,55.639c-15.542,0-30.298-6.486-40.83-17.868c-2.143-15.638-7.007-32.186-13.875-47.899
		c7.218-39.184,53.033-58.697,86.329-35.642c3.405,2.358,8.078,1.509,10.436-1.896s1.509-8.077-1.896-10.436
		c-36.173-25.049-86.142-11.09-104.446,28.902c-5.329-9.322-11.684-18.626-18.832-26.827c11.006-16.271,26.729-29.136,44.871-36.638
		h76.522C471.724,150.515,497,186.53,497,228.019C497,283.24,452.03,328.447,396.361,328.246z"/>
</g>
<g>
</g>
<g>
</g>
<g>
</g>
<g>
</g>
<g>
</g>
<g>
</g>
<g>
</g>
<g>
</g>
<g>
</g>
<g>
</g>
<g>
</g>
<g>
</g>
<g>
</g>
<g>
</g>
<g>
</g>
</svg>
