<?xml version="1.0" encoding="iso-8859-1"?>
<!-- Generator: Adobe Illustrator 23.0.3, SVG Export Plug-In . SVG Version: 6.00 Build 0)  -->
<svg version="1.1" id="Capa_1" xmlns="http://www.w3.org/2000/svg" xmlns:xlink="http://www.w3.org/1999/xlink" x="0px" y="0px"
	 viewBox="0 0 512 512" style="enable-background:new 0 0 512 512;" xml:space="preserve">
<g>
	<path d="M217.88,290.927c-2.376-3.393-7.053-4.218-10.445-1.842l-20.069,14.052c-3.393,2.376-4.218,7.053-1.842,10.445
		c2.379,3.399,7.059,4.215,10.445,1.842l20.069-14.052C219.431,298.996,220.256,294.32,217.88,290.927z"/>
	<path d="M313.581,185.526c-3.394-2.376-8.07-1.552-10.445,1.842l-14.053,20.069c-3.512,5.015,0.166,11.802,6.137,11.802
		c2.364,0,4.691-1.115,6.15-3.199l14.053-20.069C317.799,192.578,316.974,187.901,313.581,185.526z"/>
	<path d="M258.847,294.941c-2.929-2.929-7.678-2.929-10.606,0c-2.929,2.929-2.929,7.678,0,10.607
		c15.005,15.005,40.39,4.546,40.947-16.332c21.007-0.529,31.217-26.115,16.359-40.974c-2.929-2.929-7.678-2.929-10.606,0
		c-2.929,2.929-2.929,7.678,0,10.606c3.521,3.521,3.522,9.221,0,12.744c-3.523,3.522-9.221,3.521-12.743,0
		c-2.929-2.929-7.678-2.929-10.606,0c-2.929,2.929-2.929,7.678,0,10.607c3.513,3.513,3.513,9.23,0,12.744
		C268.069,298.461,262.368,298.463,258.847,294.941z"/>
	<path d="M218.854,331.919c1.465,1.465,3.384,2.197,5.304,2.197c6.621,0,10.041-8.065,5.303-12.804l-9.692-9.691
		c-2.929-2.929-7.677-2.929-10.606,0c-2.929,2.929-2.929,7.678,0,10.607L218.854,331.919z"/>
	<path d="M311.619,219.771l9.692,9.691c2.927,2.928,7.677,2.929,10.606,0c2.929-2.929,2.929-7.678,0-10.607l-9.692-9.692
		c-2.929-2.929-7.677-2.929-10.606,0C308.691,212.093,308.691,216.841,311.619,219.771z"/>
	<path d="M454.927,99.584c2.213,3.476,6.844,4.534,10.354,2.3c3.494-2.224,4.524-6.86,2.301-10.354
		c-17.704-27.819-41.998-45.416-72.206-52.304c-4.039-0.92-8.059,1.606-8.979,5.645c-0.921,4.038,1.606,8.059,5.645,8.979
		C418.261,59.83,439.419,75.216,454.927,99.584z"/>
	<path d="M389.186,92.05c-3.837-1.561-8.212,0.286-9.772,4.123c-1.561,3.837,0.285,8.212,4.123,9.772
		c14.66,5.961,27.505,15.453,38.178,28.212c2.666,3.187,7.397,3.591,10.565,0.94c3.177-2.658,3.598-7.388,0.94-10.565
		C420.956,109.872,406.141,98.944,389.186,92.05z"/>
	<path d="M99.582,454.928c-24.367-15.508-39.754-36.666-45.733-62.886c-0.92-4.038-4.942-6.565-8.979-5.645
		c-4.038,0.921-6.565,4.941-5.644,8.98c6.888,30.208,24.485,54.501,52.303,72.205c1.249,0.795,2.643,1.174,4.02,1.174
		C103.026,468.756,105.9,458.949,99.582,454.928z"/>
	<path d="M134.155,421.716c-12.759-10.673-22.251-23.518-28.212-38.178c-1.56-3.837-5.935-5.683-9.772-4.123
		c-3.837,1.56-5.683,5.935-4.123,9.772c6.894,16.955,17.823,31.771,32.483,44.034c1.404,1.174,3.111,1.748,4.808,1.748
		C136.292,434.969,139.551,426.23,134.155,421.716z"/>
	<path d="M511.707,109.302c-10.769-50.13-35.5-83.599-73.506-99.477c-3.822-1.597-8.214,0.207-9.811,4.029
		c-1.597,3.822,0.208,8.215,4.029,9.811c32.303,13.495,53.758,42.136,63.808,85.152c-29.555-6.06-52.559,15.899-50.972,43.338
		c-10.575-2.062-27.259-1.983-43.049,12.078c-17.155-18.808-35.995-32.101-55.463-41.111
		c19.971-25.799,28.488-62.892,16.345-104.466c-0.263-0.904,0.314-1.824,1.23-1.966c9.53-1.481,24.376-2.748,40.983-0.371
		c4.102,0.586,7.9-2.262,8.486-6.362c0.587-4.101-2.262-7.9-6.362-8.487c-18.437-2.638-34.871-1.24-45.41,0.397
		c-9.839,1.528-16.132,11.384-13.326,20.993c7.646,26.177,6.714,50.507-2.77,72.314c-4.647,10.685-10.317,18.12-13.723,22.028
		c-3.662-1.291-7.369-2.46-11.121-3.494c-8.35-35.352-33.181-64.563-66.912-78.488c-10.324-4.263-21.993-1.813-29.731,6.239
		c-22.762,23.686-33.96,55.457-31.166,87.873c-26.342,14.917-48.723,37.097-63.864,63.94c-32.44-2.815-64.24,8.381-87.942,31.16
		c-8.052,7.738-10.502,19.408-6.24,29.731c13.942,33.771,43.206,58.62,78.614,66.941c1.023,3.709,2.17,7.392,3.452,11.037
		c-9.781,8.558-42.362,31.755-94.425,16.548c-9.575-2.797-19.461,3.454-20.993,13.326c-2.457,15.813-4.635,46.869,8.374,77.195
		c16.059,37.434,49.387,61.825,99.06,72.495c9.329,2.005,17.455-6.654,14.869-15.793c-6.253-22.1,9.919-37.99,29.313-35.478
		c8.889,1.151,16.19-7.034,13.923-15.733c-2.27-8.709-2.369-21.12,8.517-33.037c15.677,11.218,33.69,18.631,53.024,21.686
		c4.094,0.645,7.932-2.146,8.579-6.237c0.646-4.091-2.146-7.932-6.236-8.579c-26.172-4.141-48.439-17.871-66.471-36.842
		c-96.808-101.881-15.849-273.451,127.85-258.144c36.019,3.928,69.14,19.753,97.099,49.33
		c41.032,43.445,39.862,111.587-2.123,153.572l-61.193,61.192c-18.028,18.028-41.906,29.302-67.236,31.745
		c-4.123,0.398-7.143,4.062-6.745,8.185c0.398,4.128,4.074,7.148,8.185,6.745c28.786-2.777,55.919-15.586,76.402-36.069
		l61.193-61.192c43.809-43.809,48.272-112.283,13.409-161.129c11.92-10.892,24.334-10.794,33.044-8.523
		c8.69,2.265,16.885-5.023,15.733-13.923c-2.479-19.143,13.127-35.637,35.477-29.312c4.288,1.213,8.794,0.11,12.057-2.95
		C511.252,118.145,512.649,113.69,511.707,109.302z M107.792,268.931c-8.71-4.157-16.343-10.221-22.411-17.863
		c-0.495-0.623-0.3-1.579,0.415-1.957c7.879-4.165,16.503-6.614,25.336-7.235C109.289,250.785,108.173,259.833,107.792,268.931z
		 M49.085,248.441c-1.891-4.58-0.805-9.759,2.769-13.192c18.84-18.106,43.815-28.014,70.181-27.381
		c-2.729,6.162-5.068,12.461-7.027,18.86c-12.617,0.098-25.028,3.204-36.221,9.122c-9.029,4.774-11.47,16.588-5.152,24.546
		c8.992,11.324,20.76,19.83,34.263,24.842c0.354,6.442,1.072,12.883,2.17,19.293C82.618,295.829,60.22,275.413,49.085,248.441z
		 M164.234,402.208c-14.062,15.792-14.14,32.475-12.078,43.049c-27.351-1.587-49.414,21.341-43.339,50.971
		c-42.626-9.959-71.144-31.118-84.79-62.929c-11.531-26.882-9.547-54.756-7.337-68.979c0.139-0.897,1.043-1.501,1.966-1.231
		c41.592,12.148,78.69,3.626,104.499-16.369C132.771,367.579,146.988,386.569,164.234,402.208z M235.248,51.854
		c3.452-3.591,8.632-4.65,13.192-2.769c26.964,11.132,47.375,33.517,56.081,60.959c-5.913-1-12.617-1.778-19.284-2.146
		c-5.011-13.503-13.518-25.271-24.841-34.262c-7.966-6.327-19.778-3.869-24.546,5.151c-5.912,11.182-9.017,23.577-9.122,36.179
		c-6.429,1.96-12.726,4.302-18.861,7.02C207.236,96.015,216.928,70.918,235.248,51.854z M241.875,111.12
		c0.623-8.829,3.071-17.447,7.235-25.322c0.371-0.703,1.322-0.919,1.957-0.415c7.642,6.068,13.705,13.7,17.863,22.41
		C259.656,108.181,250.612,109.329,241.875,111.12z"/>
</g>
<g>
</g>
<g>
</g>
<g>
</g>
<g>
</g>
<g>
</g>
<g>
</g>
<g>
</g>
<g>
</g>
<g>
</g>
<g>
</g>
<g>
</g>
<g>
</g>
<g>
</g>
<g>
</g>
<g>
</g>
</svg>
