<?xml version="1.0" encoding="iso-8859-1"?>
<!-- Generator: Adobe Illustrator 23.0.3, SVG Export Plug-In . SVG Version: 6.00 Build 0)  -->
<svg version="1.1" id="Capa_1" xmlns="http://www.w3.org/2000/svg" xmlns:xlink="http://www.w3.org/1999/xlink" x="0px" y="0px"
	 viewBox="0 0 512 512" style="enable-background:new 0 0 512 512;" xml:space="preserve">
<g>
	<path d="M492.604,93.613c-7.777-4.506-12.535-13.182-11.84-21.6c1.869-22.631-18.081-42.651-40.789-40.776
		c-8.401,0.695-17.082-4.064-21.588-11.841C405.929-2.103,377.418-5.97,362.563,8.997c-0.899,0.906-21.11,21.842-29.396,73.917
		C194.961,55.997,55.927,195.406,82.872,333.175c-52.047,8.29-72.972,28.491-73.878,29.39
		c-14.76,14.432-11.385,43.201,10.398,55.824c7.776,4.506,12.535,13.182,11.84,21.6c-1.869,22.64,18.089,42.648,40.789,40.776
		c8.397-0.696,17.082,4.065,21.588,11.842c12.472,21.524,41.023,25.33,55.845,10.42c0.702-0.708,16.169-16.676,25.631-55.133
		c66.794,28.055,145.666,8.865,202.261-37.722c0,0,0.001,0,0.001,0c0.001-0.001,0.002-0.002,0.003-0.003c0,0,0.001,0,0.001-0.001
		c0,0,0,0,0,0c46.87-38.524,78.307-94.07,82.985-153.623c2.292-29.18-2.033-56.866-12.393-81.469
		c38.417-9.464,54.37-24.915,55.077-25.617C517.907,134.693,514.17,106.11,492.604,93.613z M139.078,492.163
		c-9.779,9.015-25.628,4.764-32.489-7.077c-7.461-12.874-21.506-20.448-35.813-19.269c-13.418,1.11-25.704-11.146-24.593-24.605
		c1.179-14.282-6.385-28.335-19.27-35.801c-11.85-6.867-15.956-22.781-7.303-32.243c1.462-1.336,20.813-18.281,66.803-25.376
		c11.855,40.854,38.7,73.94,74.837,93.482C153.586,474.66,141.074,489.895,139.078,492.163z M178.94,433.237
		c3.703-21.052,6.099-43.687,6.791-66.01c0.113-3.675-2.445-7.347-7.265-7.728l0,0c-3.861-0.12-7.591,2.733-7.741,7.595
		c-0.602,18.969-2.475,38.945-5.797,59.013c-81.889-47.315-92.543-159.34-30.348-243.827
		c22.566,49.649,34.175,102.033,36.09,155.036c0.149,4.14,3.631,7.375,7.766,7.225c4.14-0.149,7.374-3.626,7.225-7.766
		c-2.122-58.839-15.651-115.061-40.635-167.619c18.702-21.753,41.925-40.491,68.771-53.818
		c1.396,4.057,96.152,138.448,43.876,329.848C229.741,447.748,202.733,443.646,178.94,433.237z M384.395,383.5
		c12.011-69.167,7.7-136.632-9.47-196.905c-1.134-3.984-5.282-6.292-9.268-5.159c-3.984,1.135-6.293,5.284-5.158,9.268
		c19.003,66.721,20.722,139.443,5.325,209.506c-27.615,22.208-59.188,36.86-92.049,42.784
		c29.567-114.847,14.047-233.683-46.217-333.887c30.367-12.449,62.019-16.977,92.23-13.16c12.36,20.976,23.249,43.796,31.85,67.415
		c1.419,3.898,5.727,5.897,9.613,4.481c3.892-1.417,5.898-5.721,4.481-9.613c-7.282-20.003-16.272-39.8-26.571-58.561
		c41.738,10.695,73.453,37.587,91.04,72.839C461.779,235.938,445.194,322.361,384.395,383.5z M492.158,139.082
		c-2.276,2.001-17.549,14.507-50.847,22.161c-18.769-34.617-51.097-62.522-93.525-74.809c7.129-46.243,24.214-65.554,25.365-66.809
		c9.543-8.746,25.433-4.486,32.257,7.291c7.467,12.885,21.521,20.448,35.813,19.269c13.417-1.11,25.704,11.145,24.593,24.605
		c-1.179,14.282,6.385,28.335,19.271,35.801c6.292,3.646,10.66,9.971,11.686,16.919
		C497.616,129.239,496.221,134.675,492.158,139.082z"/>
</g>
<g>
</g>
<g>
</g>
<g>
</g>
<g>
</g>
<g>
</g>
<g>
</g>
<g>
</g>
<g>
</g>
<g>
</g>
<g>
</g>
<g>
</g>
<g>
</g>
<g>
</g>
<g>
</g>
<g>
</g>
</svg>
