<?xml version="1.0" encoding="iso-8859-1"?>
<!-- Generator: Adobe Illustrator 23.0.3, SVG Export Plug-In . SVG Version: 6.00 Build 0)  -->
<svg version="1.1" id="Capa_1" xmlns="http://www.w3.org/2000/svg" xmlns:xlink="http://www.w3.org/1999/xlink" x="0px" y="0px"
	 viewBox="0 0 512 512" style="enable-background:new 0 0 512 512;" xml:space="preserve">
<g>
	<path d="M117.281,349.023c-1.887,3.534-2.264,7.584-1.061,11.404l29.49,93.63c3.529,11.206,13.794,18.735,25.542,18.735h169.496
		c11.749,0,22.013-7.529,25.542-18.735l27.905-88.595c1.589-5.048,0.42-10.407-3.127-14.337c-3.544-3.925-8.749-5.633-13.925-4.565
		c-67.243,13.849-107.528,4.76-143.07-3.26c-10.74-2.423-20.884-4.712-31.425-6.354c-4.093-0.638-7.927,2.162-8.565,6.255
		c-0.638,4.093,2.163,7.928,6.255,8.565c10.042,1.565,19.947,3.801,30.433,6.167c36.95,8.336,78.826,17.782,148.997,3.401
		l-27.786,88.218c-1.552,4.93-6.067,8.241-11.234,8.241H171.252c-5.168,0-9.683-3.312-11.235-8.241l-29.42-93.408
		c14.286-4.16,27.781-6.291,41.249-6.516c4.142-0.069,7.443-3.482,7.374-7.624s-3.476-7.438-7.624-7.374
		c-14.906,0.249-29.775,2.6-45.457,7.188C122.309,342.939,119.164,345.498,117.281,349.023z"/>
	<path d="M174.641,397.669v14.193c0,4.142,3.358,7.5,7.5,7.5s7.5-3.358,7.5-7.5v-14.193c0-4.142-3.358-7.5-7.5-7.5
		S174.641,393.527,174.641,397.669z"/>
	<path d="M337.359,411.862v-14.193c0-4.142-3.358-7.5-7.5-7.5s-7.5,3.358-7.5,7.5v14.193c0,4.142,3.358,7.5,7.5,7.5
		S337.359,416.003,337.359,411.862z"/>
	<path d="M256,427.81c9.63,0,18.789-4.171,25.127-11.443c2.721-3.123,2.396-7.86-0.727-10.582c-3.123-2.722-7.86-2.396-10.582,0.727
		c-3.488,4.003-8.525,6.299-13.818,6.299s-10.33-2.296-13.818-6.299c-2.721-3.122-7.458-3.448-10.582-0.727
		c-3.123,2.722-3.448,7.459-0.727,10.582C237.211,423.639,246.369,427.81,256,427.81z"/>
	<path d="M293.565,240.48c0-15.218-12.38-27.599-27.598-27.599s-27.598,12.381-27.598,27.599s12.381,27.598,27.598,27.598
		S293.565,255.698,293.565,240.48z M253.369,240.48c0-6.947,5.651-12.599,12.598-12.599s12.598,5.652,12.598,12.599
		c0,6.946-5.651,12.598-12.598,12.598S253.369,247.426,253.369,240.48z"/>
	<path d="M236.009,289.593c0-18.908-15.382-34.29-34.29-34.29s-34.29,15.382-34.29,34.29s15.382,34.29,34.29,34.29
		S236.009,308.5,236.009,289.593z M182.428,289.593c0-10.636,8.654-19.29,19.29-19.29s19.29,8.654,19.29,19.29
		s-8.654,19.29-19.29,19.29S182.428,300.229,182.428,289.593z"/>
	<path d="M435.367,365.251c5.663-17.98,5.355-36.886-0.891-54.672c-6.246-17.787-17.826-32.733-33.488-43.225l-19.327-12.947
		c-3.441-2.306-8.1-1.384-10.405,2.057c-2.306,3.441-1.385,8.1,2.057,10.405l19.327,12.948
		c26.211,17.558,37.898,50.837,28.42,80.928L389.38,461.33c-6.72,21.336-26.264,35.67-48.632,35.67H171.252
		c-22.368,0-41.912-14.334-48.632-35.67L90.94,360.745c-9.478-30.091,2.209-63.37,28.42-80.928l75.441-50.538
		c14.991-10.043,23.941-26.811,23.941-44.855v-45.503h74.516v45.503c0,18.044,8.95,34.812,23.941,44.855l31.901,21.37
		c3.442,2.306,8.101,1.385,10.405-2.057c2.306-3.441,1.385-8.1-2.057-10.405l-31.901-21.371
		c-10.827-7.253-17.29-19.363-17.29-32.393v-46.538c11.712-3.283,20.329-14.048,20.329-26.794V97.024
		c0-12.371-8.116-22.877-19.301-26.487l5.415-35.426C317.524,16.637,303.211,0,284.548,0h-57.096
		c-18.688,0-32.973,16.661-30.152,35.111l5.414,35.425c-11.185,3.61-19.301,14.117-19.301,26.488v14.068
		c0,12.747,8.617,23.511,20.329,26.794v46.538c0,13.031-6.463,25.141-17.289,32.393l-75.44,50.537
		c-15.662,10.492-27.242,25.439-33.488,43.226c-6.246,17.786-6.554,36.691-0.891,54.672l31.68,100.585
		C117.01,493.448,142.303,512,171.252,512h169.495c28.949,0,54.243-18.552,62.939-46.164L435.367,365.251z M227.452,15h57.096
		c9.497,0,16.759,8.467,15.325,17.844l-5.556,36.35h-76.634l-5.555-36.35C210.692,23.455,217.966,15,227.452,15z M198.413,111.092
		V97.024c0-7.074,5.755-12.83,12.829-12.83h89.516c7.074,0,12.829,5.755,12.829,12.83v14.068c0,7.073-5.753,12.828-12.827,12.829
		c-0.001,0-0.002,0-0.002,0h-89.516c-0.001,0-0.002,0-0.002,0C204.166,123.92,198.413,118.166,198.413,111.092z"/>
</g>
<g>
</g>
<g>
</g>
<g>
</g>
<g>
</g>
<g>
</g>
<g>
</g>
<g>
</g>
<g>
</g>
<g>
</g>
<g>
</g>
<g>
</g>
<g>
</g>
<g>
</g>
<g>
</g>
<g>
</g>
</svg>
