<?xml version="1.0" encoding="iso-8859-1"?>
<!-- Generator: Adobe Illustrator 23.0.3, SVG Export Plug-In . SVG Version: 6.00 Build 0)  -->
<svg version="1.1" id="Capa_1" xmlns="http://www.w3.org/2000/svg" xmlns:xlink="http://www.w3.org/1999/xlink" x="0px" y="0px"
	 viewBox="0 0 512 512" style="enable-background:new 0 0 512 512;" xml:space="preserve">
<g>
	<path d="M256,268.215c51.565,0,93.517-41.952,93.517-93.518S307.565,81.181,256,81.181s-93.517,41.951-93.517,93.517
		S204.435,268.215,256,268.215z M256,96.181c43.294,0,78.517,35.223,78.517,78.517c0,43.295-35.223,78.518-78.517,78.518
		s-78.517-35.223-78.517-78.518C177.483,131.403,212.706,96.181,256,96.181z"/>
	<path d="M256,208.504c20.253,0,36.729-16.477,36.729-36.729S276.253,135.045,256,135.045s-36.729,16.477-36.729,36.729
		S235.747,208.504,256,208.504z M256,150.045c11.981,0,21.729,9.748,21.729,21.729s-9.748,21.729-21.729,21.729
		s-21.729-9.748-21.729-21.729S244.019,150.045,256,150.045z"/>
	<path d="M327.034,475.95c14.15,0,25.662-11.512,25.662-25.662v-72.45c0-5.879,4.783-10.662,10.662-10.662
		s10.662,4.783,10.662,10.662v35.426c0,14.15,11.512,25.662,25.662,25.662s25.662-11.512,25.662-25.662v-51.911
		c0-4.142-3.358-7.5-7.5-7.5s-7.5,3.358-7.5,7.5v51.911c0,5.879-4.783,10.662-10.662,10.662s-10.662-4.783-10.662-10.662v-35.426
		c0-14.15-11.512-25.662-25.662-25.662s-25.662,11.512-25.662,25.662v72.45c0,5.879-4.783,10.662-10.662,10.662
		s-10.662-4.783-10.662-10.662v-41.271c0-14.15-11.512-25.662-25.662-25.662c-14.15,0-25.662,11.512-25.662,25.662v77.321
		c0,5.879-4.783,10.662-10.662,10.662s-10.662-4.783-10.662-10.662v-77.321c0-14.15-11.512-25.662-25.662-25.662
		c-14.15,0-25.662,11.512-25.662,25.662v41.271c0,5.879-4.783,10.662-10.662,10.662s-10.662-4.783-10.662-10.662v-72.45
		c0-14.15-11.512-25.662-25.662-25.662s-25.662,11.512-25.662,25.662v35.426c0,5.879-4.783,10.662-10.662,10.662
		s-10.662-4.783-10.662-10.662V280.382c69.268,113.788,231.192,117.343,307.258,11.812c1.597-2.215,3.162-4.454,4.659-6.738v46.038
		c0,4.142,3.358,7.5,7.5,7.5s7.5-3.358,7.5-7.5v-74.004c9.705-22.413,15.097-47.111,15.097-73.048C440.441,83.058,357.992,0,256,0
		c-56.371,0-108.913,25.292-144.153,69.39c-2.586,3.236-2.059,7.956,1.177,10.542c3.236,2.585,7.956,2.059,10.541-1.177
		c8.793-11.003,18.767-20.721,29.656-29.057l5.838,7.836c6.725,9.026,17.46,14.415,28.715,14.415c3.866,0,7.646,1.073,10.935,3.104
		c3.531,2.181,8.15,1.077,10.322-2.439c2.177-3.524,1.084-8.146-2.439-10.322c-5.659-3.495-12.166-5.343-18.817-5.343
		c-6.541,0-12.779-3.131-16.687-8.376l-5.56-7.462C192.241,24.202,223.423,15,256,15c42.785,0,81.911,15.948,111.763,42.201
		c-23.764,5.251-35.781,18.352-42.99,23.064c-3.301,2.503-3.948,7.207-1.446,10.508c2.498,3.296,7.201,3.952,10.507,1.446
		c10.611-8.027,10.813-8.237,12.58-9.488c0.776,2.23,1.495,13.452,11.629,23.464c2.944,2.908,7.692,2.885,10.606-0.064
		c2.911-2.947,2.882-7.695-0.064-10.606c-7.039-6.955-6.689-14.39-8.5-20.279c11.074-4.504,20.197-4.736,21.096-4.877
		c27.479,30.129,44.259,70.177,44.259,114.071c0,32.917-9.445,63.664-25.752,89.694l-3.776-5.427
		c-4.123-5.925-10.231-10.225-17.2-12.105c-4.909-1.326-8.889-4.966-10.645-9.738c-1.432-3.887-5.741-5.879-9.629-4.448
		c-3.887,1.431-5.878,5.742-4.448,9.629c3.434,9.33,11.214,16.446,20.813,19.038c3.564,0.962,6.688,3.161,8.797,6.191l6.963,10.008
		c-58.437,76.28-168.333,89.201-242.59,27.599l0.445-0.181c11.455-4.659,19.28-15.203,20.42-27.517
		c0.373-4.03,2.11-7.839,4.9-10.763l10.768-8.969c3.183-2.651,3.613-7.38,0.962-10.563c-2.651-3.183-7.381-3.613-10.563-0.962
		l-8.074,6.726c-8.219-2.684-14.959-8.548-18.742-16.44c-1.791-3.735-6.269-5.312-10.005-3.521
		c-3.735,1.791-5.312,6.27-3.521,10.005c4.739,9.885,12.631,17.609,22.331,22.131c-1.614,3.437-2.638,7.151-2.992,10.973
		c-0.622,6.715-4.888,12.464-11.134,15.005l-7.041,2.863c-30.375-30.639-49.168-72.778-49.168-119.229
		c0-28.419,7.176-56.535,20.753-81.308c1.991-3.632,0.66-8.191-2.973-10.182c-3.633-1.991-8.191-0.66-10.182,2.973
		C79.374,122.9,71.559,153.509,71.559,184.44c0,22.898,4.207,44.83,11.868,65.079v163.745c0,14.15,11.512,25.662,25.662,25.662
		c14.15,0,25.662-11.512,25.662-25.662v-35.426c0-5.879,4.783-10.662,10.662-10.662s10.662,4.783,10.662,10.662v72.45
		c0,14.15,11.512,25.662,25.662,25.662s25.662-11.512,25.662-25.662v-41.271c0-5.879,4.783-10.662,10.662-10.662
		s10.662,4.783,10.662,10.662v77.321c0,14.15,11.512,25.662,25.662,25.662s25.662-11.512,25.662-25.662v-77.321
		c0-5.879,4.783-10.662,10.662-10.662s10.662,4.783,10.662,10.662v41.271C301.372,464.438,312.884,475.95,327.034,475.95z"/>
</g>
<g>
</g>
<g>
</g>
<g>
</g>
<g>
</g>
<g>
</g>
<g>
</g>
<g>
</g>
<g>
</g>
<g>
</g>
<g>
</g>
<g>
</g>
<g>
</g>
<g>
</g>
<g>
</g>
<g>
</g>
</svg>
