<?xml version="1.0" encoding="iso-8859-1"?>
<!-- Generator: Adobe Illustrator 23.0.3, SVG Export Plug-In . SVG Version: 6.00 Build 0)  -->
<svg version="1.1" id="Capa_1" xmlns="http://www.w3.org/2000/svg" xmlns:xlink="http://www.w3.org/1999/xlink" x="0px" y="0px"
	 viewBox="0 0 512 512" style="enable-background:new 0 0 512 512;" xml:space="preserve">
<g>
	<path d="M198.663,319.995c3.571,0,6.736-2.56,7.377-6.199c0.719-4.079-2.005-7.969-6.084-8.688l-23.437-4.133
		c-4.077-0.72-7.969,2.004-8.688,6.084c-0.719,4.079,2.005,7.969,6.084,8.688C173.916,315.748,198.231,319.995,198.663,319.995z"/>
	<path d="M344.168,307.06c-0.719-4.079-4.605-6.802-8.688-6.084l-23.436,4.133c-4.079,0.719-6.803,4.609-6.084,8.688
		c0.642,3.639,3.806,6.199,7.377,6.199c0.432,0,24.747-4.247,24.747-4.247C342.163,315.028,344.887,311.139,344.168,307.06z"/>
	<path d="M255.999,361.86c4.207,3.924,9.845,6.331,16.038,6.331c12.979,0,23.538-10.558,23.538-23.538c0-4.142-3.358-7.5-7.5-7.5
		c-4.142,0-7.5,3.358-7.5,7.5c0,4.708-3.83,8.538-8.538,8.538s-8.538-3.83-8.538-8.538c0-4.142-3.358-7.5-7.5-7.5
		s-7.5,3.358-7.5,7.5c0,4.708-3.83,8.538-8.538,8.538c-4.707,0-8.537-3.83-8.537-8.538c0-4.142-3.358-7.5-7.5-7.5
		c-4.142,0-7.5,3.358-7.5,7.5c0,12.979,10.559,23.538,23.537,23.538C246.154,368.191,251.793,365.784,255.999,361.86z"/>
	<path d="M185.627,350.084c4.142,0,7.5-3.358,7.5-7.5v-13.313c0-4.142-3.358-7.5-7.5-7.5s-7.5,3.358-7.5,7.5v13.313
		C178.127,346.726,181.485,350.084,185.627,350.084z"/>
	<path d="M318.873,329.271v13.313c0,4.142,3.358,7.5,7.5,7.5s7.5-3.358,7.5-7.5v-13.313c0-4.142-3.358-7.5-7.5-7.5
		S318.873,325.129,318.873,329.271z"/>
	<path d="M46.171,392.436l5.086-16.632c1.603-5.24,6.163-8.965,11.616-9.49l21.176-2.035c3.056,7.944,6.745,15.613,11.008,22.949
		l-15.956,5.985c-22.144,8.308-36.969,28.949-37.766,52.583l-0.587,17.382c-0.202,5.975,1.935,11.672,6.017,16.04
		c13.495,14.439,38.051,5.453,38.721-14.528l0.587-17.382c0.186-5.476,3.621-10.26,8.75-12.184l29.623-11.11
		c9.738,9.057,20.675,16.997,32.686,23.524c3.64,1.978,8.193,0.63,10.171-3.009c1.977-3.64,0.631-8.193-3.009-10.171
		c-54.517-29.625-84.613-90.994-73.711-152.82c11.95-68.062,71.608-119.826,142.876-119.826c19.952,0,23.33,0,45.081,0
		c69.446,0,126.81,48.875,141.388,112.49c20.921,90.738-48.241,177.671-141.388,177.671h-45.081
		c-14.647,0-29.102-2.176-42.964-6.468c-3.955-1.225-8.158,0.99-9.383,4.947c-1.225,3.956,0.99,8.157,4.946,9.382
		c15.3,4.737,31.248,7.139,47.401,7.139h45.081c42.037,0,80.334-16.296,108.927-42.891l29.707,11.142
		c5.13,1.925,8.565,6.708,8.751,12.183l0.587,17.381c0.67,20.003,25.221,28.974,38.721,14.529c4.082-4.368,6.22-10.064,6.017-16.039
		l-0.587-17.382c-0.798-23.635-15.623-44.275-37.767-52.584l-15.991-5.998c4.259-7.3,7.955-14.966,11.033-22.937l21.186,2.036
		c5.454,0.525,10.015,4.251,11.617,9.49l5.085,16.63c5.774,18.894,31.775,21.627,41.168,3.963
		c2.806-5.279,3.389-11.335,1.641-17.052l-5.086-16.632c-6.915-22.615-26.596-38.692-50.139-40.957l-15.363-1.477
		c0.865-10.33,0.769-20.526-0.413-31.206l9.185-4.174c4.989-2.268,10.8-1.314,14.802,2.427l12.706,11.875
		c9.026,8.44,23.19,7.971,31.635-1.067c8.448-9.037,7.971-23.188-1.068-31.636v0l-12.707-11.877
		c-17.277-16.148-42.355-20.261-63.888-10.476l-2.06,0.936c-3.678-8.771-8.116-17.146-13.23-25.045l7.744-6.386
		c4.228-3.485,10.086-4.076,14.925-1.505l15.356,8.164c17.693,9.411,37.681-7.437,31.912-26.308
		c-1.748-5.717-5.619-10.411-10.898-13.217l-15.358-8.165c-20.881-11.101-46.165-8.553-64.415,6.492l-8.588,7.082
		c-28.147-24.572-64.939-39.48-105.149-39.48h-0.158v-45.755c0-4.142-3.358-7.5-7.5-7.5c-4.142,0-7.5,3.358-7.5,7.5v45.755h-14.765
		V40.681h14.765v30.662c0,4.142,3.358,7.5,7.5,7.5c4.142,0,7.5-3.358,7.5-7.5V33.181c0-4.142-3.358-7.5-7.5-7.5h-29.765
		c-4.142,0-7.5,3.358-7.5,7.5v113.532c-0.828,0.16-56.014-3.554-105.307,39.479l-8.589-7.082
		c-18.25-15.046-43.534-17.593-64.414-6.492l-15.357,8.164c-5.28,2.806-9.15,7.5-10.898,13.218
		c-5.779,18.904,14.265,35.693,31.911,26.308l15.356-8.164c4.839-2.572,10.698-1.981,14.925,1.504l7.745,6.386
		c-5.114,7.899-9.551,16.275-13.23,25.045l-2.06-0.937c-21.533-9.784-46.61-5.671-63.887,10.477L7.104,266.497
		c-9.036,8.445-9.519,22.597-1.07,31.635c8.363,8.95,22.52,9.595,31.636,1.069l12.707-11.876c4.003-3.742,9.814-4.693,14.802-2.428
		l9.186,4.175c-1.226,11.081-1.25,21.076-0.397,31.204l-15.38,1.478c-23.543,2.266-43.223,18.342-50.139,40.957l-5.085,16.632
		c-3.618,11.828,3.026,24.333,14.858,27.95C30.193,410.955,42.602,404.119,46.171,392.436z M489.206,367.099
		c0,0,5.084,16.625,5.086,16.632c2.809,9.185-11.349,13.385-14.119,4.318l-5.086-16.633c-3.384-11.061-13.01-18.924-24.525-20.033
		l-17.759-1.707c1.324-4.778,2.428-9.627,3.303-14.516l15.87,1.526C469.457,338.368,484.071,350.306,489.206,367.099z
		 M455.674,446.303l0.587,17.383c0.137,4.069-3.04,7.489-7.131,7.628c-4.033,0.145-7.487-3.018-7.625-7.128l-0.587-17.383
		c-0.392-11.56-7.642-21.656-18.473-25.72l-23.495-8.812c3.411-3.892,6.636-7.95,9.655-12.149l19.026,7.136
		C444.072,413.427,455.081,428.753,455.674,446.303z M431.416,259.205l3.09-1.405c15.99-7.265,34.612-4.211,47.44,7.78
		l12.707,11.876c0,0,0,0,0,0c1.441,1.346,2.271,3.173,2.337,5.144c0.222,6.535-7.624,10.125-12.419,5.643l-12.707-11.877
		c-5.403-5.049-12.364-7.692-19.435-7.692c-8.506,0-13.601,3.651-17.244,5.035C435.016,272.904,432.581,262.955,431.416,259.205z
		 M401.82,190.684c13.551-11.172,32.326-13.065,47.832-4.822l15.358,8.165l0,0c1.741,0.925,3.018,2.474,3.594,4.359
		c1.902,6.224-4.688,11.784-10.525,8.679l-15.358-8.165c-10.168-5.405-22.544-4.214-31.507,3.176l-6.896,5.686
		c-3.047-3.862-6.276-7.592-9.669-11.165L401.82,190.684z M89.555,421.082c-10.83,4.064-18.081,14.16-18.472,25.721l-0.587,17.384
		c-0.066,1.969-0.896,3.795-2.337,5.142c-4.807,4.494-12.64,0.883-12.42-5.643l0.587-17.383
		c0.593-17.55,11.601-32.876,28.044-39.046l19.026-7.136c2.954,4.111,6.205,8.215,9.651,12.15L89.555,421.082z M69.278,198.901
		c0,0-15.288,8.128-15.358,8.165c-8.275,4.4-15.334-8.571-6.93-13.038l15.358-8.165c15.472-8.225,34.251-6.374,47.831,4.821
		l7.172,5.914c-3.393,3.573-6.621,7.303-9.669,11.165c0,0-6.896-5.686-6.897-5.687C91.86,194.717,79.493,193.471,69.278,198.901z
		 M76.815,273.71l-5.43-2.467c-10.533-4.786-22.798-2.774-31.249,5.124c0,0-12.661,11.834-12.708,11.878
		c-6.828,6.381-17.058-4.268-10.08-10.789l12.707-11.876c12.733-11.901,31.334-15.097,47.44-7.78l3.091,1.405
		C79.313,263.296,76.992,272.868,76.815,273.71z M17.708,383.732l5.086-16.632c5.135-16.793,19.749-28.731,37.23-30.413
		l15.871-1.526c0.875,4.889,1.978,9.738,3.303,14.516l-17.76,1.707c-11.514,1.108-21.14,8.972-24.523,20.034
		c0,0-5.073,16.586-5.087,16.634C29.103,396.958,14.898,392.914,17.708,383.732z"/>
</g>
<g>
</g>
<g>
</g>
<g>
</g>
<g>
</g>
<g>
</g>
<g>
</g>
<g>
</g>
<g>
</g>
<g>
</g>
<g>
</g>
<g>
</g>
<g>
</g>
<g>
</g>
<g>
</g>
<g>
</g>
</svg>
