<?xml version="1.0" encoding="iso-8859-1"?>
<!-- Generator: Adobe Illustrator 23.0.3, SVG Export Plug-In . SVG Version: 6.00 Build 0)  -->
<svg version="1.1" id="Capa_1" xmlns="http://www.w3.org/2000/svg" xmlns:xlink="http://www.w3.org/1999/xlink" x="0px" y="0px"
	 viewBox="0 0 512 512" style="enable-background:new 0 0 512 512;" xml:space="preserve">
<g>
	<path d="M386.195,219.968c-2.362,3.402-1.519,8.075,1.883,10.438c1.304,0.905,2.795,1.34,4.27,1.34
		c2.375,0,4.711-1.125,6.167-3.223c9.173-13.212,14.021-28.707,14.021-44.813v-27.174C412.536,70.221,342.314,0,256,0
		c-27.588,0-54.72,7.284-78.463,21.063c-3.582,2.079-4.801,6.668-2.722,10.251c2.079,3.582,6.67,4.801,10.251,2.722
		C206.525,21.581,231.053,14.999,256,14.999c78.044,0,141.537,63.493,141.537,141.536v27.174
		C397.537,196.743,393.615,209.28,386.195,219.968z"/>
	<path d="M161.719,50.982c3.088-2.76,3.354-7.501,0.594-10.589c-2.76-3.088-7.502-3.353-10.589-0.593
		c-33.211,29.686-52.259,72.235-52.259,116.735v27.174c0,43.385,35.296,78.681,78.681,78.681c0.656,0,1.189,0.534,1.189,1.189v4.287
		c0,22.65,18.428,41.077,41.078,41.077h71.175c22.65,0,41.078-18.427,41.078-41.077v-4.287c0-0.656,0.534-1.189,1.189-1.189
		c14.536,0,28.745-4.004,41.091-11.579c3.53-2.166,4.636-6.784,2.47-10.314c-2.165-3.53-6.782-4.636-10.314-2.47
		c-9.984,6.126-21.481,9.364-33.247,9.364c-8.926,0-16.188,7.262-16.188,16.188v4.287c0,13.055-9.643,23.898-22.18,25.786v-21.51
		c0-4.142-3.358-7.499-7.499-7.499c-4.142,0-7.499,3.357-7.499,7.499v21.803H263.5v-21.803c0-4.142-3.358-7.499-7.499-7.499
		c-4.142,0-7.499,3.357-7.499,7.499v21.803h-16.989v-21.803c0-4.142-3.358-7.499-7.499-7.499c-4.142,0-7.499,3.357-7.499,7.499
		v21.51c-12.537-1.888-22.18-12.732-22.18-25.786v-4.287c0-8.926-7.262-16.188-16.188-16.188c-35.114,0-63.682-28.568-63.682-63.682
		v-27.174C114.463,116.299,131.687,77.827,161.719,50.982z"/>
	<path d="M173.191,211.247c0,4.142,3.358,7.499,7.499,7.499c4.142,0,7.499-3.358,7.499-7.499v-16.381
		c0-4.142-3.358-7.499-7.499-7.499c-4.142,0-7.499,3.358-7.499,7.499V211.247z"/>
	<path d="M323.81,194.866v16.381c0,4.142,3.358,7.499,7.499,7.499s7.499-3.358,7.499-7.499v-16.381c0-4.142-3.358-7.499-7.499-7.499
		S323.81,190.725,323.81,194.866z"/>
	<path d="M248.665,216.286l-5.525,11.05c-2.134,4.268,0.97,9.289,5.741,9.289h14.238c4.772,0,7.875-5.022,5.741-9.289l-5.525-11.05
		C260.313,210.241,251.687,210.241,248.665,216.286z"/>
	<path d="M427.314,434.758c-7.411-24.15-38.297-31.241-55.432-12.808l-55.674-29.53l55.674-29.529
		c9.918,10.668,25.997,13.698,39.414,6.582c24.022-12.742,22.787-47.333-1.313-58.727c2.414-15.566-6.741-31.469-22.846-36.41
		c-24.167-7.415-47.34,14.203-41.695,38.708L256,360.485l-89.443-47.441c3.269-14.195-3.241-29.207-16.657-36.323
		c-23.689-12.565-52.043,7.193-47.884,34.025c-14.271,6.747-22.263,23.26-17.331,39.335c7.41,24.15,38.297,31.243,55.432,12.808
		l55.673,29.53l-55.673,29.53c-9.919-10.668-25.998-13.698-39.414-6.582c-23.886,12.669-22.974,47.246,1.312,58.727
		c-3.05,19.679,12.15,37.852,32.541,37.852c20.752,0,36.786-19.376,32-40.149L256,424.355l89.443,47.442
		c-3.271,14.196,3.24,29.206,16.657,36.323c23.815,12.63,52.015-7.368,47.883-34.025
		C424.256,467.346,432.246,450.833,427.314,434.758z M358.124,323.296c3.551-1.884,4.986-6.232,3.253-9.859
		c-6.712-14.046,6.6-29.292,21.361-24.762c10.186,3.125,15.287,14.317,11.226,23.999c-1.831,4.365,0.798,9.321,5.439,10.253
		c16.453,3.307,19.607,25.476,4.866,33.295c-8.486,4.501-18.927,1.538-23.774-6.744c-2.03-3.469-6.435-4.72-9.986-2.837
		l-70.303,37.289l-28.199-14.957L358.124,323.296z M153.876,461.545c-3.551,1.884-4.986,6.232-3.253,9.859
		c4.138,8.658,0.733,18.966-7.751,23.465c-14.797,7.846-31.311-7.27-24.836-22.703c1.828-4.358-0.789-9.318-5.438-10.253
		c-10.381-2.086-16.674-12.649-13.573-22.755c4.523-14.74,24.602-17.258,32.482-3.797c2.03,3.469,6.434,4.72,9.986,2.837
		l70.303-37.289l28.199,14.957L153.876,461.545z M399.402,461.913c-4.635,0.932-7.272,5.881-5.439,10.253
		c6.521,15.546-10.18,30.477-24.836,22.703c-8.484-4.5-11.889-14.807-7.751-23.466c1.733-3.627,0.298-7.975-3.253-9.858
		C126.65,338.769,140.874,345.766,137.985,345.766c-2.582,0-5.087,1.336-6.478,3.712c-7.862,13.435-27.954,10.964-32.482-3.796
		c-3.094-10.084,3.171-20.665,13.573-22.755c4.634-0.931,7.272-5.881,5.438-10.253c-4.064-9.688,1.05-20.877,11.226-24
		c14.765-4.53,28.072,10.721,21.361,24.762c-1.733,3.627-0.299,7.975,3.253,9.859l216.631,114.903
		c3.55,1.884,7.955,0.632,9.986-2.837c7.865-13.435,27.952-10.965,32.482,3.796C416.071,449.251,409.796,459.824,399.402,461.913z"
		/>
</g>
<g>
</g>
<g>
</g>
<g>
</g>
<g>
</g>
<g>
</g>
<g>
</g>
<g>
</g>
<g>
</g>
<g>
</g>
<g>
</g>
<g>
</g>
<g>
</g>
<g>
</g>
<g>
</g>
<g>
</g>
</svg>
