<?xml version="1.0" encoding="iso-8859-1"?>
<!-- Generator: Adobe Illustrator 23.0.3, SVG Export Plug-In . SVG Version: 6.00 Build 0)  -->
<svg version="1.1" id="Capa_1" xmlns="http://www.w3.org/2000/svg" xmlns:xlink="http://www.w3.org/1999/xlink" x="0px" y="0px"
	 viewBox="0 0 512 512" style="enable-background:new 0 0 512 512;" xml:space="preserve">
<g>
	<path d="M245.466,324.463h21.052c14.226,0,22.612-16.015,14.493-27.707l-10.543-15.186c-7.005-10.087-21.949-10.086-28.951,0
		l-10.544,15.185C222.858,308.443,231.232,324.463,245.466,324.463z M243.294,305.311l10.544-15.186
		c1.049-1.511,3.266-1.501,4.309,0l10.543,15.186l0,0c1.227,1.766-0.034,4.152-2.172,4.152h-21.052
		c-1.393,0-2.066-0.889-2.343-1.419C242.846,307.515,242.499,306.455,243.294,305.311z"/>
	<path d="M200.78,273.272l-15.269-21.99c-8.807-12.684-27.598-12.682-36.404,0l-15.268,21.99
		c-10.206,14.696,0.325,34.846,18.227,34.846h30.485C200.443,308.118,210.989,287.977,200.78,273.272z M146.161,281.827
		l15.268-21.99c2.84-4.089,8.9-4.122,11.761,0l15.269,21.99c3.315,4.775-0.092,11.291-5.906,11.291h-30.485
		C146.255,293.118,142.845,286.603,146.161,281.827z"/>
	<path d="M378.144,273.272l-15.269-21.99c-8.807-12.684-27.598-12.681-36.403,0l-15.269,21.99l0,0
		c-10.206,14.697,0.327,34.846,18.228,34.846h30.485C377.81,308.118,388.354,287.976,378.144,273.272z M323.525,281.827
		L323.525,281.827l15.269-21.99c2.84-4.09,8.9-4.121,11.761,0l15.269,21.99c3.315,4.773-0.091,11.291-5.906,11.291h-30.485
		C323.62,293.118,320.208,286.603,323.525,281.827z"/>
	<path d="M181.289,419.989c10.392,7.188,23.622,6.62,35.39-1.519c6.137-4.245,14.383-4.245,20.52,0
		c11.241,7.775,26.345,7.775,37.586,0c6.137-4.245,14.383-4.245,20.52,0c11.115,7.687,24.142,9.3,35.39,1.519
		c26.589-18.39,26.58-57.752,0-76.136c-10.392-7.188-23.622-6.62-35.389,1.519c-6.137,4.245-14.384,4.244-20.521,0
		c-11.241-7.775-26.345-7.774-37.585,0c-6.137,4.245-14.384,4.244-20.521,0c-11.943-8.261-24.842-8.814-35.389-1.52
		c-12.496,8.644-19.957,22.875-19.957,38.068C161.332,397.115,168.793,411.346,181.289,419.989z M189.822,356.189
		c6.665-4.609,13.643-1.719,18.323,1.519c11.24,7.775,26.345,7.775,37.586,0c6.138-4.245,14.384-4.245,20.52,0
		c11.24,7.774,26.345,7.774,37.586,0c3.832-2.65,11.309-6.372,18.324-1.519c17.988,12.442,17.951,39.046,0,51.464
		c-6.666,4.609-13.644,1.718-18.324-1.52c-11.238-7.774-26.345-7.776-37.586,0c-6.137,4.245-14.383,4.245-20.52,0
		c-11.24-7.774-26.345-7.774-37.585,0c-3.832,2.65-11.307,6.371-18.324,1.519C171.85,395.222,171.855,368.616,189.822,356.189z"/>
	<path d="M453.396,450.209c3.775,1.704,8.217,0.026,9.922-3.748c10.408-23.044,12.657-49.218,6.333-73.699l-47.506-183.894
		c-6.78-26.243-29.875-44.834-56.732-46.06V109.42C365.412,49.085,316.327,0,255.992,0c-18.848,0-37.452,4.899-53.802,14.169
		c-3.603,2.043-4.869,6.62-2.826,10.223s6.62,4.868,10.224,2.826c62.385-35.367,140.824,9.797,140.824,82.203
		c0,15.042,0,57.388,0,72.513c0,7.499-6.101,13.599-13.599,13.599c-7.499,0-13.6-6.101-13.6-13.599c0-15.478,0-57.571,0-72.513
		c0-37.066-30.155-67.222-67.222-67.222s-67.223,30.156-67.223,67.222c0,15.042,0,57.388,0,72.513
		c0,7.499-6.101,13.599-13.599,13.599c-7.499,0-13.6-6.101-13.6-13.599c0-15.478,0-57.571,0-72.513
		c0-24.246,9.217-47.311,25.951-64.944c2.852-3.004,2.727-7.751-0.277-10.603c-3.004-2.852-7.752-2.728-10.603,0.277
		c-19.391,20.433-30.071,47.164-30.071,75.27v33.388c-26.857,1.225-49.953,19.817-56.732,46.06L42.332,372.762
		c-7.496,29.017-2.837,60.327,12.782,85.905C75.202,491.564,111.626,512,150.171,512h211.642c32.541,0,63.352-14.163,84.534-38.858
		c2.697-3.144,2.334-7.879-0.81-10.575c-3.144-2.697-7.879-2.334-10.575,0.81C416.632,484.745,389.971,497,361.812,497H150.171
		c-33.354,0-64.872-17.684-82.255-46.15c-13.516-22.133-17.547-49.227-11.061-74.335l47.507-183.895
		c5.068-19.619,22.196-33.585,42.209-34.794v24.107c0,15.77,12.83,28.599,28.6,28.599s28.599-12.83,28.599-28.599V157.74h104.444
		v24.193c0,15.77,12.83,28.599,28.6,28.599s28.599-12.83,28.599-28.599v-24.107c20.013,1.208,37.141,15.175,42.209,34.794
		l47.506,183.894c5.472,21.184,3.526,43.832-5.48,63.772C447.943,444.062,449.621,448.504,453.396,450.209z M203.769,142.74v-33.32
		c0-28.795,23.427-52.222,52.223-52.222c28.795,0,52.222,23.427,52.222,52.222v33.32H203.769z"/>
</g>
<g>
</g>
<g>
</g>
<g>
</g>
<g>
</g>
<g>
</g>
<g>
</g>
<g>
</g>
<g>
</g>
<g>
</g>
<g>
</g>
<g>
</g>
<g>
</g>
<g>
</g>
<g>
</g>
<g>
</g>
</svg>
