<?xml version="1.0" encoding="iso-8859-1"?>
<!-- Generator: Adobe Illustrator 23.0.3, SVG Export Plug-In . SVG Version: 6.00 Build 0)  -->
<svg version="1.1" id="Capa_1" xmlns="http://www.w3.org/2000/svg" xmlns:xlink="http://www.w3.org/1999/xlink" x="0px" y="0px"
	 viewBox="0 0 512 512" style="enable-background:new 0 0 512 512;" xml:space="preserve">
<g>
	<path d="M93.873,512c36.314,0,59.109-38.91,41.986-70.558l27.568-27.568c25.134,16.455,50.174,24.937,71.127,24.936
		c15.43,0,28.646-4.6,38.046-14L383.25,314.16h82.525c21.175,0,38.401-17.227,38.401-38.401s-17.227-38.401-38.401-38.401h-5.722
		l40.718-40.718c14.972-14.973,14.972-39.335,0-54.308c-8.943-8.943-21.233-12.543-32.877-10.805
		c3.829-25.693-18.191-47.525-43.72-43.72c3.797-25.405-17.919-47.542-43.701-43.701c1.74-11.641-1.861-23.934-10.804-32.877
		c-14.973-14.972-39.335-14.972-54.308,0l-60.849,60.849c-2.929,2.929-2.929,7.678,0,10.607c2.929,2.929,7.678,2.929,10.607,0
		l60.849-60.848c9.123-9.124,23.969-9.124,33.093,0c9.123,9.123,9.123,23.967,0.002,33.091C351.993,62,328.023,85.97,320.951,93.041
		c-4.74,4.739-1.318,12.804,5.304,12.804c1.92,0,3.839-0.732,5.304-2.196c1.108-1.108-6.948,6.948,38.111-38.111
		c4.42-4.42,10.296-6.854,16.547-6.854c20.626,0,31.363,25.123,16.55,39.943c-45.574,45.574-35.806,35.805-38.115,38.114
		c-4.739,4.739-1.318,12.804,5.304,12.804c1.919,0,3.839-0.732,5.304-2.197c1.03-1.03,40.637-40.636,38.111-38.11
		c4.42-4.42,10.296-6.854,16.547-6.854c20.653,0,31.335,25.159,16.546,39.947c-5.679,5.679-32.414,32.414-38.111,38.111
		c-4.738,4.738-1.319,12.804,5.304,12.804c1.92,0,3.839-0.732,5.304-2.197c5.364-5.364,32.624-32.624,38.111-38.111
		c9.123-9.124,23.969-9.124,33.093,0c9.123,9.124,9.123,23.97,0,33.093L286.579,389.616c0.417-10.275-1.395-21.048-4.395-31.117
		c-0.25-0.837-1.252-4.155-1.635-4.998c-1.564-3.446-5.526-5.244-9.221-3.998c-3.926,1.323-6.036,5.578-4.713,9.503
		c6.227,18.478,8.801,41.061-4.622,55.196v0c-16.327,16.326-51.63,11.568-87.712-11.184l36.337-36.337
		c6.4-6.4,7.976-15.52,6.458-24.445c-2.108-12.424-9.948-22.359-9.888-22.259c-16.429-22.507-46.565-33.902-61.87-18.596
		l-36.336,36.336c-37.574-59.586-24.281-112.874,40.261-93.532c29.986,8.986,58.825,30.684,79.99,54.053
		c17.995,19.873,26.161,36.246,27.206,37.678c2.019,2.76,5.688,3.83,8.884,2.517c4.239-1.738,5.87-6.712,3.727-10.577
		c-23.78-42.896-69.507-84.258-115.5-98.041c-9.931-2.973-20.585-4.854-31.065-4.494L243.906,103.9
		c2.929-2.929,2.929-7.678,0-10.607c-2.929-2.929-7.678-2.929-10.607,0C222.029,104.562,80.129,246.462,87.191,239.4
		c-22.164,22.164-17.626,65.524,10.943,109.166l-27.575,27.575c-18.258-9.879-41.578-6.807-56.587,8.203
		c-18.628,18.628-18.628,48.938,0,67.566c8.604,8.604,20.176,13.53,32.169,13.95C47.038,491.486,67.919,512,93.873,512z
		 M489.175,275.759c0,12.903-10.497,23.4-23.4,23.4h-67.523l46.801-46.801h20.723C478.678,252.359,489.175,262.856,489.175,275.759z
		 M24.579,394.951c11.37-11.369,29.681-12.758,42.594-3.233c2.987,2.203,7.134,1.892,9.756-0.732
		c34.464-34.463,42.202-42.202,78.997-78.997c3.942-3.942,11.478-2.767,16.815-0.772c23.878,9.301,35.454,36.671,27.27,44.857
		l-78.996,78.996c-2.623,2.623-2.935,6.77-0.732,9.756c9.526,12.915,8.135,31.226-3.233,42.595
		c-12.78,12.779-33.572,12.779-46.352,0c-7.395-7.396-10.828-17.995-9.181-28.352c0.802-5.046-3.569-9.385-8.585-8.585
		c-10.361,1.647-20.957-1.786-28.352-9.182C11.799,428.524,11.799,407.731,24.579,394.951z"/>
</g>
<g>
</g>
<g>
</g>
<g>
</g>
<g>
</g>
<g>
</g>
<g>
</g>
<g>
</g>
<g>
</g>
<g>
</g>
<g>
</g>
<g>
</g>
<g>
</g>
<g>
</g>
<g>
</g>
<g>
</g>
</svg>
