<?xml version="1.0" encoding="iso-8859-1"?>
<!-- Generator: Adobe Illustrator 23.0.3, SVG Export Plug-In . SVG Version: 6.00 Build 0)  -->
<svg version="1.1" id="Capa_1" xmlns="http://www.w3.org/2000/svg" xmlns:xlink="http://www.w3.org/1999/xlink" x="0px" y="0px"
	 viewBox="0 0 512 512" style="enable-background:new 0 0 512 512;" xml:space="preserve">
<g>
	<path d="M202.904,352.17c2.711-3.133,2.369-7.87-0.764-10.58c-3.133-2.711-7.871-2.369-10.58,0.764
		c-12.068,13.946-33.677,13.933-45.735,0.003c-2.711-3.133-7.449-3.475-10.58-0.763c-3.132,2.711-3.474,7.448-0.763,10.58
		C152.535,373.032,184.872,373.009,202.904,352.17z"/>
	<path d="M377.543,352.174c2.711-3.132,2.369-7.87-0.763-10.58c-3.133-2.711-7.87-2.369-10.58,0.763
		c-12.07,13.945-33.678,13.929-45.735-0.003c-2.711-3.133-7.448-3.475-10.58-0.764c-3.133,2.711-3.475,7.448-0.764,10.58
		C327.172,373.03,359.508,373.01,377.543,352.174z"/>
	<path d="M290.223,352.17c2.711-3.133,2.369-7.87-0.764-10.58c-3.133-2.711-7.871-2.369-10.58,0.764
		c-12.068,13.946-33.677,13.933-45.735,0.003c-2.711-3.133-7.449-3.475-10.58-0.763c-3.132,2.711-3.474,7.448-0.763,10.58
		C239.855,373.032,272.192,373.009,290.223,352.17z"/>
	<path d="M189.485,387.361c-2.711-3.132-7.447-3.475-10.58-0.763c-3.132,2.711-3.474,7.448-0.763,10.58
		c18.053,20.859,50.39,20.835,68.422-0.004c2.711-3.133,2.369-7.87-0.764-10.58c-3.133-2.711-7.871-2.369-10.58,0.764
		c-5.752,6.647-14.087,10.46-22.868,10.46C203.571,397.819,195.237,394.007,189.485,387.361z"/>
	<path d="M276.804,387.361c-2.712-3.132-7.447-3.475-10.58-0.763c-3.132,2.711-3.474,7.448-0.763,10.58
		c18.053,20.859,50.39,20.835,68.422-0.004c2.711-3.133,2.369-7.87-0.764-10.58c-3.133-2.711-7.871-2.369-10.58,0.764
		C310.471,401.305,288.862,401.292,276.804,387.361z"/>
	<path d="M16.801,332.723c12.854,22.459,38.695,51.98,88.918,66.132c15.573,19.032,34.461,34.429,55.945,45.548
		c-3.897,3.353-7.293,7.328-9.998,11.832c0,0,0,0,0,0c-8.622,14.359,1.765,32.661,18.551,32.661h46.853
		c13.374,0,22.726-11.632,21.545-23.66c11.18,0.797,22.763,0.858,34.797,0c-1.18,12.022,8.164,23.66,21.545,23.66h46.853
		c16.804,0,27.166-18.315,18.551-32.661c-2.705-4.505-6.101-8.479-9.998-11.832c21.485-11.119,40.373-26.518,55.946-45.55
		c25.73-7.253,47.627-19.303,65.091-35.868c3.006-2.85,3.131-7.598,0.281-10.604c-2.851-3.005-7.599-3.132-10.604-0.28
		c-11.221,10.642-24.544,19.236-39.777,25.676c30.507-49.629,39.771-114.715,27.992-166.45c46.281-4.656,64.67,66.133,29.12,120.103
		c-2.279,3.459-1.322,8.111,2.138,10.39c3.459,2.28,8.111,1.322,10.39-2.138c42.749-64.897,16.856-151.452-45.574-142.969
		c-5.674-18.266-14.017-35.674-24.894-51.786c33.893-30.364,35.95-71.09,14.225-111.4c-8.529-15.824-32.045-13.031-36.778,4.311
		c-6.37,23.338-18.751,36.823-37.849,41.225c-3.242,0.748-6.392,1.529-9.47,2.336c-58.866-32.008-130.259-32.033-189.17,0
		c-3.077-0.807-6.228-1.589-9.47-2.336c-19.098-4.402-31.479-17.887-37.849-41.225c-4.733-17.342-28.249-20.135-36.778-4.311
		C68.644,49.644,63.894,65.491,63.213,80.63c-0.186,4.139,3.018,7.644,7.157,7.831c4.116,0.182,7.644-3.018,7.83-7.157
		c0.579-12.865,4.73-26.545,12.337-40.659c2.126-3.943,7.93-3.141,9.1,1.143c7.849,28.756,24.319,46.215,48.952,51.894
		c32.48,7.484,69.082,21.71,94,43.805c0,0,0,0,0,0c7.742,6.877,19.303,6.704,26.847,0c24.876-22.09,61.608-36.341,94-43.805
		c24.633-5.678,41.103-23.137,48.952-51.894c1.17-4.287,6.976-5.083,9.1-1.143c22.459,41.67,10.127,69.872-4.172,86.192
		c-3.391,3.87-7.269,7.533-11.522,10.787c-29.443,22.654-55.54,14.427-116.112,39.14c-19.146-17.239-48.244-17.198-67.343,0
		c-59.568-24.317-85.52-16.437-116.25-39.237c-10.098-7.81-18.73-18.247-23.5-29.981c-1.56-3.838-5.937-5.684-9.774-4.124
		c-3.837,1.56-5.684,5.936-4.124,9.773c4.902,12.059,12.968,22.869,22.861,31.731c-10.877,16.113-19.22,33.52-24.894,51.786
		C6.564,188.424-19.895,268.605,16.801,332.723z M182.494,87.745c46.723-20.447,100.134-20.525,147.036,0
		c-24.683,8.463-50.697,21.343-70.057,38.526c-1.97,1.749-4.943,1.756-6.922,0C233.396,109.247,206.964,96.047,182.494,87.745z
		 M217.069,473.895h-46.853c-5.131,0-8.3-5.591-5.69-9.937l0,0c13.129-21.862,44.984-22.065,58.233,0
		C225.37,468.306,222.199,473.895,217.069,473.895z M341.808,473.895h-46.853c-5.131,0-8.3-5.591-5.69-9.937
		c13.163-21.931,45.02-22.005,58.233,0C350.109,468.306,346.938,473.895,341.808,473.895z M138.836,168.592
		c9.256,2.186,20.347,4.365,33.622,7.733v12.536c0,4.143,3.358,7.501,7.501,7.501s7.501-3.358,7.501-7.501v-8.417
		c9.13,2.71,16.948,5.403,24.985,8.536c-7.729,13.378-6.602,25.805-6.723,26.288c1.429,44.293,54.226,65.393,85.479,34.795
		c16.982-16.624,19.465-41.892,8.379-61.083c7.999-3.114,15.695-5.778,24.985-8.536v8.417c0,4.143,3.358,7.501,7.501,7.501
		s7.501-3.358,7.501-7.501v-12.536c13.181-3.344,24.499-5.578,33.622-7.733c13.413,14.687,20.753,33.563,20.753,53.595
		c0,43.886-35.703,79.589-79.589,79.589c-19.739,0-38.673-7.28-53.313-20.498c-2.855-2.578-7.198-2.578-10.053,0
		c-14.641,13.218-33.575,20.498-53.313,20.498c-43.886,0-79.589-35.703-79.589-79.589
		C118.084,202.155,125.423,183.28,138.836,168.592z M253.828,178.9c18.634-1.156,34.919,12.458,37.211,30.827
		c-22.98,6.898-47.049,6.905-70.053,0c1.025-8.209,4.942-15.651,10.59-21.051C234.001,186.348,245.457,179.424,253.828,178.9z
		 M289.312,225.775c-4.87,13.719-18.059,23.641-33.299,23.641s-28.43-9.922-33.299-23.641
		C244.366,231.217,266.784,231.451,289.312,225.775z M123.124,163.949c-12.997,16.56-20.042,36.843-20.042,58.239
		c0,52.158,42.433,94.591,94.591,94.591c21.26,0,41.735-7.106,58.34-20.132c16.605,13.026,37.08,20.132,58.34,20.132
		c52.158,0,94.591-42.433,94.591-94.591c0-21.396-7.046-41.679-20.042-58.239c7.159-2.693,14.034-6.212,19.635-9.896
		c10.689,16.001,18.893,33.589,24.275,53.298c20.79,76.302-7.689,187.83-98.07,227.928c-18.117-6.453-39.721-1.795-53.41,14.175
		c-16.478,1.872-34.154,1.872-50.638,0c-13.565-15.791-35.064-20.709-53.41-14.175c-33.002-14.641-60.037-39.891-78.314-73.189
		c-20.325-37.028-28.258-80.99-25.773-118.843c2.144-32.009,12.453-62.488,30.293-89.194
		C109.028,157.699,115.95,161.256,123.124,163.949z M62.732,211.34c-11.89,52.237-2.109,117.469,28,166.446
		c-33.025-13.947-51.181-35.517-60.91-52.515C-0.535,272.231,18.219,207.009,62.732,211.34z"/>
</g>
<g>
</g>
<g>
</g>
<g>
</g>
<g>
</g>
<g>
</g>
<g>
</g>
<g>
</g>
<g>
</g>
<g>
</g>
<g>
</g>
<g>
</g>
<g>
</g>
<g>
</g>
<g>
</g>
<g>
</g>
</svg>
