<?xml version="1.0" encoding="iso-8859-1"?>
<!-- Generator: Adobe Illustrator 23.0.3, SVG Export Plug-In . SVG Version: 6.00 Build 0)  -->
<svg version="1.1" id="Capa_1" xmlns="http://www.w3.org/2000/svg" xmlns:xlink="http://www.w3.org/1999/xlink" x="0px" y="0px"
	 viewBox="0 0 512 512" style="enable-background:new 0 0 512 512;" xml:space="preserve">
<g>
	<path d="M174.328,271.579l-6.274,6.274c-2.929,2.929-2.929,7.677,0,10.606c2.928,2.929,7.678,2.929,10.606,0l6.274-6.274
		c2.929-2.929,2.929-7.677,0-10.606C182.006,268.65,177.257,268.65,174.328,271.579z"/>
	<path d="M239.625,336.875l-6.273,6.274c-4.738,4.737-1.319,12.803,5.303,12.803c1.92,0,3.839-0.732,5.304-2.197l6.273-6.274
		c2.929-2.929,2.929-7.677,0-10.606C247.302,333.946,242.553,333.946,239.625,336.875z"/>
	<path d="M214.287,316.742c-5.235,0.36-9.58-3.968-9.219-9.219c0.284-4.132-2.836-7.713-6.968-7.996
		c-4.132-0.281-7.713,2.836-7.997,6.968c-0.986,14.354,10.931,26.194,25.211,25.212c4.132-0.284,7.252-3.864,6.969-7.996
		C221.999,319.579,218.424,316.461,214.287,316.742z"/>
	<path d="M459.629,70.871l16.367-3.809c29.287-6.816,35.871-45.974,10.25-61.92c-7.703-4.795-16.811-6.303-25.655-4.244
		c-18.788,4.39-19.247,4.526-19.525,4.609c-12.043,3.593-23.331,9.109-33.548,16.394c-3.373,2.404-4.157,7.088-1.752,10.461
		c2.404,3.372,7.088,4.156,10.461,1.752c8.835-6.299,18.593-11.075,29.001-14.195c1.369-0.34,12.139-2.864,18.771-4.414
		c4.935-1.148,10.02-0.306,14.321,2.371c14.313,8.91,10.622,30.772-5.724,34.576c-12.407,2.893-16.771,3.891-17.193,4.023
		c-21.215,6.644-37.054,24.328-41.336,46.15c-6.499,33.115-29.118,60.282-60.508,72.671c-15.988,6.316-28.413,17.579-34.979,31.697
		c-12.735,27.206-16.988,40.047-32.367,55.425l-14.727,14.728c-7.128-10.615-16.353-19.804-26.824-26.823
		c11.104-11.919,20.094-17.549,26.825-32.023l12.689-27.286c10.695-22.996,30.389-41.109,55.455-51.002
		c19.306-7.62,33.216-24.327,37.213-44.692c3.018-15.38,9.719-29.967,19.378-42.184c2.569-3.249,2.017-7.966-1.232-10.535
		c-3.249-2.568-7.966-2.018-10.535,1.232c-11.133,14.082-18.854,30.887-22.33,48.598c-3.007,15.323-13.474,27.894-28.001,33.629
		c-28.656,11.31-51.225,32.133-63.549,58.629l-12.688,27.286c-5.292,11.379-11.937,15.05-26.847,30.758
		c-17.836-8.091-36.531-9.825-53.12-5.803c-57.377,13.916-116.824,57.758-159.918,98.199c-11.782,11.06-10.537,30.295,1.681,42.512
		l15.083,15.083c0,0,0,0,0,0c0,0,0,0,0,0c15.873,15.873,95.622,95.621,109.402,109.401c12.355,12.356,31.57,13.338,42.513,1.681
		c40.205-42.842,84.356-102.842,98.198-159.917c4.213-17.364,1.975-36.069-5.781-53.141l17.723-17.724
		c35.048-35.049,25.274-69.172,62.247-83.777c36.167-14.275,62.23-45.578,69.719-83.735
		C431.991,89.182,443.798,75.932,459.629,70.871z M226.54,430.962c-31.997-31.978-30.117-30.166-30.677-30.623
		c-2.953-2.408-7.298-2.225-10.037,0.515c-2.929,2.929-2.929,7.677,0,10.606l31.904,31.904
		c-12.264,16.678-26.364,33.532-41.986,50.178c-4.409,4.696-13.789,5.159-20.97-2.021l-9.78-9.78l30.174-30.174
		c2.929-2.929,2.929-7.678,0-10.606c-2.929-2.929-7.678-2.929-10.606,0l-30.174,30.174l-20.833-20.833l30.174-30.174
		c2.929-2.929,2.929-7.678,0-10.607c-2.929-2.929-7.678-2.929-10.606,0l-30.174,30.174l-20.834-20.833l30.174-30.174
		c2.929-2.929,2.929-7.677,0-10.606c-2.929-2.929-7.678-2.929-10.606,0l-30.174,30.174l-20.833-20.833l30.174-30.174
		c2.929-2.929,2.929-7.677,0-10.606c-2.929-2.929-7.678-2.929-10.606,0l-30.174,30.174l-9.78-9.78
		c-5.909-5.909-7.722-15.618-2.022-20.969c16.647-15.622,33.501-29.723,50.179-41.987l86.923,86.923
		c2.563,2.563,6.519,2.883,9.43,0.961c3.964-2.617,4.533-8.21,1.176-11.568l-85.127-85.128c7.317-5.015,14.624-9.689,21.834-13.969
		l127.828,127.828C236.229,416.339,231.555,423.645,226.54,430.962z M270.301,340.355c-2.907,11.987-9.08,30.861-22.134,55.219
		L126.236,273.642c24.358-13.053,43.231-19.227,55.218-22.134C230.178,239.698,282.264,291.047,270.301,340.355z"/>
</g>
<g>
</g>
<g>
</g>
<g>
</g>
<g>
</g>
<g>
</g>
<g>
</g>
<g>
</g>
<g>
</g>
<g>
</g>
<g>
</g>
<g>
</g>
<g>
</g>
<g>
</g>
<g>
</g>
<g>
</g>
</svg>
