<?xml version="1.0" encoding="iso-8859-1"?>
<!-- Generator: Adobe Illustrator 23.0.3, SVG Export Plug-In . SVG Version: 6.00 Build 0)  -->
<svg version="1.1" id="Capa_1" xmlns="http://www.w3.org/2000/svg" xmlns:xlink="http://www.w3.org/1999/xlink" x="0px" y="0px"
	 viewBox="0 0 512 512" style="enable-background:new 0 0 512 512;" xml:space="preserve">
<g>
	<path d="M172.445,155.085v-17.497c0-4.142-3.358-7.5-7.5-7.5s-7.5,3.358-7.5,7.5v17.497c0,4.142,3.358,7.5,7.5,7.5
		S172.445,159.228,172.445,155.085z"/>
	<path d="M354.555,155.085v-17.497c0-4.142-3.358-7.5-7.5-7.5s-7.5,3.358-7.5,7.5v17.497c0,4.142,3.358,7.5,7.5,7.5
		S354.555,159.228,354.555,155.085z"/>
	<path d="M256,173.001c11.368,0,22.178-4.924,29.661-13.509c2.721-3.123,2.396-7.86-0.727-10.582s-7.86-2.396-10.582,0.727
		c-9.741,11.177-27.015,11.119-36.704,0c-2.721-3.122-7.459-3.447-10.582-0.727c-3.123,2.722-3.448,7.459-0.727,10.582
		C233.821,168.077,244.632,173.001,256,173.001z"/>
	<path d="M339.643,441.395c4.142,0,7.5-3.358,7.5-7.5V266.166c0-4.142-3.358-7.5-7.5-7.5h-35.851c-4.142,0-7.5,3.358-7.5,7.5
		s3.358,7.5,7.5,7.5h28.351v160.229C332.143,438.037,335.5,441.395,339.643,441.395z"/>
	<path d="M247.228,305.138c0-27.801-22.618-50.419-50.419-50.419c-24.04,0-44.846,17.098-49.473,40.655
		c-0.798,4.064,1.85,8.006,5.914,8.805c4.065,0.798,8.007-1.849,8.805-5.914c3.249-16.541,17.865-28.546,34.754-28.546
		c19.53,0,35.419,15.889,35.419,35.419s-15.889,35.419-35.419,35.419c-4.142,0-7.5,3.358-7.5,7.5s3.358,7.5,7.5,7.5
		c19.53,0,35.419,15.889,35.419,35.419s-15.889,35.419-35.419,35.419c-17.573,0-32.653-13.099-35.077-30.469
		c-0.227-1.627-0.342-3.292-0.342-4.95c0-4.142-3.358-7.5-7.5-7.5s-7.5,3.358-7.5,7.5c0,2.349,0.164,4.711,0.486,7.023
		c3.453,24.74,24.919,43.396,49.933,43.396c27.801,0,50.419-22.618,50.419-50.419c0-18.118-9.611-34.029-23.998-42.919
		C237.617,339.168,247.228,323.257,247.228,305.138z"/>
	<path d="M434.939,482.091h-44.654c-4.142,0-7.5,3.358-7.5,7.5s3.358,7.5,7.5,7.5h44.654c42.491,0,77.061-34.569,77.061-77.061
		c0-16.771,0-270.449,0-284.009c0-42.492-34.569-77.061-77.061-77.061h-5.266v-2.844c0-22.722-18.486-41.208-41.208-41.208
		s-41.208,18.485-41.208,41.208v2.844H164.741v-2.844c0-22.722-18.486-41.208-41.208-41.208S82.326,33.395,82.326,56.117v2.844
		h-5.265C34.569,58.96,0,93.53,0,136.021c0,13.558,0,267.236,0,284.009c0,42.491,34.569,77.061,77.061,77.061h283.224
		c4.142,0,7.5-3.358,7.5-7.5s-3.358-7.5-7.5-7.5H77.061C42.84,482.091,15,454.25,15,420.03V215.236h80.004
		c4.142,0,7.5-3.358,7.5-7.5s-3.358-7.5-7.5-7.5H15v-64.215c0-34.221,27.84-62.061,62.061-62.061h5.265v8.991l0,0
		c0,34.912,40.756,53.788,67.404,31.786c9.162-7.564,15.011-19.005,15.011-31.786l0,0V73.96h182.518v8.991l0,0
		c0,22.722,18.485,41.208,41.208,41.208c22.939,0,41.208-18.737,41.208-41.208l0,0V73.96h5.266c34.22,0,62.061,27.84,62.061,62.061
		v64.215H125.004c-4.142,0-7.5,3.358-7.5,7.5s3.358,7.5,7.5,7.5H497V420.03C497,454.25,469.16,482.091,434.939,482.091z
		 M97.326,82.951c0-5.511,0-18.017,0-26.834c0-14.451,11.757-26.208,26.208-26.208s26.208,11.757,26.208,26.208
		c0,5.639,0,18.408,0,26.834c0,9.032-4.593,17.011-11.565,21.726C120.729,116.479,97.326,103.786,97.326,82.951z M362.259,82.951
		c0-5.511,0-18.017,0-26.834c0-14.451,11.757-26.208,26.208-26.208s26.208,11.757,26.208,26.208c0,5.639,0,18.408,0,26.834
		c0,10.416-6.105,19.401-14.856,23.619C382.585,114.886,362.259,102.316,362.259,82.951z"/>
</g>
<g>
</g>
<g>
</g>
<g>
</g>
<g>
</g>
<g>
</g>
<g>
</g>
<g>
</g>
<g>
</g>
<g>
</g>
<g>
</g>
<g>
</g>
<g>
</g>
<g>
</g>
<g>
</g>
<g>
</g>
</svg>
