<?xml version="1.0" encoding="iso-8859-1"?>
<!-- Generator: Adobe Illustrator 23.0.3, SVG Export Plug-In . SVG Version: 6.00 Build 0)  -->
<svg version="1.1" id="Capa_1" xmlns="http://www.w3.org/2000/svg" xmlns:xlink="http://www.w3.org/1999/xlink" x="0px" y="0px"
	 viewBox="0 0 512 512" style="enable-background:new 0 0 512 512;" xml:space="preserve">
<g>
	<path d="M161.586,299.617v-22.168c0-4.142-3.358-7.5-7.5-7.5s-7.5,3.358-7.5,7.5v22.168c0,4.142,3.358,7.5,7.5,7.5
		S161.586,303.759,161.586,299.617z"/>
	<path d="M365.414,299.617v-22.168c0-4.142-3.358-7.5-7.5-7.5s-7.5,3.358-7.5,7.5v22.168c0,4.142,3.358,7.5,7.5,7.5
		S365.414,303.759,365.414,299.617z"/>
	<path d="M265.634,317.569c6.458,0,10.657-6.796,7.77-12.571l-7.477-14.953c-4.09-8.18-15.763-8.18-19.853,0l-7.477,14.953
		c-2.888,5.776,1.312,12.571,7.77,12.571H265.634z"/>
	<path d="M330.758,419.099c-9.223,0-17.439,5.105-21.627,12.948H202.869c-4.187-7.843-12.403-12.948-21.626-12.948
		c-18.116,0-29.822,18.956-22.209,35c-7.616,16.054,4.11,35,22.209,35c9.224,0,17.439-5.105,21.626-12.949h106.262
		c4.188,7.843,12.404,12.949,21.627,12.949c18.116,0,29.822-18.954,22.209-35C360.585,438.044,348.853,419.099,330.758,419.099z
		 M338.285,458.706c4.866,6.249,0.394,15.393-7.527,15.393c-4.391,0-8.194-2.981-9.25-7.25c-0.828-3.348-3.832-5.699-7.281-5.699
		H197.772c-3.449,0-6.453,2.352-7.281,5.7c-1.055,4.268-4.858,7.249-9.249,7.249c-7.919,0-12.396-9.141-7.528-15.393
		c2.109-2.709,2.109-6.506,0-9.215c-4.865-6.248-0.394-15.392,7.528-15.392c4.391,0,8.194,2.98,9.249,7.249
		c0.828,3.348,3.832,5.7,7.281,5.7h116.456c3.449,0,6.453-2.352,7.281-5.699c1.056-4.268,4.859-7.249,9.25-7.249
		c7.919,0,12.394,9.141,7.528,15.392C336.176,452.2,336.176,455.997,338.285,458.706z"/>
	<path d="M123.981,66.798c3.037-2.817,3.215-7.563,0.398-10.599c-2.817-3.037-7.563-3.215-10.599-0.398
		c-42.223,39.167-66.966,94.104-66.966,153.385v36.774c0,57.251,46.577,103.828,103.828,103.828c2.348,0,4.258,1.91,4.258,4.258
		c0.181,3.733-0.78,10.953,2.23,20.985C141.492,391.198,96.203,443.32,96.203,504.5c0,4.142,3.358,7.5,7.5,7.5h304.595
		c4.142,0,7.5-3.358,7.5-7.5c0-23.9-6.809-48.796-20.236-73.996c-1.949-3.656-6.492-5.039-10.146-3.092
		c-3.656,1.948-5.04,6.49-3.092,10.146c10.835,20.335,16.95,40.294,18.223,59.442H111.454
		c3.216-48.206,36.427-89.855,52.567-107.419c7.771,11.5,19.744,19.443,33.422,22.175c8.739,1.733,9.612,0.763,106.717,1.031
		c17.523,0,33.974-8.634,43.822-23.21c5.184,5.634,12.115,13.731,19.221,23.689c2.406,3.371,7.09,4.154,10.461,1.748
		c3.372-2.406,4.154-7.09,1.749-10.462c-9.608-13.463-18.95-23.756-24.541-29.525c3.017-10.056,2.05-17.286,2.229-20.983
		c0-2.348,1.91-4.258,4.258-4.258c57.251,0,103.828-46.577,103.828-103.828v-36.774C465.187,93.841,371.346,0,256,0
		c-42.249,0-82.966,12.544-117.75,36.274c-3.421,2.335-4.303,7.001-1.968,10.423c2.334,3.421,7,4.302,10.422,1.969
		C178.985,26.642,216.78,15,256,15c107.075,0,194.186,87.111,194.186,194.186v36.774c0,48.98-39.848,88.828-88.828,88.828
		c-10.619,0-19.258,8.639-19.258,19.258v5.801c0,19.853-15.455,36.495-35.313,37.839v-32.052c0-4.142-3.358-7.5-7.5-7.5
		s-7.5,3.358-7.5,7.5v32.154H263.5v-32.154c0-4.142-3.358-7.5-7.5-7.5s-7.5,3.358-7.5,7.5v32.154h-28.289v-32.154
		c0-4.142-3.358-7.5-7.5-7.5s-7.5,3.358-7.5,7.5v32.052c-19.758-1.339-35.312-17.881-35.312-37.839v-5.801
		c0-10.619-8.639-19.258-19.258-19.258c-48.98,0-88.828-39.848-88.828-88.828v-36.774C61.813,154.086,84.818,103.128,123.981,66.798
		z"/>
</g>
<g>
</g>
<g>
</g>
<g>
</g>
<g>
</g>
<g>
</g>
<g>
</g>
<g>
</g>
<g>
</g>
<g>
</g>
<g>
</g>
<g>
</g>
<g>
</g>
<g>
</g>
<g>
</g>
<g>
</g>
</svg>
