<?xml version="1.0" encoding="iso-8859-1"?>
<!-- Generator: Adobe Illustrator 23.0.3, SVG Export Plug-In . SVG Version: 6.00 Build 0)  -->
<svg version="1.1" id="Capa_1" xmlns="http://www.w3.org/2000/svg" xmlns:xlink="http://www.w3.org/1999/xlink" x="0px" y="0px"
	 viewBox="0 0 512 512" style="enable-background:new 0 0 512 512;" xml:space="preserve">
<g>
	<path d="M294.575,152.149l2.6,1.191l-2.77,6.046c-2.293,5.005,1.411,10.626,6.814,10.626c2.842,0,5.562-1.625,6.823-4.378
		l2.77-6.046l12.246,5.61l-2.77,6.046c-1.726,3.766-0.071,8.217,3.694,9.942c3.773,1.728,8.22,0.065,9.942-3.694l2.77-6.046
		l12.246,5.61l-2.77,6.046c-2.291,4.999,1.405,10.626,6.814,10.626c2.842,0,5.562-1.625,6.823-4.378l2.77-6.046l2.6,1.191
		c3.776,1.73,8.222,0.061,9.942-3.694c1.726-3.766,0.071-8.217-3.694-9.942l-2.6-1.191l2.77-6.046
		c1.726-3.766,0.071-8.217-3.694-9.942c-3.766-1.724-8.217-0.071-9.942,3.694l-2.77,6.046l-12.246-5.61l2.77-6.046
		c1.726-3.766,0.071-8.217-3.694-9.942c-3.765-1.724-8.217-0.072-9.942,3.694l-2.77,6.046l-12.246-5.611l2.77-6.046
		c1.726-3.766,0.071-8.217-3.694-9.942c-3.765-1.725-8.217-0.072-9.942,3.694l-2.77,6.047l-2.6-1.191
		c-3.766-1.725-8.217-0.071-9.942,3.694C289.155,145.973,290.809,150.424,294.575,152.149z"/>
	<path d="M182.487,238.868c-0.019-10.132-8.248-18.331-18.379-18.313c-10.132,0.019-18.331,8.247-18.312,18.379
		c0.018,10.132,8.247,18.331,18.379,18.312C174.307,257.229,182.506,249,182.487,238.868z"/>
	<path d="M336.799,238.586c0.011,6.166,5.018,11.154,11.184,11.143c6.165-0.011,11.154-5.018,11.143-11.184
		c-0.011-6.166-5.018-11.154-11.184-11.143S336.788,232.421,336.799,238.586z"/>
	<path d="M204.207,238.829c-0.04-22.08-17.917-39.993-40.063-39.993c-22.163,0-40.109,17.952-40.069,40.139
		c0.04,22.035,17.878,39.993,40.064,39.993C186.264,278.968,204.247,260.947,204.207,238.829z M164.096,213.836
		c-0.001-0.005,0.032,0,0.048,0c13.815,0,25.038,11.166,25.064,25.02c0.041,22.192-26.983,33.521-42.758,17.802
		C130.55,240.818,141.997,213.876,164.096,213.836z"/>
	<path d="M307.897,238.639c0.04,21.826,17.64,39.993,40.139,39.993c22.092-0.04,40.033-18.046,39.993-40.139
		c-0.04-22.081-17.918-39.993-40.064-39.993C325.838,198.5,307.857,216.52,307.897,238.639z M373.028,238.521
		c0.041,22.19-26.983,33.522-42.758,17.802c-15.781-15.723-4.535-42.783,17.646-42.823
		C361.793,213.508,373.003,224.665,373.028,238.521z"/>
	<path d="M427.739,179.731v-80.49c6.637-4.283,10.672-11.577,10.672-19.617V66.313C438.411,29.748,408.663,0,372.097,0H221.341
		c-4.142,0-7.5,3.358-7.5,7.5s3.358,7.5,7.5,7.5h150.756c28.294,0,51.313,23.019,51.313,51.313v13.311
		c0,6.945-7.897,10.861-13.43,6.705c-8.274-6.219-19.832-6.218-28.105,0l-15.889,11.943c-2.968,2.231-7.113,2.23-10.081,0
		l-15.89-11.943c-8.273-6.219-19.831-6.218-28.105,0c-17.087,12.476-16.832,13.899-21.532,13.568
		c-1.715-0.124-3.238-0.724-4.437-1.625l-15.889-11.943c-8.273-6.219-19.831-6.218-28.105,0l-15.889,11.943
		c-2.967,2.23-7.112,2.231-10.081,0l-15.889-11.943c-8.273-6.218-19.831-6.218-28.106,0l-15.889,11.943
		c-2.967,2.23-7.112,2.23-10.08,0l-15.889-11.943c-8.274-6.219-19.831-6.218-28.106,0c-5.532,4.156-13.429,0.232-13.429-6.706
		V66.313C88.589,38.019,111.608,15,139.903,15h51.439c4.142,0,7.5-3.358,7.5-7.5s-3.358-7.5-7.5-7.5h-51.439
		c-36.565,0-66.313,29.748-66.313,66.313v13.311c0,8.039,4.035,15.334,10.672,19.616v80.491
		c-21.911,3.595-38.686,22.656-38.686,45.568c0,22.913,16.775,41.973,38.686,45.568v21.818c-4.559,4.993-7.345,11.633-7.345,18.912
		v23.936c-4.639,9.137-2.975,16.482-3.327,21.565c0,42.204,30.724,77.345,70.976,84.291c-11.106,19.542-16.946,41.126-16.946,63.112
		c0,4.142,3.358,7.5,7.5,7.5c48.58,0,193.179,0,241.763,0c4.142,0,7.5-3.358,7.5-7.5c0-21.979-5.837-43.556-16.935-63.092
		c10.488-1.81,20.573-5.561,29.719-11.108c3.542-2.148,4.671-6.76,2.523-10.302c-2.147-3.54-6.758-4.671-10.302-2.523
		c-10.445,6.335-22.384,9.824-34.64,10.151c-3.154-0.044-193.448,0.085-197.254-0.01c-38.142-0.887-68.902-32.167-68.902-70.518
		v-7.661c0-8.736,7.12-15.827,15.827-15.827c1.351,0,303.206-0.058,304.635,0.074c8.027,0.742,14.36,7.506,14.36,15.752
		c-0.529,4.091,3.336,26.763-14.1,49.983c-2.487,3.312-1.818,8.014,1.494,10.501c3.312,2.488,8.014,1.818,10.501-1.494
		c11.19-14.902,17.105-32.651,17.105-51.329c-0.354-5.109,1.314-12.424-3.327-21.565v-23.936c0-7.279-2.785-13.918-7.345-18.911
		v-21.818c21.912-3.594,38.686-22.655,38.686-45.568C466.425,202.387,449.651,183.326,427.739,179.731z M369.135,497h-65.474
		v-54.342h47.027C361.677,459.526,367.864,477.758,369.135,497z M288.661,497h-65.322v-54.342h65.322V497z M208.339,442.658V497
		h-65.474c1.271-19.241,7.458-37.473,18.447-54.342H208.339z M60.575,225.299c0-14.611,10.101-26.908,23.686-30.275v60.549
		C70.676,252.207,60.575,239.91,60.575,225.299z M91.916,321.268v-9.671c0-5.734,3.734-10.713,9.065-12.439
		c3.026-0.965,3.191-0.577,27.558-0.635c7.209,0,13.074,5.865,13.074,13.074v7.013h-37.197
		C99.968,318.61,95.74,319.565,91.916,321.268z M128.539,283.522c-22.52,0.168-24.458-0.414-29.278,0.59
		c0-54.655,0-124.064,0-181.157c4.178-0.403,8.22-1.966,11.77-4.634c2.968-2.231,7.113-2.23,10.081,0l15.889,11.943
		c8.035,6.039,19.646,6.36,28.105,0l15.889-11.942c2.967-2.231,7.114-2.23,10.081,0l15.889,11.943c8.273,6.219,19.831,6.22,28.106,0
		L250.96,98.32c2.968-2.231,7.113-2.23,10.081,0l15.889,11.943c8.24,6.194,19.811,6.235,28.106,0l15.888-11.942
		c2.968-2.231,7.114-2.23,10.081,0l15.889,11.943c8.275,6.22,19.832,6.219,28.106,0l15.888-11.942c2.968-2.231,7.114-2.23,10.081,0
		c3.55,2.669,7.592,4.232,11.77,4.635c0,57.09,0,126.514,0,181.157c-4.826-1.005-6.776-0.422-29.278-0.59
		c-15.48,0-28.074,12.594-28.074,28.074v7.013H156.614v-7.013C156.614,296.117,144.02,283.522,128.539,283.522z M370.386,318.61
		v-7.013c0-7.209,5.865-13.074,13.074-13.074c24.616,0.024,25.393-0.372,28.731,1.076c4.613,1.998,7.892,6.609,7.892,11.998v9.671
		c-3.823-1.703-8.051-2.658-12.5-2.658H370.386z M427.739,255.574v-60.549c13.585,3.367,23.686,15.664,23.686,30.275
		S441.324,252.207,427.739,255.574z"/>
</g>
<g>
</g>
<g>
</g>
<g>
</g>
<g>
</g>
<g>
</g>
<g>
</g>
<g>
</g>
<g>
</g>
<g>
</g>
<g>
</g>
<g>
</g>
<g>
</g>
<g>
</g>
<g>
</g>
<g>
</g>
</svg>
