<?xml version="1.0" encoding="iso-8859-1"?>
<!-- Generator: Adobe Illustrator 23.0.3, SVG Export Plug-In . SVG Version: 6.00 Build 0)  -->
<svg version="1.1" id="Capa_1" xmlns="http://www.w3.org/2000/svg" xmlns:xlink="http://www.w3.org/1999/xlink" x="0px" y="0px"
	 viewBox="0 0 512 512" style="enable-background:new 0 0 512 512;" xml:space="preserve">
<g>
	<path d="M256,452.003c-4.129,0-7.477,3.348-7.477,7.477c0,4.129,3.348,7.477,7.477,7.477c4.13,0,7.477-3.348,7.477-7.477
		C263.477,455.351,260.129,452.003,256,452.003z"/>
	<path d="M256,475.498c-4.129,0-7.477,3.348-7.477,7.477c0,4.129,3.348,7.477,7.477,7.477c4.13,0,7.477-3.348,7.477-7.477
		C263.477,478.846,260.129,475.498,256,475.498z"/>
	<path d="M280.794,244.148c-3.123-2.721-7.86-2.396-10.581,0.727c-7.527,8.638-20.906,8.628-28.425,0
		c-2.721-3.123-7.459-3.448-10.581-0.727c-3.123,2.721-3.448,7.458-0.727,10.581c13.506,15.499,37.551,15.481,51.042,0
		C284.242,251.606,283.917,246.869,280.794,244.148z"/>
	<path d="M196.853,223.365l-29.038-7.781c-3.999-1.068-8.114,1.302-9.186,5.303c-1.072,4.001,1.302,8.114,5.303,9.186l10.318,2.765
		c-1.842,3.014-0.793,4.781-1.104,16.41c0,4.142,3.358,7.5,7.5,7.5c4.142,0,7.5-3.358,7.5-7.5
		c-0.003-5.79,0.007-12.023-0.009-12.688l4.833,1.295c4.008,1.071,8.115-1.306,9.186-5.303
		C203.228,228.55,200.854,224.437,196.853,223.365z"/>
	<path d="M344.185,215.584l-29.038,7.781c-4.001,1.072-6.375,5.185-5.303,9.186c0.898,3.351,3.928,5.561,7.24,5.561
		c1.609,0,2.276-0.413,6.779-1.552c-0.017,0.705-0.005,6.117-0.009,12.688c0,4.142,3.358,7.5,7.5,7.5c4.142,0,7.5-3.358,7.5-7.5
		c-0.31-11.596,0.74-13.394-1.104-16.41l10.317-2.765c4.001-1.072,6.375-5.185,5.303-9.186
		C352.298,216.886,348.187,214.515,344.185,215.584z"/>
	<path d="M45.48,122.669c0.042,0,0.085,0,0.127-0.001c0.137-0.002,0.274-0.008,0.412-0.017c3.975-0.188,7.139-3.471,7.139-7.492
		c0-0.609-0.073-1.201-0.209-1.768c-0.528-34.832,8.845-66.707,27.869-94.762c2.346-3.458,6.894-4.625,10.58-2.714
		C134.92,38.471,213.207,41.839,256,41.839s121.079-3.368,164.6-25.925c3.686-1.911,8.235-0.744,10.58,2.714
		c7.135,10.52,12.982,21.718,17.381,33.279c1.473,3.872,5.805,5.816,9.676,4.343c3.872-1.473,5.816-5.805,4.343-9.676
		c-4.811-12.648-11.199-24.883-18.986-36.365c-6.61-9.748-19.464-13.02-29.897-7.613C396.23,11.651,352.514,26.84,256,26.84
		c-96.515,0-140.231-15.188-157.699-24.242C87.868-2.81,75.015,0.462,68.404,10.21C47.3,41.332,37.066,76.705,37.985,115.347
		C38.082,119.425,41.417,122.669,45.48,122.669z"/>
	<path d="M476.141,182.382c-1.098-3.51-4.582-5.704-8.219-5.186c-1.562,0.223-3.128,0.523-4.697,0.883
		c8.566-27.034,14.97-63.157,7.705-101.813c-0.766-4.071-4.687-6.75-8.756-5.986c-4.071,0.765-6.75,4.686-5.986,8.756
		c7.823,41.626-1.594,80.374-11.348,106.331c-4.185,2.384-8.587,5.468-12.35,8.604c-9.575-36.759-27.775-72.672-63.153-86.426
		C322.984,89.521,271.262,118.999,256,128.821c-77.813-50.071-151.148-32.538-176.492,65.159c-4.067-3.382-8.372-6.341-12.348-8.609
		c-5.161-13.736-8.982-27.771-11.369-41.757c-0.696-4.083-4.566-6.827-8.654-6.132c-4.083,0.696-6.829,4.571-6.132,8.654
		c1.821,10.674,4.441,21.364,7.785,31.939c-1.54-0.352-3.111-0.65-4.714-0.879c-3.635-0.515-7.121,1.676-8.219,5.186
		c-0.797,2.549-19.243,62.827,5.546,96.553c9.739,13.25,24.51,20.489,43.928,21.598c15.185,40.864,45.376,76.55,86.554,98.032
		c-1.673,8.995-1.755,20.231-0.717,28.872c-15.71,11.803-37.939,35.796-37.939,77.064c0,4.142,3.358,7.5,7.5,7.5
		c12.689,0,225.729,0,230.539,0c4.142,0,7.5-3.358,7.5-7.5c0-41.268-22.23-65.261-37.94-77.064
		c1.033-8.595,0.966-19.827-0.717-28.872c39.455-20.584,70.692-55.348,86.553-98.03c19.419-1.109,34.19-8.349,43.929-21.599
		C495.385,245.208,476.939,184.931,476.141,182.382z M80.338,285.005c-32.227-4.667-39.207-33.703-36.225-66.104
		c0.955-10.371,2.867-19.574,4.29-25.426c10.26,3.077,20.082,9.929,27.433,17.527C72.389,236.156,73.673,260.545,80.338,285.005z
		 M195.303,387.096c8.434-2.294,22.235,6.422,29.263,11.643c-7.176,10.393-6.487,23.753-0.011,33.144
		c-7.299,5.451-23.033,15.346-31.017,10.935c-9.887-5.485-9.135-35.27-5.887-46.034
		C188.351,394.578,191.046,388.253,195.303,387.096z M248.697,401.06c15.092,0.026,15.306-0.122,17.308,0.264
		c15.488,2.989,14.578,26.733-1.355,28.19c-0.978,0.092-15.973,0.124-17.299,0C229.658,427.855,231.485,401.567,248.697,401.06z
		 M321.397,390.494c1.39,1.885,2.246,4.065,2.952,6.289c3.289,10.891,3.926,40.211-5.676,45.922
		c-7.912,4.736-23.864-5.336-31.223-10.828c6.795-9.862,6.821-23.215-0.001-33.114c6.941-5.179,20.969-14.097,29.335-11.644
		C317.941,387.453,320.154,388.815,321.397,390.494z M175.265,443.419c4.993,10.965,14.197,16.472,25.919,15.357V497h-52.656
		C150.655,470.581,163.808,453.479,175.265,443.419z M216.184,454.424c7.067-3.232,14.036-7.855,20.063-12.611
		c3.949,1.865,8.344,2.77,12.45,2.77c14.098,0,19.601,0.751,27.056-2.77c6.011,4.744,12.984,9.373,20.063,12.612V497h-79.632
		V454.424z M336.734,443.419c11.458,10.06,24.61,27.162,26.738,53.581h-52.656v-38.224
		C322.448,459.883,331.707,454.459,336.734,443.419z M335.184,384.206c-12.809-21.903-39.336-11.421-59.458,4.611
		c-2.727-1.284-6.011-2.249-9.355-2.596c-2.739-0.287-18.6-0.153-19.23-0.12c-3.913,0.205-7.694,1.22-10.868,2.715
		c-19.962-15.904-46.594-26.608-59.458-4.611c-67.533-36.408-102.454-114.812-81.979-189.464
		c8.344-30.419,23.688-61.683,53.211-73.197c46.313-18.054,103.01,21.996,103.572,22.4c2.617,1.882,6.143,1.881,8.759,0
		c0.327-0.235,19.358-13.726,44.328-21.578c22.21-6.988,46.201-8.597,66.778,2.697c37.345,20.47,54.139,80.405,51.142,123.67
		c-1.62,23.714-8.339,41.831-8.071,41.023C401.239,329.901,372.871,363.889,335.184,384.206z M431.662,285.003
		c6.516-23.914,8.068-49.633,4.502-74.001c7.548-7.73,17.172-14.451,27.437-17.529c1.408,5.782,3.292,14.848,4.259,25.138
		C470.92,251.19,463.945,280.331,431.662,285.003z"/>
</g>
<g>
</g>
<g>
</g>
<g>
</g>
<g>
</g>
<g>
</g>
<g>
</g>
<g>
</g>
<g>
</g>
<g>
</g>
<g>
</g>
<g>
</g>
<g>
</g>
<g>
</g>
<g>
</g>
<g>
</g>
</svg>
