<?xml version="1.0" encoding="iso-8859-1"?>
<!-- Generator: Adobe Illustrator 23.0.3, SVG Export Plug-In . SVG Version: 6.00 Build 0)  -->
<svg version="1.1" id="Capa_1" xmlns="http://www.w3.org/2000/svg" xmlns:xlink="http://www.w3.org/1999/xlink" x="0px" y="0px"
	 viewBox="0 0 512 512" style="enable-background:new 0 0 512 512;" xml:space="preserve">
<g>
	<path d="M145.041,261.01c-4.142,0-7.5,3.358-7.5,7.5v21.322c0,4.142,3.358,7.5,7.5,7.5s7.5-3.358,7.5-7.5V268.51
		C152.541,264.368,149.183,261.01,145.041,261.01z"/>
	<path d="M366.959,261.01c-4.142,0-7.5,3.358-7.5,7.5v21.322c0,4.142,3.358,7.5,7.5,7.5s7.5-3.358,7.5-7.5V268.51
		C374.459,264.368,371.101,261.01,366.959,261.01z"/>
	<path d="M290.181,283.543c-3.123-2.721-7.861-2.396-10.582,0.727c-12.472,14.313-34.691,14.354-47.199,0
		c-2.722-3.123-7.459-3.447-10.582-0.727c-3.123,2.722-3.448,7.459-0.727,10.582c8.806,10.104,21.529,15.899,34.908,15.899
		s26.102-5.795,34.908-15.899C293.629,291.002,293.304,286.264,290.181,283.543z"/>
	<path d="M486.448,179.805c-14.746-27.708-43.377-44.92-74.722-44.92h-22.318c-11.671-11.903-27.794-18.864-45.027-18.864h-33.569
		c-6.779-7.679-15.306-13.736-24.869-17.598c1.87-8.13,5.299-17.656,11.608-25.117c7.709-9.116,8.731-22.085,2.543-32.271
		c-9.842-16.197-32.651-17.965-44.917-3.382c-16.052,19.084-22.631,42.001-25.265,59.36c-11.125,3.703-21.049,10.312-28.725,19.008
		h-33.569c-17.233,0-33.355,6.96-45.027,18.864h-22.318c-31.344,0-59.976,17.212-74.722,44.92C13.896,201.709,0,238.428,0,288.97
		s13.896,87.262,25.552,109.165c14.746,27.708,43.377,44.92,74.722,44.92h22.318c11.671,11.903,27.794,18.864,45.027,18.864h33.569
		c12.173,13.789,29.986,22.358,49.298,22.358h11.028c19.313,0,37.125-8.569,49.298-22.358h33.569
		c17.233,0,33.356-6.96,45.027-18.864h22.318c31.344,0,59.976-17.212,74.722-44.92C498.104,376.232,512,339.513,512,288.97
		S498.104,201.709,486.448,179.805z M245.677,93.841c2.805-14.467,8.708-31.941,20.98-46.532c2.692-3.2,6.622-4.85,10.772-4.534
		c10.26,0.789,15.383,12.904,8.668,20.845c-7.979,9.437-12.294,20.992-14.626,30.804C265.497,93.508,250.992,93.447,245.677,93.841z
		 M191.204,446.92h-23.585c-18.155,0-34.208-10.063-42.365-25.325c-30.606-57.248-38.04-127.617-26.298-189.474
		c0.773-4.069-1.9-7.995-5.969-8.767c-4.071-0.772-7.995,1.9-8.767,5.969c-12.363,65.113-4.34,138.805,27.48,198.732h-11.426
		c-25.788,0-49.345-14.165-61.48-36.967C27.939,370.693,15,336.419,15,288.97s12.939-81.722,23.793-102.118
		c12.135-22.802,35.693-36.967,61.48-36.967H111.7c-8.058,15.173-14.406,30.876-19.436,47.13c-0.822,2.658-1.671,4.435-0.826,7.127
		c2.206,7.027,12.234,6.983,14.345-0.094c7.473-25.037,18.071-46.316,22.342-52.393c9.089-13.096,23.843-20.634,39.494-20.634
		h23.585c-14.392,30.231-29.386,186.415-4.87,301.503C187.398,437.517,189.3,442.922,191.204,446.92z M261.514,469.278h-11.028
		c-21.355,0-40.326-13.564-47.514-33.098c-7.61-20.853-14.808-93.245-14.808-147.209c0-65.918,8.865-127.108,13.722-143.892
		c6.194-21.517,26.336-36.416,48.6-36.416c9.643,0.014,14.836-0.373,21.884,1.186c17.967,3.593,34.294,18.662,38.625,38.693
		c6.625,31.099,11.148,73.829,12.452,115.906c1.801,58.026-5.54,147.375-14.407,171.701
		C301.86,455.699,282.88,469.278,261.514,469.278z M473.207,391.089c-12.135,22.802-35.693,36.967-61.48,36.967H400.3
		c8.737-16.452,16.439-35.631,21.995-55.786c1.101-3.993-1.245-8.123-5.238-9.223c-3.993-1.099-8.123,1.245-9.223,5.238
		c-4.732,17.171-15.393,45.646-23.939,57.974c-9.554,13.596-24.329,20.661-39.514,20.661h-23.584
		c0.932-1.958,1.876-4.312,2.59-6.331c8.253-23.512,20.506-119.437,12.827-217.191c-1.442-18.368-6.737-69.47-13.095-86.767
		c-0.695-1.905-1.453-3.783-2.322-5.61h23.584c16.388,0,32.162,8.332,41.107,23.126c0.438,0.723,0.861,1.454,1.259,2.198
		c29.414,55.02,37.624,122.548,27.36,183.506c-0.69,4.101,2.082,7.956,6.151,8.641c4.084,0.688,7.953-2.066,8.641-6.151
		c10.583-62.863,2.545-133.805-28.598-192.457h11.426c25.788,0,49.345,14.165,61.48,36.967C484.061,207.248,497,241.522,497,288.97
		S484.061,370.693,473.207,391.089z"/>
</g>
<g>
</g>
<g>
</g>
<g>
</g>
<g>
</g>
<g>
</g>
<g>
</g>
<g>
</g>
<g>
</g>
<g>
</g>
<g>
</g>
<g>
</g>
<g>
</g>
<g>
</g>
<g>
</g>
<g>
</g>
</svg>
