<?xml version="1.0" encoding="iso-8859-1"?>
<!-- Generator: Adobe Illustrator 23.0.3, SVG Export Plug-In . SVG Version: 6.00 Build 0)  -->
<svg version="1.1" id="Capa_1" xmlns="http://www.w3.org/2000/svg" xmlns:xlink="http://www.w3.org/1999/xlink" x="0px" y="0px"
	 viewBox="0 0 512 512" style="enable-background:new 0 0 512 512;" xml:space="preserve">
<g>
	<path d="M173.455,229.138c-4.142,0-7.5,3.358-7.5,7.5v15.869c0,4.142,3.358,7.5,7.5,7.5c4.143,0,7.5-3.358,7.5-7.5v-15.869
		C180.955,232.496,177.598,229.138,173.455,229.138z"/>
	<path d="M338.618,229.138c-4.142,0-7.5,3.358-7.5,7.5v15.869c0,4.142,3.358,7.5,7.5,7.5s7.5-3.358,7.5-7.5v-15.869
		C346.118,232.496,342.76,229.138,338.618,229.138z"/>
	<path d="M282.737,246.379c-3.123-2.721-7.86-2.396-10.582,0.727c-4.068,4.668-9.943,7.346-16.118,7.346
		c-6.174,0-12.049-2.678-16.117-7.346c-2.722-3.123-7.459-3.448-10.582-0.727c-3.123,2.722-3.448,7.459-0.727,10.582
		c6.918,7.939,16.915,12.492,27.426,12.492c10.512,0,20.509-4.553,27.427-12.492C286.184,253.838,285.859,249.101,282.737,246.379z"
		/>
	<path d="M377.629,86.288C359.583,34.676,310.719,0,256.036,0c-25.256,0-49.759,7.348-70.857,21.249
		c-3.458,2.279-4.415,6.93-2.136,10.389s6.93,4.416,10.389,2.136C212.073,21.492,233.722,15,256.036,15
		c48.315,0,91.489,30.638,107.433,76.239l26.022,74.421h-266.91l26.022-74.421c5.089-14.554,12.949-27.717,23.362-39.123
		c2.793-3.059,2.577-7.803-0.482-10.596c-3.059-2.792-7.803-2.577-10.596,0.482c-11.786,12.909-20.683,27.809-26.444,44.285
		L45.338,341.094C16.174,424.469,78.325,512,166.622,512h178.829c34.234,0,66.451-13.322,90.716-37.512
		c2.933-2.924,2.941-7.673,0.016-10.606c-2.925-2.934-7.673-2.941-10.606-0.017C404.144,485.232,375.688,497,345.451,497H166.622
		c-77.804,0-132.823-76.844-107.225-150.67h393.277c10.98,31.622,7.382,66.436-9.651,95.121c-2.115,3.562-0.942,8.163,2.619,10.278
		c3.562,2.114,8.163,0.942,10.278-2.619c11.787-19.849,18.018-42.532,18.018-65.598c0-14.496-2.424-28.768-7.203-42.417
		L377.629,86.288z M64.642,331.33l52.694-150.67h277.401l52.695,150.67H64.642z"/>
</g>
<g>
</g>
<g>
</g>
<g>
</g>
<g>
</g>
<g>
</g>
<g>
</g>
<g>
</g>
<g>
</g>
<g>
</g>
<g>
</g>
<g>
</g>
<g>
</g>
<g>
</g>
<g>
</g>
<g>
</g>
</svg>
