<?xml version="1.0" encoding="iso-8859-1"?>
<!-- Generator: Adobe Illustrator 23.0.3, SVG Export Plug-In . SVG Version: 6.00 Build 0)  -->
<svg version="1.1" id="Capa_1" xmlns="http://www.w3.org/2000/svg" xmlns:xlink="http://www.w3.org/1999/xlink" x="0px" y="0px"
	 viewBox="0 0 512 512" style="enable-background:new 0 0 512 512;" xml:space="preserve">
<g>
	<path d="M281.501,346.292c-3.123-2.721-7.86-2.396-10.582,0.727c-7.901,9.066-21.946,9.057-29.838,0
		c-2.722-3.123-7.459-3.448-10.582-0.727c-3.123,2.722-3.448,7.459-0.727,10.582c13.881,15.928,38.59,15.91,52.456,0
		C284.949,353.751,284.624,349.013,281.501,346.292z"/>
	<path d="M194.679,324.826l-30.071-8.058c-4.002-1.071-8.114,1.302-9.186,5.304c-1.072,4.001,1.302,8.113,5.303,9.186l11.029,2.955
		c-0.814,1.199-1.29,2.647-1.29,4.205v12.953c0,4.142,3.358,7.5,7.5,7.5s7.5-3.358,7.5-7.5c-0.015-14.022,0.027-12.737-0.027-13.492
		l5.359,1.436c4.007,1.071,8.115-1.306,9.186-5.304C201.054,330.01,198.68,325.898,194.679,324.826z"/>
	<path d="M347.392,316.768l-30.071,8.058c-4.001,1.072-6.375,5.185-5.303,9.186c1.071,3.999,5.179,6.375,9.186,5.304l5.359-1.436
		c-0.054,0.765-0.012-0.582-0.027,13.492c0,4.142,3.358,7.5,7.5,7.5s7.5-3.358,7.5-7.5v-12.953c0-1.559-0.476-3.006-1.29-4.205
		l11.029-2.955c4.001-1.072,6.375-5.185,5.303-9.186S351.395,315.697,347.392,316.768z"/>
	<path d="M484.034,212.527h-41.79c-6.429-9.885-103.928-159.8-110.155-169.374c-35.292-54.323-116.047-55.56-152.177-0.003
		l-6.343,9.753c-2.258,3.472-1.274,8.118,2.198,10.376c3.473,2.259,8.118,1.274,10.376-2.198l6.343-9.753
		c30.063-46.228,97.457-45.514,127.026,0l66.393,102.086H318.6c-2.488-13.438-14.285-23.57-28.327-23.57
		c-73.252,0.014-69.126-0.076-71.337,0.137c-12.733,1.237-23.203,10.833-25.537,23.433h-67.305l43.331-66.626
		c2.258-3.472,1.274-8.118-2.198-10.376c-3.472-2.259-8.118-1.275-10.376,2.198c-3.357,5.162-82.65,127.083-87.094,133.917h-41.79
		C12.545,212.527,0,225.072,0,240.493v13.986c0,15.421,12.545,27.966,27.966,27.966h9.966l-21.208,49.97
		c-11.166,26.31-11.651,55.485-1.368,82.151c7.99,20.718,21.892,38.31,40.201,50.873s39.725,19.204,61.93,19.204h45.049
		c57.419,33.749,129.055,34.015,186.926,0h45.049c29.469,0,58.141-12.16,78.662-33.362c2.881-2.977,2.803-7.725-0.173-10.605
		c-2.977-2.881-7.725-2.802-10.605,0.173c-17.712,18.299-42.455,28.794-67.884,28.794h-23.116
		c58.038-46.389,81.063-121.719,64.693-187.198h21.683l23.695,55.831c11.006,25.933,9.861,54.793-2.722,79.625
		c-1.872,3.695-0.394,8.208,3.301,10.08c3.694,1.871,8.208,0.395,10.08-3.301c14.604-28.825,15.877-62.273,3.148-92.264
		l-21.208-49.97h9.966c15.42,0,27.966-12.545,27.966-27.966v-13.986C512,225.072,499.454,212.527,484.034,212.527z M395.661,168.414
		l28.69,44.113H319.076v-44.113H395.661z M290.273,144.844c7.611,0,13.804,6.192,13.804,13.804c0,16.008,0,37.482,0,53.879H288.86
		v-44.966c0-4.142-3.358-7.5-7.5-7.5h-50.721c-4.142,0-7.5,3.358-7.5,7.5v44.966h-15.216c0-16.606,0-37.945,0-53.879
		c0-7.611,6.192-13.804,13.804-13.804H290.273z M273.86,212.527h-35.721v-37.466h35.721V212.527z M116.338,168.414h76.584v44.113
		H87.649L116.338,168.414z M117.488,469.643c-19.163,0-37.643-5.73-53.444-16.572c-15.801-10.842-27.797-26.022-34.692-43.902
		c-8.875-23.012-8.456-48.189,1.18-70.894l23.695-55.831H75.91c-16.373,65.493,6.535,140.713,64.693,187.198H117.488z
		 M91.367,282.445h329.265C448.222,389.915,367.214,495.043,256,495.043C144.156,495.043,64.016,389.984,91.367,282.445z
		 M497,254.479c0,7.149-5.816,12.966-12.966,12.966c-27.403,0-430.513,0-456.068,0c-7.149,0-12.966-5.817-12.966-12.966v-13.986
		c0-7.149,5.816-12.966,12.966-12.966c19.154,0,417.709,0,456.068,0c7.149,0,12.966,5.816,12.966,12.966V254.479z"/>
</g>
<g>
</g>
<g>
</g>
<g>
</g>
<g>
</g>
<g>
</g>
<g>
</g>
<g>
</g>
<g>
</g>
<g>
</g>
<g>
</g>
<g>
</g>
<g>
</g>
<g>
</g>
<g>
</g>
<g>
</g>
</svg>
