<?xml version="1.0" encoding="iso-8859-1"?>
<!-- Generator: Adobe Illustrator 23.0.3, SVG Export Plug-In . SVG Version: 6.00 Build 0)  -->
<svg version="1.1" id="Capa_1" xmlns="http://www.w3.org/2000/svg" xmlns:xlink="http://www.w3.org/1999/xlink" x="0px" y="0px"
	 viewBox="0 0 512 512" style="enable-background:new 0 0 512 512;" xml:space="preserve">
<g>
	<path d="M170.787,283.676c-4.142,0-7.5,3.358-7.5,7.5v16.374c0,4.142,3.358,7.5,7.5,7.5s7.5-3.358,7.5-7.5v-16.374
		C178.287,287.034,174.929,283.676,170.787,283.676z"/>
	<path d="M341.212,283.676c-4.142,0-7.5,3.358-7.5,7.5v16.374c0,4.142,3.358,7.5,7.5,7.5s7.5-3.358,7.5-7.5v-16.374
		C348.712,287.034,345.354,283.676,341.212,283.676z"/>
	<path d="M283.393,301.409c-3.122-2.721-7.86-2.396-10.582,0.727c-8.904,10.217-24.729,10.205-33.623,0
		c-2.722-3.124-7.459-3.448-10.582-0.727c-3.123,2.721-3.448,7.459-0.727,10.582c14.881,17.077,41.374,17.059,56.24,0
		C286.841,308.867,286.516,304.13,283.393,301.409z"/>
	<path d="M482.108,255.817h-15.597c-0.577-8.135-1.617-16.227-3.121-24.219c12.161-4.333,20.893-15.957,20.893-29.587v-11.374
		c0-17.315-14.087-31.402-31.402-31.402h-7.42c0.112-21.613-11.973-40.841-30.35-50.568l39.281-60.177
		c7.04-10.786,4.413-25.194-5.98-32.802l-5.809-4.253c-10.394-7.608-24.922-5.755-33.075,4.215l-46.607,57
		c-19.618-19.887-48.949-25.597-74.019-15.678c-28.704-33.812-80.051-37.335-112.943-6.829
		c-12.095,11.218-20.245,25.78-23.492,41.716c-43.869-11.401-86.542,22.288-85.916,67.375H59.12
		c-17.315,0-31.402,14.087-31.402,31.402v11.374c0,13.63,8.731,25.255,20.893,29.587c-1.504,7.991-2.544,16.083-3.121,24.219H29.892
		C13.41,255.817,0,269.226,0,285.709c0,16.483,13.41,29.893,29.892,29.893h19.83c6.915,31.914,21.059,61.164,40.642,85.934
		l-24.792,71.468c-5.466,15.756,6.26,32.241,22.94,32.241h11.435c8.588,0,16.619-4.604,20.958-12.018l24.844-42.452
		c67.577,41.565,152.934,41.56,220.503,0l24.844,42.452c4.338,7.413,12.369,12.017,20.957,12.017h11.435
		c16.677,0,28.408-16.481,22.941-32.24l-24.792-71.469c19.583-24.77,33.727-54.02,40.642-85.934h19.831
		c16.482,0,29.892-13.41,29.892-29.893C512,269.226,498.59,255.817,482.108,255.817z M372.426,84.721l48.713-59.575
		c3.106-3.799,8.642-4.505,12.603-1.606l5.809,4.252c0,0,0,0,0,0c3.96,2.898,4.961,8.389,2.279,12.499l-41.181,63.086
		c-6.695-1.443-13.586-1.681-20.373-0.678C378.524,96.314,375.804,90.173,372.426,84.721z M47.026,300.601H29.892
		c-8.211,0-14.892-6.681-14.892-14.893c0-8.211,6.681-14.892,14.892-14.892h15.043C44.935,280.884,45.68,291.059,47.026,300.601z
		 M107.959,485.65c-1.659,2.834-4.729,4.594-8.012,4.594H88.513c-6.392,0-10.864-6.287-8.769-12.324l21.893-63.111
		c9.571,10.259,20.134,19.541,31.557,27.723L107.959,485.65z M63.518,233.413h300.351c4.142,0,7.5-3.358,7.5-7.5s-3.358-7.5-7.5-7.5
		H59.12c-9.044,0-16.402-7.358-16.402-16.402v-11.374c0-9.044,7.358-16.402,16.402-16.402c24.47,0,55.936,0,65.681,0
		c4.142,0,7.5-3.358,7.5-7.5s-3.358-7.5-7.5-7.5H81.542c-0.687-38.495,38.573-65.269,74.202-50.49
		c4.703,1.949,9.942-1.259,10.349-6.325c1.273-15.799,8.399-30.459,20.065-41.279c27.936-25.909,72.162-21.335,94.375,9.456
		c2.155,2.987,6.16,3.966,9.451,2.313c27.307-13.728,60.23-1.681,72.858,25.673c5.692,12.432,2.602,16.176,7.658,19.386
		c3.77,2.394,6.138,0.484,11.703-0.378c25.52-3.888,48.395,15.858,48.261,41.644H154.8c-4.142,0-7.5,3.358-7.5,7.5
		s3.358,7.5,7.5,7.5c12.317,0,278.278,0,298.08,0c9.044,0,16.402,7.358,16.402,16.402v11.374c0,9.044-7.358,16.402-16.402,16.402
		h-59.012c-4.142,0-7.5,3.358-7.5,7.5s3.358,7.5,7.5,7.5h54.614C471.712,353.521,379.83,466.93,256,466.93
		C132.67,466.93,40.193,354.006,63.518,233.413z M423.487,490.244h-11.435c-3.283,0-6.353-1.76-8.011-4.594l-25.234-43.119
		c11.422-8.182,21.986-17.463,31.557-27.723l21.893,63.111C434.346,483.946,429.889,490.244,423.487,490.244z M482.108,300.601
		h-17.134c1.446-10.253,2.091-20.474,2.091-29.784h15.043c8.211,0,14.892,6.68,14.892,14.892
		C497,293.921,490.319,300.601,482.108,300.601z"/>
</g>
<g>
</g>
<g>
</g>
<g>
</g>
<g>
</g>
<g>
</g>
<g>
</g>
<g>
</g>
<g>
</g>
<g>
</g>
<g>
</g>
<g>
</g>
<g>
</g>
<g>
</g>
<g>
</g>
<g>
</g>
</svg>
