<?xml version="1.0" encoding="iso-8859-1"?>
<!-- Generator: Adobe Illustrator 23.0.3, SVG Export Plug-In . SVG Version: 6.00 Build 0)  -->
<svg version="1.1" id="Capa_1" xmlns="http://www.w3.org/2000/svg" xmlns:xlink="http://www.w3.org/1999/xlink" x="0px" y="0px"
	 viewBox="0 0 512 512" style="enable-background:new 0 0 512 512;" xml:space="preserve">
<g>
	<path d="M76.211,132.543c10.512-23.995,25.508-45.36,44.573-63.502c3.001-2.855,3.119-7.602,0.263-10.603
		c-2.855-3-7.602-3.119-10.603-0.263c-20.516,19.523-36.656,42.518-47.973,68.349c-11.717,26.745-17.658,55.23-17.658,84.663
		v244.575c0,20.566,11.281,39.342,29.439,48.999c18.147,9.652,39.816,9.652,57.965,0c13.737-7.305,30.14-7.305,43.879,0
		c18.147,9.652,39.816,9.652,57.965,0c13.738-7.305,30.141-7.305,43.879,0c18.149,9.653,39.818,9.652,57.965,0
		c13.738-7.305,30.141-7.305,43.879,0c9.074,4.826,19.028,7.239,28.982,7.239c9.954,0,19.909-2.413,28.982-7.239
		c18.159-9.657,29.439-28.432,29.439-48.999v-74.123c0-4.142-3.358-7.5-7.5-7.5s-7.5,3.358-7.5,7.5v74.123
		c0,15.008-8.232,28.709-21.482,35.756c-13.737,7.306-30.14,7.306-43.879,0c-18.147-9.652-39.816-9.652-57.965,0
		c-13.738,7.306-30.141,7.306-43.879,0c-18.148-9.651-39.816-9.651-57.965,0c-13.738,7.306-30.141,7.306-43.879,0
		c-18.148-9.652-39.817-9.652-57.965,0c-13.738,7.306-30.141,7.306-43.879,0c-13.251-7.047-21.482-20.748-21.482-35.756V211.187
		C59.813,183.839,65.33,157.379,76.211,132.543z"/>
	<path d="M459.687,359.139c4.142,0,7.5-3.358,7.5-7.5V211.187C467.187,94.738,372.449,0,256,0
		c-43.741,0-85.714,13.264-121.381,38.359c-3.388,2.383-4.202,7.061-1.818,10.449c2.383,3.388,7.062,4.202,10.449,1.818
		C176.377,27.319,215.365,15,256,15c108.178,0,196.187,88.009,196.187,196.187V351.64
		C452.187,355.782,455.545,359.139,459.687,359.139z"/>
	<path d="M142.475,216.007v16.172c0,4.142,3.358,7.5,7.5,7.5s7.5-3.358,7.5-7.5v-16.172c0-4.142-3.358-7.5-7.5-7.5
		S142.475,211.865,142.475,216.007z"/>
	<path d="M226.368,246.734C226.368,264.525,239.661,279,256,279c16.339,0,29.631-14.474,29.631-32.265S272.339,214.469,256,214.469
		C239.661,214.469,226.368,228.943,226.368,246.734z M270.632,246.734c0,9.52-6.564,17.266-14.632,17.266
		c-8.068,0-14.632-7.745-14.632-17.266c0-9.52,6.564-17.265,14.632-17.265C264.068,229.469,270.632,237.214,270.632,246.734z"/>
	<path d="M354.525,216.007v16.172c0,4.142,3.358,7.5,7.5,7.5s7.5-3.358,7.5-7.5v-16.172c0-4.142-3.358-7.5-7.5-7.5
		S354.525,211.865,354.525,216.007z"/>
</g>
<g>
</g>
<g>
</g>
<g>
</g>
<g>
</g>
<g>
</g>
<g>
</g>
<g>
</g>
<g>
</g>
<g>
</g>
<g>
</g>
<g>
</g>
<g>
</g>
<g>
</g>
<g>
</g>
<g>
</g>
</svg>
