<?xml version="1.0" encoding="iso-8859-1"?>
<!-- Generator: Adobe Illustrator 23.0.3, SVG Export Plug-In . SVG Version: 6.00 Build 0)  -->
<svg version="1.1" id="Capa_1" xmlns="http://www.w3.org/2000/svg" xmlns:xlink="http://www.w3.org/1999/xlink" x="0px" y="0px"
	 viewBox="0 0 512 512" style="enable-background:new 0 0 512 512;" xml:space="preserve">
<g>
	<path d="M172.118,170.382c-4.142,0-7.5,3.358-7.5,7.5v16.116c0,4.142,3.358,7.5,7.5,7.5s7.5-3.358,7.5-7.5v-16.116
		C179.618,173.74,176.26,170.382,172.118,170.382z"/>
	<path d="M339.862,170.382c-4.142,0-7.5,3.358-7.5,7.5v16.116c0,4.142,3.358,7.5,7.5,7.5s7.5-3.358,7.5-7.5v-16.116
		C347.362,173.74,344.004,170.382,339.862,170.382z"/>
	<path d="M283.03,187.865c-3.123-2.722-7.861-2.397-10.582,0.726c-8.701,9.982-24.191,10.013-32.917,0
		c-2.722-3.123-7.459-3.448-10.582-0.727c-3.123,2.722-3.448,7.459-0.727,10.582c14.694,16.862,40.852,16.845,55.533,0
		C286.478,195.324,286.153,190.586,283.03,187.865z"/>
	<path d="M459.363,266.211C495.83,132.121,394.798,0,255.99,0C116.379,0,16.396,132.793,52.592,266.116
		c0.009,0.038,0.025,0.073,0.034,0.11c0.009,0.035,0.012,0.071,0.021,0.105c14.482,53.103,49.718,99.313,98.62,127.329
		c-31.86,26.779-53.129,66.098-53.129,110.839c0,4.142,3.358,7.5,7.5,7.5h300.706c4.142,0,7.5-3.358,7.5-7.5
		c0-44.45-21.059-83.884-53.13-110.839C410.808,364.962,445.687,317.496,459.363,266.211z M66.047,258.266
		c-7.741-31.072-7.745-63.927,0.001-95.032c102.101-27.41,270.884-29.151,379.884,0c7.738,31.073,7.75,63.928,0.001,95.032
		C342.739,285.904,173.641,287.164,66.047,258.266z M104.761,86.449c23.602-4.339,47.613-7.322,71.053-9.306
		c4.148-0.351,7.188-3.998,6.84-8.105c-0.349-4.127-3.975-7.202-8.106-6.841c-17.489,1.48-35.736,3.575-52.929,6.2
		C157.791,34.234,205.671,15,255.99,15s98.195,19.23,134.367,53.394c-59.446-9.086-126.372-11.41-187.214-8.169
		c-4.136,0.22-7.311,3.752-7.09,7.888c0.22,4.136,3.753,7.309,7.888,7.09c65.709-3.5,139.58-0.474,203.279,11.247
		c14.858,18.04,26.169,38.173,33.733,60.016c-107.583-26.52-267.146-25.316-369.925,0C78.592,124.622,89.903,104.489,104.761,86.449
		z M440.952,275.038c-7.566,21.848-18.88,41.982-33.743,60.025c-91.811,16.866-211.353,16.762-302.438,0
		c-14.863-18.042-26.177-38.177-33.743-60.025C177.561,301.265,336.931,300.668,440.952,275.038z M346.189,401.264
		c5.748,4.321,18.011,14.542,29.267,30.495c-17.734,11.146-37.682,15.413-39.915,16.555c-3.131,1.602-4.765,5.217-3.802,8.683
		c1.109,3.99,5.242,6.326,9.235,5.217c14.364-3.992,29.814-9.818,42.441-17.74c9.031,16.408,14.13,34.018,15.21,52.525h-285.27
		c1.08-18.506,6.179-36.115,15.209-52.522c40.989,25.727,118.215,34.478,182.565,24.176c4.09-0.655,6.875-4.501,6.22-8.591
		c-0.655-4.09-4.504-6.875-8.591-6.22c-18.752,3.002-38.182,4.273-57.55,4.02c-35.969-0.474-84.61-7.03-114.687-26.094
		c11.214-15.878,23.524-26.155,29.281-30.499c55.67,26.457,121.763,27.33,179.34,0.475
		C345.49,401.581,345.842,401.429,346.189,401.264z M269.388,406.037c-52.933,3.611-106.848-14.292-147.76-52.92
		c83.241,12.718,185.137,12.764,268.726,0C374.633,367.96,314.98,403.021,269.388,406.037z"/>
</g>
<g>
</g>
<g>
</g>
<g>
</g>
<g>
</g>
<g>
</g>
<g>
</g>
<g>
</g>
<g>
</g>
<g>
</g>
<g>
</g>
<g>
</g>
<g>
</g>
<g>
</g>
<g>
</g>
<g>
</g>
</svg>
