<?xml version="1.0" encoding="iso-8859-1"?>
<!-- Generator: Adobe Illustrator 23.0.3, SVG Export Plug-In . SVG Version: 6.00 Build 0)  -->
<svg version="1.1" id="Capa_1" xmlns="http://www.w3.org/2000/svg" xmlns:xlink="http://www.w3.org/1999/xlink" x="0px" y="0px"
	 viewBox="0 0 512 512" style="enable-background:new 0 0 512 512;" xml:space="preserve">
<g>
	<path d="M173.106,32.08c-4.142,0-7.5,3.358-7.5,7.5v15.929c0,4.142,3.358,7.5,7.5,7.5s7.5-3.358,7.5-7.5V39.58
		C180.606,35.438,177.248,32.08,173.106,32.08z"/>
	<path d="M338.894,32.08c-4.142,0-7.5,3.358-7.5,7.5v15.929c0,4.142,3.358,7.5,7.5,7.5c4.143,0,7.5-3.358,7.5-7.5V39.58
		C346.394,35.438,343.036,32.08,338.894,32.08z"/>
	<path d="M282.782,49.38c-3.123-2.721-7.86-2.396-10.582,0.727c-8.58,9.845-23.83,9.835-32.4,0
		c-2.721-3.123-7.458-3.448-10.582-0.727c-3.123,2.721-3.448,7.459-0.727,10.582c14.559,16.707,40.474,16.687,55.018,0
		C286.23,56.839,285.905,52.102,282.782,49.38z"/>
	<path d="M403.541,353.492c4.142,0,7.5-3.358,7.5-7.5V196.015c0-15.945-7.949-30.704-21.268-39.481l-0.548-0.361
		c-13.71-9.036-31.429-9.036-45.139,0c-8.696,5.73-19.935,5.73-28.632,0c-13.71-9.036-31.428-9.036-45.139,0
		c-8.696,5.73-19.935,5.73-28.631,0c-13.711-9.036-31.429-9.036-45.14,0c-8.696,5.73-19.935,5.73-28.631,0
		c-13.711-9.036-31.429-9.036-45.14,0l-0.553,0.364c-13.313,8.774-21.263,23.529-21.263,39.47v242.21
		c0,18.543,15.033,33.685,33.685,33.685h242.712c18.281,0,33.686-14.594,33.686-34.195v-62.275c0-4.142-3.358-7.5-7.5-7.5
		c-4.143,0-7.5,3.358-7.5,7.5v62.275c0,11.328-8.707,19.195-18.686,19.195H134.644c-10.296,0-18.685-8.35-18.685-18.685V196.008
		c0-10.882,5.427-20.956,14.517-26.946l0.553-0.364c8.697-5.73,19.935-5.73,28.632,0c13.71,9.036,31.429,9.036,45.139,0
		c8.697-5.73,19.936-5.73,28.632,0c13.71,9.036,31.429,9.036,45.139,0c8.696-5.73,19.935-5.73,28.631,0
		c13.711,9.037,31.429,9.037,45.14,0c8.696-5.73,19.934-5.731,28.643,0.009l0.541,0.355c9.09,5.991,14.517,16.066,14.517,26.953
		v149.977C396.041,350.134,399.399,353.492,403.541,353.492z"/>
	<path d="M256,212.626c-55.51,0-100.671,45.161-100.671,100.671S200.49,413.969,256,413.969s100.671-45.161,100.671-100.671
		S311.51,212.626,256,212.626z M256,398.969c-47.239,0-85.671-38.432-85.671-85.671s38.432-85.671,85.671-85.671
		s85.671,38.432,85.671,85.671S303.24,398.969,256,398.969z"/>
	<path d="M256,248.384c-31.372,0-56.894,25.522-56.894,56.894s25.522,56.894,56.894,56.894c31.371,0,56.894-25.522,56.894-56.894
		S287.371,248.384,256,248.384z M256,347.172c-23.101,0-41.894-18.793-41.894-41.894S232.9,263.384,256,263.384
		s41.894,18.793,41.894,41.894S279.101,347.172,256,347.172z"/>
	<path d="M256,279.423c-8.743,0-15.831,7.088-15.831,15.831s7.087,15.83,15.831,15.83c8.743,0,15.83-7.087,15.83-15.83
		S264.743,279.423,256,279.423z"/>
	<path d="M403.112,0H108.888C82.406,0,60.862,21.544,60.862,48.026v4.789c0,20.793,13.285,38.536,31.811,45.202l-7.846,7.182
		c-15.23,13.94-23.965,33.777-23.965,54.424v85.491c0,4.142,3.358,7.5,7.5,7.5c4.143,0,7.5-3.358,7.5-7.5v-85.491
		c0-16.449,6.959-32.253,19.093-43.359l16.848-15.423h288.395l16.849,15.423c12.133,11.106,19.092,26.91,19.092,43.359v278.594
		c0,32.36-26.232,58.782-58.781,58.782H134.644c-32.455,0-58.782-26.328-58.782-58.782V275.007c0-4.142-3.357-7.5-7.5-7.5
		c-4.142,0-7.5,3.358-7.5,7.5v163.211c0,40.725,33.033,73.782,73.782,73.782h242.713c40.73,0,73.781-33.041,73.781-73.782V159.624
		c0-20.646-8.734-40.483-23.964-54.424l-7.846-7.182c18.526-6.666,31.811-24.41,31.811-45.203v-4.789
		C451.138,21.544,429.594,0,403.112,0z M436.138,52.815c0,18.211-14.816,33.026-33.026,33.026c-11.021,0-280.863,0-294.224,0
		c-18.21,0-33.026-14.815-33.026-33.026v-4.789C75.862,29.815,90.677,15,108.888,15h294.224c18.21,0,33.026,14.815,33.026,33.026
		V52.815z"/>
</g>
<g>
</g>
<g>
</g>
<g>
</g>
<g>
</g>
<g>
</g>
<g>
</g>
<g>
</g>
<g>
</g>
<g>
</g>
<g>
</g>
<g>
</g>
<g>
</g>
<g>
</g>
<g>
</g>
<g>
</g>
</svg>
