<?xml version="1.0" encoding="iso-8859-1"?>
<!-- Generator: Adobe Illustrator 23.0.3, SVG Export Plug-In . SVG Version: 6.00 Build 0)  -->
<svg version="1.1" id="Capa_1" xmlns="http://www.w3.org/2000/svg" xmlns:xlink="http://www.w3.org/1999/xlink" x="0px" y="0px"
	 viewBox="0 0 512 512" style="enable-background:new 0 0 512 512;" xml:space="preserve">
<g>
	<path d="M135.555,229.372c0.018,9.9,3.89,19.2,10.903,26.187c23.321,23.236,63.282,6.501,63.222-26.323
		c-0.037-20.194-16.319-36.995-37.13-36.995C152.113,192.279,135.517,208.936,135.555,229.372z M188.19,213.675
		c13.89,13.841,3.992,37.657-15.532,37.692c-12.371,0-22.081-9.988-22.103-22.022C150.519,209.812,174.303,199.841,188.19,213.675z"
		/>
	<path d="M339.554,266.063c9.9-0.018,19.2-3.89,26.188-10.903c23.196-23.282,6.583-63.222-26.323-63.222
		c-20.436,0.037-37.032,16.694-36.995,37.13C302.461,249.169,318.747,266.063,339.554,266.063z M339.487,206.938
		c19.645,0,29.387,23.826,15.629,37.635c-13.787,13.838-37.656,4.102-37.692-15.532
		C317.402,216.858,327.306,206.938,339.487,206.938z"/>
	<path d="M172.648,245.959c9.198-0.017,16.641-7.487,16.624-16.684s-7.487-16.64-16.684-16.623
		c-9.198,0.017-16.64,7.487-16.623,16.684C155.98,238.533,163.45,245.975,172.648,245.959z"/>
	<path d="M339.505,239.134c5.597-0.01,10.126-4.556,10.115-10.152c-0.01-5.597-4.555-10.126-10.153-10.116
		c-5.597,0.01-10.125,4.556-10.115,10.153C329.363,234.616,333.908,239.144,339.505,239.134z"/>
	<path d="M256.047,226.373c-38.242,0.069-66.724,30.262-52.011,51.947c11.642,17.156,29.292,9.698,43.129,7.109l4.361,24.469
		c4.391,24.641,36.46,31.492,50.661,11.134c4.29-6.15,5.927-13.602,4.612-20.984l-2.984-16.745
		c8.897-8.052,10.695-19.424,4.904-30.281C301.255,239.031,281.156,226.373,256.047,226.373z M236.813,272.314
		c-12.233,2.825-16.513,3.26-20.365-2.417c-6.041-8.904,11.467-28.524,39.734-28.524c27.871,0,45.737,19.296,39.622,28.379
		c-1.043,1.549-2.295,2.913-3.998,3.677c-7.352,3.341-23.006-5.178-39.119-3.836C246.983,269.98,241.628,271.203,236.813,272.314z
		 M281.456,317.841c-7.111,1.269-13.895-3.462-15.163-10.576l-3.981-22.34c9.073,1.281,18.423,4.806,27.307,4.219l2.412,13.535
		C293.299,309.791,288.569,316.573,281.456,317.841z"/>
	<path d="M444.417,180.655v-19.191c0-15.642-7.258-30.299-19.342-39.824c0.052-17.348-9.09-33.831-24.121-42.868
		c-7.141-4.294-12.507-11.018-15.129-18.99c-6.18-18.792-22.9-32.137-42.584-33.996c-0.166-0.047-12.1-0.352-21.914-10.541
		c-13.747-14.272-34.63-19.028-53.202-12.116c-7.82,2.91-16.433,2.91-24.253,0c-18.571-6.914-39.455-2.156-53.237,12.153
		c-9.76,10.133-21.967,10.53-21.867,10.502c-19.695,1.861-36.414,15.205-42.613,34.054c-2.603,7.915-7.969,14.639-15.122,18.94
		c-15.02,9.032-24.161,25.513-24.109,42.861c-12.082,9.522-19.342,24.181-19.342,39.825v19.191
		c-25.896,4.92-45.29,27.721-45.29,54.739c0,29.651,23.271,53.961,52.508,55.644c5.269,18.495,13.369,36.207,24.139,52.57
		c2.276,3.459,6.928,4.418,10.388,2.141c3.46-2.277,4.418-6.928,2.141-10.388c-16.771-25.48-26.591-54.624-28.529-84.981
		c-0.491-7.71-0.358-88.785-0.357-88.916c0-20.328,16.225-29.955,16.135-29.855c12.99-8.512,28.518-8.384,40.518-1.6
		c16.226,9.172,36.385,9.173,52.611,0c11.673-6.599,26.175-6.599,37.847,0c16.077,9.087,36.306,9.218,52.611,0
		c11.672-6.599,26.175-6.599,37.847,0c16.571,9.368,36.813,8.932,52.611,0c24.578-13.894,56.653,3.012,56.653,31.455
		c0.064,86.621,1.084,95.744-4.873,120.357c-20.754,85.931-103.538,142.752-191.231,130.925
		c-39.488-5.399-76.583-24.715-104.257-54.844c-2.802-3.051-7.546-3.252-10.597-0.45c-3.051,2.802-3.252,7.546-0.45,10.597
		c12.457,13.562,26.68,25.101,42.117,34.389c-27.019,26.348-44.707,62.781-44.707,102.061c0,4.142,3.358,7.5,7.5,7.5
		c40.594,0,231.545,0,266.16,0c4.142,0,7.5-3.358,7.5-7.5c0-21.156-5.007-41.994-15.163-61.886
		c-1.884-3.689-6.402-5.151-10.091-3.269c-3.689,1.884-5.152,6.402-3.269,10.091c1.279,2.504,2.473,5.038,3.575,7.586h-39.184
		c-4.142,0-7.5,3.358-7.5,7.5V497H187.052v-32.477c0-4.142-3.358-7.5-7.5-7.5h0h-39.186c10.561-24.418,26.769-40.786,33.563-46.943
		c10.248,5.062,20.953,9.143,31.925,12.235c3.19,24.997,24.727,44.483,50.477,44.483c25.722,0,47.232-19.434,50.464-44.387
		c10.906-3.034,21.484-7.059,31.638-12.007c3.361,3.065,8.748,8.377,14.556,15.685c2.577,3.243,7.294,3.784,10.538,1.206
		c3.243-2.577,3.783-7.295,1.206-10.538c-4.576-5.759-8.906-10.391-12.416-13.854c40.125-23.947,72.098-63.4,85.395-111.904
		c28.994-1.937,51.996-26.128,51.996-55.605C489.707,208.376,470.313,185.575,444.417,180.655z M37.293,235.394
		c0-18.761,12.786-34.749,30.29-39.382c0.017,37.256-1.292,54.974,3.508,79.535C51.921,272.241,37.293,255.494,37.293,235.394z
		 M274.924,116.951c-11.673,6.599-26.175,6.599-37.847,0c-16.226-9.173-36.385-9.173-52.611,0c-11.685,6.606-26.187,6.591-37.847,0
		c-13.447-7.602-29.48-8.834-43.627-4.023c2.232-8.751,7.829-16.517,15.784-21.301c10.222-6.146,17.903-15.771,21.649-27.158
		c4.318-13.128,15.997-22.45,29.73-23.747c0.328-0.092,17.359-0.573,31.322-15.069c9.603-9.971,24.193-13.292,37.166-8.465
		c11.194,4.167,23.524,4.167,34.717,0c12.974-4.829,27.563-1.506,37.202,8.502c13.945,14.478,31.36,15.058,31.26,15.03
		c13.758,1.299,25.439,10.622,29.775,23.807c3.727,11.33,11.408,20.954,21.641,27.108c7.947,4.778,13.542,12.542,15.773,21.293
		c-11.866-4.045-25.485-3.894-37.845,1.222c-6.842,2.832-17.921,11.42-35.727,6.134c-3.048-0.906-5.64-2.052-7.903-3.332
		C311.309,107.779,291.149,107.779,274.924,116.951z M339.948,472.023h37.062c2.342,8.176,3.792,16.536,4.331,24.977h-41.393
		V472.023z M172.052,472.023V497h-41.393c0.539-8.441,1.989-16.801,4.331-24.977H172.052z M256.331,451.798
		c-16.15,0-29.956-10.865-34.398-25.669c21.668,4.064,45.244,4.349,68.801-0.018C286.298,440.924,272.489,451.798,256.331,451.798z
		 M441.251,275.486c4.265-23.095,3.016-35.626,3.166-79.473c17.502,4.635,30.29,20.622,30.29,39.382
		C474.707,255.374,460.252,272.04,441.251,275.486z"/>
</g>
<g>
</g>
<g>
</g>
<g>
</g>
<g>
</g>
<g>
</g>
<g>
</g>
<g>
</g>
<g>
</g>
<g>
</g>
<g>
</g>
<g>
</g>
<g>
</g>
<g>
</g>
<g>
</g>
<g>
</g>
</svg>
