<?xml version="1.0" encoding="iso-8859-1"?>
<!-- Generator: Adobe Illustrator 23.0.3, SVG Export Plug-In . SVG Version: 6.00 Build 0)  -->
<svg version="1.1" id="Capa_1" xmlns="http://www.w3.org/2000/svg" xmlns:xlink="http://www.w3.org/1999/xlink" x="0px" y="0px"
	 viewBox="0 0 512 512" style="enable-background:new 0 0 512 512;" xml:space="preserve">
<g>
	<path d="M283.238,244.653c-3.123-2.721-7.86-2.396-10.582,0.727c-8.796,10.094-24.461,10.123-33.283,0
		c-2.721-3.124-7.459-3.448-10.581-0.727c-3.123,2.721-3.448,7.459-0.727,10.581c14.763,16.942,41.093,16.989,55.9,0
		C286.686,252.112,286.361,247.374,283.238,244.653z"/>
	<path d="M189.399,221.524l-32.588-8.732c-3.996-1.072-8.113,1.302-9.186,5.304c-1.072,4.001,1.303,8.113,5.304,9.186l12.867,3.447
		c-1.147,1.317-1.847,3.035-1.847,4.919v14.038c0,4.142,3.358,7.5,7.5,7.5c4.142,0,7.5-3.358,7.5-7.5
		c-0.049-14.664,0.11-14.173-0.14-15.469c6.25,1.603,6.992,2.055,8.655,2.055c3.311,0,6.342-2.21,7.24-5.561
		C195.774,226.708,193.4,222.596,189.399,221.524z"/>
	<path d="M355.219,212.792l-32.588,8.732c-4.001,1.072-6.375,5.185-5.304,9.186c0.898,3.351,3.928,5.561,7.24,5.561
		c1.65,0,2.168-0.391,8.655-2.055c-0.25,1.297-0.091,0.821-0.14,15.469c0,4.142,3.358,7.5,7.5,7.5s7.5-3.358,7.5-7.5v-14.038
		c0-1.884-0.7-3.601-1.847-4.919l12.867-3.447c4.001-1.072,6.375-5.185,5.304-9.186
		C363.332,214.094,359.218,211.723,355.219,212.792z"/>
	<path d="M490.672,176.717c-6.621,2.53-12.537,5.34-17.824,8.274c-8.29-34.277-24.767-66.307-48.222-93.483
		c2.125-13.619,6.849-60.252-22.359-87.017c-10.198-9.345-26.787-3.261-28.506,10.467c-1.102,8.799-3.873,19.932-10.72,26.218
		c-66.872-37.326-146.509-37.702-214.054,0c-6.846-6.286-9.618-17.418-10.72-26.217c-1.719-13.727-18.307-19.813-28.506-10.467
		C80.555,31.256,85.279,77.889,87.404,91.508c-23.411,27.126-39.915,59.142-48.222,93.483c-5.287-2.935-11.203-5.745-17.824-8.275
		c-7.037-2.69-14.84,1.456-16.537,8.799c-7.435,32.159-7.951,72.686,12.689,98.642c13.32,16.75,33.71,25.723,60.648,26.722
		c16.68,38.746,46.049,71.19,81.445,92.035c-7.68,6.491-18.859,17.458-28.58,32.898c-13.236,21.023-19.948,44.133-19.948,68.688
		c0,4.142,3.358,7.5,7.5,7.5c34.884,0,240.816,0,274.88,0c4.142,0,7.5-3.358,7.5-7.5c0-18.235-3.767-35.852-11.195-52.363
		c-1.7-3.778-6.14-5.462-9.917-3.763c-3.777,1.7-5.462,6.14-3.763,9.917c5.529,12.289,8.758,25.279,9.632,38.709h-45.185v-34.164
		c0-4.142-3.358-7.5-7.5-7.5s-7.5,3.358-7.5,7.5V497H186.502v-34.164c0-4.142-3.358-7.5-7.5-7.5s-7.5,3.358-7.5,7.5V497h-45.188
		c1.216-18.9,7.055-36.763,17.401-53.196c11.084-17.604,24.479-28.811,30.295-33.192c51.627,24.773,111.958,24.98,164.018-0.004
		c4.681,3.513,14.252,11.434,23.654,23.687c2.521,3.287,7.23,3.907,10.516,1.385c3.287-2.521,3.906-7.229,1.385-10.516
		c-7.631-9.945-15.387-17.36-21.163-22.245c35.345-20.813,64.747-53.235,81.452-92.039c51.103-1.895,76.918-32.831,77.972-82.376
		c0.389-18.278-2.737-34.779-4.635-42.989C505.513,178.174,497.714,174.026,490.672,176.717z M388.646,16.821
		c0.207-1.656,2.243-2.413,3.488-1.272c18.038,16.529,19.805,44.282,18.875,61.472C400.591,66.854,388.76,57.3,376.182,49.106
		C382.671,41.527,386.922,30.585,388.646,16.821z M119.896,15.55c1.265-1.159,3.283-0.373,3.488,1.272
		c1.724,13.763,5.975,24.705,12.463,32.284c-12.639,8.234-24.392,17.739-34.851,27.939C100.044,59.877,101.79,32.142,119.896,15.55z
		 M29.25,274.821c-19.976-25.121-13.86-66.804-10.462-82.992c21.339,8.725,36.705,21.979,44.412,33.596
		c-1.674,18.272,0.84,45.097,9.096,70.043C53.139,293.611,38.688,286.689,29.25,274.821z M434.31,235.978
		c0,95.271-78.529,175.658-173.529,178.226c-97.425,2.625-179.636-76.553-182.943-172.156c-1.025-29.396,11.11-65.789,25.653-89.182
		c3.178-5.111-0.685-11.685-6.647-11.455c-2.408,0.09-4.727,1.34-6.092,3.535c-11.449,18.419-19.227,39.582-24.2,60.869
		c-3.601-3.768-8.201-7.979-13.961-12.23c2.792-12.999,6.888-25.798,12.201-38.113c14.7-34.071,33.903-53.655,36.289-56.801
		c116.764-130.912,323.409-67.806,358.358,94.914c-5.76,4.251-10.36,8.463-13.961,12.23
		C417.017,83.428,317.911,61.886,256.014,117.881c-20.258-18.311-45.702-29.218-72.781-29.218l0,0
		c-2.31,0.482-38.85-2.812-73.185,31.695c-2.922,2.936-2.91,7.685,0.026,10.607c2.936,2.921,7.685,2.91,10.606-0.026
		c38.424-38.612,93.212-34.765,129.991,2.59c2.938,2.985,7.753,2.982,10.688,0c40.132-40.761,100.014-41.117,138.243,6.66
		c21.25,26.557,34.685,69.463,34.707,95.666 M482.78,274.821c-9.437,11.868-23.887,18.789-43.046,20.646
		c8.073-24.392,10.854-50.644,9.095-70.042c7.782-11.832,23.171-24.923,44.413-33.596
		C496.64,208.013,502.758,249.699,482.78,274.821z"/>
</g>
<g>
</g>
<g>
</g>
<g>
</g>
<g>
</g>
<g>
</g>
<g>
</g>
<g>
</g>
<g>
</g>
<g>
</g>
<g>
</g>
<g>
</g>
<g>
</g>
<g>
</g>
<g>
</g>
<g>
</g>
</svg>
