<?xml version="1.0" encoding="iso-8859-1"?>
<!-- Generator: Adobe Illustrator 23.0.3, SVG Export Plug-In . SVG Version: 6.00 Build 0)  -->
<svg version="1.1" id="Capa_1" xmlns="http://www.w3.org/2000/svg" xmlns:xlink="http://www.w3.org/1999/xlink" x="0px" y="0px"
	 viewBox="0 0 512 512" style="enable-background:new 0 0 512 512;" xml:space="preserve">
<g>
	<path d="M370.444,142.931c1.45-6.97,6.271-11.809,13.229-13.278c16.18-3.418,15.898-26.667,0.076-29.941
		c-6.983-1.444-11.831-6.267-13.302-13.234c-1.497-7.087-7.518-12.037-14.643-12.037h-0.663c-7.125,0-13.146,4.95-14.643,12.038
		c-1.47,6.965-6.318,11.789-13.302,13.234c-6.931,1.434-11.962,7.666-11.962,14.818v0.48c0,7.127,4.948,13.148,12.032,14.641
		c6.969,1.469,11.794,6.317,13.24,13.303c1.434,6.931,7.66,11.962,14.804,11.962h0.402
		C362.803,154.916,368.998,149.876,370.444,142.931z M355.713,139.916h-0.402c-0.065,0-0.102-0.013-0.114-0.013
		c-0.002,0-0.003,0-0.004,0.001c-4.521-21.819-24.761-24.857-24.958-24.978v-0.396c0-0.084,0.019-0.125,0.015-0.132
		c12.89-2.672,22.208-11.95,24.925-24.82c0.014-0.066,0.035-0.11,0.052-0.137h0.493c0.124,0.204,3.083,20.403,24.991,24.998
		l0.016,0.471C380.497,115.17,360.386,117.764,355.713,139.916z"/>
	<path d="M157.336,192.88v-15.285c0-4.142-3.358-7.5-7.5-7.5c-4.142,0-7.5,3.358-7.5,7.5v15.285c0,4.142,3.358,7.5,7.5,7.5
		C153.978,200.38,157.336,197.022,157.336,192.88z"/>
	<path d="M278.469,206.637c0-17.043-12.748-30.908-28.418-30.908s-28.418,13.865-28.418,30.908s12.748,30.908,28.418,30.908
		S278.469,223.68,278.469,206.637z M236.632,206.637c0-8.772,6.019-15.908,13.419-15.908s13.419,7.137,13.419,15.908
		c0,8.772-6.019,15.908-13.419,15.908S236.632,215.409,236.632,206.637z"/>
	<path d="M350.265,170.095c-4.142,0-7.5,3.358-7.5,7.5v15.285c0,4.142,3.358,7.5,7.5,7.5c4.142,0,7.5-3.358,7.5-7.5v-15.285
		C357.765,173.452,354.407,170.095,350.265,170.095z"/>
	<path d="M497.244,127.743c-11.008-2.276-18.651-9.881-20.969-20.863c-1.799-8.525-9.025-14.48-17.571-14.48h-0.929
		c-8.547,0-15.772,5.954-17.571,14.479c-0.333,1.578-0.788,3.077-1.335,4.509C376.808-0.805,230.987-34.425,126.304,39.032
		c-3.391,2.379-4.21,7.057-1.831,10.447c2.379,3.391,7.057,4.21,10.447,1.831c98.962-69.442,237.775-36.03,293.694,72.705
		c-2.857,1.816-6.184,3.067-9.38,3.728c-8.322,1.721-14.361,9.216-14.361,17.816v0.673c0,8.548,5.95,15.772,14.469,17.569
		c0.104,0.058,17.304,2.671,20.88,21c1.113,5.331,4.617,9.964,9.664,12.445c6.074,66.279-20.556,130.513-71.834,173.009H122.049
		c-20.104-16.681-37.081-37.523-49.33-60.557c3.128-9.429,10.512-15.575,19.928-17.56c8.525-1.8,14.479-9.079,14.479-17.701
		c0-0.101,0-0.773,0-0.672c0-8.64-6.194-15.997-14.36-17.686c-11.008-2.277-18.651-9.881-20.969-20.863
		c-1.963-9.294-10.282-15.695-20.855-14.31c-0.507,0.067-1.403,0.223-1.503,0.245c-1.565-55.829,20.176-111.128,62.948-151.468
		c3.013-2.842,3.152-7.589,0.31-10.602c-2.842-3.013-7.589-3.152-10.602-0.31c-48.153,45.416-73.204,110.311-66.702,177.792
		c-2.644,10.251-10.089,17.334-20.638,19.516c-8.321,1.722-14.36,9.214-14.36,17.816v0.672c0,8.549,5.951,15.773,14.47,17.569h0
		c10.987,2.316,18.595,9.959,20.873,20.97c2.673,12.927,17.764,18.135,28.109,11.465c12.614,21.578,28.726,40.599,48.024,56.709
		v48.146c-7.921,5.317-25.105,19.555-32.693,46.87C74.189,494.253,87.724,512,106.364,512h287.373
		c18.641,0,32.174-17.747,27.186-35.706c-7.588-27.316-24.772-41.553-32.693-46.87v-48.151
		c53.095-44.332,82.653-111.697,76.761-183.343c5.62-2.157,9.999-7.051,11.278-13.196c2.286-10.988,9.888-18.617,20.856-20.932
		c8.525-1.8,14.48-9.079,14.48-17.701v-0.671C511.604,136.902,505.565,129.465,497.244,127.743z M54.097,312.466h-0.563
		c-1.537,0-2.814-0.986-3.106-2.4c-5.93-28.661-32.353-32.546-32.469-32.609c-1.509-0.318-2.563-1.507-2.563-2.891
		c0.028-0.1-0.371-3.227,2.399-3.799c15.823-3.273,28.339-14.297,32.478-31.917c0.187-0.717,0.286-1.602,1.177-2.395
		c0.554-0.494,1.258-0.72,1.847-0.72c0.469,0.082,2.041-0.38,3.213,1.215c0.568,0.772,0.544,1.195,1.116,3.408
		c4.083,15.761,15.933,27.065,32.102,30.41c1.341,0.277,2.398,1.508,2.398,2.997c-0.059,0.145,0.502,3.046-2.578,3.696
		c-16.767,3.539-28.948,15.766-32.442,32.553C56.81,311.434,55.545,312.466,54.097,312.466z M406.47,480.308
		c2.329,8.381-4.003,16.692-12.733,16.692H106.364c-8.732,0-15.061-8.313-12.733-16.692c6.862-24.701,22.869-36.184,27.73-39.182
		h185.149c4.142,0,7.5-3.358,7.5-7.5c0-4.142-3.358-7.5-7.5-7.5h-179.64v-40.873H373.23v40.873h-36.72c-4.142,0-7.5,3.358-7.5,7.5
		c0,4.142,3.358,7.5,7.5,7.5h42.226C383.642,444.154,399.617,455.639,406.47,480.308z M496.604,146.1
		c0,1.831-1.389,2.774-2.579,3.025c-16.811,3.549-28.939,15.718-32.442,32.553c-0.712,3.418-6.029,3.191-6.679,0.054
		c-3.494-16.897-15.656-29.066-32.468-32.61c-1.418-0.298-2.564-1.432-2.564-2.892c0.028-0.1-0.371-3.226,2.399-3.799
		c16.427-3.397,28.965-15.204,32.607-32.454c0.32-1.518,1.511-2.578,2.895-2.578h0.929c1.384,0,2.575,1.06,2.895,2.578
		c3.554,16.834,15.744,28.966,32.607,32.454c1.39,0.288,2.399,1.548,2.399,2.997V146.1z"/>
</g>
<g>
</g>
<g>
</g>
<g>
</g>
<g>
</g>
<g>
</g>
<g>
</g>
<g>
</g>
<g>
</g>
<g>
</g>
<g>
</g>
<g>
</g>
<g>
</g>
<g>
</g>
<g>
</g>
<g>
</g>
</svg>
